<svg width="15" height="15" viewBox="0 0 15 15" fill="none" xmlns="http://www.w3.org/2000/svg">
<path d="M8.99839 14.1192H5.093C1.55896 14.1192 0.0488281 12.6091 0.0488281 9.07505V5.16966C0.0488281 1.63359 1.55733 0.125488 5.093 0.125488H8.99839C12.5324 0.125488 14.0426 1.63561 14.0426 5.16966V9.07505C14.0426 12.6091 12.5324 14.1192 8.99839 14.1192ZM5.093 1.10194C2.09263 1.10194 1.02528 2.16929 1.02528 5.16966V9.07505C1.02528 12.0754 2.09263 13.1428 5.093 13.1428H8.99839C11.9988 13.1428 13.0665 12.0754 13.0665 9.07505V5.16966C13.0665 2.16929 11.9992 1.10153 8.99839 1.10153L5.093 1.10194Z" fill="#F2F2F8"/>
<path d="M7.04616 9.888C6.40461 9.88932 5.78247 9.66807 5.28582 9.26196C4.78917 8.85586 4.44877 8.29006 4.32265 7.66103C4.19653 7.032 4.29251 6.37871 4.59422 5.81253C4.89593 5.24636 5.38469 4.80238 5.97716 4.55628C6.56963 4.31019 7.22912 4.27723 7.84317 4.46302C8.45723 4.64881 8.98782 5.04185 9.34449 5.57512C9.70115 6.10838 9.86179 6.74886 9.79902 7.38732C9.73625 8.02579 9.45396 8.62272 9.00027 9.07632C8.48224 9.5952 7.77937 9.88715 7.04616 9.888ZM7.04616 5.33205C6.60219 5.33231 6.17418 5.49769 5.84538 5.79603C5.51659 6.09437 5.3105 6.50433 5.26722 6.94619C5.22393 7.38805 5.34653 7.83021 5.61117 8.18669C5.87581 8.54317 6.26358 8.78847 6.69906 8.8749C7.13455 8.96132 7.5866 8.88269 7.96732 8.65429C8.34804 8.42589 8.6302 8.06406 8.75893 7.63916C8.88766 7.21425 8.85375 6.75666 8.6638 6.35537C8.47385 5.95409 8.14144 5.63779 7.73122 5.468C7.51401 5.37814 7.28122 5.33194 7.04616 5.33205Z" fill="#F2F2F8"/>
<path d="M10.2997 4.19159C10.2147 4.19062 10.1308 4.17298 10.0527 4.13967C9.97389 4.10664 9.90133 4.06041 9.8381 4.00299C9.77873 3.93997 9.73033 3.86745 9.69493 3.78843C9.63424 3.62949 9.63424 3.45377 9.69493 3.29483C9.7311 3.21624 9.77941 3.14384 9.8381 3.08027C9.86907 3.05235 9.90171 3.02635 9.93585 3.0024C9.97215 2.9778 10.0116 2.95816 10.0531 2.94399C10.0911 2.92386 10.1322 2.91016 10.1747 2.90343C10.2792 2.88287 10.3871 2.88811 10.4891 2.91872C10.5911 2.94932 10.6841 3.00436 10.76 3.07905C10.8188 3.1412 10.8652 3.21403 10.8967 3.29361C10.931 3.37137 10.9487 3.45543 10.9487 3.54041C10.9487 3.6254 10.931 3.70946 10.8967 3.78722C10.8637 3.86598 10.8174 3.93854 10.76 4.00177C10.6968 4.0592 10.6242 4.10542 10.5455 4.13846C10.4678 4.17202 10.3843 4.19007 10.2997 4.19159Z" fill="#F2F2F8"/>
</svg>
