<svg width="14" height="13" viewBox="0 0 14 13" fill="none" xmlns="http://www.w3.org/2000/svg">
<path d="M10.4332 12.7698C9.72812 12.7558 9.03296 12.6006 8.3888 12.3135C7.62362 11.982 6.89828 11.5655 6.22615 11.0718C5.99438 10.8977 5.76335 10.7244 5.53969 10.5413L4.48011 9.59625C4.44204 9.57246 4.40643 9.54472 4.3742 9.51347C4.30579 9.44461 4.23518 9.38295 4.16633 9.31455C3.53191 8.67641 2.94687 7.99115 2.4159 7.26467C1.92862 6.5995 1.51519 5.8832 1.18317 5.12844C0.904492 4.48015 0.75367 3.78406 0.739299 3.07856C0.737222 2.66475 0.813572 2.2543 0.96431 1.86891C1.12574 1.47122 1.37299 1.11401 1.68813 0.822627C1.85507 0.642614 2.05601 0.497718 2.27966 0.396446C2.50376 0.29587 2.74562 0.240809 2.99117 0.234445C3.1672 0.232504 3.34127 0.270994 3.50008 0.346951C3.67011 0.423143 3.8163 0.544337 3.92242 0.697487L5.37532 2.74555C5.47666 2.88067 5.561 3.02791 5.62582 3.18387C5.68106 3.30457 5.71175 3.43508 5.71592 3.56775C5.71251 3.72487 5.66639 3.87814 5.58319 4.01146C5.48618 4.17389 5.36879 4.32303 5.23337 4.45516L4.75742 4.95023C4.72388 4.98295 4.69696 5.0217 4.67788 5.0645C4.66147 5.10835 4.65378 5.15497 4.65502 5.20178C4.65354 5.25007 4.66007 5.29829 4.67436 5.34444C4.69236 5.39709 4.71367 5.43444 4.72402 5.47134C4.89321 5.75642 5.08826 6.02534 5.30676 6.27465C5.59028 6.59866 5.89155 6.93166 6.21692 7.26467C6.26462 7.31283 6.31598 7.36053 6.36458 7.40778L7.585 8.48153C7.72393 8.58475 7.8695 8.67858 8.02096 8.76235C8.05786 8.7763 8.09376 8.79566 8.13786 8.81366C8.18804 8.8317 8.24102 8.84012 8.29432 8.83843C8.34223 8.84032 8.38975 8.8312 8.43363 8.81185C8.47855 8.79495 8.51923 8.76782 8.55185 8.73263L9.02912 8.26239C9.16144 8.12395 9.313 8.00524 9.47914 7.90999C9.61292 7.82509 9.76808 7.77988 9.92653 7.77952C10.0587 7.78091 10.1896 7.80841 10.3111 7.86049C10.465 7.92604 10.6113 8.00816 10.7475 8.10533L12.8275 9.5778C12.9772 9.67686 13.0961 9.81592 13.1707 9.9792C13.2366 10.1334 13.2707 10.2993 13.2714 10.467C13.2719 10.6494 13.239 10.8303 13.1742 11.0008C13.1597 11.053 13.1391 11.1033 13.1127 11.1506C13.0033 11.3839 12.8602 11.6 12.6882 11.7919C12.4049 12.1117 12.0539 12.3639 11.6603 12.5299C11.6531 12.5299 11.6459 12.5354 11.6387 12.5354C11.261 12.689 10.8573 12.7679 10.4495 12.768L10.4332 12.7698Z" fill="#4D4F60"/>
</svg>
