<svg width="14" height="12" viewBox="0 0 14 12" fill="none" xmlns="http://www.w3.org/2000/svg">
<path d="M10.1286 11.488H4.29319C2.16129 11.488 0.938477 10.2651 0.938477 8.13207V4.04803C0.938477 1.91613 2.16129 0.693848 4.29319 0.693848H10.1286C12.2615 0.693848 13.4843 1.91649 13.4843 4.04803V8.13207C13.4861 10.2651 12.2619 11.488 10.1286 11.488ZM3.48511 3.24243C3.41944 3.24214 3.35458 3.25669 3.29532 3.285C3.23607 3.3133 3.18383 3.35452 3.14279 3.40578C3.10637 3.45066 3.07901 3.50237 3.06262 3.55779C3.04622 3.61321 3.04122 3.6713 3.04737 3.72877C3.05325 3.78626 3.07047 3.84207 3.09809 3.89283C3.12572 3.94359 3.16298 3.98828 3.20806 4.02444C5.85976 6.17195 5.88319 6.18103 5.92496 6.19664C6.30089 6.4615 6.75068 6.60133 7.21052 6.59625C7.66682 6.60256 8.11327 6.46381 8.48578 6.20019C8.53264 6.18421 8.55833 6.17557 11.2144 4.02515C11.3041 3.95132 11.3613 3.84507 11.3733 3.72948C11.3853 3.61389 11.3513 3.4982 11.2786 3.40756C11.2375 3.3564 11.1852 3.31512 11.1261 3.28677C11.0669 3.25841 11.0022 3.24382 10.9366 3.24385C10.8359 3.24401 10.7383 3.27863 10.6599 3.34193L8.02747 5.45454C7.79233 5.63325 7.50366 5.72706 7.20839 5.72077C6.91279 5.72697 6.62348 5.63318 6.38789 5.45454L3.7618 3.34193C3.6836 3.27834 3.58589 3.24379 3.48511 3.2442V3.24243Z" fill="#F2F2F8"/>
</svg>
