<svg width="16" height="15" viewBox="0 0 16 15" fill="none" xmlns="http://www.w3.org/2000/svg">
<path d="M11.6134 14.1865H4.38442C1.74337 14.1865 0.228516 12.6714 0.228516 10.029V4.96958C0.228516 2.32853 1.74337 0.814331 4.38442 0.814331H11.6134C14.2558 0.814331 15.7707 2.32898 15.7707 4.96958V10.029C15.7729 12.6714 14.2563 14.1865 11.6134 14.1865ZM3.38335 3.97158C3.302 3.97123 3.22164 3.98925 3.14824 4.02432C3.07484 4.05938 3.01012 4.11045 2.95928 4.17395C2.91416 4.22954 2.88027 4.2936 2.85996 4.36226C2.83965 4.43091 2.83345 4.50288 2.84106 4.57407C2.84835 4.6453 2.86968 4.71443 2.90391 4.77732C2.93813 4.8402 2.98428 4.89556 3.04014 4.94036C6.32514 7.60076 6.35416 7.612 6.40591 7.63135C6.87162 7.95946 7.42883 8.13269 7.99849 8.12639C8.56377 8.1342 9.11685 7.96232 9.57832 7.63574C9.63637 7.61594 9.66819 7.60524 12.9586 4.94124C13.0698 4.84978 13.1406 4.71815 13.1555 4.57495C13.1703 4.43175 13.1282 4.28844 13.0381 4.17615C12.9873 4.11277 12.9225 4.06164 12.8492 4.02651C12.7759 3.99139 12.6958 3.9733 12.6145 3.97334C12.4897 3.97355 12.3688 4.01643 12.2717 4.09485L9.01055 6.71201C8.71925 6.9334 8.36164 7.04962 7.99585 7.04182C7.62966 7.0495 7.27126 6.93331 6.97939 6.71201L3.72612 4.09485C3.62925 4.01607 3.50821 3.97327 3.38335 3.97378V3.97158Z" fill="#4D4F60"/>
</svg>
