<svg width="17" height="17" viewBox="0 0 17 17" fill="none" xmlns="http://www.w3.org/2000/svg">
<path d="M6.62396 11.2754C6.2277 11.2754 5.83371 11.2165 5.45479 11.1005C5.07594 10.9843 4.71661 10.8121 4.38867 10.5896C4.52319 10.6077 4.65877 10.617 4.79451 10.6172C4.81846 10.6172 4.84117 10.6172 4.86268 10.6172C4.88419 10.6172 4.91674 10.6172 4.94393 10.6172C5.24806 10.6173 5.54914 10.5584 5.83091 10.4439C6.13889 10.3203 6.4167 10.1321 6.64576 9.89195C6.48822 9.89104 6.33201 9.86477 6.18285 9.81407C6.03406 9.76318 5.89452 9.68883 5.76908 9.59401C5.64367 9.49998 5.53375 9.38659 5.44409 9.25802C5.35479 9.12881 5.28632 8.98637 5.24117 8.83593C5.33798 8.85362 5.43644 8.86265 5.53485 8.86278H5.57528C5.67768 8.86258 5.77914 8.84168 5.87331 8.80145C5.76524 8.77587 5.65992 8.73914 5.55942 8.69187C5.45839 8.64498 5.36247 8.58777 5.27327 8.52105C5.18863 8.45898 5.11133 8.38772 5.04222 8.30872C4.97278 8.22909 4.9121 8.14216 4.86149 8.04942C4.7977 7.92651 4.74912 7.79618 4.71723 7.66142C4.68481 7.52645 4.67019 7.38791 4.67323 7.24914C4.83337 7.36217 5.02144 7.42903 5.217 7.44235H5.21937C5.24251 7.44235 5.26677 7.43867 5.29071 7.43502C5.19551 7.35023 5.10857 7.25676 5.03072 7.1558C4.95282 7.05471 4.88415 6.9469 4.82542 6.83359C4.77133 6.73176 4.72817 6.62438 4.69701 6.51336C4.66633 6.40215 4.64756 6.28797 4.64074 6.17281C4.63599 6.03009 4.65102 5.88742 4.68512 5.74874C4.71967 5.61021 4.77318 5.47712 4.84445 5.35341C5.11652 5.65298 5.42127 5.92136 5.75283 6.15339C6.38487 6.63696 7.15301 6.90952 7.94848 6.93257H7.98415H7.98732C8.02791 6.93257 8.06571 6.9305 8.10305 6.92603C8.06843 6.79968 8.04972 6.66952 8.04796 6.53852C8.04507 6.4367 8.05282 6.33485 8.07055 6.23454C8.08844 6.13522 8.11569 6.03778 8.1518 5.94354C8.18797 5.84947 8.2327 5.75908 8.28615 5.67364C8.34078 5.5879 8.40352 5.50734 8.47282 5.43297C8.54336 5.35928 8.62056 5.29256 8.70388 5.23371C8.78634 5.17528 8.87462 5.12528 8.96704 5.0844C9.05829 5.04302 9.15354 5.0109 9.25121 4.98859C9.35037 4.96601 9.45116 4.95323 9.55282 4.95044H9.58135C9.67876 4.95057 9.77587 4.96011 9.87146 4.97888C9.96693 4.99688 10.0606 5.02404 10.1509 5.06002C10.2456 5.09791 10.3362 5.14556 10.4212 5.20211C10.5067 5.25876 10.5863 5.32365 10.659 5.39601H10.6827C11.0505 5.3869 11.4058 5.26121 11.6973 5.03694C11.6968 5.06432 11.6934 5.09154 11.6866 5.11809C11.6712 5.18049 11.6471 5.24053 11.6157 5.29663C11.5649 5.39161 11.5038 5.48054 11.433 5.56168C11.3255 5.68512 11.2072 5.79864 11.0795 5.90093C11.3786 5.87699 11.6693 5.79113 11.9336 5.64887C11.8329 5.82276 11.7167 5.987 11.586 6.13952C11.4554 6.29151 11.3106 6.43096 11.154 6.55596C11.1676 6.88715 11.1483 7.21885 11.0961 7.54619C11.0438 7.87329 10.9583 8.19425 10.8409 8.50401C10.7332 8.79489 10.5933 9.07285 10.4239 9.33273C10.2536 9.59196 10.055 9.83152 9.83183 10.047C9.5335 10.3235 9.20033 10.56 8.84101 10.7507C8.48275 10.941 8.10155 11.0845 7.70672 11.1776C7.40818 11.2379 7.10486 11.2698 6.80032 11.273C6.74391 11.2743 6.68402 11.2754 6.62396 11.2754ZM7.67938 9.13258C7.65421 9.19671 7.62921 9.25843 7.60526 9.32134C7.56184 9.43578 7.52051 9.54335 7.46734 9.65861C7.40582 9.79098 7.33445 9.9186 7.25412 10.0405C7.17238 10.1733 7.08183 10.3005 6.98303 10.4211C6.90976 10.5028 6.82159 10.5697 6.72304 10.618C6.73319 10.618 6.74377 10.618 6.75554 10.618C6.87864 10.6098 7.00098 10.5912 7.12095 10.5624C7.19076 10.5478 7.25625 10.5344 7.30049 10.5287C7.53144 10.4998 7.75831 10.4443 7.97662 10.3636C7.99326 10.3575 8.01748 10.3473 8.04994 10.3331C8.22182 10.2669 8.38976 10.1918 8.55367 10.1078C8.73681 10.0146 8.91444 9.91053 9.08515 9.79614C9.26228 9.68482 9.42412 9.55116 9.56708 9.39842C9.91243 9.02143 10.1697 8.57225 10.3197 8.08351C10.4684 7.63855 10.5152 7.16591 10.4568 6.70042V6.69349C10.4568 6.68253 10.4568 6.6253 10.4568 6.60055V6.59163L10.5028 6.48244L10.4144 6.33114L10.393 6.07789H10.2908C10.1639 5.92883 10.007 5.80831 9.83024 5.72437L9.80765 5.71347C9.79875 5.70843 9.78978 5.70387 9.78031 5.69999C9.68175 5.66442 9.57751 5.64758 9.47276 5.65016C9.43494 5.65004 9.39702 5.6519 9.35941 5.6558C9.24893 5.65675 9.14153 5.69193 9.05186 5.75647C8.99107 5.79371 8.93934 5.84405 8.90046 5.9038C8.84662 5.97316 8.80206 6.04924 8.76809 6.13021C8.70056 6.29404 8.66386 6.46888 8.65949 6.64603C8.65205 6.78483 8.67586 6.92353 8.72925 7.05187C8.73736 7.07906 8.74567 7.10542 8.75501 7.13301C8.75476 7.18809 8.74316 7.24254 8.72092 7.29293C8.68395 7.35091 8.63764 7.40234 8.5838 7.44512L8.57904 7.44998L8.57587 7.45245C8.56938 7.45245 8.56647 7.45772 8.5616 7.46543L8.55922 7.46791C8.51344 7.50436 8.4593 7.52925 8.40188 7.54054C8.28731 7.5727 8.16933 7.58963 8.05034 7.59087C7.67912 7.57988 7.31053 7.52444 6.95251 7.4257C6.40579 7.23022 5.89037 6.95578 5.42309 6.61115C5.59009 7.02863 5.9146 7.36386 6.32632 7.5446L6.34217 7.55431C6.34519 7.55591 6.34785 7.55778 6.35049 7.55996L6.35445 7.56243L6.36952 7.57214C6.29809 7.60989 6.26172 7.63341 6.22763 7.65329C6.16466 7.69402 6.0986 7.73002 6.03026 7.7609L5.92048 7.8145C5.81988 7.87031 5.71175 7.91123 5.59945 7.93617C5.86131 8.22526 6.21848 8.41023 6.60573 8.45695C6.73397 8.47683 7.15465 8.54207 7.18793 8.54979L6.61405 8.9151C6.5957 8.92908 6.57577 8.94113 6.555 8.95117C6.49688 8.98168 6.4414 9.01712 6.38933 9.05708C6.35795 9.07011 6.33045 9.09052 6.30848 9.11643C6.3357 9.15217 6.37172 9.18013 6.41311 9.19758C6.54716 9.25595 6.69271 9.28282 6.83877 9.27625H6.8673C7.14616 9.25732 7.42143 9.2042 7.6873 9.11802L7.67938 9.13258Z" fill="#F2F2F8"/>
<path d="M10.1035 15.0782H6.21839C2.70261 15.0782 1.2002 13.5766 1.2002 10.0588V6.17368C1.2002 2.65749 2.7018 1.1543 6.21839 1.1543H10.1035C13.6193 1.1543 15.1217 2.65587 15.1217 6.17368V10.0588C15.1221 13.575 13.6197 15.0782 10.1035 15.0782ZM6.21839 2.1254C3.23344 2.1254 2.17137 3.18995 2.17137 6.17368V10.0588C2.17137 13.0425 3.23344 14.1071 6.21839 14.1071H10.1035C13.0884 14.1071 14.1505 13.0425 14.1505 10.0588V6.17368C14.1505 3.18995 13.0884 2.1254 10.1035 2.1254H6.21839Z" fill="#F2F2F8"/>
</svg>
