<svg width="24" height="24" viewBox="0 0 24 24" fill="none" xmlns="http://www.w3.org/2000/svg">
<path d="M6.99771 22.2245C6.20494 22.2157 5.41961 22.0704 4.6762 21.7948C4.13245 21.5945 3.64041 21.2751 3.23612 20.86C2.81977 20.4565 2.49981 19.9642 2.30008 19.4199C2.02477 18.6765 1.87964 17.8912 1.87106 17.0984C1.81105 15.7783 1.79785 15.3853 1.79785 12.0462C1.79785 8.70699 1.81105 8.31277 1.87046 6.99451C1.88035 6.20282 2.02565 5.41866 2.30008 4.67599C2.50103 4.13243 2.82059 3.64049 3.23552 3.23592C3.6392 2.81991 4.13141 2.50018 4.6756 2.30047C5.41912 2.02558 6.20444 1.88085 6.99711 1.87265C8.31718 1.81265 8.7114 1.80005 12.0488 1.80005C15.3861 1.80005 15.7815 1.81325 17.1004 1.87265C17.8929 1.88227 18.6779 2.02758 19.4213 2.30227C19.9653 2.50211 20.4574 2.82159 20.8614 3.23712C21.2771 3.64108 21.5968 4.1332 21.7969 4.67719C22.0726 5.42057 22.2181 6.2059 22.2271 6.99871C22.2871 8.31877 22.2997 8.71239 22.2997 12.0504C22.2997 15.3883 22.2877 15.7831 22.2271 17.102C22.2175 17.8948 22.072 18.68 21.7969 19.4235C21.5888 19.9627 21.2701 20.4524 20.8614 20.861C20.4527 21.2696 19.963 21.5881 19.4237 21.796C18.6804 22.0718 17.895 22.2173 17.1022 22.2263C15.7821 22.2863 15.3885 22.2989 12.0506 22.2989C8.7126 22.2989 8.31718 22.2875 7.00011 22.2263" fill="url(#paint0_linear_455_102)"/>
<path d="M6.99771 22.2245C6.20494 22.2157 5.41961 22.0704 4.6762 21.7948C4.13245 21.5945 3.64041 21.2751 3.23612 20.86C2.81977 20.4565 2.49981 19.9642 2.30008 19.4199C2.02477 18.6765 1.87964 17.8912 1.87106 17.0984C1.81105 15.7783 1.79785 15.3853 1.79785 12.0462C1.79785 8.70699 1.81105 8.31277 1.87046 6.99451C1.88035 6.20282 2.02565 5.41866 2.30008 4.67599C2.50103 4.13243 2.82059 3.64049 3.23552 3.23592C3.6392 2.81991 4.13141 2.50018 4.6756 2.30047C5.41912 2.02558 6.20444 1.88085 6.99711 1.87265C8.31718 1.81265 8.7114 1.80005 12.0488 1.80005C15.3861 1.80005 15.7815 1.81325 17.1004 1.87265C17.8929 1.88227 18.6779 2.02758 19.4213 2.30227C19.9653 2.50211 20.4574 2.82159 20.8614 3.23712C21.2771 3.64108 21.5968 4.1332 21.7969 4.67719C22.0726 5.42057 22.2181 6.2059 22.2271 6.99871C22.2871 8.31877 22.2997 8.71239 22.2997 12.0504C22.2997 15.3883 22.2877 15.7831 22.2271 17.102C22.2175 17.8948 22.072 18.68 21.7969 19.4235C21.5888 19.9627 21.2701 20.4524 20.8614 20.861C20.4527 21.2696 19.963 21.5881 19.4237 21.796C18.6804 22.0718 17.895 22.2173 17.1022 22.2263C15.7821 22.2863 15.3885 22.2989 12.0506 22.2989C8.7126 22.2989 8.31718 22.2875 7.00011 22.2263" fill="url(#paint1_radial_455_102)"/>
<path d="M9.53171 12.0917C9.53169 11.5045 9.73528 10.9354 10.1078 10.4815C10.4803 10.0276 10.9987 9.71684 11.5746 9.60227C12.1505 9.48769 12.7484 9.57636 13.2662 9.85315C13.7841 10.1299 14.19 10.5777 14.4147 11.1203C14.6395 11.6628 14.6691 12.2664 14.4987 12.8283C14.3282 13.3903 13.9682 13.8757 13.48 14.202C12.9918 14.5282 12.4055 14.6751 11.8211 14.6175C11.2367 14.56 10.6904 14.3016 10.2751 13.8864C9.79915 13.4104 9.53173 12.7648 9.53171 12.0917ZM8.15944 12.0917C8.15807 13.0622 8.51774 13.9986 9.16849 14.7187C9.81925 15.4388 10.7146 15.8911 11.6803 15.9876C12.6461 16.0842 13.6132 15.8181 14.3936 15.241C15.1741 14.664 15.712 13.8174 15.9027 12.8658C16.0935 11.9141 15.9235 10.9256 15.4259 10.0923C14.9282 9.25907 14.1383 8.64073 13.21 8.35754C12.2817 8.07436 11.2812 8.14658 10.4032 8.56017C9.52513 8.97375 8.83231 9.69912 8.45946 10.5952C8.26211 11.0695 8.16017 11.578 8.15944 12.0917ZM15.2206 8.02648C15.2202 8.23824 15.2933 8.44357 15.4274 8.60747C15.5615 8.77137 15.7482 8.8837 15.9559 8.9253C16.1635 8.9669 16.3791 8.93521 16.566 8.83561C16.7529 8.73602 16.8994 8.57469 16.9807 8.37914C17.0619 8.18358 17.0728 7.96591 17.0115 7.76322C16.9502 7.56052 16.8205 7.38537 16.6445 7.2676C16.4685 7.14984 16.2571 7.09675 16.0464 7.11741C15.8357 7.13806 15.6386 7.23116 15.4888 7.38085C15.3174 7.552 15.2209 7.78423 15.2206 8.02648ZM8.99348 18.293C8.51058 18.2878 8.03217 18.1995 7.57921 18.032C7.25073 17.9055 6.95239 17.7115 6.70343 17.4627C6.45447 17.2138 6.2604 16.9155 6.13374 16.5871C5.96615 16.1342 5.87786 15.6558 5.87273 15.1728C5.83552 14.37 5.82832 14.1294 5.82832 12.0959C5.82832 10.0624 5.83612 9.82177 5.87273 9.01833C5.87849 8.53548 5.96676 8.05716 6.13374 7.60406C6.26005 7.27507 6.45396 6.97624 6.70294 6.72684C6.95192 6.47745 7.25043 6.28305 7.57921 6.15619C8.03215 5.98862 8.51057 5.90032 8.99348 5.89518C9.79632 5.85797 10.0369 5.85077 12.0698 5.85077C14.1027 5.85077 14.3439 5.85857 15.1474 5.89518C15.6302 5.90094 16.1086 5.98921 16.5617 6.15619C16.8902 6.28278 17.1886 6.47682 17.4375 6.72578C17.6865 6.97475 17.8805 7.27312 18.0071 7.60166C18.1747 8.0546 18.263 8.53302 18.2681 9.01593C18.3053 9.81997 18.3125 10.0594 18.3125 12.0935C18.3125 14.1276 18.3053 14.3676 18.2681 15.171C18.2626 15.6539 18.1743 16.1323 18.0071 16.5853C17.8805 16.9135 17.6866 17.2116 17.4379 17.4603C17.1891 17.7091 16.8911 17.903 16.5629 18.0296C16.1099 18.1972 15.6315 18.2855 15.1486 18.2906C14.3457 18.3278 14.1045 18.335 12.071 18.335C10.0375 18.335 9.79692 18.3278 8.99468 18.2906L8.99348 18.293ZM8.93048 4.52351C8.29886 4.53612 7.67396 4.65582 7.08239 4.87753C6.57639 5.07299 6.11683 5.37203 5.73317 5.75549C5.3495 6.13895 5.05021 6.59835 4.85447 7.10424C4.63329 7.6963 4.51419 8.32161 4.50226 8.95353C4.46446 9.76537 4.45605 10.0252 4.45605 12.0929C4.45605 14.1606 4.46446 14.4204 4.50226 15.2322C4.51462 15.864 4.63412 16.4891 4.85567 17.0809C5.05124 17.5868 5.35033 18.0462 5.73378 18.4298C6.11722 18.8133 6.57657 19.1125 7.08239 19.3082C7.6742 19.5297 8.2993 19.6492 8.93108 19.6617C9.74352 19.6989 10.0027 19.7079 12.0704 19.7079C14.1381 19.7079 14.398 19.6995 15.2098 19.6617C15.8416 19.6493 16.4667 19.5298 17.0585 19.3082C17.5644 19.1126 18.0239 18.8134 18.4074 18.4299C18.791 18.0463 19.0902 17.5869 19.2858 17.0809C19.5077 16.4892 19.6272 15.8641 19.6392 15.2322C19.6764 14.4198 19.6848 14.1606 19.6848 12.0929C19.6848 10.0252 19.6764 9.76537 19.6392 8.95353C19.6269 8.32173 19.5074 7.69661 19.2858 7.10484C19.0902 6.59899 18.7911 6.13958 18.4077 5.75603C18.0242 5.37248 17.5649 5.07326 17.0591 4.87753C16.4673 4.65582 15.8422 4.53631 15.2104 4.52411C14.3986 4.48691 14.1387 4.47791 12.0716 4.47791C10.0045 4.47791 9.74412 4.48631 8.93168 4.52411" fill="white"/>
<defs>
<linearGradient id="paint0_linear_455_102" x1="3.27398" y1="2.86599" x2="20.5954" y2="20.8255" gradientUnits="userSpaceOnUse">
<stop stop-color="#9939A0"/>
<stop offset="0.505208" stop-color="#D53B77"/>
<stop offset="1" stop-color="#DD3B71"/>
</linearGradient>
<radialGradient id="paint1_radial_455_102" cx="0" cy="0" r="1" gradientUnits="userSpaceOnUse" gradientTransform="translate(-28.1834 33.1864) rotate(46.1344) scale(10.1694 24.2334)">
<stop stop-color="#FA8F21"/>
<stop offset="1" stop-color="#FA8F21" stop-opacity="0"/>
</radialGradient>
</defs>
</svg>
