<svg width="14" height="22" viewBox="0 0 14 22" fill="none" xmlns="http://www.w3.org/2000/svg">
<path d="M2.12181 15.8166H2.10845H2.10788C1.9799 15.8146 1.85266 15.7968 1.72907 15.7636C1.59982 15.7289 1.47448 15.681 1.355 15.6208C1.10239 15.4918 0.87334 15.3212 0.677466 15.1162C0.576745 15.0116 0.484692 14.8991 0.402218 14.7796C0.320063 14.6608 0.248437 14.5351 0.188155 14.4038C0.067153 14.1475 0.00297099 13.8681 0 13.5848L0.0271752 4.47031C0.0271752 4.32343 0.0121577 4.17795 0.0361836 3.16545C0.0354999 2.81248 0.106104 2.463 0.243769 2.13794C0.376361 1.82433 0.568601 1.53942 0.809824 1.29901C1.05038 1.05793 1.33547 0.865794 1.64928 0.733274C1.97454 0.595631 2.32426 0.525009 2.67748 0.525639H10.1675C10.451 0.528606 10.7306 0.592747 10.9871 0.713675C11.1184 0.773916 11.2442 0.845497 11.3631 0.927602C11.4826 1.01001 11.5953 1.10199 11.6999 1.20264C11.905 1.39841 12.0756 1.62734 12.2046 1.87979C12.2649 1.99919 12.3128 2.12445 12.3475 2.25362C12.3808 2.37713 12.3986 2.50429 12.4006 2.63219C12.405 3.05292 12.2092 3.48475 11.8494 3.84813C11.6283 4.0696 11.368 4.24813 11.0817 4.37463C10.9375 4.43857 10.7874 4.48823 10.6335 4.52289C10.4806 4.55748 10.3243 4.57517 10.1675 4.57565H4.05245V13.5847C4.05069 13.8652 3.99598 14.1428 3.89122 14.4031C3.83967 14.5337 3.77735 14.6598 3.70491 14.7801C3.63325 14.8992 3.55189 15.0123 3.46165 15.1181C3.37345 15.2216 3.27639 15.3172 3.17157 15.4038C3.07011 15.4878 2.96066 15.5617 2.84479 15.6244C2.62357 15.7476 2.37506 15.8137 2.12181 15.8166ZM2.72625 1.03189C1.49934 1.03189 0.574161 2.03423 0.574161 3.36343C0.553246 4.42482 0.542681 4.55312 0.542681 4.68059V13.183C0.542032 13.6605 0.691109 14.1262 0.96896 14.5146C1.25586 14.9031 1.63977 15.1195 2.04998 15.1238H2.06207C2.46892 15.1238 2.8804 14.9023 3.191 14.5163C3.49502 14.1377 3.6632 13.6682 3.66862 13.1829V4.66287C3.66964 4.62416 3.67408 4.58562 3.6819 4.5477V4.54701C3.68718 4.52643 3.69199 4.50629 3.69663 4.48684C3.72279 4.37676 3.7454 4.28166 3.83821 4.18142C3.95812 4.05193 4.15055 4.04817 4.17208 4.04817H4.17324L9.74551 4.04734C10.3016 4.04734 10.8828 3.80922 11.2624 3.42588C11.5441 3.14148 11.691 2.80952 11.6874 2.46588C11.6832 2.05994 11.4667 1.68911 11.078 1.42174C10.718 1.174 10.2323 1.03189 9.74576 1.03189H2.72625Z" fill="url(#paint0_radial_27_1896)"/>
<path d="M0.565248 3.36816H0.0405864L0.0185547 7.20483H0.543217L0.565248 3.36816Z" fill="url(#paint1_linear_27_1896)"/>
<path d="M2.06232 15.1237H2.05023C1.17727 15.1146 0.542969 14.1554 0.542969 13.1829V4.68049C0.542933 4.55285 0.553462 4.42543 0.574448 4.29953V3.3634C0.574448 2.09571 1.45805 1.03186 2.72654 1.03186H9.74616C10.7192 1.03186 11.679 1.59344 11.6881 2.46585C11.6972 3.33827 10.7192 4.04731 9.74608 4.04731L4.17381 4.04818C4.17381 4.04818 3.965 4.04507 3.83879 4.18139C3.72926 4.29975 3.7171 4.4125 3.68251 4.54698C3.6745 4.58506 3.67 4.62379 3.66905 4.66269V13.1829C3.66905 14.1509 2.9309 15.1237 2.0625 15.1237H2.06232Z" fill="#6B16A8"/>
<path d="M2.10788 15.8167C1.10396 15.8062 2.25351e-07 14.7032 2.25351e-07 13.5848V4.47231C-6.02277e-05 4.32553 0.0120423 4.179 0.0361838 4.03422V3.1655C0.0361838 2.46539 0.314474 1.79397 0.809833 1.29892C1.30519 0.803871 1.97704 0.525757 2.67759 0.525757L10.1676 0.525757C11.2867 0.525757 12.3904 1.62902 12.4008 2.6323C12.4113 3.63559 11.2867 4.57577 10.1676 4.57577H4.05256V13.5848C4.05256 14.6981 3.12051 15.8169 2.12177 15.8168L2.10788 15.8167Z" fill="#6B16A8"/>
<path d="M11.1834 6.70898H11.1967H11.1973C11.3253 6.71097 11.4525 6.72879 11.5761 6.76203C11.7054 6.79674 11.8307 6.8446 11.9502 6.90487C12.2028 7.03383 12.4319 7.20444 12.6279 7.40953C12.7286 7.51406 12.8206 7.6266 12.9031 7.74604C12.9853 7.86485 13.0569 7.9906 13.1172 8.12186C13.2382 8.37816 13.3023 8.65756 13.3053 8.94094L13.2781 18.0554C13.2781 18.2023 13.2932 18.3477 13.2691 19.3602C13.2698 19.7132 13.1992 20.0627 13.0615 20.3877C12.929 20.7014 12.7367 20.9863 12.4955 21.2267C12.2549 21.4678 11.9698 21.6599 11.656 21.7924C11.3308 21.93 10.9811 22.0006 10.6279 21.9999H3.13787C2.85431 21.9969 2.57474 21.9328 2.31828 21.8118C2.18694 21.7516 2.06111 21.68 1.94222 21.5979C1.82271 21.5155 1.7101 21.4235 1.6055 21.3229C1.40033 21.1271 1.22963 20.8982 1.10059 20.6458C1.04029 20.5264 0.992395 20.4011 0.957668 20.2719C0.924331 20.1484 0.906428 20.0213 0.904369 19.8934C0.899991 19.4727 1.09574 19.0409 1.45563 18.6775C1.67671 18.456 1.93703 18.2775 2.22333 18.151C2.3675 18.087 2.5176 18.0374 2.67147 18.0027C2.82445 17.9682 2.98077 17.9505 3.13762 17.9501H9.25265V8.94094C9.25441 8.66045 9.30912 8.38281 9.41388 8.12258C9.46544 7.99198 9.52775 7.86587 9.60019 7.74557C9.67185 7.62641 9.75321 7.51335 9.84345 7.40754C9.93165 7.30407 10.0287 7.20848 10.1335 7.12187C10.235 7.03786 10.3444 6.96398 10.4603 6.90129C10.6815 6.77802 10.9301 6.71191 11.1834 6.70898V6.70898ZM10.5791 21.4937C11.806 21.4937 12.7312 20.4914 12.7312 19.1622C12.7521 18.1008 12.7627 17.9725 12.7627 17.845V9.34265C12.7633 8.86516 12.6142 8.39947 12.3364 8.01103C12.0495 7.62251 11.6656 7.4062 11.2554 7.4019H11.2433C10.8364 7.4019 10.425 7.62335 10.1144 8.0094C9.81034 8.38792 9.64216 8.85741 9.63674 9.34276V17.8627C9.63572 17.9015 9.63127 17.94 9.62346 17.9779V17.9786C9.61817 17.9992 9.61336 18.0193 9.60873 18.0388C9.58257 18.1489 9.55995 18.244 9.46714 18.3442C9.34723 18.4737 9.15481 18.4774 9.13328 18.4774H9.13212L3.55985 18.4783C3.00378 18.4783 2.42256 18.7164 2.04296 19.0997C1.7613 19.3841 1.61433 19.7161 1.61791 20.0597C1.62214 20.4657 1.83863 20.8365 2.22739 21.1039C2.58763 21.3516 3.07332 21.4937 3.55985 21.4937H10.5791Z" fill="url(#paint2_radial_27_1896)"/>
<path d="M11.243 7.40198H11.2551C12.1281 7.41109 12.7624 8.37026 12.7624 9.34273V17.8452C12.7624 17.9728 12.7519 18.1002 12.7309 18.2261V19.1623C12.7309 20.43 11.8473 21.4939 10.5788 21.4939H3.55919C2.5861 21.4939 1.62633 20.9323 1.61725 20.0599C1.60817 19.1875 2.5861 18.4784 3.55919 18.4784L9.13146 18.4776C9.13146 18.4776 9.34027 18.4807 9.46648 18.3443C9.57601 18.226 9.58817 18.1132 9.62276 17.9788C9.63077 17.9407 9.63527 17.9019 9.63622 17.863V9.34276C9.63622 8.37481 10.3744 7.40201 11.2428 7.40198H11.243Z" fill="url(#paint3_radial_27_1896)"/>
<path d="M12.7627 9.73303V17.2943H13.2837L13.3026 9.73376L12.7627 9.73303Z" fill="url(#paint4_linear_27_1896)"/>
<path d="M11.1973 6.70898C12.2012 6.71947 13.3052 7.82252 13.3052 8.94087V18.0534C13.3053 18.2002 13.2932 18.3467 13.269 18.4915V19.3602C13.269 20.0603 12.9907 20.7317 12.4954 21.2268C12 21.7218 11.3282 21.9999 10.6276 21.9999H3.13762C2.01853 21.9999 0.914826 20.8967 0.904369 19.8934C0.893912 18.8901 2.01857 17.95 3.13762 17.95H9.25265V8.94094C9.25265 7.82769 10.1847 6.70898 11.1834 6.70898H11.1973Z" fill="#6B16A8"/>
<path d="M5.90697 12.0127H5.90465C5.88358 12.0123 5.86263 12.0094 5.84227 12.0039C5.82102 11.9982 5.80041 11.9903 5.78076 11.9804C5.73916 11.9592 5.70145 11.931 5.66921 11.8972C5.65261 11.8801 5.63744 11.8616 5.62383 11.842C5.61031 11.8224 5.59852 11.8017 5.58859 11.7801C5.56867 11.7379 5.5581 11.6919 5.55762 11.6452L5.5621 10.1445C5.5621 10.1203 5.55964 10.0964 5.56359 9.9297C5.56348 9.87159 5.57511 9.81405 5.59778 9.76054C5.61961 9.7089 5.65127 9.66199 5.69099 9.6224C5.73054 9.58274 5.7774 9.55112 5.82899 9.52929C5.8826 9.50661 5.94023 9.49499 5.99844 9.49512H7.23161C7.2783 9.49561 7.32432 9.50616 7.36654 9.52607C7.38817 9.53599 7.40888 9.54778 7.42845 9.56129C7.44813 9.57486 7.46667 9.59 7.48389 9.60657C7.5177 9.63879 7.54584 9.67648 7.56711 9.71805C7.57703 9.73768 7.58491 9.75828 7.59063 9.77952C7.5961 9.79986 7.59903 9.8208 7.59935 9.84186C7.5982 9.87957 7.58958 9.91667 7.57401 9.95103C7.55843 9.98539 7.5362 10.0163 7.5086 10.0421C7.47221 10.0786 7.42936 10.108 7.38221 10.1288C7.35848 10.1394 7.33377 10.1475 7.30843 10.1532C7.28325 10.1589 7.25751 10.1618 7.23169 10.1619H6.22484V11.6452C6.22455 11.6914 6.21554 11.7371 6.19828 11.7799C6.18979 11.8014 6.17953 11.8222 6.1676 11.842C6.1558 11.8616 6.1424 11.8803 6.12754 11.8977C6.11302 11.9147 6.09704 11.9304 6.07978 11.9447C6.06307 11.9585 6.04505 11.9706 6.02598 11.9808C5.98958 12.0012 5.94867 12.0121 5.90697 12.0127ZM6.00648 9.57847C5.80446 9.57847 5.65213 9.74351 5.65213 9.96235C5.64851 10.1371 5.64695 10.1582 5.64695 10.1793V11.5791C5.64685 11.6577 5.6714 11.7344 5.71715 11.7983C5.73682 11.8278 5.7632 11.8523 5.79413 11.8698C5.82506 11.8872 5.85967 11.8971 5.89514 11.8986H5.89713C5.93361 11.8968 5.96923 11.8869 6.00139 11.8696C6.03355 11.8523 6.06143 11.828 6.083 11.7986C6.13305 11.7362 6.16074 11.6589 6.16163 11.579V10.1763C6.1618 10.1699 6.16252 10.1636 6.1638 10.1573C6.16467 10.1539 6.16547 10.1506 6.16623 10.1474C6.169 10.1288 6.17709 10.1113 6.18953 10.0971C6.20439 10.0831 6.22404 10.0752 6.24449 10.0752H6.24467H7.16214C7.25544 10.0744 7.34486 10.0378 7.41181 9.97284C7.43351 9.95255 7.45089 9.92809 7.46291 9.90093C7.47493 9.87378 7.48135 9.84447 7.48179 9.81478C7.48045 9.7801 7.4706 9.74628 7.4531 9.7163C7.43561 9.68632 7.411 9.66111 7.38145 9.64287C7.31625 9.60034 7.23993 9.57801 7.16207 9.57869L6.00648 9.57847Z" fill="url(#paint5_radial_27_1896)"/>
<path d="M5.65068 9.96289H5.56417L5.56055 10.5946H5.64688L5.65068 9.96289Z" fill="url(#paint6_linear_27_1896)"/>
<path d="M5.89666 11.8985H5.89467C5.75094 11.897 5.64648 11.7391 5.64648 11.579V10.1791C5.64648 10.1581 5.64821 10.1371 5.65166 10.1164V9.96225C5.65166 9.75353 5.79715 9.57837 6.006 9.57837H7.16171C7.32193 9.57837 7.47994 9.67083 7.48143 9.81446C7.48291 9.95809 7.32193 10.0748 7.16171 10.0748H6.24424C6.22379 10.075 6.20417 10.0829 6.18927 10.0969C6.17515 10.1141 6.16618 10.1349 6.1634 10.1569C6.16208 10.1632 6.16135 10.1696 6.1612 10.176V11.579C6.1612 11.7383 6.03965 11.8985 5.89669 11.8985H5.89666Z" fill="#6B16A8"/>
<path d="M5.90465 12.0127C5.73937 12.0109 5.55762 11.8293 5.55762 11.6452V10.1449C5.55761 10.1207 5.55961 10.0966 5.56359 10.0727V9.92973C5.56359 9.81447 5.6094 9.70393 5.69095 9.62243C5.7725 9.54092 5.88311 9.49513 5.99844 9.49512H7.23161C7.41586 9.49512 7.59758 9.67675 7.59931 9.84194C7.60105 10.0071 7.41586 10.1619 7.23161 10.1619H6.22484V11.6452C6.22484 11.8285 6.07139 12.0127 5.90693 12.0127H5.90465Z" fill="#6B16A8"/>
<path d="M7.3984 10.5131H7.40071C7.42179 10.5134 7.44274 10.5163 7.46309 10.5218C7.48435 10.5275 7.50496 10.5354 7.5246 10.5453C7.5662 10.5665 7.60392 10.5947 7.63616 10.6285C7.65281 10.6456 7.66803 10.6642 7.68168 10.6838C7.6952 10.7034 7.707 10.7241 7.71692 10.7457C7.73684 10.7879 7.74741 10.8339 7.74789 10.8805L7.74341 12.3812C7.74341 12.4054 7.74587 12.4293 7.74193 12.596C7.74203 12.6541 7.7304 12.7117 7.70773 12.7652C7.6859 12.8168 7.65424 12.8637 7.61452 12.9033C7.57491 12.943 7.52797 12.9747 7.4763 12.9965C7.42275 13.0191 7.36518 13.0308 7.30703 13.0306H6.07386C6.02718 13.0302 5.98115 13.0196 5.93893 12.9997C5.91731 12.9898 5.89659 12.978 5.87702 12.9645C5.85735 12.9509 5.83881 12.9358 5.82159 12.9192C5.78777 12.887 5.75964 12.8493 5.73837 12.8077C5.72845 12.7881 5.72056 12.7675 5.71485 12.7462C5.70934 12.7259 5.70639 12.7049 5.70605 12.6838C5.70721 12.6461 5.71582 12.609 5.73139 12.5746C5.74697 12.5403 5.7692 12.5093 5.7968 12.4836C5.8332 12.4472 5.87604 12.4178 5.92316 12.397C5.94689 12.3865 5.9716 12.3783 5.99693 12.3726C6.02212 12.3669 6.04786 12.364 6.07368 12.364H7.08049V10.8805C7.08078 10.8343 7.08979 10.7886 7.10705 10.7458C7.11554 10.7243 7.1258 10.7035 7.13773 10.6837C7.14953 10.6641 7.16293 10.6455 7.17779 10.6281C7.19231 10.611 7.20829 10.5953 7.22555 10.581C7.24226 10.5673 7.26028 10.5552 7.27935 10.5449C7.31576 10.5245 7.35668 10.5136 7.3984 10.5131V10.5131ZM7.29889 12.9473C7.50091 12.9473 7.65324 12.7822 7.65324 12.5634C7.65686 12.3886 7.65841 12.3675 7.65841 12.3464V10.9467C7.65852 10.868 7.63397 10.7914 7.58822 10.7274C7.56855 10.6979 7.54219 10.6734 7.51127 10.656C7.48036 10.6386 7.44576 10.6287 7.4103 10.6271H7.40831C7.37183 10.6289 7.33621 10.6388 7.30405 10.6561C7.27189 10.6734 7.24401 10.6977 7.22244 10.7272C7.17238 10.7895 7.1447 10.8668 7.14381 10.9467V12.3495C7.14365 12.3558 7.14292 12.3622 7.14164 12.3684C7.14077 12.3718 7.13997 12.3751 7.13921 12.3783C7.13644 12.397 7.12835 12.4144 7.11591 12.4286C7.10105 12.4426 7.0814 12.4505 7.06095 12.4506H7.06077H6.1433C6.05 12.4513 5.96058 12.488 5.89363 12.5529C5.87193 12.5732 5.85456 12.5976 5.84253 12.6248C5.83051 12.652 5.82409 12.6813 5.82365 12.711C5.82499 12.7456 5.83484 12.7795 5.85233 12.8094C5.86983 12.8394 5.89444 12.8646 5.92399 12.8829C5.98919 12.9254 6.06551 12.9477 6.14337 12.947L7.29889 12.9473Z" fill="url(#paint7_radial_27_1896)"/>
<path d="M7.40806 10.6272H7.41005C7.55377 10.6287 7.65823 10.7866 7.65823 10.9467V12.3466C7.65824 12.3676 7.65651 12.3886 7.65306 12.4093V12.5635C7.65306 12.7722 7.50756 12.9473 7.29871 12.9473H6.14297C5.98275 12.9473 5.82474 12.8549 5.82325 12.7113C5.82177 12.5676 5.98275 12.4509 6.14297 12.4509H7.06044C7.08093 12.4508 7.10063 12.4429 7.11559 12.4289C7.12969 12.4117 7.13861 12.3908 7.14131 12.3687C7.14263 12.3625 7.14337 12.3561 7.14352 12.3496V10.9468C7.14352 10.7874 7.26506 10.6272 7.40802 10.6272H7.40806Z" fill="url(#paint8_radial_27_1896)"/>
<path d="M7.6582 11.0109V12.2558H7.74399L7.74711 11.011L7.6582 11.0109Z" fill="url(#paint9_linear_27_1896)"/>
<path d="M7.40076 10.5131C7.56605 10.5148 7.7478 10.6964 7.7478 10.8805V12.3808C7.74781 12.405 7.74581 12.4291 7.74183 12.453V12.5959C7.74183 12.7112 7.69601 12.8217 7.61445 12.9032C7.53289 12.9848 7.42228 13.0305 7.30694 13.0305H6.07376C5.88952 13.0305 5.7078 12.8489 5.70607 12.6837C5.70433 12.5185 5.88952 12.3637 6.07376 12.3637H7.08057V10.8805C7.08057 10.6972 7.23403 10.513 7.39848 10.5131H7.40076Z" fill="#6B16A8"/>
<defs>
<radialGradient id="paint0_radial_27_1896" cx="0" cy="0" r="1" gradientUnits="userSpaceOnUse" gradientTransform="translate(31.1718 -23.7284) rotate(90.6306) scale(13.633 83.6028)">
<stop stop-color="white"/>
<stop offset="0.102" stop-color="#E5E3E6"/>
<stop offset="0.277" stop-color="#11031A"/>
<stop offset="0.557" stop-color="#440E6A"/>
<stop offset="1" stop-color="#191022"/>
</radialGradient>
<linearGradient id="paint1_linear_27_1896" x1="0.291902" y1="3.36816" x2="0.291902" y2="7.20483" gradientUnits="userSpaceOnUse">
<stop stop-color="#655C6B"/>
<stop offset="1" stop-color="#300A4B"/>
</linearGradient>
<radialGradient id="paint2_radial_27_1896" cx="0" cy="0" r="1" gradientUnits="userSpaceOnUse" gradientTransform="translate(107.433 26.6331) rotate(-89.3694) scale(13.6334 83.6022)">
<stop/>
<stop offset="0.102" stop-color="#1E1E1E"/>
<stop offset="0.277" stop-color="white"/>
<stop offset="0.442" stop-color="#440E6A"/>
<stop offset="0.701" stop-color="#55485E"/>
<stop offset="0.863" stop-color="#E9E8EA"/>
<stop offset="1" stop-color="white"/>
</radialGradient>
<radialGradient id="paint3_radial_27_1896" cx="0" cy="0" r="1" gradientUnits="userSpaceOnUse" gradientTransform="translate(67.4392 7.19312) rotate(-115.862) scale(18.5593 52.8946)">
<stop stop-color="#EEDAFC"/>
<stop offset="0.136" stop-color="#D4B2EB"/>
<stop offset="0.32" stop-color="#8941BA"/>
<stop offset="0.44" stop-color="#7727AF"/>
<stop offset="1" stop-color="#6B15A8"/>
</radialGradient>
<linearGradient id="paint4_linear_27_1896" x1="13.0326" y1="9.73303" x2="13.0326" y2="17.2943" gradientUnits="userSpaceOnUse">
<stop stop-color="#958D9A"/>
<stop offset="1" stop-color="#CCBED7"/>
</linearGradient>
<radialGradient id="paint5_radial_27_1896" cx="0" cy="0" r="1" gradientUnits="userSpaceOnUse" gradientTransform="translate(34.2229 -17.7676) rotate(90.6306) scale(2.24463 13.7646)">
<stop stop-color="white"/>
<stop offset="0.102" stop-color="#E5E3E6"/>
<stop offset="0.277" stop-color="#11031A"/>
<stop offset="0.557" stop-color="#440E6A"/>
<stop offset="1" stop-color="#191022"/>
</radialGradient>
<linearGradient id="paint6_linear_27_1896" x1="5.60561" y1="9.96289" x2="5.60561" y2="10.5946" gradientUnits="userSpaceOnUse">
<stop stop-color="#655C6B"/>
<stop offset="1" stop-color="#300A4B"/>
</linearGradient>
<radialGradient id="paint7_radial_27_1896" cx="0" cy="0" r="1" gradientUnits="userSpaceOnUse" gradientTransform="translate(46.1288 37.1041) rotate(-89.3694) scale(2.24475 13.7648)">
<stop/>
<stop offset="0.102" stop-color="#1E1E1E"/>
<stop offset="0.277" stop-color="white"/>
<stop offset="0.442" stop-color="#440E6A"/>
<stop offset="0.701" stop-color="#55485E"/>
<stop offset="0.863" stop-color="#E9E8EA"/>
<stop offset="1" stop-color="white"/>
</radialGradient>
<radialGradient id="paint8_radial_27_1896" cx="0" cy="0" r="1" gradientUnits="userSpaceOnUse" gradientTransform="translate(50.0609 31.6193) rotate(-115.862) scale(3.05568 8.70879)">
<stop stop-color="#EEDAFC"/>
<stop offset="0.136" stop-color="#D4B2EB"/>
<stop offset="0.32" stop-color="#8941BA"/>
<stop offset="0.44" stop-color="#7727AF"/>
<stop offset="1" stop-color="#6B15A8"/>
</radialGradient>
<linearGradient id="paint9_linear_27_1896" x1="7.70265" y1="11.0109" x2="7.70265" y2="12.2558" gradientUnits="userSpaceOnUse">
<stop stop-color="#958D9A"/>
<stop offset="1" stop-color="#CCBED7"/>
</linearGradient>
</defs>
</svg>
