<svg width="86" height="32" viewBox="0 0 86 32" fill="none" xmlns="http://www.w3.org/2000/svg">
<g clip-path="url(#clip0_27_1561)">
<path d="M4.6606 21.8411H4.64153H4.6407C4.4579 21.8383 4.27616 21.8129 4.09963 21.7654C3.91501 21.7158 3.73597 21.6474 3.56532 21.5613C3.2045 21.3771 2.87733 21.1335 2.59755 20.8406C2.45369 20.6913 2.3222 20.5305 2.2044 20.3599C2.08705 20.1902 1.98474 20.0106 1.89864 19.8231C1.7258 19.457 1.63413 19.058 1.62988 18.6532L1.6687 5.63444C1.6687 5.42464 1.64725 5.21684 1.68157 3.77062C1.68059 3.26645 1.78144 2.76726 1.97807 2.30296C2.16746 1.85501 2.44205 1.44805 2.78661 1.10466C3.13021 0.760305 3.53742 0.485872 3.98566 0.296585C4.45025 0.0999799 4.94977 -0.000893802 5.4543 5.9666e-06H16.1528C16.5578 0.00424371 16.9571 0.0958608 17.3234 0.26859C17.511 0.354637 17.6908 0.45688 17.8606 0.574157C18.0313 0.691867 18.1921 0.823252 18.3416 0.967013C18.6345 1.24665 18.8783 1.57363 19.0625 1.93423C19.1487 2.10477 19.2171 2.2837 19.2667 2.46819C19.3142 2.64462 19.3397 2.82624 19.3425 3.00893C19.3488 3.60988 19.0692 4.2267 18.5551 4.74574C18.2393 5.06208 17.8675 5.31708 17.4585 5.49777C17.2526 5.58911 17.0382 5.66004 16.8184 5.70954C16.5999 5.75895 16.3767 5.78422 16.1528 5.7849H7.41827V18.6531C7.41574 19.0538 7.33761 19.4504 7.18797 19.8221C7.11433 20.0086 7.02532 20.1887 6.92185 20.3606C6.8195 20.5308 6.70328 20.6923 6.57438 20.8434C6.4484 20.9912 6.30976 21.1277 6.16004 21.2514C6.01512 21.3714 5.85879 21.477 5.69328 21.5665C5.37731 21.7425 5.02234 21.8369 4.6606 21.8411ZM5.52397 0.723118C3.77149 0.723118 2.44999 2.15483 2.44999 4.05341C2.42012 5.56946 2.40503 5.75272 2.40503 5.93479V18.0794C2.4041 18.7614 2.61704 19.4266 3.01391 19.9814C3.42371 20.5363 3.97207 20.8453 4.55801 20.8515H4.57527C5.1564 20.8515 5.74414 20.5351 6.18779 19.9837C6.62204 19.4431 6.86227 18.7724 6.87001 18.0792V5.90948C6.87147 5.85419 6.87781 5.79914 6.88898 5.74497V5.74399C6.89652 5.7146 6.9034 5.68583 6.91001 5.65805C6.94738 5.50082 6.97968 5.36498 7.11225 5.2218C7.28353 5.03684 7.55838 5.03147 7.58913 5.03147H7.59079L15.55 5.03028C16.3443 5.03028 17.1745 4.69016 17.7167 4.14261C18.119 3.73638 18.3289 3.26222 18.3238 2.77138C18.3178 2.19155 18.0086 1.66187 17.4533 1.27997C16.9391 0.926106 16.2454 0.723118 15.5504 0.723118H5.52397Z" fill="url(#paint0_radial_27_1561)"/>
<path d="M2.43615 4.06055H1.68674L1.65527 9.5407H2.40468L2.43615 4.06055Z" fill="url(#paint1_linear_27_1561)"/>
<path d="M4.57546 20.8515H4.5582C3.31128 20.8384 2.40527 19.4684 2.40527 18.0793V5.93471C2.40522 5.7524 2.42026 5.5704 2.45024 5.39057V4.05344C2.45024 2.24271 3.71235 0.723145 5.52421 0.723145H15.5508C16.9407 0.723145 18.3116 1.52528 18.3246 2.77141C18.3376 4.01754 16.9406 5.03031 15.5507 5.03031L7.59144 5.03155C7.59144 5.03155 7.29318 5.02711 7.11291 5.22183C6.95646 5.39088 6.9391 5.55193 6.88969 5.74402C6.87825 5.79841 6.87181 5.85374 6.87046 5.9093V18.0793C6.87046 19.4619 5.81612 20.8514 4.57572 20.8515H4.57546Z" fill="#6B16A8"/>
<path d="M4.6407 21.8411C3.20674 21.8261 1.62988 20.2505 1.62988 18.6531V5.63712C1.6298 5.42747 1.64708 5.21817 1.68157 5.01137V3.77051C1.68157 2.77051 2.07907 1.81147 2.78662 1.10436C3.49417 0.397249 4.45382 0 5.45445 0L16.1529 0C17.7514 0 19.3279 1.57587 19.3428 3.00892C19.3577 4.44197 17.7514 5.78489 16.1529 5.78489H7.41842V18.6531C7.41842 20.2433 6.08711 21.8413 4.66054 21.8412L4.6407 21.8411Z" fill="#6B16A8"/>
<path d="M17.6041 8.83228H17.6232H17.624C17.8068 8.83511 17.9886 8.86056 18.1651 8.90805C18.3497 8.95762 18.5288 9.02598 18.6994 9.11207C19.0603 9.29628 19.3876 9.53997 19.6674 9.83291C19.8113 9.98222 19.9427 10.143 20.0606 10.3136C20.1779 10.4833 20.2802 10.6629 20.3663 10.8504C20.5391 11.2165 20.6308 11.6155 20.6351 12.0203L20.5962 25.0391C20.5962 25.2489 20.6177 25.4567 20.5834 26.9029C20.5844 27.4071 20.4835 27.9062 20.2869 28.3706C20.0975 28.8185 19.8229 29.2255 19.4783 29.5689C19.1347 29.9132 18.7275 30.1876 18.2793 30.3769C17.8147 30.5734 17.3152 30.6742 16.8107 30.6732H6.11224C5.70721 30.669 5.30788 30.5774 4.94156 30.4047C4.75396 30.3186 4.57423 30.2164 4.40441 30.0991C4.2337 29.9814 4.07285 29.85 3.92345 29.7062C3.63038 29.4266 3.38657 29.0997 3.20226 28.7391C3.11612 28.5685 3.04771 28.3896 2.99811 28.2051C2.95049 28.0287 2.92492 27.8471 2.92198 27.6645C2.91572 27.0635 3.19533 26.4467 3.70937 25.9277C4.02517 25.6113 4.39699 25.3563 4.80594 25.1756C5.01187 25.0843 5.22626 25.0134 5.44604 24.9639C5.66456 24.9145 5.88784 24.8893 6.11188 24.8887H14.8464V12.0203C14.8489 11.6197 14.927 11.2231 15.0767 10.8514C15.1503 10.6649 15.2393 10.4847 15.3428 10.3129C15.4451 10.1427 15.5614 9.9812 15.6903 9.83007C15.8162 9.68227 15.9549 9.54574 16.1046 9.42202C16.2495 9.30203 16.4059 9.1965 16.5714 9.10695C16.8874 8.93088 17.2424 8.83646 17.6041 8.83228V8.83228ZM16.741 29.9503C18.4935 29.9503 19.815 28.5186 19.815 26.62C19.8449 25.1039 19.86 24.9207 19.86 24.7386V12.5941C19.8609 11.9121 19.648 11.2469 19.2511 10.6921C18.8413 10.1371 18.2929 9.82816 17.707 9.82201H17.6897C17.1086 9.82201 16.5209 10.1383 16.0772 10.6897C15.643 11.2304 15.4027 11.901 15.395 12.5943V24.7639C15.3935 24.8192 15.3872 24.8743 15.376 24.9284V24.9294C15.3685 24.9588 15.3616 24.9876 15.355 25.0154C15.3176 25.1726 15.2853 25.3084 15.1527 25.4516C14.9815 25.6366 14.7066 25.6419 14.6759 25.6419H14.6742L6.71497 25.6431C5.9207 25.6431 5.09051 25.9832 4.5483 26.5308C4.14599 26.937 3.93606 27.4112 3.94117 27.902C3.94722 28.4819 4.25644 29.0115 4.81173 29.3934C5.32629 29.7473 6.02003 29.9503 6.71497 29.9503H16.741Z" fill="url(#paint2_radial_27_1561)"/>
<path d="M17.6896 9.82202H17.7069C18.9538 9.83504 19.8598 11.2051 19.8598 12.5941V24.7388C19.8599 24.9211 19.8448 25.1031 19.8149 25.2829V26.6201C19.8149 28.4308 18.5528 29.9504 16.7409 29.9504H6.71432C5.32439 29.9504 3.95349 29.1483 3.94052 27.9021C3.92755 26.656 5.32439 25.6432 6.71432 25.6432L14.6736 25.642C14.6736 25.642 14.9718 25.6464 15.1521 25.4517C15.3085 25.2827 15.3259 25.1216 15.3753 24.9295C15.3868 24.8751 15.3932 24.8198 15.3945 24.7642V12.5942C15.3945 11.2116 16.4489 9.82207 17.6893 9.82202H17.6896Z" fill="url(#paint3_radial_27_1561)"/>
<path d="M19.8594 13.1516V23.9518H20.6036L20.6305 13.1526L19.8594 13.1516Z" fill="url(#paint4_linear_27_1561)"/>
<path d="M17.6241 8.83228C19.0581 8.84725 20.6349 10.4228 20.6349 12.0202V25.0362C20.635 25.2459 20.6177 25.4552 20.5832 25.662V26.9028C20.5832 27.9028 20.1857 28.8619 19.4782 29.569C18.7706 30.2761 17.811 30.6733 16.8103 30.6733H6.11188C4.51341 30.6733 2.93691 29.0975 2.92198 27.6644C2.90704 26.2314 4.51346 24.8885 6.11188 24.8885H14.8464V12.0203C14.8464 10.4302 16.1777 8.83228 17.6042 8.83228H17.6241Z" fill="#6B16A8"/>
<path d="M10.0674 16.4075H10.0641C10.034 16.407 10.004 16.4028 9.97495 16.395C9.94459 16.3868 9.91515 16.3756 9.88709 16.3614C9.82767 16.3311 9.7738 16.2909 9.72775 16.2426C9.70404 16.2181 9.68237 16.1917 9.66294 16.1637C9.64362 16.1357 9.62678 16.1062 9.6126 16.0753C9.58414 16.015 9.56905 15.9493 9.56836 15.8826L9.57477 13.7391C9.57477 13.7046 9.57125 13.6704 9.57689 13.4323C9.57674 13.3493 9.59335 13.2671 9.62573 13.1906C9.65691 13.1169 9.70213 13.0499 9.75886 12.9933C9.81535 12.9367 9.88229 12.8915 9.95598 12.8603C10.0326 12.8279 10.1149 12.8113 10.198 12.8115H11.9594C12.0261 12.8122 12.0919 12.8273 12.1522 12.8557C12.1831 12.8699 12.2126 12.8867 12.2406 12.906C12.2687 12.9254 12.2952 12.947 12.3198 12.9707C12.3681 13.0167 12.4083 13.0706 12.4386 13.13C12.4528 13.158 12.4641 13.1874 12.4722 13.2178C12.4801 13.2468 12.4842 13.2767 12.4847 13.3068C12.4831 13.3607 12.4708 13.4137 12.4485 13.4627C12.4263 13.5118 12.3945 13.556 12.3551 13.5927C12.3031 13.6449 12.2419 13.6869 12.1745 13.7167C12.1406 13.7317 12.1053 13.7434 12.0692 13.7516C12.0332 13.7597 11.9964 13.7639 11.9595 13.764H10.5214V15.8826C10.521 15.9486 10.5081 16.0139 10.4835 16.0751C10.4713 16.1058 10.4567 16.1355 10.4396 16.1638C10.4228 16.1918 10.4036 16.2184 10.3824 16.2433C10.3617 16.2676 10.3389 16.29 10.3142 16.3104C10.2903 16.3301 10.2646 16.3474 10.2373 16.3621C10.1854 16.3911 10.1269 16.4067 10.0674 16.4075ZM10.2095 12.9306C9.92094 12.9306 9.70336 13.1663 9.70336 13.4789C9.69819 13.7285 9.69597 13.7586 9.69597 13.7888V15.7882C9.69581 15.9005 9.73088 16.01 9.79623 16.1013C9.82433 16.1435 9.862 16.1785 9.90618 16.2034C9.95036 16.2283 9.99979 16.2424 10.0505 16.2445H10.0533C10.1054 16.242 10.1563 16.2279 10.2022 16.2031C10.2482 16.1784 10.288 16.1438 10.3188 16.1017C10.3903 16.0127 10.4298 15.9022 10.4311 15.7881V13.7845C10.4313 13.7754 10.4324 13.7663 10.4342 13.7574C10.4355 13.7526 10.4366 13.7479 10.4377 13.7433C10.4416 13.7166 10.4532 13.6917 10.471 13.6714C10.4922 13.6514 10.5203 13.6402 10.5495 13.6401H10.5497H11.8602C11.9935 13.639 12.1212 13.5866 12.2168 13.4939C12.2478 13.4649 12.2726 13.43 12.2898 13.3912C12.307 13.3524 12.3162 13.3105 12.3168 13.2681C12.3149 13.2186 12.3008 13.1703 12.2758 13.1275C12.2508 13.0846 12.2157 13.0486 12.1735 13.0226C12.0803 12.9618 11.9713 12.9299 11.8601 12.9309L10.2095 12.9306Z" fill="url(#paint5_radial_27_1561)"/>
<path d="M9.70101 13.48H9.57744L9.57227 14.3823H9.69558L9.70101 13.48Z" fill="url(#paint6_linear_27_1561)"/>
<path d="M10.0536 16.2447H10.0508C9.8455 16.2426 9.69629 16.017 9.69629 15.7883V13.7887C9.69628 13.7587 9.69875 13.7288 9.70368 13.6992V13.479C9.70368 13.1809 9.9115 12.9307 10.2098 12.9307H11.8606C12.0894 12.9307 12.3151 13.0627 12.3173 13.2679C12.3194 13.473 12.0894 13.6398 11.8606 13.6398H10.5501C10.5209 13.6401 10.4929 13.6513 10.4716 13.6713C10.4514 13.6959 10.4386 13.7256 10.4346 13.7571C10.4328 13.7661 10.4317 13.7752 10.4315 13.7843V15.7882C10.4315 16.0159 10.2579 16.2446 10.0537 16.2447H10.0536Z" fill="#6B16A8"/>
<path d="M10.0641 16.4075C9.82797 16.405 9.56836 16.1456 9.56836 15.8826V13.7396C9.56835 13.7051 9.5712 13.6706 9.57689 13.6366V13.4323C9.57689 13.2677 9.64233 13.1098 9.75881 12.9934C9.87529 12.8769 10.0333 12.8115 10.198 12.8115H11.9594C12.2226 12.8115 12.4822 13.071 12.4846 13.3069C12.4871 13.5428 12.2226 13.764 11.9594 13.764H10.5214V15.8826C10.5214 16.1444 10.3022 16.4076 10.0673 16.4075H10.0641Z" fill="#6B16A8"/>
<path d="M12.1985 14.2656H12.2018C12.2319 14.2661 12.2619 14.2703 12.2909 14.2781C12.3213 14.2862 12.3507 14.2975 12.3788 14.3116C12.4382 14.342 12.4921 14.3822 12.5381 14.4304C12.5619 14.455 12.5837 14.4814 12.6032 14.5095C12.6225 14.5375 12.6393 14.567 12.6535 14.5979C12.682 14.6582 12.697 14.7239 12.6977 14.7905L12.6913 16.934C12.6913 16.9686 12.6949 17.0028 12.6892 17.2409C12.6894 17.3239 12.6728 17.4061 12.6404 17.4825C12.6092 17.5562 12.564 17.6233 12.5072 17.6798C12.4507 17.7365 12.3836 17.7817 12.3098 17.8128C12.2333 17.8452 12.1511 17.8618 12.068 17.8617H10.3066C10.2399 17.861 10.1742 17.8459 10.1139 17.8174C10.083 17.8033 10.0534 17.7864 10.0255 17.7671C9.99735 17.7478 9.97087 17.7261 9.94627 17.7025C9.89797 17.6564 9.85779 17.6026 9.8274 17.5432C9.81323 17.5152 9.80197 17.4858 9.79381 17.4554C9.78594 17.4263 9.78173 17.3964 9.78125 17.3662C9.7829 17.3124 9.7952 17.2594 9.81744 17.2103C9.83969 17.1612 9.87145 17.117 9.91087 17.0803C9.96286 17.0283 10.0241 16.9863 10.0914 16.9566C10.1253 16.9416 10.1605 16.9299 10.1967 16.9218C10.2327 16.9136 10.2695 16.9095 10.3064 16.9094H11.7444V14.7905C11.7449 14.7245 11.7577 14.6592 11.7824 14.598C11.7945 14.5673 11.8092 14.5377 11.8262 14.5094C11.8431 14.4813 11.8622 14.4548 11.8834 14.4299C11.9042 14.4056 11.927 14.3831 11.9516 14.3627C11.9755 14.343 12.0013 14.3258 12.0285 14.3111C12.0805 14.282 12.139 14.2664 12.1985 14.2656V14.2656ZM12.0564 17.7426C12.345 17.7426 12.5625 17.5068 12.5625 17.1942C12.5677 16.9446 12.5699 16.9145 12.5699 16.8843V14.885C12.5701 14.7727 12.535 14.6632 12.4697 14.5718C12.4416 14.5296 12.4039 14.4947 12.3598 14.4698C12.3156 14.4449 12.2662 14.4308 12.2155 14.4286H12.2127C12.1606 14.4311 12.1097 14.4453 12.0638 14.47C12.0178 14.4947 11.978 14.5294 11.9472 14.5714C11.8757 14.6605 11.8362 14.7709 11.8349 14.885V16.8887C11.8347 16.8978 11.8336 16.9068 11.8318 16.9157C11.8305 16.9206 11.8294 16.9253 11.8283 16.9299C11.8244 16.9565 11.8128 16.9815 11.795 17.0017C11.7738 17.0218 11.7457 17.033 11.7165 17.0331H11.7163H10.4058C10.2725 17.0341 10.1448 17.0865 10.0492 17.1792C10.0182 17.2082 9.99336 17.2432 9.97619 17.282C9.95901 17.3207 9.94984 17.3626 9.94922 17.405C9.95113 17.4546 9.9652 17.5029 9.99019 17.5457C10.0152 17.5885 10.0503 17.6245 10.0925 17.6506C10.1857 17.7113 10.2947 17.7432 10.4059 17.7422L12.0564 17.7426Z" fill="url(#paint7_radial_27_1561)"/>
<path d="M12.2129 14.4285H12.2158C12.421 14.4306 12.5703 14.6562 12.5703 14.8849V16.8844C12.5703 16.9144 12.5678 16.9444 12.5629 16.974V17.1942C12.5629 17.4923 12.355 17.7425 12.0567 17.7425H10.4059C10.1771 17.7425 9.95135 17.6104 9.94923 17.4053C9.94711 17.2001 10.1771 17.0334 10.4059 17.0334H11.7164C11.7457 17.0332 11.7738 17.022 11.7952 17.002C11.8153 16.9774 11.8281 16.9476 11.8319 16.916C11.8338 16.907 11.8348 16.8979 11.8351 16.8888V14.8849C11.8351 14.6573 12.0087 14.4285 12.2129 14.4285H12.2129Z" fill="url(#paint8_radial_27_1561)"/>
<path d="M12.5703 14.9768V16.755H12.6929L12.6973 14.977L12.5703 14.9768Z" fill="url(#paint9_linear_27_1561)"/>
<path d="M12.2019 14.2656C12.438 14.2681 12.6976 14.5275 12.6976 14.7905V16.9335C12.6976 16.968 12.6948 17.0025 12.6891 17.0365V17.2407C12.6891 17.4054 12.6236 17.5633 12.5071 17.6797C12.3906 17.7961 12.2326 17.8615 12.0679 17.8615H10.3065C10.0433 17.8615 9.78375 17.6021 9.78127 17.3661C9.77879 17.1302 10.0433 16.9091 10.3065 16.9091H11.7446V14.7905C11.7446 14.5287 11.9638 14.2656 12.1987 14.2656H12.2019Z" fill="#6B16A8"/>
<path d="M50.6407 6.40625C52.2731 5.06073 51.6412 2.89733 49.7719 1.97393C47.8761 1.02415 43.9531 1.18245 41.3202 2.10585C37.4761 3.47776 35.0801 7.38242 39.0032 9.99432C40.9779 11.3135 44.506 12.2632 46.1384 13.5824C49.3243 16.1679 47.4549 20.7058 43.0316 23.0275C37.7657 25.7713 28.3135 25.0853 28.3662 18.5424C28.3965 16.7934 28.9066 15.0866 29.8406 13.6088C30.3248 12.8468 30.9399 12.1769 31.6573 11.6301C32.5262 10.9705 31.7626 11.076 31.394 11.2343C28.8138 12.4479 26.7601 16.036 26.8917 18.5424C27.3393 25.9823 38.5556 26.7211 44.506 23.1594C48.9556 20.4947 52.4838 15.5347 47.1126 12.2105C45.1642 10.9969 42.505 10.0735 40.8989 9.09731C37.3444 6.90753 39.1875 3.95265 42.3207 2.81818C50.7987 -0.215844 52.2995 6.32711 49.0083 6.72285C48.1394 6.82838 48.1658 7.43519 48.8767 7.25051C49.5163 7.09361 50.1169 6.8062 50.6407 6.40625ZM59.5663 17.8828C59.8296 17.3288 59.303 17.3815 59.0924 17.8564C58.4868 19.2547 57.0651 22.3679 54.7481 22.3679C53.0103 22.3679 53.4579 19.7032 53.8529 18.7534C54.5638 18.7534 56.2752 18.1994 57.0914 17.5926C58.7765 16.2998 59.54 14.5058 58.5395 13.7407C57.381 12.8701 55.38 13.8726 54.0372 15.4556C52.8787 16.8275 51.9835 18.8062 52.0098 20.3892C52.0362 22.0513 53.221 22.9219 54.5374 22.9219C57.46 22.9219 58.5921 19.9934 59.5663 17.8828ZM56.8281 17.1441C55.8802 17.9356 54.5111 18.3049 54.0372 18.3049C54.4857 17.4308 55.0146 16.6006 55.6169 15.8249C58.8554 11.8939 58.9871 15.3237 56.8281 17.1441ZM66.5436 9.80964C68.4393 5.58839 65.5957 5.21903 63.7263 8.35859C62.1992 10.9177 60.5405 14.7169 59.7243 17.6717C59.2767 19.2547 58.0129 22.8692 60.9618 22.8692C63.621 22.8692 64.9902 19.3075 65.6484 17.9092C65.8853 17.3815 65.4904 17.3288 65.2534 17.7773C64.6827 18.9383 64.0317 20.0579 63.3051 21.1279C61.9096 23.0802 59.8033 22.6317 60.5932 19.4658C60.7511 18.8062 61.0144 18.173 61.1461 17.7245C63.7263 15.3764 65.3324 12.5271 66.5436 9.80964ZM66.1486 9.4139C65.1218 11.8675 63.2261 14.9807 61.3567 16.8802C62.1729 14.7696 64.2266 10.0471 65.5167 8.22667C66.9385 6.19519 66.6752 8.20029 66.1486 9.4139ZM73.8631 6.43264C73.4682 6.4854 73.0206 6.30072 72.7046 6.30072C71.5988 6.30072 71.0459 7.01306 70.4666 8.14752C69.0185 10.865 66.9648 15.139 65.0691 19.413C64.8997 19.3936 64.7282 19.4094 64.5651 19.4593C64.402 19.5093 64.251 19.5923 64.1213 19.7032C63.621 20.0726 63.3841 21.207 63.937 22.0513C62.3836 25.7185 61.1724 28.9108 61.2251 30.6257C61.2514 31.681 61.857 31.9712 62.5942 31.9976C65.4378 32.1295 67.4388 26.5364 67.1228 22.8428C68.9922 22.8428 70.4403 20.0726 71.4145 17.8564C71.5988 17.4607 71.2039 17.3288 71.0196 17.6717C70.1507 19.5185 68.6499 22.447 67.0702 22.3415L66.9912 21.9985C66.8069 21.0751 66.4909 20.4419 66.1486 20.0198C68.7816 14.0837 72.2044 7.98923 73.8631 6.43264ZM66.5699 22.9483C66.6226 25.2964 65.6747 28.5415 64.3846 30.23C63.3577 31.6019 62.1466 32.1032 62.8575 29.0427C63.2788 27.3015 64.1213 24.8479 65.0428 22.5262C65.3851 22.8164 66.0433 23.0011 66.5699 22.9483ZM66.5173 22.447H66.3593C65.8853 22.447 65.4641 22.236 65.3061 21.9458L65.8853 20.6266C66.0437 20.8197 66.1765 21.0325 66.2803 21.2598C66.4197 21.641 66.4996 22.0414 66.5173 22.447ZM75.6008 11.7884C75.6295 11.6539 75.6268 11.5146 75.5931 11.3813C75.5594 11.248 75.4955 11.1243 75.4064 11.0197C75.3173 10.9151 75.2054 10.8324 75.0793 10.7782C74.9532 10.7239 74.8164 10.6994 74.6793 10.7067C74.3781 10.7186 74.0896 10.8318 73.8603 11.028C73.6311 11.2242 73.4744 11.4921 73.4155 11.7884C73.3365 12.3952 73.7315 12.8701 74.337 12.8701C74.6395 12.8622 74.9301 12.7505 75.1602 12.5536C75.3903 12.3567 75.5459 12.0865 75.6008 11.7884ZM71.8884 20.5739C71.9411 20.3892 72.2044 19.8087 72.2044 19.8087L74.3107 14.8752C74.6003 14.242 74.6003 13.9518 73.7578 13.9518L72.3097 13.9781C72.415 14.11 72.7836 14.5849 72.573 15.0862L70.8879 19.3866C70.335 20.7585 70.335 22.8164 72.3097 22.8164C74.258 22.8164 75.7588 19.4658 76.4434 17.9883C76.6803 17.4607 76.3117 17.276 76.1011 17.7509C75.3639 19.2283 74.495 20.8641 73.6261 21.7347C73.3365 21.9985 72.8363 22.2887 72.4413 22.236C71.7041 22.1832 71.6515 21.4445 71.8884 20.5739ZM83.5259 17.8828C83.7892 17.3288 83.2626 17.3815 83.052 17.8564C82.4464 19.2547 81.0247 22.3679 78.7077 22.3679C76.97 22.3679 77.4176 19.7032 77.8125 18.7534C78.5234 18.7534 80.2348 18.1994 81.051 17.5926C82.7361 16.2998 83.4996 14.5058 82.4991 13.7407C81.3406 12.8701 79.3396 13.8726 77.9968 15.4556C76.8383 16.8275 75.9431 18.8062 75.9694 20.3892C75.9958 22.0513 77.1806 22.9219 78.4971 22.9219C81.4196 22.9219 82.5518 19.9934 83.5259 17.8828ZM80.7877 17.1441C79.8398 17.9356 78.4707 18.3049 77.9968 18.3049C78.4453 17.4308 78.9742 16.6006 79.5766 15.8249C82.8151 11.8939 82.9467 15.3237 80.7877 17.1441Z" fill="#6B16A8"/>
</g>
<defs>
<radialGradient id="paint0_radial_27_1561" cx="0" cy="0" r="1" gradientUnits="userSpaceOnUse" gradientTransform="translate(46.1546 -34.6436) rotate(90.6306) scale(19.4729 119.415)">
<stop stop-color="white"/>
<stop offset="0.102" stop-color="#E5E3E6"/>
<stop offset="0.277" stop-color="#11031A"/>
<stop offset="0.557" stop-color="#440E6A"/>
<stop offset="1" stop-color="#191022"/>
</radialGradient>
<linearGradient id="paint1_linear_27_1561" x1="2.04571" y1="4.06055" x2="2.04571" y2="9.5407" gradientUnits="userSpaceOnUse">
<stop stop-color="#655C6B"/>
<stop offset="1" stop-color="#300A4B"/>
</linearGradient>
<radialGradient id="paint2_radial_27_1561" cx="0" cy="0" r="1" gradientUnits="userSpaceOnUse" gradientTransform="translate(155.083 37.2912) rotate(-89.3694) scale(19.4734 119.415)">
<stop/>
<stop offset="0.102" stop-color="#1E1E1E"/>
<stop offset="0.277" stop-color="white"/>
<stop offset="0.442" stop-color="#440E6A"/>
<stop offset="0.701" stop-color="#55485E"/>
<stop offset="0.863" stop-color="#E9E8EA"/>
<stop offset="1" stop-color="white"/>
</radialGradient>
<radialGradient id="paint3_radial_27_1561" cx="0" cy="0" r="1" gradientUnits="userSpaceOnUse" gradientTransform="translate(97.9583 9.52369) rotate(-115.862) scale(26.5095 75.5528)">
<stop stop-color="#EEDAFC"/>
<stop offset="0.136" stop-color="#D4B2EB"/>
<stop offset="0.32" stop-color="#8941BA"/>
<stop offset="0.44" stop-color="#7727AF"/>
<stop offset="1" stop-color="#6B15A8"/>
</radialGradient>
<linearGradient id="paint4_linear_27_1561" x1="20.245" y1="13.1516" x2="20.245" y2="23.9518" gradientUnits="userSpaceOnUse">
<stop stop-color="#958D9A"/>
<stop offset="1" stop-color="#CCBED7"/>
</linearGradient>
<radialGradient id="paint5_radial_27_1561" cx="0" cy="0" r="1" gradientUnits="userSpaceOnUse" gradientTransform="translate(50.5129 -26.1296) rotate(90.6306) scale(3.20615 19.6609)">
<stop stop-color="white"/>
<stop offset="0.102" stop-color="#E5E3E6"/>
<stop offset="0.277" stop-color="#11031A"/>
<stop offset="0.557" stop-color="#440E6A"/>
<stop offset="1" stop-color="#191022"/>
</radialGradient>
<linearGradient id="paint6_linear_27_1561" x1="9.63664" y1="13.48" x2="9.63664" y2="14.3823" gradientUnits="userSpaceOnUse">
<stop stop-color="#655C6B"/>
<stop offset="1" stop-color="#300A4B"/>
</linearGradient>
<radialGradient id="paint7_radial_27_1561" cx="0" cy="0" r="1" gradientUnits="userSpaceOnUse" gradientTransform="translate(67.5198 52.2474) rotate(-89.3694) scale(3.20632 19.6612)">
<stop/>
<stop offset="0.102" stop-color="#1E1E1E"/>
<stop offset="0.277" stop-color="white"/>
<stop offset="0.442" stop-color="#440E6A"/>
<stop offset="0.701" stop-color="#55485E"/>
<stop offset="0.863" stop-color="#E9E8EA"/>
<stop offset="1" stop-color="white"/>
</radialGradient>
<radialGradient id="paint8_radial_27_1561" cx="0" cy="0" r="1" gradientUnits="userSpaceOnUse" gradientTransform="translate(73.1368 44.4128) rotate(-115.862) scale(4.36463 12.4393)">
<stop stop-color="#EEDAFC"/>
<stop offset="0.136" stop-color="#D4B2EB"/>
<stop offset="0.32" stop-color="#8941BA"/>
<stop offset="0.44" stop-color="#7727AF"/>
<stop offset="1" stop-color="#6B15A8"/>
</radialGradient>
<linearGradient id="paint9_linear_27_1561" x1="12.6338" y1="14.9768" x2="12.6338" y2="16.755" gradientUnits="userSpaceOnUse">
<stop stop-color="#958D9A"/>
<stop offset="1" stop-color="#CCBED7"/>
</linearGradient>
<clipPath id="clip0_27_1561">
<rect width="85.3333" height="32" fill="white"/>
</clipPath>
</defs>
</svg>
