<svg width="26" height="26" viewBox="0 0 26 26" fill="none" xmlns="http://www.w3.org/2000/svg">
<path d="M2.02417 20.1017C2.02331 20.2308 2.04811 20.3588 2.09713 20.4783C2.14615 20.5978 2.21842 20.7063 2.30974 20.7976C2.40105 20.889 2.5096 20.9612 2.62908 21.0103C2.74856 21.0593 2.87658 21.0841 3.00572 21.0832H23.1151C23.3755 21.0832 23.6251 20.9798 23.8092 20.7957C23.9933 20.6116 24.0967 20.362 24.0967 20.1017C24.0967 19.8413 23.9933 19.5917 23.8092 19.4076C23.6251 19.2235 23.3755 19.1201 23.1151 19.1201H3.00637C2.74678 19.1227 2.49852 19.2269 2.31489 19.4104C2.13126 19.5939 2.02688 19.8421 2.02417 20.1017Z" fill="#6E7191"/>
<path d="M24.2529 13.0001C24.2538 12.871 24.229 12.743 24.18 12.6235C24.1309 12.504 24.0587 12.3955 23.9673 12.3041C23.876 12.2128 23.7675 12.1406 23.648 12.0915C23.5285 12.0425 23.4005 12.0177 23.2714 12.0186L2.84929 12.0186C2.58888 12.0186 2.33913 12.122 2.155 12.3062C1.97086 12.4903 1.86741 12.74 1.86741 13.0005C1.86741 13.2609 1.97086 13.5106 2.155 13.6947C2.33913 13.8789 2.58888 13.9823 2.84929 13.9823L23.2714 13.9823C23.5315 13.9815 23.7808 13.8777 23.9647 13.6937C24.1486 13.5096 24.2522 13.2603 24.2529 13.0001Z" fill="#6E7191"/>
<path d="M2.02417 5.8983C2.02331 6.02744 2.04811 6.15546 2.09713 6.27494C2.14615 6.39442 2.21842 6.50297 2.30974 6.59428C2.40105 6.6856 2.5096 6.75787 2.62908 6.80689C2.74856 6.85591 2.87658 6.88071 3.00572 6.87985L23.1151 6.87985C23.3755 6.87985 23.6251 6.77643 23.8092 6.59236C23.9933 6.40828 24.0967 6.15862 24.0967 5.8983C24.0967 5.63797 23.9933 5.38831 23.8092 5.20424C23.6251 5.02016 23.3755 4.91675 23.1151 4.91675L3.00637 4.91675C2.7462 4.91743 2.49687 5.02105 2.31284 5.20496C2.12881 5.38886 2.02503 5.63813 2.02417 5.8983Z" fill="#6E7191"/>
</svg>
