<svg width="77" height="32" viewBox="0 0 77 32" fill="none" xmlns="http://www.w3.org/2000/svg">
<rect width="77" height="32" rx="8" fill="#6B16A8"/>
<path d="M9.04 20C8.97333 20 8.94 19.9667 8.94 19.9V13.1C8.94 13.0333 8.97333 13 9.04 13H11.4C12.06 13 12.5833 13.1733 12.97 13.52C13.3633 13.8667 13.56 14.3367 13.56 14.93V18.07C13.56 18.6633 13.3633 19.1333 12.97 19.48C12.5833 19.8267 12.06 20 11.4 20H9.04ZM9.65 19.34C9.65 19.3667 9.66333 19.38 9.69 19.38H11.43C11.8633 19.38 12.2067 19.2533 12.46 19C12.72 18.7467 12.85 18.4067 12.85 17.98V15.03C12.85 14.5967 12.7233 14.2533 12.47 14C12.2167 13.7467 11.87 13.62 11.43 13.62H9.69C9.66333 13.62 9.65 13.6333 9.65 13.66V19.34ZM16.9116 20.08C16.4316 20.08 16.0183 19.9567 15.6716 19.71C15.325 19.4633 15.085 19.1233 14.9516 18.69C14.8583 18.3833 14.8116 17.9733 14.8116 17.46C14.8116 16.9467 14.8583 16.54 14.9516 16.24C15.0783 15.8133 15.315 15.4767 15.6616 15.23C16.0083 14.9833 16.4283 14.86 16.9216 14.86C17.395 14.86 17.8016 14.9833 18.1416 15.23C18.4883 15.4767 18.725 15.81 18.8516 16.23C18.945 16.5167 18.9916 16.9267 18.9916 17.46C18.9916 18 18.945 18.41 18.8516 18.69C18.725 19.1233 18.4883 19.4633 18.1416 19.71C17.8016 19.9567 17.3916 20.08 16.9116 20.08ZM16.9116 19.46C17.2316 19.46 17.505 19.3733 17.7316 19.2C17.9583 19.02 18.1116 18.78 18.1916 18.48C18.2516 18.24 18.2816 17.9033 18.2816 17.47C18.2816 17.03 18.255 16.6933 18.2016 16.46C18.1216 16.16 17.965 15.9233 17.7316 15.75C17.505 15.57 17.2283 15.48 16.9016 15.48C16.575 15.48 16.2983 15.57 16.0716 15.75C15.845 15.9233 15.6916 16.16 15.6116 16.46C15.5583 16.6933 15.5316 17.03 15.5316 17.47C15.5316 17.91 15.5583 18.2467 15.6116 18.48C15.685 18.78 15.835 19.02 16.0616 19.2C16.295 19.3733 16.5783 19.46 16.9116 19.46ZM21.2855 20C21.2322 20 21.1955 19.9733 21.1755 19.92L19.7555 15.05L19.7455 15.02C19.7455 14.9667 19.7789 14.94 19.8455 14.94H20.3655C20.4255 14.94 20.4622 14.97 20.4755 15.03L21.5355 18.97C21.5422 18.9833 21.5489 18.99 21.5555 18.99C21.5689 18.99 21.5789 18.9833 21.5855 18.97L22.6655 15.03C22.6789 14.97 22.7155 14.94 22.7755 14.94H23.2555C23.3155 14.94 23.3522 14.9667 23.3655 15.02L24.4555 18.96C24.4622 18.9733 24.4722 18.98 24.4855 18.98C24.4989 18.98 24.5089 18.9733 24.5155 18.96L25.6055 15.03C25.6189 14.97 25.6555 14.94 25.7155 14.94L26.2355 14.95C26.2689 14.95 26.2922 14.96 26.3055 14.98C26.3255 15 26.3322 15.0267 26.3255 15.06L24.8855 19.92C24.8655 19.9733 24.8289 20 24.7755 20H24.2455C24.1922 20 24.1555 19.9733 24.1355 19.92L23.0455 16.18C23.0389 16.1667 23.0289 16.16 23.0155 16.16C23.0089 16.16 23.0022 16.1667 22.9955 16.18L21.9355 19.92C21.9155 19.9733 21.8789 20 21.8255 20H21.2855ZM29.5426 14.87C30.0759 14.87 30.4992 15.0267 30.8126 15.34C31.1326 15.6533 31.2926 16.0733 31.2926 16.6V19.9C31.2926 19.9667 31.2592 20 31.1926 20H30.6826C30.6159 20 30.5826 19.9667 30.5826 19.9V16.74C30.5826 16.3733 30.4692 16.0733 30.2426 15.84C30.0226 15.6067 29.7359 15.49 29.3826 15.49C29.0159 15.49 28.7192 15.6033 28.4926 15.83C28.2659 16.0567 28.1526 16.3533 28.1526 16.72V19.9C28.1526 19.9667 28.1192 20 28.0526 20H27.5426C27.4759 20 27.4426 19.9667 27.4426 19.9V15.04C27.4426 14.9733 27.4759 14.94 27.5426 14.94H28.0526C28.1192 14.94 28.1526 14.9733 28.1526 15.04V15.47C28.1526 15.4833 28.1559 15.4933 28.1626 15.5C28.1759 15.5067 28.1859 15.5033 28.1926 15.49C28.4859 15.0767 28.9359 14.87 29.5426 14.87ZM32.9332 20C32.8665 20 32.8332 19.9667 32.8332 19.9V13.1C32.8332 13.0333 32.8665 13 32.9332 13H33.4432C33.5099 13 33.5432 13.0333 33.5432 13.1V19.9C33.5432 19.9667 33.5099 20 33.4432 20H32.9332ZM37.0679 20.08C36.5879 20.08 36.1746 19.9567 35.8279 19.71C35.4812 19.4633 35.2412 19.1233 35.1079 18.69C35.0146 18.3833 34.9679 17.9733 34.9679 17.46C34.9679 16.9467 35.0146 16.54 35.1079 16.24C35.2346 15.8133 35.4712 15.4767 35.8179 15.23C36.1646 14.9833 36.5846 14.86 37.0779 14.86C37.5512 14.86 37.9579 14.9833 38.2979 15.23C38.6446 15.4767 38.8812 15.81 39.0079 16.23C39.1012 16.5167 39.1479 16.9267 39.1479 17.46C39.1479 18 39.1012 18.41 39.0079 18.69C38.8812 19.1233 38.6446 19.4633 38.2979 19.71C37.9579 19.9567 37.5479 20.08 37.0679 20.08ZM37.0679 19.46C37.3879 19.46 37.6612 19.3733 37.8879 19.2C38.1146 19.02 38.2679 18.78 38.3479 18.48C38.4079 18.24 38.4379 17.9033 38.4379 17.47C38.4379 17.03 38.4112 16.6933 38.3579 16.46C38.2779 16.16 38.1212 15.9233 37.8879 15.75C37.6612 15.57 37.3846 15.48 37.0579 15.48C36.7312 15.48 36.4546 15.57 36.2279 15.75C36.0012 15.9233 35.8479 16.16 35.7679 16.46C35.7146 16.6933 35.6879 17.03 35.6879 17.47C35.6879 17.91 35.7146 18.2467 35.7679 18.48C35.8412 18.78 35.9912 19.02 36.2179 19.2C36.4512 19.3733 36.7346 19.46 37.0679 19.46ZM42.3371 14.86C42.9371 14.86 43.4004 15.0133 43.7271 15.32C44.0538 15.6267 44.2171 16.0333 44.2171 16.54V19.9C44.2171 19.9667 44.1838 20 44.1171 20H43.6071C43.5404 20 43.5071 19.9667 43.5071 19.9V19.49C43.5071 19.4767 43.5004 19.4667 43.4871 19.46C43.4804 19.4533 43.4704 19.4567 43.4571 19.47C43.2904 19.67 43.0738 19.8233 42.8071 19.93C42.5404 20.03 42.2438 20.08 41.9171 20.08C41.4438 20.08 41.0471 19.96 40.7271 19.72C40.4071 19.48 40.2471 19.1133 40.2471 18.62C40.2471 18.12 40.4271 17.7267 40.7871 17.44C41.1538 17.1467 41.6604 17 42.3071 17H43.4671C43.4938 17 43.5071 16.9867 43.5071 16.96V16.58C43.5071 16.24 43.4104 15.9733 43.2171 15.78C43.0304 15.58 42.7371 15.48 42.3371 15.48C42.0171 15.48 41.7571 15.5433 41.5571 15.67C41.3571 15.79 41.2338 15.96 41.1871 16.18C41.1671 16.2467 41.1271 16.2767 41.0671 16.27L40.5271 16.2C40.4538 16.1867 40.4238 16.16 40.4371 16.12C40.4904 15.7467 40.6904 15.4433 41.0371 15.21C41.3838 14.9767 41.8171 14.86 42.3371 14.86ZM42.0571 19.47C42.4504 19.47 42.7904 19.3733 43.0771 19.18C43.3638 18.98 43.5071 18.7133 43.5071 18.38V17.6C43.5071 17.5733 43.4938 17.56 43.4671 17.56H42.4171C41.9771 17.56 41.6238 17.65 41.3571 17.83C41.0904 18.01 40.9571 18.26 40.9571 18.58C40.9571 18.8733 41.0571 19.0967 41.2571 19.25C41.4638 19.3967 41.7304 19.47 42.0571 19.47ZM48.8345 13.1C48.8345 13.0333 48.8679 13 48.9345 13H49.4445C49.5112 13 49.5445 13.0333 49.5445 13.1V19.9C49.5445 19.9667 49.5112 20 49.4445 20H48.9345C48.8679 20 48.8345 19.9667 48.8345 19.9V19.48C48.8345 19.4667 48.8279 19.46 48.8145 19.46C48.8079 19.4533 48.7979 19.4567 48.7845 19.47C48.6379 19.6633 48.4545 19.8133 48.2345 19.92C48.0212 20.0267 47.7812 20.08 47.5145 20.08C47.0479 20.08 46.6545 19.96 46.3345 19.72C46.0212 19.48 45.8045 19.1533 45.6845 18.74C45.5912 18.44 45.5445 18.0167 45.5445 17.47C45.5445 16.9167 45.5845 16.5033 45.6645 16.23C45.7845 15.8033 46.0045 15.47 46.3245 15.23C46.6445 14.9833 47.0412 14.86 47.5145 14.86C47.7745 14.86 48.0145 14.9133 48.2345 15.02C48.4545 15.12 48.6379 15.2667 48.7845 15.46C48.7979 15.4733 48.8079 15.48 48.8145 15.48C48.8279 15.4733 48.8345 15.4633 48.8345 15.45V13.1ZM48.6545 18.69C48.7145 18.5567 48.7579 18.4 48.7845 18.22C48.8112 18.04 48.8245 17.79 48.8245 17.47C48.8245 17.15 48.8112 16.9 48.7845 16.72C48.7579 16.5333 48.7112 16.37 48.6445 16.23C48.5645 16.0033 48.4312 15.8233 48.2445 15.69C48.0645 15.55 47.8479 15.48 47.5945 15.48C47.3279 15.48 47.0979 15.5467 46.9045 15.68C46.7112 15.8133 46.5712 15.99 46.4845 16.21C46.4045 16.3567 46.3445 16.5233 46.3045 16.71C46.2712 16.89 46.2545 17.1433 46.2545 17.47C46.2545 17.7833 46.2679 18.03 46.2945 18.21C46.3212 18.3833 46.3679 18.54 46.4345 18.68C46.5145 18.92 46.6545 19.11 46.8545 19.25C47.0612 19.39 47.3045 19.46 47.5845 19.46C47.8512 19.46 48.0745 19.39 48.2545 19.25C48.4345 19.11 48.5679 18.9233 48.6545 18.69ZM54.9055 14.86C55.5055 14.86 55.9688 15.0133 56.2955 15.32C56.6221 15.6267 56.7855 16.0333 56.7855 16.54V19.9C56.7855 19.9667 56.7521 20 56.6855 20H56.1755C56.1088 20 56.0755 19.9667 56.0755 19.9V19.49C56.0755 19.4767 56.0688 19.4667 56.0555 19.46C56.0488 19.4533 56.0388 19.4567 56.0255 19.47C55.8588 19.67 55.6421 19.8233 55.3755 19.93C55.1088 20.03 54.8121 20.08 54.4855 20.08C54.0121 20.08 53.6155 19.96 53.2955 19.72C52.9755 19.48 52.8155 19.1133 52.8155 18.62C52.8155 18.12 52.9955 17.7267 53.3555 17.44C53.7221 17.1467 54.2288 17 54.8755 17H56.0355C56.0621 17 56.0755 16.9867 56.0755 16.96V16.58C56.0755 16.24 55.9788 15.9733 55.7855 15.78C55.5988 15.58 55.3055 15.48 54.9055 15.48C54.5855 15.48 54.3255 15.5433 54.1255 15.67C53.9255 15.79 53.8021 15.96 53.7555 16.18C53.7355 16.2467 53.6955 16.2767 53.6355 16.27L53.0955 16.2C53.0221 16.1867 52.9921 16.16 53.0055 16.12C53.0588 15.7467 53.2588 15.4433 53.6055 15.21C53.9521 14.9767 54.3855 14.86 54.9055 14.86ZM54.6255 19.47C55.0188 19.47 55.3588 19.3733 55.6455 19.18C55.9321 18.98 56.0755 18.7133 56.0755 18.38V17.6C56.0755 17.5733 56.0621 17.56 56.0355 17.56H54.9855C54.5455 17.56 54.1921 17.65 53.9255 17.83C53.6588 18.01 53.5255 18.26 53.5255 18.58C53.5255 18.8733 53.6255 19.0967 53.8255 19.25C54.0321 19.3967 54.2988 19.47 54.6255 19.47ZM62.1929 16.2C62.2929 16.52 62.3429 16.9433 62.3429 17.47C62.3429 18.0033 62.2996 18.4167 62.2129 18.71C62.0929 19.1367 61.8729 19.4733 61.5529 19.72C61.2396 19.96 60.8429 20.08 60.3629 20.08C60.1029 20.08 59.8629 20.03 59.6429 19.93C59.4229 19.8233 59.2396 19.6733 59.0929 19.48C59.0796 19.4667 59.0662 19.4633 59.0529 19.47C59.0462 19.47 59.0429 19.4767 59.0429 19.49V21.84C59.0429 21.9067 59.0096 21.94 58.9429 21.94H58.4329C58.3662 21.94 58.3329 21.9067 58.3329 21.84V15.04C58.3329 14.9733 58.3662 14.94 58.4329 14.94H58.9429C59.0096 14.94 59.0429 14.9733 59.0429 15.04V15.46C59.0429 15.4733 59.0462 15.4833 59.0529 15.49C59.0662 15.49 59.0796 15.4833 59.0929 15.47C59.2396 15.2767 59.4196 15.1267 59.6329 15.02C59.8529 14.9133 60.0962 14.86 60.3629 14.86C60.8296 14.86 61.2196 14.98 61.5329 15.22C61.8529 15.46 62.0729 15.7867 62.1929 16.2ZM61.4029 18.73C61.4762 18.5833 61.5296 18.42 61.5629 18.24C61.6029 18.0533 61.6229 17.7967 61.6229 17.47C61.6229 17.1567 61.6096 16.9133 61.5829 16.74C61.5562 16.56 61.5096 16.4 61.4429 16.26C61.3629 16.02 61.2196 15.83 61.0129 15.69C60.8129 15.55 60.5729 15.48 60.2929 15.48C60.0262 15.48 59.8029 15.55 59.6229 15.69C59.4429 15.83 59.3096 16.0167 59.2229 16.25C59.1629 16.3833 59.1196 16.54 59.0929 16.72C59.0662 16.9 59.0529 17.15 59.0529 17.47C59.0529 17.79 59.0662 18.0433 59.0929 18.23C59.1196 18.41 59.1662 18.57 59.2329 18.71C59.3129 18.9367 59.4429 19.12 59.6229 19.26C59.8096 19.3933 60.0296 19.46 60.2829 19.46C60.5496 19.46 60.7796 19.3933 60.9729 19.26C61.1729 19.1267 61.3162 18.95 61.4029 18.73ZM67.7105 16.2C67.8105 16.52 67.8605 16.9433 67.8605 17.47C67.8605 18.0033 67.8171 18.4167 67.7305 18.71C67.6105 19.1367 67.3905 19.4733 67.0705 19.72C66.7571 19.96 66.3605 20.08 65.8805 20.08C65.6205 20.08 65.3805 20.03 65.1605 19.93C64.9405 19.8233 64.7571 19.6733 64.6105 19.48C64.5971 19.4667 64.5838 19.4633 64.5705 19.47C64.5638 19.47 64.5605 19.4767 64.5605 19.49V21.84C64.5605 21.9067 64.5271 21.94 64.4605 21.94H63.9505C63.8838 21.94 63.8505 21.9067 63.8505 21.84V15.04C63.8505 14.9733 63.8838 14.94 63.9505 14.94H64.4605C64.5271 14.94 64.5605 14.9733 64.5605 15.04V15.46C64.5605 15.4733 64.5638 15.4833 64.5705 15.49C64.5838 15.49 64.5971 15.4833 64.6105 15.47C64.7571 15.2767 64.9371 15.1267 65.1505 15.02C65.3705 14.9133 65.6138 14.86 65.8805 14.86C66.3471 14.86 66.7371 14.98 67.0505 15.22C67.3705 15.46 67.5905 15.7867 67.7105 16.2ZM66.9205 18.73C66.9938 18.5833 67.0471 18.42 67.0805 18.24C67.1205 18.0533 67.1405 17.7967 67.1405 17.47C67.1405 17.1567 67.1271 16.9133 67.1005 16.74C67.0738 16.56 67.0271 16.4 66.9605 16.26C66.8805 16.02 66.7371 15.83 66.5305 15.69C66.3305 15.55 66.0905 15.48 65.8105 15.48C65.5438 15.48 65.3205 15.55 65.1405 15.69C64.9605 15.83 64.8271 16.0167 64.7405 16.25C64.6805 16.3833 64.6371 16.54 64.6105 16.72C64.5838 16.9 64.5705 17.15 64.5705 17.47C64.5705 17.79 64.5838 18.0433 64.6105 18.23C64.6371 18.41 64.6838 18.57 64.7505 18.71C64.8305 18.9367 64.9605 19.12 65.1405 19.26C65.3271 19.3933 65.5471 19.46 65.8005 19.46C66.0671 19.46 66.2971 19.3933 66.4905 19.26C66.6905 19.1267 66.8338 18.95 66.9205 18.73Z" fill="white"/>
</svg>
