<svg width="14" height="15" viewBox="0 0 14 15" fill="none" xmlns="http://www.w3.org/2000/svg">
<path d="M5.02357 14.0853C1.5082 14.0853 0.00488281 12.5838 0.00488281 9.06635V5.18047C0.00488281 1.66509 1.50657 0.161377 5.02357 0.161377H8.90877C12.4246 0.161377 13.9263 1.66306 13.9263 5.18047V9.06635C13.9263 12.5817 12.4246 14.0853 8.90877 14.0853H5.02357ZM0.977073 5.18086V9.06675C0.977073 12.0497 2.03863 13.1145 5.02357 13.1145H8.90877C11.8933 13.1145 12.9557 12.0497 12.9557 9.06675V5.18086C12.9557 2.19794 11.8937 1.13297 8.90877 1.13297H5.02357C2.03903 1.13297 0.97747 2.19794 0.97747 5.18086H0.977073ZM5.7433 10.6812V10.6605C5.7433 10.6447 5.7433 10.6199 5.7433 10.5858C5.74817 9.3017 5.75751 6.27581 5.7433 5.91664H7.32624V6.59198C7.47145 6.34307 7.68038 6.1373 7.93143 5.99581C8.1628 5.86888 8.42213 5.80216 8.68603 5.80181H8.7225C8.73508 5.80181 8.74644 5.80181 8.75618 5.80181C9.89862 5.80181 10.5789 6.60288 10.5789 7.94742V10.6747H8.99636V8.12726C8.99636 7.42313 8.71929 7.05301 8.19657 7.05301C8.01611 7.05159 7.84013 7.10722 7.69323 7.21204C7.54911 7.31833 7.43951 7.46494 7.37855 7.63333C7.33877 7.75696 7.32158 7.88667 7.32782 8.01638V10.68L5.7433 10.6812ZM3.28013 10.6763V5.91664H4.86584V10.6763H3.28013ZM3.18937 4.4321C3.197 4.20273 3.29547 3.98572 3.46284 3.82869C3.63021 3.67167 3.8529 3.58736 4.0823 3.59436C4.31198 3.58703 4.53518 3.67116 4.70295 3.8282C4.87071 3.98523 4.96937 4.20244 4.9772 4.4321C4.96957 4.66212 4.87106 4.87969 4.70334 5.03729C4.53563 5.19489 4.31234 5.27968 4.0823 5.27301C3.85268 5.27924 3.63006 5.19428 3.46284 5.0368C3.29562 4.87931 3.1973 4.66208 3.18977 4.4325L3.18937 4.4321Z" fill="#F2F2F8"/>
</svg>
