<svg width="12" height="14" viewBox="0 0 12 14" fill="none" xmlns="http://www.w3.org/2000/svg">
<path d="M6.25392 13.223H6.17476C5.60852 13.2049 5.06452 12.9983 4.62907 12.6359C4.17909 12.2547 3.76903 11.8287 3.40522 11.3645C3.34892 11.2955 3.29041 11.2287 3.23374 11.16C3.16908 11.0932 3.10227 11.0241 3.03761 10.9595C2.36941 10.3156 1.78866 9.58667 1.31028 8.79151C0.846899 8.02353 0.598223 7.14521 0.590273 6.2483C0.581032 5.51262 0.721161 4.78269 1.00214 4.10272C1.28312 3.42276 1.6991 2.80689 2.22497 2.29234C2.75334 1.77231 3.38042 1.36323 4.06927 1.0892C4.76141 0.814295 5.50093 0.678518 6.24558 0.689618H6.25795C6.99892 0.678344 7.73483 0.813109 8.42371 1.08627C9.11056 1.3581 9.7367 1.76348 10.2658 2.2789C10.7904 2.79013 11.2066 3.40186 11.4894 4.07758C11.7722 4.75329 11.9159 5.47908 11.9118 6.21158V6.2479C11.9008 7.14344 11.6521 8.02001 11.1911 8.78787C10.7114 9.58149 10.1308 10.3095 9.46375 10.9537C9.40127 11.0162 9.33623 11.083 9.26939 11.152C9.2109 11.221 9.15244 11.29 9.09614 11.3587C8.73294 11.8242 8.32283 12.2511 7.87229 12.6327C7.43684 12.9951 6.89283 13.2017 6.3266 13.2197L6.25392 13.223ZM6.34367 4.10174C5.98076 4.10175 5.62574 4.20767 5.32216 4.40652C5.02116 4.60449 4.78562 4.88731 4.64539 5.21917C4.50667 5.5493 4.47061 5.91355 4.54189 6.26448C4.61316 6.61541 4.78845 6.93675 5.04497 7.18661C5.30386 7.44004 5.63124 7.61221 5.98674 7.68198C6.34225 7.75175 6.71038 7.71605 7.04585 7.57928C7.38092 7.44409 7.66813 7.21216 7.87083 6.91306C8.10674 6.56648 8.213 6.14785 8.17095 5.73072C8.12889 5.31358 7.94124 4.92461 7.6409 4.6321C7.29435 4.29278 6.82903 4.1021 6.34402 4.10064L6.34367 4.10174Z" fill="#F2F2F8"/>
</svg>
