<svg width="15" height="15" viewBox="0 0 15 15" fill="none" xmlns="http://www.w3.org/2000/svg">
<path d="M7.14728 14.0177H5.36188C5.14313 14.0177 4.92987 14.0116 4.72777 13.9999C4.52567 13.9881 4.32711 13.9702 4.14043 13.9463C3.95374 13.9223 3.77034 13.8923 3.59826 13.8562C3.42619 13.8201 3.25795 13.777 3.10049 13.7287C2.94671 13.6815 2.79545 13.6262 2.6475 13.5631C2.50695 13.5037 2.37018 13.4359 2.23771 13.3602C2.11015 13.2871 1.98735 13.2058 1.87032 13.1168C1.75588 13.0294 1.6475 12.9344 1.54574 12.8326C1.44397 12.7308 1.34899 12.6224 1.26158 12.508C1.17257 12.391 1.09139 12.2683 1.01824 12.1407C0.942507 12.0083 0.874748 11.8714 0.815324 11.7308C0.751973 11.5828 0.696617 11.4315 0.649663 11.2776C0.600964 11.1205 0.558158 10.9529 0.522445 10.7804C0.486732 10.6079 0.455633 10.4261 0.431689 10.2382C0.407745 10.0503 0.391172 9.85389 0.378186 9.65057C0.365199 9.44725 0.360352 9.23541 0.360352 9.01666V5.14346C0.360352 4.92471 0.366823 4.71165 0.378186 4.50955C0.389549 4.30744 0.407745 4.10859 0.431689 3.92191C0.455633 3.73522 0.486327 3.55172 0.522445 3.37964C0.558564 3.20757 0.600964 3.03962 0.649663 2.88256C0.696629 2.72858 0.751985 2.57718 0.815324 2.42918C0.874752 2.28863 0.94251 2.15186 1.01824 2.01938C1.09141 1.89184 1.17259 1.76915 1.26158 1.6521C1.34896 1.53769 1.44394 1.42921 1.54574 1.32741C1.64752 1.22561 1.75591 1.13073 1.87032 1.04335C1.98738 0.954365 2.11017 0.872991 2.23771 0.799817C2.37015 0.724042 2.50693 0.656282 2.6475 0.596903C2.79543 0.533729 2.9467 0.478475 3.10049 0.431341C3.25795 0.382642 3.42538 0.340044 3.59826 0.303925C3.77115 0.267806 3.95253 0.237707 4.14043 0.213763C4.32832 0.189819 4.52445 0.173247 4.72777 0.16026C4.93109 0.147274 5.14273 0.142822 5.36188 0.142822H9.23548C9.45382 0.142822 9.66709 0.148897 9.86919 0.16026C10.0713 0.171623 10.2698 0.190225 10.4569 0.213763C10.644 0.237301 10.827 0.268212 10.9991 0.303925C11.1712 0.339638 11.339 0.383048 11.4965 0.431341C11.6504 0.478539 11.8014 0.533792 11.9495 0.596903C12.09 0.656445 12.2271 0.7242 12.3596 0.799817C12.4871 0.873178 12.6095 0.954545 12.7266 1.04335C12.8411 1.13072 12.9498 1.2256 13.0516 1.32741C13.1535 1.42912 13.2481 1.5376 13.3354 1.6521C13.4242 1.76925 13.5058 1.89193 13.5791 2.01938C13.6547 2.15194 13.7224 2.28871 13.782 2.42918C13.8452 2.57724 13.9006 2.72863 13.9477 2.88256C13.996 3.04003 14.0392 3.20717 14.0749 3.37964C14.1106 3.55212 14.1413 3.73401 14.1653 3.92191C14.1892 4.1098 14.2058 4.30623 14.2192 4.50955C14.2326 4.71287 14.2366 4.92471 14.2366 5.14346V9.01666C14.2366 9.23541 14.2305 9.44847 14.2192 9.65057C14.2078 9.85268 14.1892 10.0515 14.1653 10.2382C14.1413 10.4249 14.111 10.6083 14.0749 10.7804C14.0388 10.9524 13.994 11.1205 13.9477 11.2776C13.9006 11.4315 13.8452 11.5828 13.782 11.7308C13.7224 11.8713 13.6547 12.0082 13.5791 12.1407C13.5058 12.2682 13.4243 12.3909 13.3354 12.508C13.2481 12.6225 13.1535 12.7309 13.0516 12.8326C12.9499 12.9344 12.8411 13.0294 12.7266 13.1168C12.6095 13.2056 12.4871 13.2869 12.3596 13.3602C12.2271 13.4357 12.0899 13.5035 11.9495 13.5631C11.8014 13.6262 11.6504 13.6814 11.4965 13.7287C11.339 13.777 11.1716 13.8201 10.9991 13.8562C10.8266 13.8923 10.6448 13.9227 10.4569 13.9463C10.269 13.9698 10.0725 13.9869 9.86919 13.9999C9.66587 14.0128 9.45422 14.0177 9.23548 14.0177H8.09409V13.0494H8.10399V8.36611H9.80856L9.94013 7.72328H8.1139V5.33329C8.11376 5.24446 8.13113 5.1565 8.16503 5.0744C8.19849 4.99157 8.24805 4.91637 8.31127 4.85325C8.37439 4.78994 8.44958 4.73995 8.53241 4.70632C8.61471 4.67262 8.70308 4.65538 8.792 4.65559H10.0499V3.68729H8.58909C8.39899 3.68738 8.21071 3.72528 8.03543 3.79885C7.94799 3.83534 7.86418 3.88022 7.78536 3.9328C7.70551 3.98593 7.63098 4.04655 7.56263 4.11382C7.29094 4.38645 7.13789 4.7553 7.13658 5.14019V7.72368H5.84697V8.36651H7.13658V13.0498H7.14649V14.0181L7.14728 14.0177ZM9.07378 9.33075V13.0494H9.23627C9.87148 13.0644 10.506 12.993 11.122 12.8372C11.5908 12.7198 12.0205 12.4819 12.3692 12.1472C12.7041 11.7985 12.942 11.3683 13.0591 10.8993C13.2152 10.2832 13.2868 9.64874 13.2716 9.01339V5.14019C13.2867 4.50497 13.2152 3.87065 13.0591 3.25471C12.942 2.78565 12.7041 2.35544 12.3692 2.0068C12.0205 1.67205 11.5908 1.43414 11.122 1.31681C10.506 1.16095 9.87148 1.08957 9.23627 1.10459H5.36267C4.72746 1.08955 4.09296 1.16093 3.47699 1.31681C3.00798 1.43405 2.5781 1.67197 2.22938 2.0068C1.89443 2.35543 1.6565 2.78564 1.5394 3.25471C1.38339 3.87065 1.31181 4.50497 1.32697 5.14019V9.01339C1.31179 9.64874 1.38338 10.2832 1.5394 10.8993C1.65655 11.3683 1.89448 11.7985 2.22938 12.1472C2.5781 12.482 3.00798 12.7199 3.47699 12.8372C4.09296 12.993 4.72746 13.0644 5.36267 13.0494H6.16838V9.33481H4.87797V6.75538H6.16838V5.14019C6.16838 4.98075 6.18384 4.82163 6.21515 4.6653C6.24611 4.51051 6.292 4.35919 6.35227 4.2133C6.41271 4.06753 6.48766 3.92802 6.5754 3.79687C6.66361 3.66435 6.76481 3.54094 6.87739 3.42839C6.99069 3.316 7.1143 3.21482 7.24716 3.1264C7.37873 3.039 7.51857 2.96458 7.66448 2.90406C7.8101 2.84371 7.96136 2.79759 8.11588 2.76644C8.27155 2.73522 8.42993 2.71947 8.58869 2.71938H11.0098V5.59833L10.3321 5.62429H9.07378V6.75538H11.1085C10.8625 8.00574 10.5945 9.33114 10.5945 9.33114L9.07378 9.33075Z" fill="#F2F2F8"/>
</svg>
