<svg width="15" height="15" viewBox="0 0 15 15" fill="none" xmlns="http://www.w3.org/2000/svg">
<path d="M9.10349 14.0782H5.21839C1.70261 14.0782 0.200195 12.5766 0.200195 9.05878V5.17368C0.200195 1.65749 1.7018 0.154297 5.21839 0.154297H9.10349C12.6193 0.154297 14.1217 1.65587 14.1217 5.17368V9.05878C14.1221 12.575 12.6197 14.0782 9.10349 14.0782ZM5.21839 1.1254C2.23344 1.1254 1.17137 2.18995 1.17137 5.17368V9.05878C1.17137 12.0425 2.23344 13.1071 5.21839 13.1071H9.10349C12.0884 13.1071 13.1505 12.0425 13.1505 9.05878V5.17368C13.1505 2.18995 12.0884 1.1254 9.10349 1.1254H5.21839Z" fill="#F2F2F8"/>
</svg>
