<svg width="15" height="15" viewBox="0 0 15 15" fill="none" xmlns="http://www.w3.org/2000/svg">
<path d="M8.99839 14.1192H5.093C1.55896 14.1192 0.0488281 12.6091 0.0488281 9.07505V5.16966C0.0488281 1.63359 1.55733 0.125488 5.093 0.125488H8.99839C12.5324 0.125488 14.0426 1.63561 14.0426 5.16966V9.07505C14.0426 12.6091 12.5324 14.1192 8.99839 14.1192ZM5.093 1.10194C2.09263 1.10194 1.02528 2.16929 1.02528 5.16966V9.07505C1.02528 12.0754 2.09263 13.1428 5.093 13.1428H8.99839C11.9988 13.1428 13.0665 12.0754 13.0665 9.07505V5.16966C13.0665 2.16929 11.9992 1.10153 8.99839 1.10153L5.093 1.10194Z" fill="#F2F2F8"/>
</svg>
