<svg width="22" height="22" viewBox="0 0 22 22" fill="none" xmlns="http://www.w3.org/2000/svg">
<path d="M13.9003 21.3653H8.12322C7.80941 21.3653 7.49129 21.3563 7.17747 21.3389C6.86366 21.3215 6.56545 21.2915 6.30204 21.2579C5.99542 21.2189 5.73047 21.1752 5.49106 21.1242C5.20845 21.0642 4.96641 21.004 4.7504 20.935C4.51399 20.86 4.28775 20.7767 4.07654 20.6867C3.86637 20.598 3.66149 20.4966 3.46362 20.3831C3.2741 20.272 3.0913 20.1499 2.91632 20.0171C2.7447 19.8878 2.58272 19.7464 2.43114 19.5941C2.27875 19.4424 2.13716 19.2801 2.00749 19.1086C1.87521 18.9334 1.75297 18.7508 1.64185 18.5614C1.52835 18.3638 1.42704 18.1594 1.33832 17.9494C1.24651 17.734 1.16247 17.5072 1.08987 17.2749C1.01726 17.0427 0.961993 16.8213 0.917591 16.6059C0.741678 15.9627 0.656342 15.298 0.663868 14.6312V14.3012C0.663868 14.1728 0.65918 14.0354 0.65918 13.8998V13.2674C0.65918 13.319 0.659067 13.3712 0.663868 13.424V11.277C0.659067 11.097 0.659067 10.9081 0.663868 10.7227V8.62256C0.663868 8.69337 0.659766 8.76051 0.659766 8.83132V8.12508C0.659766 7.98467 0.659653 7.84124 0.664454 7.72604V7.39365C0.656904 6.72682 0.742241 6.06218 0.918177 5.41894C0.97038 5.18253 1.02865 4.95808 1.09045 4.75167C1.16546 4.51166 1.2495 4.28723 1.3389 4.07722C1.42773 3.8673 1.52904 3.66291 1.64243 3.46518C1.75232 3.27509 1.87461 3.09238 2.00808 2.91803C2.13779 2.74654 2.27938 2.58429 2.43173 2.43256C2.58395 2.28017 2.74587 2.13806 2.91691 2.00715C3.09192 1.87516 3.27472 1.75376 3.4642 1.64355C3.66211 1.53011 3.86699 1.42866 4.07712 1.33988C4.29714 1.24494 4.5221 1.16194 4.75099 1.09099C4.991 1.01718 5.24083 0.95347 5.49165 0.901868C5.74246 0.850265 6.01881 0.801779 6.30263 0.765777C6.61704 0.727975 6.90265 0.702126 7.17806 0.686525C7.49128 0.669124 7.80939 0.660156 8.12381 0.660156H13.9009C14.2153 0.660156 14.534 0.669124 14.8472 0.686525C15.1226 0.701525 15.41 0.727975 15.7244 0.765777C16.0052 0.801779 16.2774 0.847265 16.533 0.901868C16.7886 0.95647 17.0301 1.01658 17.2737 1.09099C17.5028 1.16187 17.7279 1.24487 17.9481 1.33988C18.1582 1.42848 18.3629 1.52994 18.5605 1.64355C18.751 1.75242 18.934 1.87387 19.1083 2.00715C19.2793 2.13819 19.4412 2.28029 19.5935 2.43256C19.7459 2.5848 19.888 2.74701 20.0189 2.91803C20.1513 3.09266 20.2728 3.27535 20.3822 3.46518C20.4959 3.66288 20.5974 3.86727 20.6864 4.07722C20.782 4.29708 20.865 4.52227 20.9348 4.75167C21.0008 4.97548 21.0546 5.17167 21.0948 5.35888C21.283 6.02042 21.3741 6.7059 21.3649 7.39365V14.633C21.3742 15.3215 21.2831 16.0077 21.0948 16.6701C21.0438 16.8945 20.9918 17.0931 20.9348 17.2773C20.8651 17.5067 20.7821 17.7319 20.6864 17.9517C20.5972 18.1616 20.4957 18.366 20.3822 18.5638C20.2715 18.7528 20.15 18.9356 20.0189 19.1111C19.8879 19.282 19.7458 19.4441 19.5935 19.5964C19.4419 19.7486 19.2799 19.8901 19.1083 20.0195C18.9341 20.1536 18.7511 20.276 18.5605 20.3856C18.3627 20.4989 18.158 20.6002 17.9481 20.6891C17.7363 20.7797 17.5095 20.8631 17.2737 20.9375C17.0565 21.0041 16.8138 21.0659 16.533 21.1265C16.293 21.1775 16.028 21.2213 15.7244 21.2603C15.4628 21.2939 15.1682 21.3203 14.8472 21.3413C14.5262 21.3623 14.2141 21.3653 13.9003 21.3653ZM9.26645 9.22494C9.28985 9.76497 9.27485 14.2346 9.26645 16.1307C9.26645 16.2165 9.26645 16.2656 9.26645 16.271H11.6068V12.3336C11.5968 12.1419 11.622 11.95 11.6812 11.7673C11.7713 11.5178 11.933 11.3007 12.1465 11.1432C12.3629 10.9896 12.6223 10.9077 12.8877 10.9092C13.6624 10.9092 14.0714 11.4589 14.0714 12.4993V16.265H16.4117V12.2317C16.4117 10.2468 15.4041 9.06175 13.7174 9.06175C13.6838 9.06175 13.6491 9.06175 13.6131 9.06175C13.2225 9.06183 12.8381 9.1605 12.4957 9.34858C12.1259 9.5577 11.8186 9.86115 11.6045 10.2281V9.22845L9.26645 9.22494ZM5.6229 9.22494V16.2633H7.96794V9.22494H5.6229ZM6.81066 5.79396C6.47163 5.78408 6.14273 5.90879 5.89538 6.14085C5.64803 6.37291 5.50222 6.69343 5.49048 7.0324C5.50192 7.37168 5.64744 7.69261 5.89479 7.92512C6.14214 8.15763 6.47132 8.28288 6.81066 8.27333C7.14995 8.28272 7.47921 8.15745 7.72652 7.92497C7.97384 7.6925 8.11925 7.37162 8.13084 7.0324C8.11956 6.69306 7.97391 6.37207 7.72652 6.13953C7.47914 5.90699 7.15004 5.78191 6.81066 5.79161V5.79396Z" fill="#1680B9"/>
</svg>
