<svg width="11" height="11" viewBox="0 0 11 11" fill="none" xmlns="http://www.w3.org/2000/svg">
<path d="M8.03704 10.2875C7.46786 10.2762 6.90672 10.1509 6.38674 9.91913C5.76907 9.65153 5.18357 9.31532 4.64101 8.91687C4.45393 8.77629 4.26743 8.63645 4.08689 8.4886L3.23159 7.72575C3.20085 7.70654 3.17211 7.68415 3.14609 7.65892C3.09088 7.60334 3.03387 7.55357 2.9783 7.49836C2.46619 6.98324 1.99393 6.43009 1.56532 5.84366C1.17198 5.30672 0.838256 4.72852 0.570246 4.11926C0.345293 3.59596 0.223548 3.03406 0.211947 2.46457C0.210271 2.13054 0.271902 1.79921 0.39358 1.48812C0.523887 1.1671 0.723469 0.878753 0.977855 0.643547C1.11261 0.498238 1.27482 0.381275 1.45535 0.299528C1.63624 0.218341 1.83148 0.173895 2.02969 0.168758C2.17179 0.167191 2.3123 0.198261 2.44049 0.259574C2.57775 0.321077 2.69575 0.418907 2.78141 0.542532L3.95422 2.19576C4.03602 2.30483 4.1041 2.42369 4.15642 2.54958C4.20101 2.64701 4.22578 2.75236 4.22915 2.85945C4.2264 2.98628 4.18917 3.11 4.12201 3.21762C4.0437 3.34874 3.94894 3.46913 3.83963 3.57579L3.45544 3.97541C3.42836 4.00182 3.40663 4.0331 3.39123 4.06765C3.37798 4.10305 3.37177 4.14068 3.37278 4.17846C3.37158 4.21745 3.37685 4.25637 3.38839 4.29362C3.40292 4.33613 3.42012 4.36627 3.42847 4.39606C3.56505 4.62618 3.72249 4.84325 3.89887 5.0445C4.12773 5.30605 4.37092 5.57485 4.63356 5.84366C4.67207 5.88253 4.71353 5.92104 4.75276 5.95918L5.7379 6.82592C5.85005 6.90925 5.96756 6.98499 6.08982 7.05261C6.1196 7.06387 6.14858 7.0795 6.18418 7.09403C6.22468 7.10859 6.26745 7.11539 6.31047 7.11403C6.34915 7.11555 6.38751 7.10819 6.42293 7.09256C6.45918 7.07893 6.49202 7.05703 6.51835 7.02862L6.90361 6.64904C7.01043 6.53728 7.13277 6.44146 7.26688 6.36457C7.37487 6.29604 7.50012 6.25954 7.62802 6.25925C7.73473 6.26038 7.84034 6.28257 7.93842 6.32462C8.06269 6.37753 8.18074 6.44382 8.29069 6.52226L9.96973 7.71085C10.0906 7.79081 10.1865 7.90306 10.2468 8.03487C10.3 8.15937 10.3275 8.29326 10.328 8.42865C10.3284 8.57585 10.3019 8.72188 10.2496 8.85949C10.2379 8.90163 10.2213 8.94224 10.2 8.98046C10.1116 9.16879 9.99609 9.34321 9.85727 9.49813C9.6286 9.75628 9.34526 9.95982 9.02751 10.0938C9.0217 10.0938 9.01594 10.0982 9.01013 10.0982C8.70521 10.2222 8.37933 10.286 8.05017 10.286L8.03704 10.2875Z" fill="#F2F2F8"/>
</svg>
