<svg width="356" height="415" viewBox="0 0 356 415" fill="none" xmlns="http://www.w3.org/2000/svg">
<path opacity="0.5" d="M87.8785 161.425C77.7256 166.782 61.2646 166.782 51.1151 161.425C40.9656 156.068 40.9622 147.393 51.1151 142.04C61.2681 136.688 77.7302 136.683 87.8785 142.04C98.0269 147.397 98.0315 156.072 87.8785 161.425Z" fill="#7817BE"/>
<path d="M99.0728 140.013V132.43H97.5045C95.7022 129.831 93.257 127.744 90.4078 126.374C78.8576 120.283 60.1292 120.283 48.5789 126.374C45.7298 127.744 43.2845 129.831 41.4822 132.43H39.9233V139.972C39.9035 143.977 42.7875 147.984 48.5824 151.035C60.1338 157.125 78.8611 157.125 90.4124 151.035C96.1852 147.992 99.0728 144 99.0728 140.013Z" fill="#7817BE"/>
<path d="M69.4957 148.019C85.8313 148.019 99.0739 141.038 99.0739 132.425C99.0739 123.813 85.8313 116.832 69.4957 116.832C53.1601 116.832 39.9174 123.813 39.9174 132.425C39.9174 141.038 53.1601 148.019 69.4957 148.019Z" fill="#7817BE"/>
<path d="M90.4147 143.453C78.8634 149.543 60.1361 149.543 48.5848 143.453C43.0493 140.534 40.1966 136.746 39.9663 132.922C39.7173 137.077 42.57 141.274 48.5848 144.451C60.1361 150.541 78.8634 150.541 90.4147 144.451C96.4295 141.28 99.2822 137.084 99.032 132.928C98.7982 136.746 95.9455 140.534 90.4147 143.453Z" fill="white"/>
<path d="M55.2382 137.589C55.03 137.51 54.8473 137.376 54.7101 137.2C54.5728 137.025 54.4863 136.815 54.4599 136.593L54.489 126.434C54.489 125.659 55.685 125.036 57.1555 125.036C58.626 125.036 59.8127 125.666 59.8127 126.443L59.7871 134.867L86.5627 131.873C88.003 131.711 89.4154 132.197 89.7202 132.955C90.025 133.713 89.1059 134.458 87.6691 134.619L57.6732 137.973C56.9178 138.065 56.1516 137.968 55.443 137.69C55.372 137.655 55.3034 137.623 55.2382 137.589Z" fill="white"/>
<path opacity="0.5" d="M343.478 203.59L243.789 145.803C238.373 142.659 228.907 143.043 222.644 146.651L13.4245 267.18C7.16193 270.79 6.47437 276.264 11.89 279.398L111.579 337.185C116.994 340.329 126.46 339.945 132.724 336.337L341.941 215.808C348.205 212.2 348.893 206.73 343.478 203.59Z" fill="#561B81"/>
<path d="M108.68 315.781L4.93286 255.64C1.5241 253.66 -0.0639345 251 0.0465884 248.229L0.0233154 248.237L0.0652103 233.167L5.83566 239.933C6.20911 239.685 6.58605 239.439 6.99906 239.203L219.231 116.937C227.656 112.083 240.393 111.572 247.678 115.796L349.969 175.092C352.039 172.823 356.38 168.031 356.38 168.031L356.332 182.772C356.485 186.095 354.121 189.636 349.364 192.376L137.126 314.639C128.701 319.493 115.964 320.004 108.68 315.781Z" fill="#A35BD6"/>
<path d="M52.5787 278.885L58.5539 282.339C59.3474 282.798 59.9907 282.31 59.9907 281.252C59.9825 280.713 59.8482 280.184 59.5987 279.706C59.3492 279.229 58.9914 278.817 58.5539 278.503L52.5787 275.05C51.7852 274.591 51.1419 275.078 51.1419 276.138C51.15 276.676 51.2842 277.206 51.5338 277.683C51.7833 278.16 52.1412 278.572 52.5787 278.885Z" fill="#173D7A"/>
<path d="M219.231 116.937C227.656 112.083 240.393 111.572 247.678 115.796L349.969 175.091C352.039 172.823 356.38 168.031 356.38 168.031L356.332 182.772C356.485 186.095 354.121 189.635 349.364 192.376L137.126 314.639C132.421 317.198 127.162 318.566 121.808 318.622L122.01 172.945L219.231 116.937Z" fill="#7E3AAF"/>
<path d="M351.469 160.785L247.723 100.65C240.437 96.4256 227.7 96.9369 219.274 101.791L7.0409 224.052C-1.38559 228.906 -2.31049 236.265 4.97588 240.49L108.722 300.629C116.007 304.853 128.744 304.343 137.169 299.489L349.404 177.222C357.83 172.368 358.754 165.009 351.469 160.785Z" fill="#D4ECFF"/>
<path d="M108.643 302.24L4.89679 242.1C1.13901 239.922 -0.417615 236.909 0.0954438 233.832C0.279261 236.328 1.87777 238.692 4.97474 240.488L108.722 300.627C116.007 304.851 128.744 304.341 137.171 299.487L349.404 177.222C353.485 174.872 355.788 171.934 356.268 169.049C356.517 172.427 354.167 176.037 349.322 178.832L137.091 301.097C128.665 305.951 115.928 306.461 108.643 302.24Z" fill="white"/>
<path d="M343.478 163.155L243.789 105.369C238.373 102.224 228.907 102.608 222.644 106.216L13.4245 226.745C7.16193 230.356 6.47437 235.829 11.89 238.963L111.579 296.75C116.994 299.894 126.46 299.51 132.724 295.902L341.941 175.373C348.205 171.765 348.893 166.295 343.478 163.155Z" fill="#7817BE"/>
<path d="M136.69 278.382L66.3452 237.722L70.8347 235.127L141.181 275.783L136.69 278.382Z" fill="#D4ECFF"/>
<path d="M87.7447 266.53L52.1261 245.944L56.6156 243.349L92.2342 263.934L87.7447 266.53Z" fill="#D4ECFF"/>
<path d="M105.03 276.52L93.4779 269.843L97.9675 267.249L109.52 273.925L105.03 276.52Z" fill="#FF2C9C"/>
<path d="M122.472 286.601L110.92 279.924L115.409 277.329L126.962 284.006L122.472 286.601Z" fill="white"/>
<path d="M88.1437 258.542L59.2356 241.836L63.7252 239.241L92.6333 255.949L88.1437 258.542Z" fill="white"/>
<path d="M123.431 278.936L94.5226 262.229L99.0122 259.635L127.92 276.342L123.431 278.936Z" fill="#D4ECFF"/>
<path d="M102.029 243.223C101.218 243.635 100.321 243.85 99.4112 243.85C98.5016 243.85 97.6048 243.635 96.7936 243.223C96.4771 243.116 96.2021 242.913 96.0073 242.641C95.8125 242.369 95.7077 242.044 95.7077 241.709C95.7077 241.375 95.8125 241.049 96.0073 240.777C96.2021 240.506 96.4771 240.302 96.7936 240.195C97.6049 239.784 98.5017 239.569 99.4112 239.569C100.321 239.569 101.218 239.784 102.029 240.195C102.346 240.302 102.622 240.505 102.817 240.777C103.012 241.048 103.117 241.374 103.117 241.709C103.117 242.044 103.012 242.37 102.817 242.642C102.622 242.913 102.346 243.117 102.029 243.223Z" fill="#FF2C9C"/>
<path d="M109.856 247.748C109.045 248.159 108.148 248.373 107.239 248.373C106.329 248.373 105.432 248.159 104.621 247.748C104.304 247.641 104.029 247.437 103.835 247.166C103.64 246.894 103.535 246.568 103.535 246.234C103.535 245.899 103.64 245.573 103.835 245.302C104.029 245.03 104.304 244.827 104.621 244.72C105.432 244.308 106.329 244.093 107.239 244.093C108.148 244.093 109.045 244.308 109.856 244.72C110.173 244.827 110.448 245.03 110.643 245.302C110.837 245.573 110.942 245.899 110.942 246.234C110.942 246.568 110.837 246.894 110.643 247.166C110.448 247.437 110.173 247.641 109.856 247.748Z" fill="white"/>
<path d="M117.684 252.271C116.872 252.683 115.976 252.897 115.066 252.897C114.156 252.897 113.259 252.683 112.448 252.271C112.132 252.164 111.857 251.96 111.662 251.689C111.467 251.417 111.362 251.091 111.362 250.757C111.362 250.422 111.467 250.097 111.662 249.825C111.857 249.553 112.132 249.35 112.448 249.243C113.259 248.831 114.156 248.616 115.066 248.616C115.976 248.616 116.872 248.831 117.684 249.243C118 249.35 118.275 249.553 118.47 249.825C118.665 250.097 118.769 250.422 118.769 250.757C118.769 251.091 118.665 251.417 118.47 251.689C118.275 251.96 118 252.164 117.684 252.271Z" fill="#D4ECFF"/>
<path d="M125.511 256.794C124.7 257.206 123.803 257.421 122.893 257.421C121.984 257.421 121.087 257.206 120.276 256.794C119.959 256.687 119.684 256.484 119.489 256.212C119.295 255.94 119.19 255.614 119.19 255.28C119.19 254.946 119.295 254.62 119.489 254.348C119.684 254.077 119.959 253.873 120.276 253.766C121.087 253.354 121.984 253.14 122.893 253.14C123.803 253.14 124.7 253.354 125.511 253.766C125.828 253.872 126.104 254.076 126.299 254.348C126.494 254.619 126.599 254.945 126.599 255.28C126.599 255.615 126.494 255.941 126.299 256.213C126.104 256.484 125.828 256.688 125.511 256.794Z" fill="#FF2C9C"/>
<path d="M133.344 261.319C132.533 261.73 131.636 261.945 130.726 261.945C129.817 261.945 128.92 261.73 128.109 261.319C127.793 261.211 127.519 261.007 127.324 260.736C127.13 260.464 127.025 260.139 127.025 259.805C127.025 259.471 127.13 259.145 127.324 258.873C127.519 258.602 127.793 258.398 128.109 258.291C128.92 257.879 129.817 257.664 130.726 257.664C131.636 257.664 132.533 257.879 133.344 258.291C133.661 258.397 133.936 258.601 134.13 258.873C134.325 259.144 134.43 259.47 134.43 259.805C134.43 260.139 134.325 260.465 134.13 260.736C133.936 261.008 133.661 261.212 133.344 261.319Z" fill="white"/>
<path d="M290.669 175.247L278.825 168.402L283.428 165.741L295.273 172.586L290.669 175.247Z" fill="#FF2C9C"/>
<path d="M307.162 184.778L295.317 177.933L299.921 175.272L311.765 182.117L307.162 184.778Z" fill="white"/>
<path d="M237.765 144.385L225.92 137.539L230.524 134.878L242.369 141.723L237.765 144.385Z" fill="white"/>
<path d="M288.028 182.146L271.536 172.614L276.14 169.953L292.632 179.485L288.028 182.146Z" fill="white"/>
<path d="M299.873 188.991L292.637 184.809L297.24 182.147L304.478 186.33L299.873 188.991Z" fill="#D4ECFF"/>
<path opacity="0.5" d="M324.998 132.878L304.945 121.292L324.992 109.707L345.039 121.292L324.998 132.878Z" fill="#50157B"/>
<path d="M345.043 106.589L324.997 118.174V94.999L345.043 83.4137V106.589Z" fill="#8100DE"/>
<path d="M324.997 94.999L304.951 83.4137L324.996 71.8284L345.043 83.4137L324.997 94.999Z" fill="#A527FF"/>
<path d="M324.998 118.169L304.951 106.589V83.4137L324.998 94.999V118.169Z" fill="#A120FF"/>
<path d="M317.778 105.652L312.171 102.41V95.9296L317.778 99.1694V105.652Z" fill="white"/>
<path opacity="0.5" d="M22.079 351.28L1.2088 339.218L22.079 327.162L42.9481 339.219L22.079 351.28Z" fill="#571A82"/>
<path d="M42.948 323.901L22.079 335.966V311.844L42.948 299.783V323.901Z" fill="#551781"/>
<path d="M22.0788 311.844L1.20978 299.783L22.0788 287.721L42.9479 299.784L22.0788 311.844Z" fill="#E8CDFC"/>
<path d="M22.079 335.966L1.20996 323.901V299.783L22.079 311.844V335.966Z" fill="#A35DD5"/>
<path d="M14.5611 322.935L8.72437 319.557V312.814L14.5611 316.192V322.935Z" fill="white"/>
<path opacity="0.5" d="M261.425 321.106L282.158 309.124L302.891 321.106L282.158 333.089L261.425 321.106Z" fill="#7817BE"/>
<path opacity="0.5" d="M224.164 343.569L244.897 331.587L265.63 343.57L244.897 355.552L224.164 343.569Z" fill="#541A7E"/>
<path opacity="0.5" d="M298.685 299.784L319.418 287.799L340.151 299.781L319.418 311.766L298.685 299.784Z" fill="#173D7A"/>
<path d="M319.418 299.784V261.16L295.755 247.484V286.107L319.418 299.784Z" fill="#FDD762"/>
<path d="M319.418 261.16L343.08 247.484V286.107L319.418 299.784V261.16Z" fill="#E8A200"/>
<path d="M295.755 247.484L319.418 233.809L343.08 247.484L319.418 261.16L295.755 247.484Z" fill="#FDD762"/>
<path d="M319.418 263.086L343.08 249.411V250.678L319.418 264.353L295.755 250.678V249.411L319.418 263.086Z" fill="#FDD762"/>
<path d="M282.158 321.676V266.659L258.496 252.984V308L282.158 321.676Z" fill="#AB36FF"/>
<path d="M282.158 266.659L305.82 252.984V308L282.158 321.676V266.659Z" fill="#8000DC"/>
<path d="M258.494 252.985L282.157 239.309L305.819 252.985L282.157 266.661L258.494 252.985Z" fill="#A62CFF"/>
<path d="M282.158 268.583L305.82 254.907V256.175L282.157 269.85L258.494 256.175V254.907L282.158 268.583Z" fill="#A426FF"/>
<path d="M244.897 343.569V319.501L221.233 305.826V329.894L244.897 343.569Z" fill="#9B58CB"/>
<path d="M244.897 319.501L268.56 305.826V329.894L244.897 343.57V319.501Z" fill="#813CB2"/>
<path d="M221.234 305.826L244.898 292.15L268.561 305.826L244.898 319.501L221.234 305.826Z" fill="#EDD4FF"/>
<path d="M244.897 321.416L268.559 307.74V309.007L244.895 322.683L221.232 309.007V307.74L244.897 321.416Z" fill="#5793CE"/>
<path d="M138.568 11.0799L131.533 7.01315C126.181 3.91884 121.152 3.37731 117.373 5.33032H117.365L110.32 9.3004L113.145 9.45297C112.465 10.6198 111.945 11.8734 111.6 13.1796C116.079 13.3753 120.569 14.2814 122.478 17.3442C122.908 16.9667 123.394 16.6579 123.918 16.4289L131.733 25.4241L138.568 21.567V11.0857V11.0799Z" fill="#FDD762"/>
<path d="M140.034 63.5563C133.868 59.9926 128.216 52.5451 125.635 44.5816L121.034 30.383C119.351 25.1901 119.629 20.6866 121.796 18.0267C122.005 17.7794 122.233 17.5492 122.478 17.3384C120.569 14.2755 116.079 13.3695 111.6 13.1738C110.365 17.7623 110.744 23.6703 112.799 30.0114L116.55 41.5863L115.229 43.3413C115.229 43.3413 123.972 65.4208 124.408 65.7119C124.701 65.9076 128.744 66.71 131.366 67.2154C133.943 69.8613 136.857 72.1548 140.034 74.0364L161.789 86.6139V94.4225L168.624 90.5642V80.0829L140.034 63.5563Z" fill="#E8A200"/>
<path d="M133.199 67.4133C127.033 63.8508 121.381 56.4021 118.801 48.4387L114.199 34.2412C112.516 29.0471 112.794 24.5448 114.961 21.8837C117.129 19.2226 120.677 19.0293 124.698 21.3527L131.733 25.4183V14.937L124.698 10.8702C117.63 6.78599 111.135 7.14353 107.325 11.8182C103.515 16.4928 103.005 24.7381 105.964 33.8673L110.565 48.066C114.623 60.5842 123.506 72.2895 133.199 77.8935L161.792 94.419V83.9377L133.199 67.4133Z" fill="#F9BF30"/>
<path d="M180.226 224.357C203.815 224.357 222.939 213.305 222.939 199.671C222.939 186.037 203.815 174.985 180.226 174.985C156.636 174.985 137.513 186.037 137.513 199.671C137.513 213.305 156.636 224.357 180.226 224.357Z" fill="#400B65"/>
<path d="M226.192 159.871L215.596 159.936C214.824 159.412 214.021 158.898 213.164 158.403C195.793 148.363 167.631 148.363 150.26 158.403C149.174 159.031 148.154 159.684 147.199 160.36L137.233 160.422V176.581C137.233 183.159 141.576 189.741 150.263 194.758C167.634 204.798 195.797 204.798 213.167 194.758C221.852 189.738 226.197 183.158 226.197 176.58L226.192 159.871Z" fill="#7F3EAE"/>
<path d="M180.229 150.893C169.347 151.102 158.571 153.6 150.263 158.402C149.178 159.03 148.157 159.683 147.203 160.359L137.237 160.421V176.581C137.237 183.16 141.58 189.741 150.267 194.758C158.574 199.559 169.347 202.058 180.231 202.267L180.229 150.893Z" fill="#A25AD6"/>
<path d="M143.349 160.382L137.237 160.421V176.581C137.237 181.086 139.275 185.591 143.349 189.596V160.382Z" fill="#D4ECFF"/>
<path d="M181.712 185.576C206.278 185.576 226.192 174.067 226.192 159.87C226.192 145.673 206.278 134.164 181.712 134.164C157.147 134.164 137.233 145.673 137.233 159.87C137.233 174.067 157.147 185.576 181.712 185.576Z" fill="#EBD1FE"/>
<path d="M213.165 178.048C195.794 188.087 167.632 188.087 150.261 178.048C142.013 173.28 137.689 167.101 137.274 160.863C136.809 167.768 141.139 174.762 150.261 180.034C167.632 190.072 195.794 190.072 213.165 180.034C222.286 174.762 226.61 167.769 226.151 160.863C225.735 167.109 221.413 173.281 213.165 178.048Z" fill="white"/>
<path d="M206.296 152.863C205.735 152.483 205.154 152.109 204.531 151.749C191.928 144.466 171.491 144.466 158.892 151.749C158.102 152.206 157.362 152.679 156.671 153.17L153.879 153.188V168.219C155.388 169.674 157.074 170.932 158.897 171.964C171.5 179.248 191.938 179.249 204.536 171.964C210.837 168.323 213.987 163.549 213.987 158.776V152.815L206.296 152.863Z" fill="#7E3BAE"/>
<path d="M158.892 151.749C158.102 152.206 157.362 152.679 156.671 153.17L153.879 153.188V168.219C155.388 169.674 157.074 170.932 158.897 171.964C164.923 175.448 172.741 177.261 180.637 177.412V146.301C172.738 146.453 164.92 148.266 158.892 151.749Z" fill="#5793CE"/>
<path d="M153.876 153.188L149.441 153.214V158.775C149.506 160.567 149.932 162.328 150.694 163.951C151.456 165.574 152.539 167.026 153.876 168.219V153.188Z" fill="#5793CE"/>
<path d="M181.712 171.466C199.536 171.466 213.984 163.116 213.984 152.815C213.984 142.514 199.536 134.164 181.712 134.164C163.889 134.164 149.441 142.514 149.441 152.815C149.441 163.116 163.889 171.466 181.712 171.466Z" fill="#5793CE"/>
<path d="M164.429 137.596C173.969 143.112 189.45 143.112 198.996 137.596C208.542 132.081 208.542 123.135 198.996 117.619C189.45 112.102 173.975 112.102 164.429 117.619C154.883 123.135 154.883 132.08 164.429 137.596Z" fill="white"/>
<path d="M153.171 141.733C158.319 137.906 157.326 134.163 157.326 134.163L161.222 138.869C173.066 133.149 190.367 133.15 202.209 138.869L206.108 134.159C206.108 134.159 205.115 137.901 210.263 141.729C215.411 145.557 213.732 153.069 213.732 153.069L213.721 153.057C213.721 157.796 210.601 162.533 204.346 166.148C191.846 173.369 171.578 173.369 159.077 166.148C152.828 162.538 149.703 157.802 149.703 153.067C149.702 153.068 148.024 145.558 153.171 141.733Z" fill="#F9BF30"/>
<path d="M199.595 142.858C199.595 142.858 190.348 137.384 190.348 136.22C190.438 135.894 190.61 135.598 190.849 135.36C194.78 135.997 198.603 137.178 202.209 138.869L206.108 134.159C206.108 134.159 205.115 137.901 210.263 141.729C215.411 145.557 213.732 153.069 213.732 153.069L213.721 153.057C213.657 155.826 212.663 158.493 210.9 160.627C210.984 160.045 211.969 152.3 206.155 149.765C200.112 147.129 199.595 142.858 199.595 142.858Z" fill="#E8A200"/>
<path d="M164.429 143.218C173.969 148.734 189.45 148.734 198.996 143.218C208.542 137.701 208.542 128.756 198.996 123.239C189.45 117.722 173.975 117.722 164.429 123.239C154.883 128.756 154.883 137.701 164.429 143.218Z" fill="#E8A200"/>
<path d="M245.647 37.8911C245.005 73.5612 226.635 77.8807 216.806 91.2292C207.634 103.69 208.678 121.711 208.858 124.061C208.858 124.149 208.879 124.236 208.879 124.323C208.879 128.342 206.226 132.359 200.923 135.425C190.312 141.557 173.117 141.557 162.502 135.425C157.529 132.551 154.918 128.84 154.608 125.076H154.546V124.319C154.546 124.234 154.565 124.149 154.567 124.065C154.746 121.736 155.797 103.696 146.619 91.2234C136.79 77.8714 118.42 73.5519 117.777 37.8853L245.647 37.8911Z" fill="#F9BF30"/>
<path d="M198.941 76.7266C198.941 76.7266 197.447 80.9901 192.808 93.1811C188.168 105.372 190.348 136.224 190.348 136.224L198.243 136.768C199.158 136.369 200.051 135.922 200.919 135.429C206.223 132.364 208.875 128.346 208.875 124.327C208.875 124.239 208.857 124.152 208.855 124.065C208.674 121.715 207.631 103.694 216.803 91.2327C226.63 77.8807 245.001 73.5624 245.644 37.8945H238.642L198.941 76.7266Z" fill="#E8A200"/>
<path d="M181.711 74.8423C217.021 74.8423 245.646 58.2987 245.646 37.891C245.646 17.4834 217.021 0.939819 181.711 0.939819C146.401 0.939819 117.777 17.4834 117.777 37.891C117.777 58.2987 146.401 74.8423 181.711 74.8423Z" fill="#FDD762"/>
<path d="M136.503 64.0197C161.471 78.449 201.952 78.449 226.921 64.0197C238.691 57.2174 244.907 48.4224 245.581 39.5133C246.336 49.5031 240.12 59.6374 226.921 67.2655C201.952 81.6959 161.471 81.6959 136.503 67.2655C123.305 59.6374 117.089 49.5055 117.844 39.5156C118.518 48.4236 124.735 57.2174 136.503 64.0197Z" fill="white"/>
<path d="M181.712 68.9029C211.348 68.9029 235.372 55.0185 235.372 37.8911C235.372 20.7637 211.348 6.87927 181.712 6.87927C152.077 6.87927 128.053 20.7637 128.053 37.8911C128.053 55.0185 152.077 68.9029 181.712 68.9029Z" fill="#F2B42A"/>
<path d="M143.768 59.8202C152.551 64.8955 163.625 67.814 175.064 68.635C175.949 67.6739 176.566 66.4958 176.85 65.2197C177.135 63.9437 177.078 62.615 176.685 61.368C171.113 44.6515 173.267 10.0201 173.267 10.0201L163.174 8.81592C156.374 10.1736 149.827 12.5845 143.769 15.9618C122.814 28.0736 122.814 47.7097 143.768 59.8202Z" fill="#E8A200"/>
<path d="M219.656 18.7149C198.7 6.60314 164.726 6.60314 143.769 18.7149C133.897 24.4213 128.68 31.7967 128.11 39.2687C127.468 30.8837 132.686 22.3682 143.769 15.9629C164.726 3.85122 198.7 3.85122 219.656 15.9629C230.739 22.3682 235.956 30.8778 235.315 39.2664C234.744 31.7944 229.527 24.419 219.656 18.7149Z" fill="white"/>
<path d="M207.983 64.9305C190.867 70.2149 172.558 70.2149 155.442 64.9305C155.999 64.5567 156.574 64.1899 157.187 63.8358C170.732 56.0075 192.694 56.0063 206.239 63.8358C206.851 64.1899 207.426 64.5567 207.983 64.9305Z" fill="#E8A200"/>
<path d="M154.567 124.069C154.588 123.789 154.623 123.275 154.65 122.575C155.059 126.247 157.646 129.854 162.502 132.659C173.111 138.791 190.308 138.791 200.923 132.659C205.672 129.914 208.288 126.406 208.785 122.817C208.81 123.388 208.838 123.818 208.858 124.065C208.858 124.152 208.879 124.239 208.879 124.327C208.879 128.346 206.226 132.362 200.923 135.429C190.312 141.56 173.117 141.56 162.502 135.429C157.529 132.556 154.918 128.844 154.608 125.08H154.545V124.323C154.546 124.239 154.565 124.154 154.567 124.069Z" fill="white"/>
<path d="M253.569 91.2664C249.757 82.1826 243.262 74.3228 236.196 70.2386L229.159 66.1719L222.324 70.029L222.661 72.4234L232.113 82.5157L245.54 101.731L247.76 100.498C247.84 102.306 247.474 104.106 246.694 105.739L242.092 114.618C241.439 115.92 240.456 117.028 239.241 117.831C240.744 121.543 241.288 125.466 238.892 128.871L237.328 128.854L237.82 130.157C237.635 130.345 237.447 130.534 237.238 130.719C237.511 130.745 237.78 130.759 238.052 130.772L238.826 132.819L245.69 128.946H245.668C247.666 127.676 249.28 125.885 250.335 123.764L254.937 114.885C257.887 109.18 257.379 100.349 253.569 91.2664Z" fill="#E8A200"/>
<path d="M239.241 117.834C236.29 119.751 232.128 119.516 227.695 116.954L199.101 100.428L192.266 104.287L194.254 107.7L199.101 108.993V110.91L227.696 127.435C230.605 129.199 233.858 130.32 237.236 130.723C241.475 126.942 241.025 122.239 239.241 117.834Z" fill="#E8A200"/>
<path d="M236.196 70.2386L229.159 66.1719L222.324 70.029L222.661 72.4234L232.113 82.5157L239.559 93.1694L251.223 86.4287C247.357 79.4389 241.972 73.5763 236.196 70.2386Z" fill="#FDD762"/>
<path d="M220.858 131.293L192.266 114.768V104.287L220.858 120.812C227.024 124.375 232.676 123.459 235.257 118.483L239.858 109.603C241.543 106.356 241.263 101.531 239.096 96.365C237.184 91.5015 233.774 87.3739 229.361 84.5805L222.324 80.5138V70.0325L229.361 74.0992C236.427 78.1834 242.922 86.0456 246.734 95.1282C250.545 104.211 251.052 113.041 248.094 118.751L243.492 127.63C239.434 135.454 230.551 136.894 220.858 131.293Z" fill="#F9BF30"/>
<path d="M123.156 396.317C123.156 397.191 122.842 398.004 122.213 398.755C121.324 399.828 120.136 400.603 118.648 401.078C117.544 401.431 116.471 401.607 115.428 401.607C115.045 401.607 114.669 401.584 114.301 401.538C111.894 401.231 109.854 400.702 108.183 399.951C106.665 401.07 105.063 401.63 103.376 401.63C101.383 401.63 100.148 401.078 99.6732 399.974C99.5658 399.713 99.5122 399.407 99.5122 399.054C99.5122 398.701 99.6885 398.326 100.041 397.927C100.593 397.314 101.36 397.007 102.341 397.007C102.985 397.007 103.568 397.099 104.089 397.283C104.61 397.467 105.254 397.766 106.021 398.18C106.788 398.594 107.355 398.893 107.723 399.077C108.398 398.418 109.095 397.505 109.816 396.34C110.537 395.159 111.165 394.009 111.702 392.89C112.254 391.755 112.952 390.498 113.795 389.118C114.638 387.738 115.497 386.565 116.371 385.599L117.682 384.104C116.471 383.889 115.137 383.782 113.68 383.782C112.223 383.782 110.621 383.974 108.873 384.357C106.481 384.863 104.641 385.89 103.353 387.439C102.571 388.374 102.18 389.264 102.18 390.107C102.18 391.226 102.724 391.955 103.813 392.292C104.196 392.399 104.534 392.453 104.825 392.453C105.116 392.453 105.454 392.399 105.837 392.292C106.22 392.185 106.588 391.962 106.941 391.625C107.309 391.272 107.57 390.935 107.723 390.613C107.892 390.291 107.976 390.053 107.976 389.9C107.976 389.731 108.053 389.647 108.206 389.647C108.359 389.662 108.444 389.77 108.459 389.969V389.992C108.29 391.111 107.692 391.962 106.665 392.545C106.036 392.882 105.408 393.051 104.779 393.051L103.583 392.844C101.958 392.277 101.145 391.219 101.145 389.67C101.145 388.612 101.613 387.569 102.548 386.542C104.051 384.855 106.259 383.805 109.172 383.391C110.583 383.192 112.047 383.092 113.565 383.092C115.098 383.092 116.655 383.261 118.234 383.598C118.664 383.23 119.039 382.985 119.361 382.862C119.683 382.739 119.867 382.678 119.913 382.678C119.974 382.678 120.013 382.686 120.028 382.701C120.12 382.701 120.135 382.755 120.074 382.862C120.028 382.954 119.859 383.092 119.568 383.276C119.292 383.46 119.123 383.629 119.062 383.782C121.147 384.319 122.65 385.085 123.57 386.082C124.061 386.634 124.306 387.201 124.306 387.784C124.306 388.351 124.138 388.926 123.8 389.509C123.356 390.276 122.635 390.858 121.638 391.257C120.642 391.64 119.637 391.855 118.625 391.901C119.606 392.208 120.519 392.637 121.362 393.189C122.558 393.971 123.156 395.014 123.156 396.317ZM115.106 400.963C116.823 400.963 118.28 400.472 119.476 399.491C120.779 398.448 121.431 397.321 121.431 396.11C121.431 394.853 120.764 393.902 119.43 393.258C118.939 393.028 118.334 392.806 117.613 392.591C116.908 392.361 116.333 392.169 115.888 392.016C115.459 391.863 115.213 391.717 115.152 391.579C115.152 391.288 115.375 391.134 115.819 391.119C116.11 391.119 116.555 391.142 117.153 391.188C117.751 391.234 118.265 391.257 118.694 391.257C119.123 391.242 119.637 391.088 120.235 390.797C120.848 390.49 121.37 390.099 121.799 389.624C122.489 388.857 122.834 388.137 122.834 387.462C122.834 386.021 121.485 384.986 118.786 384.357C117.973 385.476 116.517 387.845 114.416 391.464C112.315 395.067 110.698 397.482 109.563 398.709L108.689 399.537C110.422 400.258 112.285 400.718 114.278 400.917C114.569 400.948 114.845 400.963 115.106 400.963ZM107.217 399.514C105.423 398.655 104.288 398.142 103.813 397.973C103.338 397.804 102.862 397.72 102.387 397.72C101.927 397.72 101.559 397.889 101.283 398.226C101.007 398.548 100.869 398.847 100.869 399.123C100.869 399.384 100.93 399.637 101.053 399.882C101.39 400.572 102.096 400.917 103.169 400.917C104.626 400.917 105.975 400.449 107.217 399.514ZM125.549 397.191C125.334 397.712 125.227 398.295 125.227 398.939C125.227 399.368 125.319 399.713 125.503 399.974C125.702 400.219 125.978 400.342 126.331 400.342C127.726 400.342 128.991 399.031 130.126 396.409C130.233 396.164 130.363 396.056 130.517 396.087C130.578 396.102 130.609 396.141 130.609 396.202C130.609 396.263 130.432 396.67 130.08 397.421C129.742 398.157 129.397 398.755 129.045 399.215C128.263 400.288 127.297 400.825 126.147 400.825C125.533 400.825 125.012 400.626 124.583 400.227C124.153 399.828 123.939 399.284 123.939 398.594C123.939 397.904 124.1 397.176 124.422 396.409C124.759 395.627 125.211 394.906 125.779 394.247C126.346 393.572 126.998 393.082 127.734 392.775C128.086 392.622 128.424 392.545 128.746 392.545C129.068 392.545 129.367 392.637 129.643 392.821C129.903 393.036 130.034 393.273 130.034 393.534C130.034 394.454 129.482 395.336 128.378 396.179C128.04 396.44 127.565 396.677 126.952 396.892C126.338 397.091 125.871 397.191 125.549 397.191ZM129.413 393.511C129.413 393.204 129.29 393.051 129.045 393.051C128.615 393.051 127.964 393.58 127.09 394.638C126.568 395.282 126.108 396.003 125.71 396.8C125.97 396.8 126.346 396.708 126.837 396.524C127.343 396.34 127.78 396.095 128.148 395.788C128.991 395.067 129.413 394.308 129.413 393.511ZM131.462 396.294C131.446 396.355 131.377 396.57 131.255 396.938C131.132 397.291 131.025 397.636 130.933 397.973C130.856 398.295 130.818 398.625 130.818 398.962C130.818 399.284 130.894 399.591 131.048 399.882C131.201 400.158 131.446 400.296 131.784 400.296C132.336 400.296 132.872 399.928 133.394 399.192C133.915 398.441 134.467 397.49 135.05 396.34C135.172 396.125 135.287 396.041 135.395 396.087C135.471 396.148 135.487 396.233 135.441 396.34C135.395 396.432 135.295 396.647 135.142 396.984C135.004 397.306 134.896 397.536 134.82 397.674C134.758 397.797 134.636 398.027 134.452 398.364C134.283 398.686 134.13 398.931 133.992 399.1C133.869 399.253 133.693 399.46 133.463 399.721C133.248 399.966 133.041 400.15 132.842 400.273C132.305 400.61 131.799 400.779 131.324 400.779C130.848 400.779 130.48 400.679 130.22 400.48C129.959 400.265 129.798 400.043 129.737 399.813C129.691 399.568 129.668 399.353 129.668 399.169C129.668 398.985 129.675 398.747 129.691 398.456C129.737 397.965 129.829 397.49 129.967 397.03C130.12 396.57 130.204 396.309 130.22 396.248C130.572 394.975 131.071 393.588 131.715 392.085C132.374 390.582 132.926 389.455 133.371 388.704C133.831 387.937 134.191 387.416 134.452 387.14C134.973 386.588 135.487 386.312 135.993 386.312C136.345 386.312 136.583 386.565 136.706 387.071C136.721 387.163 136.729 387.278 136.729 387.416C136.729 387.937 136.545 388.597 136.177 389.394C134.858 392.323 133.286 394.623 131.462 396.294ZM131.646 395.558C132.428 394.761 133.202 393.756 133.969 392.545C134.735 391.334 135.295 390.306 135.648 389.463C136.016 388.604 136.2 388.022 136.2 387.715C136.2 387.408 136.146 387.255 136.039 387.255C135.885 387.255 135.594 387.562 135.165 388.175C134.735 388.773 134.153 389.862 133.417 391.441C132.696 393.005 132.106 394.377 131.646 395.558ZM138.222 391.786C138.007 391.97 137.769 392.062 137.509 392.062C137.248 392.062 137.041 391.97 136.888 391.786C136.734 391.602 136.673 391.38 136.704 391.119C136.75 390.858 136.88 390.636 137.095 390.452C137.309 390.268 137.547 390.176 137.808 390.176C138.068 390.176 138.275 390.268 138.429 390.452C138.597 390.636 138.659 390.858 138.613 391.119C138.567 391.38 138.436 391.602 138.222 391.786ZM135.968 400.227C136.259 400.227 136.566 400.081 136.888 399.79C137.455 399.223 138.176 398.065 139.05 396.317C139.157 396.087 139.264 396.018 139.372 396.11C139.402 396.141 139.418 396.194 139.418 396.271C139.418 396.332 139.356 396.501 139.234 396.777C139.111 397.038 138.996 397.275 138.889 397.49C138.797 397.705 138.605 398.057 138.314 398.548C138.038 399.023 137.785 399.391 137.555 399.652C136.926 400.373 136.328 400.733 135.761 400.733C135.209 400.733 134.81 400.564 134.565 400.227C134.319 399.89 134.197 399.514 134.197 399.1C134.197 398.686 134.296 398.234 134.496 397.743L135.968 393.994C135.998 393.902 136.014 393.779 136.014 393.626C136.014 393.473 135.922 393.273 135.738 393.028L137.003 393.005C137.355 393.005 137.562 393.074 137.624 393.212C137.685 393.335 137.639 393.534 137.486 393.81L135.646 398.111C135.385 398.678 135.255 399.161 135.255 399.56C135.255 400.005 135.492 400.227 135.968 400.227ZM145.187 392.706L145.072 393.12C144.29 395.558 143.569 397.337 142.91 398.456C141.944 400.081 140.932 400.894 139.874 400.894C139.015 400.894 138.586 400.48 138.586 399.652C138.586 399.023 138.816 398.05 139.276 396.731C139.122 396.976 139 397.061 138.908 396.984C138.831 396.892 138.816 396.785 138.862 396.662L139.276 395.88C139.567 395.282 139.713 394.684 139.713 394.086C139.713 393.488 139.59 393.135 139.345 393.028C140.265 392.875 140.801 392.806 140.955 392.821C141.108 392.821 141.2 392.882 141.231 393.005C141.277 393.128 141.3 393.266 141.3 393.419C141.3 394.354 141.054 395.458 140.564 396.731C140.088 398.004 139.851 398.862 139.851 399.307C139.851 399.736 139.92 399.989 140.058 400.066C140.196 400.127 140.334 400.158 140.472 400.158C140.87 400.158 141.323 399.836 141.829 399.192C142.335 398.548 142.841 397.597 143.347 396.34C143.132 395.849 143.025 395.42 143.025 395.052C143.025 394.669 143.071 394.331 143.163 394.04C143.439 393.166 143.876 392.622 144.474 392.407C144.596 392.361 144.711 392.338 144.819 392.338C145.064 392.338 145.187 392.461 145.187 392.706ZM146.1 397.191C145.886 397.712 145.778 398.295 145.778 398.939C145.778 399.368 145.87 399.713 146.054 399.974C146.254 400.219 146.53 400.342 146.882 400.342C148.278 400.342 149.543 399.031 150.677 396.409C150.785 396.164 150.915 396.056 151.068 396.087C151.13 396.102 151.16 396.141 151.16 396.202C151.16 396.263 150.984 396.67 150.631 397.421C150.294 398.157 149.949 398.755 149.596 399.215C148.814 400.288 147.848 400.825 146.698 400.825C146.085 400.825 145.564 400.626 145.134 400.227C144.705 399.828 144.49 399.284 144.49 398.594C144.49 397.904 144.651 397.176 144.973 396.409C145.311 395.627 145.763 394.906 146.33 394.247C146.898 393.572 147.549 393.082 148.285 392.775C148.638 392.622 148.975 392.545 149.297 392.545C149.619 392.545 149.918 392.637 150.194 392.821C150.455 393.036 150.585 393.273 150.585 393.534C150.585 394.454 150.033 395.336 148.929 396.179C148.592 396.44 148.117 396.677 147.503 396.892C146.89 397.091 146.422 397.191 146.1 397.191ZM149.964 393.511C149.964 393.204 149.842 393.051 149.596 393.051C149.167 393.051 148.515 393.58 147.641 394.638C147.12 395.282 146.66 396.003 146.261 396.8C146.522 396.8 146.898 396.708 147.388 396.524C147.894 396.34 148.331 396.095 148.699 395.788C149.543 395.067 149.964 394.308 149.964 393.511ZM159.852 391.786C159.637 391.97 159.399 392.062 159.139 392.062C158.878 392.062 158.671 391.97 158.518 391.786C158.364 391.602 158.303 391.38 158.334 391.119C158.38 390.858 158.51 390.636 158.725 390.452C158.939 390.268 159.177 390.176 159.438 390.176C159.698 390.176 159.905 390.268 160.059 390.452C160.227 390.636 160.289 390.858 160.243 391.119C160.197 391.38 160.066 391.602 159.852 391.786ZM157.598 400.227C157.889 400.227 158.196 400.081 158.518 399.79C159.085 399.223 159.806 398.065 160.68 396.317C160.787 396.087 160.894 396.018 161.002 396.11C161.032 396.141 161.048 396.194 161.048 396.271C161.048 396.332 160.986 396.501 160.864 396.777C160.741 397.038 160.626 397.275 160.519 397.49C160.427 397.705 160.235 398.057 159.944 398.548C159.668 399.023 159.415 399.391 159.185 399.652C158.556 400.373 157.958 400.733 157.391 400.733C156.839 400.733 156.44 400.564 156.195 400.227C155.949 399.89 155.827 399.514 155.827 399.1C155.827 398.686 155.926 398.234 156.126 397.743L157.598 393.994C157.628 393.902 157.644 393.779 157.644 393.626C157.644 393.473 157.552 393.273 157.368 393.028L158.633 393.005C158.985 393.005 159.192 393.074 159.254 393.212C159.315 393.335 159.269 393.534 159.116 393.81L157.276 398.111C157.015 398.678 156.885 399.161 156.885 399.56C156.885 400.005 157.122 400.227 157.598 400.227ZM167.645 393.189C165.759 396.501 164.816 398.663 164.816 399.675C164.816 400.074 164.961 400.273 165.253 400.273C166.035 400.273 167.085 398.947 168.404 396.294C168.496 396.079 168.588 395.995 168.68 396.041C168.772 396.087 168.818 396.148 168.818 396.225C168.818 396.302 168.787 396.394 168.726 396.501C167.913 398.142 167.223 399.276 166.656 399.905C166.104 400.518 165.544 400.825 164.977 400.825C164.425 400.825 164.003 400.61 163.712 400.181C163.558 399.982 163.482 399.713 163.482 399.376C163.482 399.023 163.558 398.602 163.712 398.111C163.865 397.62 164.287 396.823 164.977 395.719C165.145 395.443 165.23 395.228 165.23 395.075C165.23 394.906 165.099 394.822 164.839 394.822C164.578 394.822 164.08 395.167 163.344 395.857C162.24 396.869 161.174 398.387 160.147 400.411C160.055 400.564 159.947 400.664 159.825 400.71C159.717 400.741 159.495 400.764 159.158 400.779C158.82 400.794 158.598 400.833 158.491 400.894C158.736 400.403 159.219 399.399 159.94 397.881C161.228 395.198 162.071 393.664 162.47 393.281C162.654 393.097 162.907 393.005 163.229 393.005C163.29 393.005 163.443 393.028 163.689 393.074C163.949 393.12 164.141 393.128 164.264 393.097C163.696 393.404 162.769 394.845 161.481 397.421C162.201 396.532 162.853 395.826 163.436 395.305C164.034 394.768 164.747 394.278 165.575 393.833C166.403 393.373 167.008 393.143 167.392 393.143C167.484 393.143 167.568 393.158 167.645 393.189ZM171.181 408.001C170.506 408.001 169.985 407.855 169.617 407.564C169.249 407.288 169.065 406.951 169.065 406.552C169.065 406.153 169.18 405.701 169.41 405.195C169.809 404.413 170.529 403.784 171.572 403.309C172.354 402.941 173.389 402.596 174.677 402.274C175.965 401.967 176.793 401.76 177.161 401.653C177.713 400.687 178.372 398.962 179.139 396.478C178.25 398.042 177.506 399.138 176.908 399.767C176.31 400.396 175.704 400.71 175.091 400.71C174.263 400.71 173.78 400.365 173.642 399.675C173.581 399.568 173.565 399.407 173.596 399.192C173.627 398.977 173.642 398.824 173.642 398.732C173.657 398.64 173.711 398.494 173.803 398.295C173.895 398.08 173.956 397.927 173.987 397.835C174.156 397.482 174.301 397.206 174.424 397.007C174.179 397.007 174.11 396.884 174.217 396.639L174.631 395.834C175.152 394.837 175.582 393.994 175.919 393.304C176.072 392.982 176.371 392.821 176.816 392.821H178.219C178.188 392.852 178.112 392.913 177.989 393.005C177.713 393.189 177.506 393.404 177.368 393.649C176.816 394.6 176.126 395.957 175.298 397.72C174.961 398.441 174.792 398.97 174.792 399.307C174.792 399.644 174.846 399.882 174.953 400.02C175.076 400.158 175.237 400.227 175.436 400.227C175.727 400.227 176.134 399.92 176.655 399.307C177.744 398.034 178.947 396.033 180.266 393.304C180.435 392.982 180.734 392.821 181.163 392.821H182.405C182.006 393.097 181.692 393.45 181.462 393.879C181.232 394.293 180.979 394.86 180.703 395.581C180.442 396.302 180.105 397.26 179.691 398.456C179.292 399.652 178.986 400.549 178.771 401.147C180.212 400.718 181.316 399.959 182.083 398.87C182.42 398.395 182.903 397.551 183.532 396.34C183.639 396.125 183.731 396.041 183.808 396.087C183.9 396.133 183.946 396.194 183.946 396.271C183.946 396.348 183.816 396.647 183.555 397.168C183.31 397.674 183.057 398.149 182.796 398.594C182.535 399.023 182.198 399.468 181.784 399.928C181.37 400.388 180.91 400.748 180.404 401.009C179.898 401.285 179.223 401.576 178.38 401.883C177.199 404.03 176.011 405.609 174.815 406.621C173.696 407.541 172.484 408.001 171.181 408.001ZM169.847 405.724C169.678 406.061 169.594 406.368 169.594 406.644C169.594 406.935 169.701 407.158 169.916 407.311C170.131 407.464 170.399 407.541 170.721 407.541C171.61 407.541 172.561 407.081 173.573 406.161C174.585 405.256 175.474 404.283 176.241 403.24L176.747 402.389C174.217 403.048 172.622 403.524 171.963 403.815C170.982 404.244 170.276 404.881 169.847 405.724ZM187.727 392.683C188.847 392.683 189.406 393.388 189.406 394.799C189.406 395.443 189.238 396.133 188.9 396.869C188.471 397.866 187.827 398.77 186.968 399.583C187.168 399.966 187.528 400.158 188.049 400.158C188.463 400.158 188.854 399.951 189.222 399.537C189.682 399.062 190.012 398.648 190.211 398.295C190.411 397.927 190.556 397.659 190.648 397.49C190.74 397.321 190.855 397.084 190.993 396.777C191.147 396.455 191.239 396.263 191.269 396.202C191.3 396.125 191.354 396.087 191.43 396.087C191.584 396.072 191.66 396.125 191.66 396.248C191.66 396.294 191.645 396.348 191.614 396.409L191.476 396.731C191.384 396.946 191.315 397.099 191.269 397.191C191.223 397.283 191.139 397.452 191.016 397.697C190.909 397.927 190.809 398.111 190.717 398.249C190.641 398.387 190.526 398.571 190.372 398.801C190.234 399.031 190.104 399.215 189.981 399.353C189.874 399.491 189.736 399.644 189.567 399.813C189.399 399.982 189.238 400.112 189.084 400.204C188.701 400.434 188.341 400.549 188.003 400.549C187.375 400.549 186.884 400.35 186.531 399.951C185.826 400.472 185.174 400.733 184.576 400.733C183.457 400.733 182.897 400.028 182.897 398.617C182.897 397.973 183.066 397.283 183.403 396.547C183.863 395.474 184.507 394.561 185.335 393.81C186.179 393.059 186.976 392.683 187.727 392.683ZM187.98 393.396C187.566 393.396 187.076 393.672 186.508 394.224C185.941 394.776 185.435 395.527 184.99 396.478C184.454 397.582 184.185 398.487 184.185 399.192C184.185 399.897 184.454 400.25 184.99 400.25C185.374 400.25 185.803 400.043 186.278 399.629C186.033 399.276 185.91 398.901 185.91 398.502C185.941 397.843 186.209 397.513 186.715 397.513C186.915 397.513 187.076 397.582 187.198 397.72C187.336 397.858 187.405 397.988 187.405 398.111C187.405 398.218 187.39 398.333 187.359 398.456C187.62 398.073 187.919 397.528 188.256 396.823C188.64 396.041 188.831 395.274 188.831 394.523C188.831 393.772 188.548 393.396 187.98 393.396ZM190.441 399.399C190.441 398.74 190.724 397.942 191.292 397.007C191.046 397.007 190.977 396.884 191.085 396.639L191.499 395.834C192.02 394.837 192.449 393.994 192.787 393.304C192.94 392.982 193.239 392.821 193.684 392.821H195.087C194.535 393.22 193.975 393.994 193.408 395.144C192.856 396.279 192.426 397.176 192.12 397.835C191.813 398.479 191.66 398.97 191.66 399.307C191.66 399.644 191.713 399.882 191.821 400.02C191.943 400.158 192.104 400.227 192.304 400.227C192.595 400.227 193.001 399.92 193.523 399.307C194.335 398.356 195.478 396.355 196.95 393.304C197.118 392.982 197.417 392.821 197.847 392.821H199.089C198.751 393.082 198.483 393.35 198.284 393.626C198.1 393.902 197.839 394.393 197.502 395.098C196.582 396.938 196.068 398.157 195.961 398.755C195.915 398.97 195.892 399.169 195.892 399.353C195.892 399.844 196.06 400.104 196.398 400.135C197.226 400.135 198.245 398.855 199.457 396.294C199.549 396.079 199.641 395.995 199.733 396.041C199.825 396.087 199.871 396.148 199.871 396.225C199.871 396.302 199.802 396.478 199.664 396.754C199.526 397.03 199.388 397.298 199.25 397.559C199.127 397.82 198.928 398.18 198.652 398.64C198.391 399.085 198.146 399.437 197.916 399.698C197.318 400.373 196.727 400.71 196.145 400.71C195.577 400.71 195.186 400.457 194.972 399.951C194.88 399.721 194.834 399.43 194.834 399.077C194.834 398.724 194.91 398.287 195.064 397.766C193.944 399.729 192.909 400.71 191.959 400.71C191.131 400.71 190.648 400.365 190.51 399.675C190.464 399.598 190.441 399.506 190.441 399.399ZM202.571 391.51C202.571 392.2 202.134 392.852 201.26 393.465C201.567 393.48 201.973 393.488 202.479 393.488C203.001 393.488 203.652 393.45 204.434 393.373C204.465 393.419 204.48 393.542 204.48 393.741C204.48 393.94 204.388 394.239 204.204 394.638C204.02 395.021 203.852 395.359 203.698 395.65C203.56 395.926 203.422 396.194 203.284 396.455C203.162 396.7 203.016 397.007 202.847 397.375C202.694 397.743 202.564 398.08 202.456 398.387C202.073 399.552 202.134 400.135 202.64 400.135C203.284 400.135 204.235 398.855 205.492 396.294C205.6 396.095 205.684 396.018 205.745 396.064C205.822 396.11 205.86 396.171 205.86 396.248C205.86 396.309 205.761 396.547 205.561 396.961C205.362 397.36 205.147 397.774 204.917 398.203C204.687 398.632 204.327 399.131 203.836 399.698C203.254 400.403 202.694 400.756 202.157 400.756C201.559 400.756 201.145 400.396 200.915 399.675C200.869 399.537 200.846 399.33 200.846 399.054C200.846 398.778 200.931 398.41 201.099 397.95C201.283 397.49 201.567 396.93 201.95 396.271C202.334 395.612 202.548 395.228 202.594 395.121C202.64 394.998 202.663 394.883 202.663 394.776C202.663 394.301 202.05 394.048 200.823 394.017L200.547 394.753C199.581 397.283 198.654 398.977 197.764 399.836C197.611 399.974 197.534 399.928 197.534 399.698C197.534 399.652 197.55 399.598 197.58 399.537C198.439 398.402 199.183 397.061 199.811 395.512C200.44 393.963 200.877 392.491 201.122 391.096C201.214 390.621 201.429 390.383 201.766 390.383C202.104 390.383 202.349 390.598 202.502 391.027C202.548 391.165 202.571 391.326 202.571 391.51ZM207.419 400.296C207.618 400.327 207.756 400.342 207.833 400.342C208.446 400.342 209.052 399.982 209.65 399.261C209.972 398.862 210.547 397.858 211.375 396.248C211.405 396.171 211.459 396.133 211.536 396.133C211.674 396.118 211.743 396.171 211.743 396.294C211.743 396.325 211.704 396.417 211.628 396.57C211.566 396.708 211.505 396.854 211.444 397.007C211.382 397.145 211.283 397.352 211.145 397.628C211.007 397.904 210.884 398.126 210.777 398.295C210.685 398.464 210.562 398.671 210.409 398.916C210.255 399.161 210.102 399.353 209.949 399.491L209.466 399.997C209.205 400.258 208.898 400.442 208.546 400.549C207.978 400.733 207.426 400.748 206.89 400.595C206.537 400.748 206.223 400.825 205.947 400.825C204.858 400.825 204.199 400.396 203.969 399.537C203.923 399.338 203.9 399.1 203.9 398.824C203.9 398.533 203.992 398.257 204.176 397.996C204.375 397.735 204.582 397.597 204.797 397.582C205.579 396.095 206.246 394.753 206.798 393.557C207.411 392.254 208.124 391.602 208.937 391.602C209.151 391.602 209.358 391.656 209.558 391.763C209.772 391.855 209.849 391.962 209.788 392.085C209.742 392.208 209.634 392.231 209.466 392.154C209.297 392.077 209.151 392.039 209.029 392.039C208.906 392.039 208.799 392.062 208.707 392.108C208.185 392.353 207.925 392.882 207.925 393.695C207.925 394.124 207.986 394.477 208.109 394.753C208.231 395.029 208.369 395.328 208.523 395.65C208.875 396.447 209.052 397.099 209.052 397.605C209.052 398.111 208.891 398.609 208.569 399.1C208.247 399.591 207.863 399.989 207.419 400.296ZM206.637 400.135C207.311 399.614 207.649 398.77 207.649 397.605C207.649 397.13 207.595 396.478 207.488 395.65C207.38 394.822 207.327 394.262 207.327 393.971C207.327 393.68 207.334 393.48 207.35 393.373C206.184 395.704 205.464 397.122 205.188 397.628C205.51 397.628 205.671 397.858 205.671 398.318C205.671 399.223 205.993 399.828 206.637 400.135ZM204.912 399.514C204.912 399.606 204.919 399.706 204.935 399.813C205.057 400.227 205.341 400.434 205.786 400.434C205.97 400.434 206.123 400.403 206.246 400.342C205.678 399.989 205.372 399.414 205.326 398.617C205.05 398.893 204.912 399.192 204.912 399.514ZM212.338 397.191C212.123 397.712 212.016 398.295 212.016 398.939C212.016 399.368 212.108 399.713 212.292 399.974C212.491 400.219 212.767 400.342 213.12 400.342C214.515 400.342 215.78 399.031 216.915 396.409C217.022 396.164 217.152 396.056 217.306 396.087C217.367 396.102 217.398 396.141 217.398 396.202C217.398 396.263 217.221 396.67 216.869 397.421C216.531 398.157 216.186 398.755 215.834 399.215C215.052 400.288 214.086 400.825 212.936 400.825C212.322 400.825 211.801 400.626 211.372 400.227C210.942 399.828 210.728 399.284 210.728 398.594C210.728 397.904 210.889 397.176 211.211 396.409C211.548 395.627 212 394.906 212.568 394.247C213.135 393.572 213.787 393.082 214.523 392.775C214.875 392.622 215.213 392.545 215.535 392.545C215.857 392.545 216.156 392.637 216.432 392.821C216.692 393.036 216.823 393.273 216.823 393.534C216.823 394.454 216.271 395.336 215.167 396.179C214.829 396.44 214.354 396.677 213.741 396.892C213.127 397.091 212.66 397.191 212.338 397.191ZM216.202 393.511C216.202 393.204 216.079 393.051 215.834 393.051C215.404 393.051 214.753 393.58 213.879 394.638C213.357 395.282 212.897 396.003 212.499 396.8C212.759 396.8 213.135 396.708 213.626 396.524C214.132 396.34 214.569 396.095 214.937 395.788C215.78 395.067 216.202 394.308 216.202 393.511ZM218.251 396.294C218.235 396.355 218.166 396.57 218.044 396.938C217.921 397.291 217.814 397.636 217.722 397.973C217.645 398.295 217.607 398.625 217.607 398.962C217.607 399.284 217.683 399.591 217.837 399.882C217.99 400.158 218.235 400.296 218.573 400.296C219.125 400.296 219.661 399.928 220.183 399.192C220.704 398.441 221.256 397.49 221.839 396.34C221.961 396.125 222.076 396.041 222.184 396.087C222.26 396.148 222.276 396.233 222.23 396.34C222.184 396.432 222.084 396.647 221.931 396.984C221.793 397.306 221.685 397.536 221.609 397.674C221.547 397.797 221.425 398.027 221.241 398.364C221.072 398.686 220.919 398.931 220.781 399.1C220.658 399.253 220.482 399.46 220.252 399.721C220.037 399.966 219.83 400.15 219.631 400.273C219.094 400.61 218.588 400.779 218.113 400.779C217.637 400.779 217.269 400.679 217.009 400.48C216.748 400.265 216.587 400.043 216.526 399.813C216.48 399.568 216.457 399.353 216.457 399.169C216.457 398.985 216.464 398.747 216.48 398.456C216.526 397.965 216.618 397.49 216.756 397.03C216.909 396.57 216.993 396.309 217.009 396.248C217.361 394.975 217.86 393.588 218.504 392.085C219.163 390.582 219.715 389.455 220.16 388.704C220.62 387.937 220.98 387.416 221.241 387.14C221.762 386.588 222.276 386.312 222.782 386.312C223.134 386.312 223.372 386.565 223.495 387.071C223.51 387.163 223.518 387.278 223.518 387.416C223.518 387.937 223.334 388.597 222.966 389.394C221.647 392.323 220.075 394.623 218.251 396.294ZM218.435 395.558C219.217 394.761 219.991 393.756 220.758 392.545C221.524 391.334 222.084 390.306 222.437 389.463C222.805 388.604 222.989 388.022 222.989 387.715C222.989 387.408 222.935 387.255 222.828 387.255C222.674 387.255 222.383 387.562 221.954 388.175C221.524 388.773 220.942 389.862 220.206 391.441C219.485 393.005 218.895 394.377 218.435 395.558ZM219.146 408.737C218.302 408.737 217.881 408.315 217.881 407.472C217.881 406.261 218.67 403.792 220.25 400.066C220.066 399.759 219.974 399.506 219.974 399.307C219.974 398.663 220.119 398.234 220.411 398.019C220.625 397.835 220.802 397.743 220.94 397.743C221.093 397.743 221.193 397.751 221.239 397.766C222.987 393.825 224.558 390.552 225.954 387.945C226.23 387.393 226.513 386.987 226.805 386.726C227.096 386.465 227.464 386.335 227.909 386.335C227.97 386.335 228.123 386.358 228.369 386.404C228.614 386.45 228.798 386.465 228.921 386.45C228.2 387.125 227.188 388.612 225.885 390.912C224.581 393.212 223.347 395.673 222.182 398.295C222.534 398.724 222.78 399.299 222.918 400.02L222.987 400.319C223.017 400.319 223.04 400.319 223.056 400.319C223.47 400.319 223.907 400.081 224.367 399.606C224.827 399.115 225.202 398.617 225.494 398.111C225.785 397.59 226.023 397.137 226.207 396.754C226.391 396.355 226.506 396.141 226.552 396.11C226.598 396.079 226.636 396.072 226.667 396.087C226.713 396.087 226.751 396.102 226.782 396.133C226.812 396.148 226.828 396.187 226.828 396.248C226.828 396.294 226.812 396.348 226.782 396.409C225.509 399.307 224.259 400.756 223.033 400.756C223.048 401.001 223.056 401.4 223.056 401.952C223.056 402.519 222.918 403.355 222.642 404.459C222.366 405.563 221.898 406.552 221.239 407.426C220.595 408.3 219.897 408.737 219.146 408.737ZM219.123 407.472C219.123 407.917 219.245 408.139 219.491 408.139C219.782 408.139 220.181 407.794 220.687 407.104C221.208 406.429 221.645 405.494 221.998 404.298C222.366 403.117 222.55 402.044 222.55 401.078C222.55 401.001 222.55 400.925 222.55 400.848C222.473 400.848 222.404 400.848 222.343 400.848C221.898 400.848 221.522 400.725 221.216 400.48C219.82 404.007 219.123 406.337 219.123 407.472ZM222.366 400.411H222.504C222.458 399.752 222.274 399.223 221.952 398.824L221.446 399.974C221.599 400.265 221.906 400.411 222.366 400.411Z" fill="#4A0D75"/>
</svg>
