<svg width="55" height="55" viewBox="0 0 55 55" fill="none" xmlns="http://www.w3.org/2000/svg">
<path d="M14.3686 54.3394C12.2875 54.3164 10.226 53.9349 8.27459 53.2117C6.84726 52.6859 5.55566 51.8474 4.4944 50.7577C3.40147 49.6985 2.56158 48.4064 2.03727 46.9775C1.3146 45.026 0.933629 42.9645 0.911093 40.8835C0.753585 37.4184 0.718933 36.3867 0.718933 27.6214C0.718933 18.8561 0.753585 17.8212 0.909518 14.3608C0.935484 12.2826 1.31691 10.2242 2.03727 8.27469C2.56478 6.84785 3.40363 5.55649 4.49282 4.49451C5.55249 3.40249 6.84453 2.5632 8.27301 2.03896C10.2248 1.31736 12.2862 0.937453 14.367 0.915926C17.8322 0.758418 18.867 0.725342 27.6276 0.725342C36.3882 0.725342 37.4261 0.759994 40.8882 0.915926C42.9685 0.941175 45.0291 1.32261 46.9806 2.04368C48.4085 2.56824 49.7004 3.40688 50.7608 4.49766C51.8519 5.55804 52.691 6.84987 53.2163 8.27784C53.9401 10.2292 54.3221 12.2907 54.3456 14.3718C54.5031 17.837 54.5362 18.8702 54.5362 27.6324C54.5362 36.3946 54.5047 37.431 54.3456 40.893C54.3204 42.974 53.9385 45.0352 53.2163 46.987C52.6702 48.4024 51.8337 49.6877 50.7608 50.7603C49.6879 51.8329 48.4024 52.669 46.9869 53.2148C45.0355 53.9386 42.974 54.3206 40.8929 54.3442C37.4277 54.5017 36.3945 54.5348 27.6323 54.5348C18.8701 54.5348 17.8322 54.5048 14.3749 54.3442" fill="url(#paint0_linear_281_4)"/>
<path d="M14.3686 54.3394C12.2875 54.3164 10.226 53.9349 8.27459 53.2117C6.84726 52.6859 5.55566 51.8474 4.4944 50.7577C3.40147 49.6985 2.56158 48.4064 2.03727 46.9775C1.3146 45.026 0.933629 42.9645 0.911093 40.8835C0.753585 37.4184 0.718933 36.3867 0.718933 27.6214C0.718933 18.8561 0.753585 17.8212 0.909518 14.3608C0.935484 12.2826 1.31691 10.2242 2.03727 8.27469C2.56478 6.84785 3.40363 5.55649 4.49282 4.49451C5.55249 3.40249 6.84453 2.5632 8.27301 2.03896C10.2248 1.31736 12.2862 0.937453 14.367 0.915926C17.8322 0.758418 18.867 0.725342 27.6276 0.725342C36.3882 0.725342 37.4261 0.759994 40.8882 0.915926C42.9685 0.941175 45.0291 1.32261 46.9806 2.04368C48.4085 2.56824 49.7004 3.40688 50.7608 4.49766C51.8519 5.55804 52.691 6.84987 53.2163 8.27784C53.9401 10.2292 54.3221 12.2907 54.3456 14.3718C54.5031 17.837 54.5362 18.8702 54.5362 27.6324C54.5362 36.3946 54.5047 37.431 54.3456 40.893C54.3204 42.974 53.9385 45.0352 53.2163 46.987C52.6702 48.4024 51.8337 49.6877 50.7608 50.7603C49.6879 51.8329 48.4024 52.669 46.9869 53.2148C45.0355 53.9386 42.974 54.3206 40.8929 54.3442C37.4277 54.5017 36.3945 54.5348 27.6323 54.5348C18.8701 54.5348 17.8322 54.5048 14.3749 54.3442" fill="url(#paint1_radial_281_4)"/>
<path d="M21.0212 27.7408C21.0211 26.1994 21.5555 24.7056 22.5334 23.5141C23.5112 22.3225 24.872 21.5068 26.3838 21.2061C27.8956 20.9053 29.4649 21.1381 30.8243 21.8647C32.1837 22.5912 33.2492 23.7667 33.8391 25.1908C34.429 26.6149 34.5069 28.1994 34.0595 29.6745C33.6121 31.1496 32.667 32.4239 31.3854 33.2803C30.1038 34.1367 28.5648 34.5222 27.0308 34.3711C25.4968 34.2201 24.0627 33.5418 22.9727 32.4519C21.7232 31.2024 21.0212 29.5078 21.0212 27.7408ZM17.419 27.7408C17.4154 30.2885 18.3595 32.7465 20.0677 34.6367C21.776 36.5269 24.1262 37.7142 26.6613 37.9676C29.1964 38.2211 31.7351 37.5225 33.7837 36.0079C35.8323 34.4932 37.2443 32.2708 37.7451 29.7728C38.2459 27.2747 37.7997 24.6797 36.4933 22.4925C35.1868 20.3052 33.1136 18.682 30.6767 17.9387C28.2398 17.1953 25.6136 17.3849 23.3087 18.4706C21.0039 19.5562 19.1852 21.4603 18.2065 23.8126C17.6885 25.0575 17.4209 26.3924 17.419 27.7408ZM35.9545 17.0697C35.9535 17.6255 36.1454 18.1645 36.4973 18.5948C36.8493 19.025 37.3396 19.3199 37.8846 19.4291C38.4296 19.5383 38.9956 19.4551 39.4862 19.1936C39.9767 18.9322 40.3614 18.5087 40.5747 17.9954C40.7879 17.482 40.8165 16.9106 40.6556 16.3786C40.4947 15.8465 40.1543 15.3867 39.6923 15.0776C39.2303 14.7685 38.6754 14.6291 38.1222 14.6833C37.569 14.7375 37.0517 14.9819 36.6585 15.3749C36.2085 15.8241 35.9553 16.4337 35.9545 17.0697ZM19.6083 44.0192C18.3407 44.0055 17.0849 43.7738 15.8959 43.3341C15.0336 43.002 14.2505 42.4929 13.5969 41.8396C12.9434 41.1864 12.434 40.4034 12.1015 39.5413C11.6616 38.3523 11.4298 37.0965 11.4163 35.8288C11.3187 33.7214 11.2998 33.0898 11.2998 27.7518C11.2998 22.4139 11.3203 21.7823 11.4163 19.6733C11.4315 18.4058 11.6632 17.1502 12.1015 15.9608C12.4331 15.0972 12.9421 14.3128 13.5956 13.6581C14.2492 13.0034 15.0328 12.4931 15.8959 12.1601C17.0848 11.7203 18.3407 11.4885 19.6083 11.475C21.7158 11.3773 22.3474 11.3584 27.6837 11.3584C33.0201 11.3584 33.6533 11.3789 35.7623 11.475C37.0298 11.4901 38.2854 11.7218 39.4748 12.1601C40.3372 12.4924 41.1204 13.0018 41.774 13.6553C42.4275 14.3088 42.9368 15.0921 43.2691 15.9545C43.709 17.1435 43.9408 18.3993 43.9543 19.667C44.052 21.7776 44.0709 22.406 44.0709 27.7455C44.0709 33.0851 44.052 33.7151 43.9543 35.8241C43.9398 37.0917 43.7081 38.3474 43.2691 39.5366C42.9368 40.3981 42.4278 41.1805 41.7748 41.8335C41.1219 42.4864 40.3395 42.9955 39.4779 43.3278C38.289 43.7677 37.0331 43.9995 35.7655 44.0129C33.658 44.1106 33.0248 44.1295 27.6869 44.1295C22.349 44.1295 21.7173 44.1106 19.6115 44.0129L19.6083 44.0192ZM19.4429 7.87434C17.7849 7.90745 16.1446 8.22168 14.5917 8.80364C13.2635 9.31673 12.0571 10.1017 11.05 11.1083C10.0429 12.1149 9.25722 13.3208 8.74342 14.6488C8.16281 16.2029 7.85018 17.8444 7.81885 19.5031C7.71962 21.6342 7.69757 22.3162 7.69757 27.744C7.69757 33.1717 7.71962 33.8537 7.81885 35.9848C7.85131 37.6432 8.165 39.2841 8.74657 40.8376C9.25993 42.1655 10.045 43.3715 11.0516 44.3783C12.0581 45.3851 13.2639 46.1706 14.5917 46.6843C16.1452 47.2657 17.7861 47.5794 19.4445 47.612C21.5772 47.7097 22.2576 47.7333 27.6853 47.7333C33.113 47.7333 33.7951 47.7112 35.9261 47.612C37.5846 47.5795 39.2255 47.2659 40.779 46.6843C42.107 46.1708 43.3131 45.3854 44.3199 44.3786C45.3268 43.3717 46.1121 42.1656 46.6256 40.8376C47.2081 39.2844 47.5218 37.6433 47.5534 35.9848C47.651 33.8521 47.6731 33.1717 47.6731 27.744C47.6731 22.3162 47.651 21.6342 47.5534 19.5031C47.5211 17.8447 47.2074 16.2037 46.6256 14.6503C46.1122 13.3225 45.3271 12.1165 44.3205 11.1097C43.314 10.1029 42.1082 9.31744 40.7805 8.80364C39.2272 8.22166 37.5862 7.90795 35.9277 7.87592C33.7966 7.77827 33.1146 7.75464 27.6885 7.75464C22.2623 7.75464 21.5787 7.77669 19.4461 7.87592" fill="white"/>
<defs>
<linearGradient id="paint0_linear_281_4" x1="4.59378" y1="3.52343" x2="50.0625" y2="50.6671" gradientUnits="userSpaceOnUse">
<stop stop-color="#9939A0"/>
<stop offset="0.505208" stop-color="#D53B77"/>
<stop offset="1" stop-color="#DD3B71"/>
</linearGradient>
<radialGradient id="paint1_radial_281_4" cx="0" cy="0" r="1" gradientUnits="userSpaceOnUse" gradientTransform="translate(-77.9819 83.1146) rotate(46.1344) scale(26.6946 63.6126)">
<stop stop-color="#FA8F21"/>
<stop offset="1" stop-color="#FA8F21" stop-opacity="0"/>
</radialGradient>
</defs>
</svg>
