<svg width="63" height="63" viewBox="0 0 63 63" fill="none" xmlns="http://www.w3.org/2000/svg">
<path d="M18.3686 58.3394C16.2875 58.3164 14.226 57.9349 12.2746 57.2117C10.8473 56.6859 9.55566 55.8474 8.4944 54.7577C7.40147 53.6985 6.56158 52.4064 6.03727 50.9775C5.3146 49.026 4.93363 46.9645 4.91109 44.8835C4.75358 41.4184 4.71893 40.3867 4.71893 31.6214C4.71893 22.8561 4.75358 21.8212 4.90952 18.3608C4.93548 16.2826 5.31691 14.2242 6.03727 12.2747C6.56478 10.8478 7.40363 9.55649 8.49282 8.49451C9.55249 7.40249 10.8445 6.5632 12.273 6.03896C14.2248 5.31736 16.2862 4.93745 18.367 4.91593C21.8322 4.75842 22.867 4.72534 31.6276 4.72534C40.3882 4.72534 41.4261 4.75999 44.8882 4.91593C46.9685 4.94117 49.0291 5.32261 50.9806 6.04368C52.4085 6.56824 53.7004 7.40688 54.7608 8.49766C55.8519 9.55804 56.691 10.8499 57.2163 12.2778C57.9401 14.2292 58.3221 16.2907 58.3456 18.3718C58.5031 21.837 58.5362 22.8702 58.5362 31.6324C58.5362 40.3946 58.5047 41.431 58.3456 44.893C58.3204 46.974 57.9385 49.0352 57.2163 50.987C56.6702 52.4024 55.8337 53.6877 54.7608 54.7603C53.6879 55.8329 52.4024 56.669 50.9869 57.2148C49.0355 57.9386 46.974 58.3206 44.8929 58.3442C41.4277 58.5017 40.3945 58.5348 31.6323 58.5348C22.8701 58.5348 21.8322 58.5048 18.3749 58.3442" fill="url(#paint0_linear_281_2)"/>
<path d="M18.3686 58.3394C16.2875 58.3164 14.226 57.9349 12.2746 57.2117C10.8473 56.6859 9.55566 55.8474 8.4944 54.7577C7.40147 53.6985 6.56158 52.4064 6.03727 50.9775C5.3146 49.026 4.93363 46.9645 4.91109 44.8835C4.75358 41.4184 4.71893 40.3867 4.71893 31.6214C4.71893 22.8561 4.75358 21.8212 4.90952 18.3608C4.93548 16.2826 5.31691 14.2242 6.03727 12.2747C6.56478 10.8478 7.40363 9.55649 8.49282 8.49451C9.55249 7.40249 10.8445 6.5632 12.273 6.03896C14.2248 5.31736 16.2862 4.93745 18.367 4.91593C21.8322 4.75842 22.867 4.72534 31.6276 4.72534C40.3882 4.72534 41.4261 4.75999 44.8882 4.91593C46.9685 4.94117 49.0291 5.32261 50.9806 6.04368C52.4085 6.56824 53.7004 7.40688 54.7608 8.49766C55.8519 9.55804 56.691 10.8499 57.2163 12.2778C57.9401 14.2292 58.3221 16.2907 58.3456 18.3718C58.5031 21.837 58.5362 22.8702 58.5362 31.6324C58.5362 40.3946 58.5047 41.431 58.3456 44.893C58.3204 46.974 57.9385 49.0352 57.2163 50.987C56.6702 52.4024 55.8337 53.6877 54.7608 54.7603C53.6879 55.8329 52.4024 56.669 50.9869 57.2148C49.0355 57.9386 46.974 58.3206 44.8929 58.3442C41.4277 58.5017 40.3945 58.5348 31.6323 58.5348C22.8701 58.5348 21.8322 58.5048 18.3749 58.3442" fill="url(#paint1_radial_281_2)"/>
<path d="M25.0212 31.7408C25.0211 30.1994 25.5555 28.7056 26.5334 27.5141C27.5112 26.3225 28.872 25.5068 30.3838 25.2061C31.8956 24.9053 33.4649 25.1381 34.8243 25.8647C36.1837 26.5912 37.2492 27.7667 37.8391 29.1908C38.429 30.6149 38.5069 32.1994 38.0595 33.6745C37.6121 35.1496 36.667 36.4239 35.3854 37.2803C34.1038 38.1367 32.5649 38.5222 31.0308 38.3711C29.4968 38.2201 28.0627 37.5418 26.9727 36.4519C25.7232 35.2024 25.0212 33.5078 25.0212 31.7408V31.7408ZM21.419 31.7408C21.4154 34.2885 22.3595 36.7465 24.0677 38.6367C25.776 40.5269 28.1262 41.7142 30.6613 41.9676C33.1964 42.2211 35.7351 41.5225 37.7837 40.0079C39.8323 38.4932 41.2443 36.2708 41.7451 33.7728C42.2459 31.2747 41.7997 28.6797 40.4933 26.4925C39.1868 24.3052 37.1136 22.682 34.6767 21.9387C32.2398 21.1953 29.6136 21.3849 27.3087 22.4706C25.0039 23.5562 23.1852 25.4603 22.2065 27.8126C21.6885 29.0575 21.4209 30.3924 21.419 31.7408V31.7408ZM39.9545 21.0697C39.9535 21.6255 40.1454 22.1645 40.4973 22.5948C40.8493 23.025 41.3396 23.3199 41.8846 23.4291C42.4296 23.5383 42.9956 23.4551 43.4862 23.1936C43.9767 22.9322 44.3614 22.5087 44.5747 21.9954C44.7879 21.482 44.8165 20.9106 44.6556 20.3786C44.4947 19.8465 44.1543 19.3867 43.6923 19.0776C43.2303 18.7685 42.6754 18.6291 42.1222 18.6833C41.569 18.7375 41.0517 18.9819 40.6585 19.3749C40.2085 19.8241 39.9553 20.4337 39.9545 21.0697V21.0697ZM23.6083 48.0192C22.3407 48.0055 21.0849 47.7738 19.8959 47.3341C19.0336 47.002 18.2505 46.4929 17.5969 45.8396C16.9434 45.1864 16.434 44.4034 16.1015 43.5413C15.6616 42.3523 15.4298 41.0965 15.4163 39.8288C15.3187 37.7214 15.2998 37.0898 15.2998 31.7518C15.2998 26.4139 15.3203 25.7823 15.4163 23.6733C15.4315 22.4058 15.6632 21.1502 16.1015 19.9608C16.4331 19.0972 16.9421 18.3128 17.5956 17.6581C18.2492 17.0034 19.0328 16.4931 19.8959 16.1601C21.0848 15.7203 22.3407 15.4885 23.6083 15.475C25.7158 15.3773 26.3474 15.3584 31.6837 15.3584C37.0201 15.3584 37.6533 15.3789 39.7623 15.475C41.0298 15.4901 42.2854 15.7218 43.4748 16.1601C44.3372 16.4924 45.1204 17.0018 45.774 17.6553C46.4275 18.3088 46.9368 19.0921 47.2692 19.9545C47.709 21.1435 47.9408 22.3993 47.9543 23.667C48.052 25.7776 48.0709 26.406 48.0709 31.7455C48.0709 37.0851 48.052 37.7151 47.9543 39.8241C47.9398 41.0917 47.7081 42.3474 47.2692 43.5366C46.9368 44.3981 46.4278 45.1805 45.7748 45.8335C45.1219 46.4864 44.3395 46.9955 43.4779 47.3278C42.289 47.7677 41.0331 47.9995 39.7655 48.0129C37.658 48.1106 37.0248 48.1295 31.6869 48.1295C26.349 48.1295 25.7173 48.1106 23.6115 48.0129L23.6083 48.0192ZM23.4429 11.8743C21.7849 11.9075 20.1446 12.2217 18.5917 12.8036C17.2635 13.3167 16.0571 14.1017 15.05 15.1083C14.0429 16.1149 13.2572 17.3208 12.7434 18.6488C12.1628 20.2029 11.8502 21.8444 11.8189 23.5032C11.7196 25.6342 11.6976 26.3162 11.6976 31.744C11.6976 37.1717 11.7196 37.8537 11.8189 39.9848C11.8513 41.6432 12.165 43.2841 12.7466 44.8376C13.2599 46.1655 14.045 47.3715 15.0516 48.3783C16.0581 49.3851 17.2639 50.1706 18.5917 50.6843C20.1452 51.2657 21.7861 51.5794 23.4445 51.612C25.5772 51.7097 26.2576 51.7333 31.6853 51.7333C37.113 51.7333 37.7951 51.7112 39.9261 51.612C41.5846 51.5795 43.2255 51.2659 44.779 50.6843C46.107 50.1708 47.3131 49.3854 48.3199 48.3786C49.3268 47.3717 50.1121 46.1656 50.6256 44.8376C51.2081 43.2844 51.5218 41.6433 51.5534 39.9848C51.651 37.8521 51.6731 37.1717 51.6731 31.744C51.6731 26.3162 51.651 25.6342 51.5534 23.5032C51.5211 21.8447 51.2074 20.2037 50.6256 18.6503C50.1122 17.3225 49.3271 16.1165 48.3205 15.1097C47.314 14.1029 46.1082 13.3174 44.7805 12.8036C43.2272 12.2217 41.5862 11.9079 39.9277 11.8759C37.7966 11.7783 37.1146 11.7546 31.6885 11.7546C26.2623 11.7546 25.5787 11.7767 23.4461 11.8759" fill="white"/>
<defs>
<linearGradient id="paint0_linear_281_2" x1="8.59378" y1="7.52343" x2="54.0625" y2="54.6671" gradientUnits="userSpaceOnUse">
<stop stop-color="#9939A0"/>
<stop offset="0.505208" stop-color="#D53B77"/>
<stop offset="1" stop-color="#DD3B71"/>
</linearGradient>
<radialGradient id="paint1_radial_281_2" cx="0" cy="0" r="1" gradientUnits="userSpaceOnUse" gradientTransform="translate(-73.9819 87.1146) rotate(46.1344) scale(26.6946 63.6126)">
<stop stop-color="#FA8F21"/>
<stop offset="1" stop-color="#FA8F21" stop-opacity="0"/>
</radialGradient>
</defs>
</svg>
