<svg width="19" height="28" viewBox="0 0 19 28" fill="none" xmlns="http://www.w3.org/2000/svg">
<path d="M3.7236 19.9375H3.70619H3.70544C3.53857 19.935 3.37267 19.9117 3.21152 19.8684C3.043 19.8231 2.87956 19.7607 2.72379 19.6821C2.39441 19.514 2.09576 19.2916 1.84036 19.0242C1.70903 18.8879 1.58901 18.7412 1.48147 18.5854C1.37435 18.4305 1.28096 18.2666 1.20236 18.0954C1.04459 17.7612 0.960905 17.3969 0.957031 17.0275L0.992464 5.14336C0.992464 4.95184 0.972883 4.76216 1.00421 3.44199C1.00332 2.98176 1.09538 2.52608 1.27488 2.10224C1.44776 1.69333 1.69842 1.32184 2.01294 1.00838C2.32659 0.69404 2.69832 0.443525 3.10749 0.270736C3.53159 0.091266 3.98757 -0.000815902 4.44813 5.44657e-06H14.2142C14.5839 0.00387384 14.9484 0.087506 15.2828 0.245181C15.4541 0.323728 15.6181 0.41706 15.7731 0.524115C15.929 0.631566 16.0758 0.7515 16.2122 0.882732C16.4796 1.138 16.7021 1.43648 16.8703 1.76565C16.949 1.92133 17.0114 2.08466 17.0567 2.25307C17.1001 2.41412 17.1233 2.57992 17.1259 2.74668C17.1316 3.29526 16.8764 3.85831 16.4071 4.33212C16.1188 4.62089 15.7794 4.85367 15.4061 5.01861C15.2181 5.10198 15.0224 5.16673 14.8218 5.21192C14.6224 5.25702 14.4186 5.28009 14.2142 5.28071H6.24092V17.0274C6.23862 17.3931 6.16729 17.7551 6.03069 18.0944C5.96347 18.2647 5.88222 18.4292 5.78777 18.586C5.69434 18.7414 5.58825 18.8888 5.47059 19.0268C5.35558 19.1617 5.22903 19.2863 5.09235 19.3992C4.96006 19.5088 4.81736 19.6051 4.66628 19.6868C4.37784 19.8475 4.05381 19.9337 3.7236 19.9375ZM4.51172 0.660093C2.91198 0.660093 1.70566 1.96702 1.70566 3.70013C1.6784 5.08405 1.66462 5.25134 1.66462 5.41754V16.5036C1.66377 17.1262 1.85815 17.7334 2.22043 18.2399C2.59451 18.7465 3.09508 19.0285 3.62995 19.0341H3.64571C4.17619 19.0341 4.71271 18.7454 5.11769 18.242C5.51409 17.7485 5.73338 17.1363 5.74045 16.5035V5.39443C5.74178 5.34396 5.74757 5.29371 5.75776 5.24426V5.24337C5.76465 5.21654 5.77093 5.19028 5.77697 5.16491C5.81108 5.02139 5.84056 4.89739 5.96158 4.76669C6.11793 4.59785 6.36883 4.59295 6.3969 4.59295H6.39841L13.664 4.59186C14.389 4.59186 15.1468 4.28138 15.6418 3.78156C16.009 3.41073 16.2007 2.9779 16.196 2.52984C16.1905 2.00054 15.9082 1.51703 15.4013 1.16841C14.9319 0.84539 14.2987 0.660093 13.6643 0.660093H4.51172Z" fill="url(#paint0_radial_1_2125)"/>
<path d="M1.69329 3.70654H1.0092L0.980469 8.70907H1.66456L1.69329 3.70654Z" fill="url(#paint1_linear_1_2125)"/>
<path d="M3.64559 19.0342H3.62983C2.4916 19.0223 1.66455 17.7716 1.66455 16.5036V5.41751C1.6645 5.25109 1.67823 5.08495 1.7056 4.92079V3.70019C1.7056 2.04728 2.8577 0.660156 4.51165 0.660156H13.6644C14.9331 0.660156 16.1846 1.39238 16.1964 2.5299C16.2082 3.66742 14.933 4.59192 13.6643 4.59192L6.39871 4.59306C6.39871 4.59306 6.12644 4.589 5.96188 4.76675C5.81907 4.92107 5.80322 5.06808 5.75812 5.24343C5.74768 5.29308 5.7418 5.34359 5.74057 5.39431V16.5036C5.74057 17.7657 4.77812 19.0341 3.64583 19.0342H3.64559Z" fill="#6B16A8"/>
<path d="M3.70519 19.9375C2.39621 19.9238 0.956787 18.4856 0.956787 17.0274V5.14581C0.956709 4.95443 0.972489 4.76337 1.00397 4.5746V3.44189C1.00397 2.52904 1.36682 1.65358 2.01271 1.00811C2.65859 0.362626 3.5346 0 4.44802 0L14.214 0C15.6732 0 17.1123 1.43852 17.1259 2.74667C17.1396 4.05483 15.6732 5.2807 14.214 5.2807H6.24082V17.0274C6.24082 18.4789 5.02554 19.9377 3.72331 19.9376L3.70519 19.9375Z" fill="#6B16A8"/>
<path d="M15.5388 8.0625H15.5563H15.557C15.7239 8.06509 15.8898 8.08832 16.0509 8.13167C16.2194 8.17692 16.3829 8.23932 16.5387 8.31791C16.8681 8.48606 17.1668 8.70852 17.4223 8.97592C17.5536 9.11222 17.6736 9.25896 17.7812 9.41469C17.8883 9.56961 17.9817 9.73357 18.0603 9.90471C18.218 10.2389 18.3017 10.6032 18.3056 10.9727L18.2702 22.8568C18.2702 23.0483 18.2898 23.238 18.2584 24.5581C18.2593 25.0184 18.1673 25.4741 17.9878 25.8979C17.8149 26.3068 17.5642 26.6783 17.2497 26.9918C16.936 27.3061 16.5643 27.5566 16.1551 27.7294C15.731 27.9088 15.2751 28.0008 14.8146 27.9999H5.04853C4.67881 27.996 4.31428 27.9124 3.97988 27.7547C3.80863 27.6762 3.64457 27.5828 3.48955 27.4758C3.33372 27.3683 3.18689 27.2484 3.05051 27.1172C2.78299 26.8619 2.56043 26.5635 2.39217 26.2343C2.31354 26.0786 2.2511 25.9153 2.20582 25.7469C2.16235 25.5859 2.13901 25.4201 2.13632 25.2534C2.13062 24.7048 2.38585 24.1417 2.85509 23.6679C3.14337 23.3792 3.48278 23.1464 3.85609 22.9814C4.04407 22.8981 4.23977 22.8333 4.4404 22.7881C4.63987 22.7431 4.8437 22.72 5.0482 22.7195H13.0214V10.9727C13.0237 10.607 13.0951 10.245 13.2317 9.90565C13.2989 9.73536 13.3801 9.57094 13.4746 9.41408C13.568 9.2587 13.6741 9.11129 13.7918 8.97333C13.9068 8.83841 14.0333 8.71378 14.17 8.60085C14.3023 8.49131 14.445 8.39498 14.5961 8.31324C14.8845 8.15251 15.2086 8.06632 15.5388 8.0625V8.0625ZM14.751 27.3399C16.3507 27.3399 17.557 26.033 17.557 24.2999C17.5843 22.916 17.5981 22.7487 17.5981 22.5825V11.4965C17.5989 10.8739 17.4045 10.2667 17.0422 9.7602C16.6682 9.25363 16.1676 8.97158 15.6327 8.96597H15.617C15.0865 8.96597 14.55 9.25471 14.145 9.75808C13.7486 10.2516 13.5293 10.8638 13.5222 11.4966V22.6056C13.5209 22.6561 13.5151 22.7063 13.5049 22.7558V22.7567C13.498 22.7835 13.4918 22.8098 13.4857 22.8351C13.4516 22.9787 13.4221 23.1027 13.3011 23.2334C13.1448 23.4022 12.8939 23.4071 12.8658 23.4071H12.8643L5.59873 23.4082C4.87369 23.4082 4.11585 23.7187 3.6209 24.2185C3.25366 24.5893 3.06202 25.0221 3.06669 25.4702C3.07221 25.9995 3.35448 26.483 3.86137 26.8316C4.33109 27.1547 4.96437 27.3399 5.59873 27.3399H14.751Z" fill="url(#paint2_radial_1_2125)"/>
<path d="M15.6168 8.96606H15.6326C16.7708 8.97795 17.5978 10.2286 17.5978 11.4966V22.5827C17.5979 22.7491 17.5842 22.9153 17.5568 23.0794V24.3001C17.5568 25.953 16.4047 27.3401 14.7507 27.3401H5.59804C4.32926 27.3401 3.07784 26.6079 3.066 25.4704C3.05416 24.3329 4.32926 23.4084 5.59804 23.4084L12.8636 23.4072C12.8636 23.4072 13.1359 23.4113 13.3004 23.2335C13.4432 23.0792 13.4591 22.9322 13.5042 22.7569C13.5146 22.7072 13.5205 22.6567 13.5217 22.606V11.4966C13.5217 10.2345 14.4842 8.96611 15.6165 8.96606H15.6168Z" fill="url(#paint3_radial_1_2125)"/>
<path d="M17.5978 12.0054V21.8643H18.2772L18.3017 12.0063L17.5978 12.0054Z" fill="url(#paint4_linear_1_2125)"/>
<path d="M15.5572 8.0625C16.8662 8.07617 18.3056 9.51441 18.3056 10.9726V22.8542C18.3057 23.0456 18.2899 23.2366 18.2584 23.4254V24.5581C18.2584 25.4709 17.8956 26.3464 17.2497 26.9919C16.6038 27.6374 15.7278 28 14.8143 28H5.04832C3.58918 28 2.15008 26.5615 2.13645 25.2533C2.12281 23.9452 3.58922 22.7193 5.04832 22.7193H13.0216V10.9727C13.0216 9.52115 14.2368 8.0625 15.5391 8.0625H15.5572Z" fill="#6B16A8"/>
<path d="M8.65852 14.9776H8.6555C8.62802 14.9772 8.6007 14.9734 8.57416 14.9662C8.54645 14.9588 8.51957 14.9485 8.49395 14.9356C8.43972 14.9079 8.39054 14.8712 8.3485 14.8271C8.32686 14.8048 8.30708 14.7806 8.28934 14.755C8.2717 14.7295 8.25633 14.7026 8.24339 14.6744C8.21741 14.6193 8.20363 14.5594 8.203 14.4985L8.20885 12.5418C8.20885 12.5103 8.20564 12.4791 8.21079 12.2617C8.21065 12.1859 8.22581 12.1109 8.25537 12.0411C8.28384 11.9738 8.32511 11.9126 8.3769 11.861C8.42847 11.8093 8.48958 11.7681 8.55684 11.7396C8.62674 11.7101 8.70189 11.6949 8.77778 11.6951H10.3857C10.4466 11.6957 10.5066 11.7095 10.5616 11.7354C10.5898 11.7484 10.6168 11.7637 10.6423 11.7814C10.668 11.799 10.6922 11.8188 10.7146 11.8404C10.7587 11.8824 10.7954 11.9315 10.8231 11.9857C10.8361 12.0113 10.8463 12.0382 10.8538 12.0659C10.8609 12.0924 10.8647 12.1197 10.8652 12.1472C10.8637 12.1963 10.8524 12.2447 10.8321 12.2895C10.8118 12.3343 10.7828 12.3747 10.7468 12.4082C10.6994 12.4558 10.6435 12.4942 10.582 12.5214C10.5511 12.5351 10.5189 12.5457 10.4858 12.5532C10.453 12.5606 10.4194 12.5644 10.3858 12.5645H9.07298V14.4985C9.07259 14.5587 9.06085 14.6183 9.03835 14.6742C9.02728 14.7022 9.0139 14.7293 8.99834 14.7551C8.98296 14.7807 8.96549 14.805 8.94612 14.8277C8.92718 14.8499 8.90634 14.8704 8.88384 14.889C8.86205 14.907 8.83855 14.9228 8.81368 14.9361C8.76622 14.9627 8.71289 14.9769 8.65852 14.9776ZM8.78826 11.8037C8.52486 11.8037 8.32623 12.0189 8.32623 12.3043C8.32152 12.5322 8.31949 12.5596 8.31949 12.5872V14.4123C8.31935 14.5148 8.35136 14.6148 8.41101 14.6981C8.43666 14.7367 8.47105 14.7686 8.51138 14.7913C8.55171 14.814 8.59684 14.8269 8.64309 14.8289H8.64568C8.69325 14.8266 8.73969 14.8136 8.78163 14.7911C8.82356 14.7685 8.85992 14.7369 8.88804 14.6985C8.9533 14.6172 8.9894 14.5164 8.99056 14.4122V12.5832C8.99078 12.5749 8.99172 12.5666 8.99339 12.5585C8.99452 12.5541 8.99556 12.5498 8.99655 12.5456C9.00017 12.5213 9.01071 12.4985 9.02693 12.48C9.04632 12.4617 9.07194 12.4515 9.0986 12.4514H9.09883H10.2951C10.4167 12.4504 10.5333 12.4026 10.6206 12.318C10.6489 12.2915 10.6716 12.2596 10.6873 12.2242C10.7029 12.1888 10.7113 12.1506 10.7119 12.1119C10.7101 12.0666 10.6973 12.0226 10.6745 11.9835C10.6517 11.9444 10.6196 11.9115 10.5811 11.8877C10.496 11.8323 10.3965 11.8032 10.295 11.804L8.78826 11.8037Z" fill="url(#paint5_radial_1_2125)"/>
<path d="M8.32419 12.3052H8.21139L8.20667 13.1288H8.31923L8.32419 12.3052Z" fill="url(#paint6_linear_1_2125)"/>
<path d="M8.64553 14.8289H8.64293C8.45554 14.827 8.31934 14.621 8.31934 14.4123V12.587C8.31933 12.5596 8.32158 12.5323 8.32608 12.5052V12.3042C8.32608 12.0321 8.51579 11.8037 8.7881 11.8037H10.295C10.5039 11.8037 10.7099 11.9243 10.7119 12.1115C10.7138 12.2988 10.5039 12.451 10.295 12.451H9.09873C9.07207 12.4513 9.04648 12.4616 9.02706 12.4798C9.00865 12.5022 8.99695 12.5293 8.99333 12.5581C8.99161 12.5663 8.99065 12.5746 8.99045 12.583V14.4122C8.99045 14.62 8.83198 14.8288 8.64558 14.8289H8.64553Z" fill="#6B16A8"/>
<path d="M8.65562 14.9776C8.4401 14.9754 8.20313 14.7386 8.20313 14.4985V12.5423C8.20312 12.5108 8.20572 12.4793 8.21091 12.4482V12.2618C8.21091 12.1115 8.27065 11.9673 8.37698 11.8611C8.48331 11.7548 8.62752 11.6951 8.7779 11.6951H10.3858C10.626 11.6951 10.863 11.9319 10.8652 12.1473C10.8675 12.3627 10.626 12.5645 10.3858 12.5645H9.0731V14.4985C9.0731 14.7375 8.87302 14.9777 8.65859 14.9776H8.65562Z" fill="#6B16A8"/>
<path d="M10.6039 13.0225H10.607C10.6344 13.0229 10.6618 13.0267 10.6883 13.0338C10.716 13.0413 10.7429 13.0515 10.7685 13.0645C10.8227 13.0922 10.8719 13.1289 10.914 13.1729C10.9357 13.1953 10.9555 13.2195 10.9733 13.2451C10.9909 13.2706 11.0063 13.2976 11.0193 13.3258C11.0452 13.3808 11.059 13.4408 11.0596 13.5016L11.0538 15.4583C11.0538 15.4898 11.057 15.521 11.0519 15.7384C11.052 15.8142 11.0368 15.8892 11.0073 15.959C10.9788 16.0263 10.9375 16.0875 10.8857 16.1391C10.8341 16.1908 10.7729 16.2321 10.7055 16.2605C10.6357 16.2901 10.5606 16.3052 10.4848 16.3051H8.87691C8.81604 16.3044 8.75603 16.2907 8.70098 16.2647C8.67279 16.2518 8.64578 16.2364 8.62026 16.2188C8.5946 16.2011 8.57043 16.1814 8.54798 16.1598C8.50389 16.1178 8.46721 16.0686 8.43947 16.0144C8.42653 15.9888 8.41626 15.9619 8.4088 15.9343C8.40162 15.9077 8.39777 15.8803 8.39734 15.8528C8.39884 15.8037 8.41007 15.7553 8.43038 15.7105C8.45069 15.6657 8.47967 15.6254 8.51566 15.5918C8.56312 15.5443 8.61898 15.506 8.68041 15.4789C8.71136 15.4652 8.74358 15.4545 8.77661 15.4471C8.80945 15.4397 8.84301 15.4359 8.87667 15.4358H10.1894V13.5016C10.1898 13.4414 10.2016 13.3818 10.2241 13.3259C10.2351 13.2979 10.2485 13.2708 10.2641 13.245C10.2795 13.2194 10.2969 13.1951 10.3163 13.1724C10.3352 13.1502 10.3561 13.1297 10.3786 13.1111C10.4004 13.0931 10.4239 13.0773 10.4487 13.064C10.4962 13.0374 10.5496 13.0232 10.6039 13.0225V13.0225ZM10.4742 16.1964C10.7376 16.1964 10.9362 15.9812 10.9362 15.6958C10.9409 15.4679 10.943 15.4405 10.943 15.4129V13.5878C10.9431 13.4853 10.9111 13.3853 10.8514 13.302C10.8258 13.2635 10.7914 13.2316 10.7511 13.2088C10.7108 13.1861 10.6657 13.1732 10.6195 13.1712H10.6169C10.5693 13.1735 10.5229 13.1865 10.4809 13.209C10.439 13.2316 10.4026 13.2632 10.3745 13.3016C10.3092 13.3829 10.2731 13.4837 10.272 13.5879V15.4169C10.2718 15.4252 10.2708 15.4335 10.2692 15.4416C10.268 15.446 10.267 15.4503 10.266 15.4545C10.2624 15.4788 10.2518 15.5016 10.2356 15.5201C10.2162 15.5384 10.1906 15.5486 10.164 15.5487H10.1637H8.96745C8.8458 15.5497 8.72921 15.5975 8.64192 15.6821C8.61363 15.7086 8.59097 15.7405 8.57529 15.7759C8.55961 15.8113 8.55124 15.8495 8.55067 15.8882C8.55241 15.9335 8.56526 15.9775 8.58807 16.0166C8.61088 16.0557 8.64297 16.0886 8.6815 16.1124C8.76651 16.1678 8.86603 16.197 8.96754 16.1961L10.4742 16.1964Z" fill="url(#paint7_radial_1_2125)"/>
<path d="M10.6167 13.1711H10.6193C10.8067 13.1731 10.9429 13.379 10.9429 13.5878V15.413C10.9429 15.4404 10.9406 15.4678 10.9361 15.4948V15.6958C10.9361 15.9679 10.7464 16.1963 10.4741 16.1963H8.96718C8.75827 16.1963 8.55224 16.0758 8.55031 15.8885C8.54837 15.7012 8.75827 15.549 8.96718 15.549H10.1634C10.1902 15.5489 10.2158 15.5386 10.2353 15.5204C10.2537 15.4979 10.2654 15.4707 10.2689 15.4419C10.2706 15.4337 10.2716 15.4254 10.2718 15.417V13.5878C10.2718 13.38 10.4302 13.1712 10.6166 13.1711H10.6167Z" fill="url(#paint8_radial_1_2125)"/>
<path d="M10.9429 13.6714V15.2946H11.0547L11.0588 13.6715L10.9429 13.6714Z" fill="url(#paint9_linear_1_2125)"/>
<path d="M10.6068 13.0225C10.8223 13.0247 11.0593 13.2615 11.0593 13.5016V15.4578C11.0593 15.4893 11.0567 15.5208 11.0515 15.5519V15.7383C11.0515 15.8885 10.9917 16.0327 10.8854 16.139C10.7791 16.2452 10.6348 16.3049 10.4844 16.3049H8.87654C8.63631 16.3049 8.39938 16.0681 8.39711 15.8527C8.39485 15.6374 8.63631 15.4355 8.87654 15.4355H10.1893V13.5016C10.1893 13.2626 10.3894 13.0224 10.6038 13.0225H10.6068Z" fill="#6B16A8"/>
<defs>
<radialGradient id="paint0_radial_1_2125" cx="0" cy="0" r="1" gradientUnits="userSpaceOnUse" gradientTransform="translate(41.6011 -31.6242) rotate(90.6306) scale(17.7757 109.008)">
<stop stop-color="white"/>
<stop offset="0.102" stop-color="#E5E3E6"/>
<stop offset="0.277" stop-color="#11031A"/>
<stop offset="0.557" stop-color="#440E6A"/>
<stop offset="1" stop-color="#191022"/>
</radialGradient>
<linearGradient id="paint1_linear_1_2125" x1="1.33688" y1="3.70654" x2="1.33688" y2="8.70907" gradientUnits="userSpaceOnUse">
<stop stop-color="#655C6B"/>
<stop offset="1" stop-color="#300A4B"/>
</linearGradient>
<radialGradient id="paint2_radial_1_2125" cx="0" cy="0" r="1" gradientUnits="userSpaceOnUse" gradientTransform="translate(141.036 34.0411) rotate(-89.3694) scale(17.7762 109.007)">
<stop/>
<stop offset="0.102" stop-color="#1E1E1E"/>
<stop offset="0.277" stop-color="white"/>
<stop offset="0.442" stop-color="#440E6A"/>
<stop offset="0.701" stop-color="#55485E"/>
<stop offset="0.863" stop-color="#E9E8EA"/>
<stop offset="1" stop-color="white"/>
</radialGradient>
<radialGradient id="paint3_radial_1_2125" cx="0" cy="0" r="1" gradientUnits="userSpaceOnUse" gradientTransform="translate(88.8895 8.69374) rotate(-115.862) scale(24.199 68.9679)">
<stop stop-color="#EEDAFC"/>
<stop offset="0.136" stop-color="#D4B2EB"/>
<stop offset="0.32" stop-color="#8941BA"/>
<stop offset="0.44" stop-color="#7727AF"/>
<stop offset="1" stop-color="#6B15A8"/>
</radialGradient>
<linearGradient id="paint4_linear_1_2125" x1="17.9498" y1="12.0054" x2="17.9498" y2="21.8643" gradientUnits="userSpaceOnUse">
<stop stop-color="#958D9A"/>
<stop offset="1" stop-color="#CCBED7"/>
</linearGradient>
<radialGradient id="paint5_radial_1_2125" cx="0" cy="0" r="1" gradientUnits="userSpaceOnUse" gradientTransform="translate(45.5789 -23.8521) rotate(90.6306) scale(2.92671 17.9473)">
<stop stop-color="white"/>
<stop offset="0.102" stop-color="#E5E3E6"/>
<stop offset="0.277" stop-color="#11031A"/>
<stop offset="0.557" stop-color="#440E6A"/>
<stop offset="1" stop-color="#191022"/>
</radialGradient>
<linearGradient id="paint6_linear_1_2125" x1="8.26543" y1="12.3052" x2="8.26543" y2="13.1288" gradientUnits="userSpaceOnUse">
<stop stop-color="#655C6B"/>
<stop offset="1" stop-color="#300A4B"/>
</linearGradient>
<radialGradient id="paint7_radial_1_2125" cx="0" cy="0" r="1" gradientUnits="userSpaceOnUse" gradientTransform="translate(61.1036 47.6939) rotate(-89.3694) scale(2.92687 17.9476)">
<stop/>
<stop offset="0.102" stop-color="#1E1E1E"/>
<stop offset="0.277" stop-color="white"/>
<stop offset="0.442" stop-color="#440E6A"/>
<stop offset="0.701" stop-color="#55485E"/>
<stop offset="0.863" stop-color="#E9E8EA"/>
<stop offset="1" stop-color="white"/>
</radialGradient>
<radialGradient id="paint8_radial_1_2125" cx="0" cy="0" r="1" gradientUnits="userSpaceOnUse" gradientTransform="translate(66.2307 40.5422) rotate(-115.862) scale(3.98422 11.3552)">
<stop stop-color="#EEDAFC"/>
<stop offset="0.136" stop-color="#D4B2EB"/>
<stop offset="0.32" stop-color="#8941BA"/>
<stop offset="0.44" stop-color="#7727AF"/>
<stop offset="1" stop-color="#6B15A8"/>
</radialGradient>
<linearGradient id="paint9_linear_1_2125" x1="11.0008" y1="13.6714" x2="11.0008" y2="15.2946" gradientUnits="userSpaceOnUse">
<stop stop-color="#958D9A"/>
<stop offset="1" stop-color="#CCBED7"/>
</linearGradient>
</defs>
</svg>
