<svg width="36" height="25" viewBox="0 0 36 25" fill="none" xmlns="http://www.w3.org/2000/svg">
<path d="M15.7589 1.721C13.7005 2.90905 12.5627 5.30205 12.5627 8.44801L12.5627 11.4139L2.49492 11.4139C2.43606 11.4069 2.37681 11.4035 2.31754 11.4035C2.12207 11.403 1.92845 11.4411 1.74774 11.5156C1.56703 11.5901 1.40276 11.6996 1.2644 11.8376C1.12604 11.9757 1.01632 12.1397 0.941452 12.3203C0.866581 12.5009 0.828073 12.6944 0.828124 12.8899C0.828124 13.7132 1.49657 14.4002 2.3197 14.4002C2.36047 14.4002 2.40072 14.3986 2.44047 14.3954L12.5627 14.3954L12.5627 17.384C12.5627 20.5299 13.7005 22.923 15.7589 24.111C17.8339 25.2993 20.4613 25.0817 23.1888 23.5086L30.9367 19.0406C33.6644 17.4677 35.1703 15.2923 35.1703 12.9162C35.1703 10.5401 33.6643 8.3644 30.9367 6.77462L23.1888 2.30678C21.6327 1.40312 20.093 0.951262 18.6873 0.951262C17.6331 0.951165 16.6459 1.20216 15.7589 1.721ZM17.3216 21.5303C16.1227 20.843 15.4676 19.2927 15.4676 17.183L15.4676 8.64805C15.4676 6.53852 16.1227 4.98803 17.3216 4.30075C18.5205 3.61348 20.1826 3.82138 22.0207 4.87626L29.4208 9.14367C31.2585 10.1983 32.2656 11.541 32.2656 12.9155C32.2656 14.2899 31.2584 15.6326 29.4208 16.6874L22.0207 20.9549C20.9019 21.6103 19.8472 21.9298 18.9198 21.9298C18.3613 21.9381 17.8103 21.8004 17.3215 21.5303L17.3216 21.5303Z" fill="#F2F2F8"/>
</svg>
