<svg width="22" height="25" viewBox="0 0 22 25" fill="none" xmlns="http://www.w3.org/2000/svg">
<path d="M11.0083 24.2874H10.8558C9.76458 24.2526 8.71625 23.8545 7.87711 23.1561C7.00997 22.4215 6.21976 21.6005 5.51868 20.706C5.41017 20.573 5.29743 20.4442 5.18823 20.3119C5.06362 20.1831 4.93487 20.0501 4.81027 19.9255C3.52259 18.6846 2.40347 17.28 1.4816 15.7477C0.588623 14.2677 0.109409 12.5752 0.0940884 10.8467C0.0762818 9.42905 0.346319 8.02241 0.88778 6.71207C1.42924 5.40174 2.23087 4.21493 3.24425 3.22335C4.26245 2.22121 5.47088 1.4329 6.79834 0.904825C8.13213 0.375063 9.55724 0.113414 10.9922 0.134804H11.0161C12.444 0.113078 13.8621 0.372778 15.1896 0.899185C16.5132 1.423 17.7198 2.2042 18.7395 3.19746C19.7505 4.18263 20.5524 5.36148 21.0974 6.66362C21.6423 7.96576 21.9192 9.36442 21.9114 10.776V10.846C21.8902 12.5717 21.4109 14.261 20.5225 15.7407C19.5982 17.27 18.4793 18.673 17.1938 19.9143C17.0734 20.0347 16.9481 20.1634 16.8193 20.2964C16.7066 20.4295 16.5939 20.5625 16.4854 20.6948C15.7855 21.5919 14.9952 22.4145 14.127 23.1498C13.2879 23.8482 12.2395 24.2463 11.1484 24.2811L11.0083 24.2874ZM11.1813 6.71019C10.4819 6.7102 9.79776 6.91431 9.21274 7.29752C8.63269 7.67901 8.1788 8.22403 7.90855 8.86354C7.64123 9.49973 7.57175 10.2017 7.70911 10.8779C7.84646 11.5542 8.18425 12.1734 8.67857 12.6549C9.17748 13.1433 9.80836 13.4751 10.4934 13.6095C11.1785 13.744 11.8879 13.6752 12.5344 13.4116C13.1801 13.1511 13.7336 12.7042 14.1242 12.1278C14.5788 11.4599 14.7836 10.6532 14.7025 9.84933C14.6215 9.04549 14.2599 8.29591 13.6811 7.73222C13.0133 7.07834 12.1166 6.71088 11.1819 6.70806L11.1813 6.71019Z" fill="#4D4F60"/>
</svg>
