<svg width="36" height="25" viewBox="0 0 36 25" fill="none" xmlns="http://www.w3.org/2000/svg">
<path d="M20.2411 1.721C22.2995 2.90905 23.4373 5.30205 23.4373 8.44801L23.4373 11.4139L33.5051 11.4139C33.5639 11.4069 33.6232 11.4035 33.6825 11.4035C33.8779 11.403 34.0715 11.4411 34.2523 11.5156C34.433 11.5901 34.5972 11.6996 34.7356 11.8376C34.874 11.9757 34.9837 12.1397 35.0585 12.3203C35.1334 12.5009 35.1719 12.6944 35.1719 12.8899C35.1719 13.7132 34.5034 14.4002 33.6803 14.4002C33.6395 14.4002 33.5993 14.3986 33.5595 14.3954L23.4373 14.3954L23.4373 17.384C23.4373 20.5299 22.2995 22.923 20.2411 24.111C18.1661 25.2993 15.5387 25.0817 12.8112 23.5086L5.06332 19.0406C2.33561 17.4677 0.829694 15.2923 0.829694 12.9162C0.829694 10.5401 2.3357 8.3644 5.06332 6.77462L12.8112 2.30678C14.3673 1.40312 15.907 0.951262 17.3127 0.951262C18.3669 0.951165 19.3541 1.20216 20.2411 1.721ZM18.6784 21.5303C19.8773 20.843 20.5324 19.2927 20.5324 17.183L20.5324 8.64805C20.5324 6.53852 19.8773 4.98803 18.6784 4.30075C17.4795 3.61348 15.8174 3.82138 13.9793 4.87626L6.57923 9.14367C4.74149 10.1983 3.73439 11.541 3.73439 12.9155C3.73439 14.2899 4.74159 15.6326 6.57923 16.6874L13.9793 20.9549C15.0981 21.6103 16.1528 21.9298 17.0802 21.9298C17.6387 21.9381 18.1897 21.8004 18.6785 21.5303L18.6784 21.5303Z" fill="#F2F2F8"/>
</svg>
