<svg width="55" height="55" viewBox="0 0 55 55" fill="none" xmlns="http://www.w3.org/2000/svg">
<path d="M54.5176 38.8166C54.5176 48.662 48.6617 54.5178 38.8164 54.5178H32.9054V34.8791H34.2268L38.9802 34.7972C39.1708 34.7831 39.6103 34.7972 39.6103 34.7972C39.6103 34.7972 39.7331 34.3074 39.7677 34.1168L40.7127 28.9556C40.7395 28.8469 40.8403 28.0106 40.8403 28.0106H39.9094L34.1481 28.0925H32.7731C32.7731 28.0925 32.7873 27.1254 32.7731 26.7584L32.6645 20.1435C32.665 19.9302 32.7479 19.7253 32.8959 19.5717C33.0548 19.4231 33.2644 19.3404 33.4819 19.3402L39.9646 19.2314H40.7679V18.4141L40.659 11.9315V11.1282H39.856L32.5574 11.2368C31.4921 11.247 30.4401 11.4741 29.4656 11.9046C28.4883 12.3252 27.6043 12.9361 26.8653 13.7016C26.1263 14.4668 25.5437 15.3689 25.1501 16.3571C24.7553 17.3483 24.5651 18.409 24.591 19.4756L24.7139 26.8971C24.7281 27.0735 24.7139 28.2861 24.7139 28.2861C24.7139 28.2861 23.5705 28.272 23.3925 28.2861L20.151 28.3271H19.3477V29.1446L19.4296 34.2791V35.0964H20.2329L23.4744 35.043C23.8429 35.0288 24.8635 35.043 24.8635 35.043C24.8635 35.043 24.8493 36.01 24.8635 36.3644L25.095 51.7664C25.1091 52.1207 25.095 54.5178 25.095 54.5178H16.1883C6.34296 54.5178 0.487122 48.6621 0.487122 38.7884V16.1824C0.487122 6.33704 6.34296 0.481201 16.1883 0.481201H38.821C48.6664 0.481201 54.5222 6.33704 54.5222 16.1824L54.5176 38.8166Z" fill="#3869FF"/>
</svg>
