<svg width="55" height="55" viewBox="0 0 55 55" fill="none" xmlns="http://www.w3.org/2000/svg">
<path d="M14.3686 54.3394C12.2875 54.3164 10.226 53.9349 8.27459 53.2117C6.84726 52.6859 5.55566 51.8474 4.4944 50.7577C3.40147 49.6985 2.56158 48.4064 2.03727 46.9775C1.3146 45.026 0.933629 42.9645 0.911093 40.8835C0.753585 37.4184 0.718933 36.3867 0.718933 27.6214C0.718933 18.8561 0.753585 17.8212 0.909518 14.3608C0.935484 12.2826 1.31691 10.2242 2.03727 8.27469C2.56478 6.84785 3.40363 5.55649 4.49282 4.49451C5.55249 3.40249 6.84453 2.5632 8.27301 2.03896C10.2248 1.31736 12.2862 0.937453 14.367 0.915926C17.8322 0.758418 18.867 0.725342 27.6276 0.725342C36.3882 0.725342 37.4261 0.759994 40.8882 0.915926C42.9685 0.941175 45.0291 1.32261 46.9806 2.04368C48.4085 2.56824 49.7004 3.40688 50.7608 4.49766C51.8519 5.55804 52.691 6.84987 53.2163 8.27784C53.9401 10.2292 54.3221 12.2907 54.3456 14.3718C54.5031 17.837 54.5362 18.8702 54.5362 27.6324C54.5362 36.3946 54.5047 37.431 54.3456 40.893C54.3204 42.974 53.9385 45.0352 53.2163 46.987C52.6702 48.4024 51.8337 49.6877 50.7608 50.7603C49.6879 51.8329 48.4024 52.669 46.9869 53.2148C45.0355 53.9386 42.974 54.3206 40.8929 54.3442C37.4277 54.5017 36.3945 54.5348 27.6323 54.5348C18.8701 54.5348 17.8322 54.5048 14.3749 54.3442" fill="url(#paint0_radial_281_6)"/>
<defs>
<radialGradient id="paint0_radial_281_6" cx="0" cy="0" r="1" gradientUnits="userSpaceOnUse" gradientTransform="translate(-77.9819 83.1146) rotate(46.1344) scale(26.6946 63.6126)">
<stop stop-color="#FA8F21"/>
<stop offset="1" stop-color="#FA8F21" stop-opacity="0"/>
</radialGradient>
</defs>
</svg>
