<svg width="26" height="22" viewBox="0 0 26 22" fill="none" xmlns="http://www.w3.org/2000/svg">
<path d="M18.6215 21.4012H7.37637C3.26807 21.4012 0.911621 19.0444 0.911621 14.934V7.06382C0.911621 2.95552 3.26807 0.600098 7.37637 0.600098H18.6215C22.7319 0.600098 25.0883 2.95622 25.0883 7.06382V14.934C25.0918 19.0444 22.7326 21.4012 18.6215 21.4012ZM5.81914 5.51138C5.6926 5.51082 5.5676 5.53886 5.45342 5.59341C5.33924 5.64795 5.23856 5.72739 5.15947 5.82617C5.08929 5.91265 5.03658 6.01229 5.00498 6.11909C4.97339 6.22589 4.96374 6.33784 4.97559 6.44858C4.98692 6.55938 5.0201 6.66693 5.07334 6.76475C5.12658 6.86257 5.19837 6.94868 5.28525 7.01836C10.3953 11.1568 10.4404 11.1742 10.5209 11.2043C11.2453 11.7147 12.1121 11.9842 12.9982 11.9744C13.8776 11.9866 14.7379 11.7192 15.4558 11.2112C15.5461 11.1804 15.5956 11.1637 20.714 7.01973C20.8869 6.87746 20.9972 6.6727 21.0202 6.44995C21.0433 6.2272 20.9778 6.00427 20.8377 5.82959C20.7585 5.731 20.6578 5.65147 20.5437 5.59683C20.4297 5.54218 20.3051 5.51405 20.1787 5.51411C19.9846 5.51444 19.7965 5.58114 19.6455 5.70313L14.5726 9.77427C14.1194 10.1186 13.5632 10.2994 12.9941 10.2873C12.4245 10.2992 11.867 10.1185 11.413 9.77427L6.35234 5.70313C6.20166 5.58058 6.01336 5.51401 5.81914 5.5148V5.51138Z" fill="#4D4F60"/>
</svg>
