<svg width="20" height="20" viewBox="0 0 20 20" fill="none" xmlns="http://www.w3.org/2000/svg">
<path d="M15.3412 19.753C14.2444 19.7312 13.163 19.4898 12.161 19.0431C10.9707 18.5274 9.84242 17.8795 8.79688 17.1117C8.43636 16.8408 8.07697 16.5713 7.72905 16.2864L6.08082 14.8163C6.0216 14.7793 5.96621 14.7362 5.91607 14.6876C5.80966 14.5805 5.69982 14.4845 5.59271 14.3781C4.60585 13.3855 3.69578 12.3195 2.86982 11.1894C2.11183 10.1547 1.46872 9.04048 0.952247 7.86641C0.51875 6.85796 0.284138 5.77516 0.261783 4.67771C0.258552 4.034 0.377319 3.39552 0.611801 2.79602C0.862911 2.1774 1.24752 1.62173 1.73774 1.16848C1.99742 0.888456 2.31 0.663062 2.6579 0.505529C3.00649 0.349077 3.38273 0.263426 3.76469 0.253527C4.03852 0.250508 4.30929 0.310381 4.55633 0.428535C4.82083 0.547057 5.04822 0.735581 5.2133 0.973814L7.47337 4.15969C7.63101 4.36987 7.76221 4.59892 7.86304 4.84153C7.94897 5.02927 7.9967 5.2323 8.00319 5.43867C7.99789 5.68307 7.92614 5.92149 7.79673 6.12888C7.64582 6.38156 7.46321 6.61355 7.25256 6.81909L6.51219 7.5892C6.46002 7.64009 6.41814 7.70037 6.38846 7.76694C6.36294 7.83515 6.35097 7.90768 6.35291 7.98049C6.3506 8.05561 6.36075 8.13061 6.38299 8.20241C6.41099 8.28432 6.44414 8.34241 6.46024 8.39981C6.72343 8.84327 7.02683 9.26158 7.36673 9.64939C7.80775 10.1534 8.2764 10.6714 8.78252 11.1894C8.85673 11.2643 8.93662 11.3385 9.01222 11.412L10.9107 13.0823C11.1268 13.2429 11.3532 13.3888 11.5888 13.5192C11.6462 13.5409 11.7021 13.571 11.7707 13.599C11.8487 13.627 11.9311 13.6401 12.014 13.6375C12.0886 13.6404 12.1625 13.6263 12.2307 13.5961C12.3006 13.5699 12.3639 13.5277 12.4146 13.4729L13.1571 12.7414C13.3629 12.5261 13.5987 12.3414 13.8571 12.1933C14.0652 12.0612 14.3066 11.9909 14.553 11.9903C14.7587 11.9925 14.9622 12.0352 15.1512 12.1163C15.3907 12.2182 15.6182 12.346 15.83 12.4971L19.0657 14.7876C19.2986 14.9417 19.4834 15.158 19.5996 15.412C19.7021 15.6519 19.7551 15.91 19.7561 16.1709C19.7569 16.4545 19.7058 16.736 19.605 17.0011C19.5824 17.0823 19.5504 17.1606 19.5093 17.2342C19.3391 17.5972 19.1165 17.9333 18.8489 18.2318C18.4083 18.7293 17.8623 19.1215 17.2499 19.3798C17.2387 19.3798 17.2276 19.3883 17.2164 19.3883C16.6289 19.6272 16.0009 19.7501 15.3665 19.7502L15.3412 19.753Z" fill="#4D4F60"/>
</svg>
