<svg width="360" height="242" viewBox="0 0 360 242" fill="none" xmlns="http://www.w3.org/2000/svg">
<path d="M76.7261 71.4144C77.3596 72.1557 78.1224 72.7755 78.9772 73.2436C80.1491 73.789 80.1581 74.3223 80.0832 76.3226C80.0083 78.3229 83.6701 77.8686 83.6701 77.8686C83.6701 77.8686 82.9417 75.404 82.3202 73.6589C81.6988 71.9138 76.7261 71.4144 76.7261 71.4144ZM86.2768 75.0898C86.5915 74.8106 84.3385 74.6945 85.1528 73.9781C85.7554 73.4204 86.3154 72.8183 86.8283 72.1769L86.04 71.6546C85.0279 72.1899 83.2534 74.0001 83.9229 75.1778C84.5923 76.3556 85.9621 75.37 86.2768 75.0898ZM84.3945 80.9245C85.9231 81.8091 88.8695 82.9849 89.2712 84.0735C89.5074 84.9388 89.5568 85.8445 89.4161 86.7303C89.4161 86.7303 91.3584 85.2163 88.8716 82.7887C86.3847 80.3612 84.5154 78.555 84.5154 78.555C84.4459 78.771 84.3161 78.9625 84.1413 79.1069C83.9665 79.2512 83.7541 79.3424 83.5292 79.3695C82.8155 79.3524 82.1047 79.2724 81.4051 79.1304L83.0186 80.9866C83.0186 80.9866 83.9289 80.6564 84.3945 80.9245ZM151.061 159.43C149.843 159.352 146.795 160.821 145.423 160.391C144.052 159.96 143.137 159.266 141.545 159.795C139.952 160.324 140.137 161.025 138.711 161.849C137.861 162.412 136.897 162.778 135.888 162.92C135.048 163.066 134.286 163.499 133.729 164.144C133.169 164.809 131.672 165.724 131.836 166.412C132 167.101 134.073 167.541 135.439 167.045C136.805 166.548 147.828 162.936 148.696 162.413C149.503 161.844 150.248 161.192 150.919 160.468C151.589 159.834 152.28 159.509 151.061 159.43ZM227.35 180.267C225.038 180.38 223.553 179.918 222.46 180.011C221.367 180.104 219.818 180.66 219.452 180.381C219.086 180.103 219.067 179.037 217.943 179.444C216.162 180.086 212.608 181.502 212.51 182.83C212.412 184.158 214.508 186.225 214.401 186.824C214.294 187.424 216.873 187.792 218.17 187.092C219.205 186.43 220.346 185.952 221.543 185.68C223.035 185.355 223.977 184.713 224.4 184.957C224.822 185.201 225.304 185.217 226.022 184.313C226.741 183.408 227.398 182.735 228.32 182.74C229.243 182.745 229.919 182.74 230.338 182.259C230.756 181.777 231.648 179.983 231.237 179.878C230.825 179.773 229.662 180.153 227.35 180.267ZM230.179 239.205C229.798 238.985 229.893 237.853 230.244 236.869C230.594 235.884 230.419 234.667 230.063 234.918C229.706 235.169 228.98 237.062 227.95 238.048C226.92 239.035 225.805 238.457 225.562 238.649C225.318 238.841 225.752 239.614 225.621 239.936C225.49 240.257 224.667 240.242 224.061 239.957C223.455 239.671 223.545 238.933 223.262 238.706C222.978 238.479 220.124 239.199 217.4 239.406C214.675 239.613 213.676 238.581 212.126 239.324C211.627 239.563 210.898 240.325 212.067 241.07C213.236 241.816 215.807 241.452 217.37 241.037C218.932 240.622 218.984 241.179 219.82 241.337C220.655 241.495 222.112 240.354 223.048 240.303C223.984 240.252 223.756 240.383 224.56 240.847C225.363 241.311 227.027 240.692 228.335 240.327C229.643 239.962 229.963 240.609 231.173 240.056C232.383 239.502 230.559 239.421 230.179 239.201V239.205ZM201.004 226.425C199.872 226.1 200.885 225.367 199.954 225.024C199.382 224.815 196.572 227.42 198.082 228.161C199.591 228.901 203.752 226.693 203.841 226.348C203.93 226.003 202.137 226.745 201.007 226.421L201.004 226.425ZM174.895 88.0881C174.395 88.1312 174.245 87.7789 173.815 88.3213C173.315 88.9497 175.691 89.3399 176.382 89.6741C177.139 90.0312 177.997 90.1068 178.804 89.8873C179.27 89.5821 179.774 89.3408 180.303 89.1698C180.603 89.1438 181.329 88.5765 181.119 88.2572C180.61 87.6761 179.937 87.2636 179.188 87.0745C178.649 87.0925 178.009 87.3156 177.689 87.0625C177.37 86.8093 176.066 86.387 175.704 87.0355C175.342 87.6839 175.391 88.0461 174.895 88.0881ZM186.303 77.8716C187.202 77.4013 187.957 76.7188 185.824 75.9463C183.691 75.1739 182.657 75.0378 181.855 74.3763C181.052 73.7149 180.514 72.2169 178.301 72.321C176.677 72.3981 177.456 74.8656 179 76.0234C180.545 77.1811 185.406 78.3419 186.303 77.8716ZM135.147 66.3562C134.876 65.6838 132.4 66.086 131.121 66.3362C129.842 66.5863 128.704 67.0486 128.123 67.0426C127.543 67.0366 129.358 68.4826 130.092 68.8438C130.825 69.205 131.323 69.159 131.245 69.8444C131.167 70.5299 132.413 70.783 132.812 70.5519C133.212 70.3207 133.589 69.4182 134.172 69.0309C134.756 68.6437 133.685 68.0893 133.435 67.55C133.185 67.0106 135.351 66.8725 135.142 66.3562H135.147ZM124.933 45.5489C124.846 45.4283 124.726 45.3358 124.587 45.2825C124.448 45.2292 124.297 45.2174 124.152 45.2487C123.725 45.3317 123.642 45.1486 123.395 45.3607C123.147 45.5729 123.653 45.9931 124.267 46.0612C124.79 46.1545 125.325 46.1592 125.849 46.0752C125.936 45.9781 125.126 45.729 124.929 45.5489H124.933ZM126.832 47.35C126.421 47.31 126.047 47.38 125.955 47.5501C125.863 47.7202 125.893 47.6022 125.811 47.7973C125.719 48.0164 126.868 48.0975 127.337 47.8443C127.807 47.5912 127.242 47.389 126.831 47.352L126.832 47.35ZM120.395 51.3656C120.174 51.2515 119.724 51.4656 119.557 51.6057C119.39 51.7458 120.141 51.7238 120.48 51.9199C120.819 52.1161 121.897 52.5203 121.879 52.6614C121.861 52.8025 122.823 52.7024 122.478 52.4143C122.134 52.1261 121.022 52.0991 121.165 51.8529C121.309 51.6067 121.383 51.3846 121.1 51.3526C120.816 51.3206 120.753 51.5517 120.395 51.3666V51.3656ZM99.2695 18.7337C99.5314 18.9293 99.752 19.1748 99.9189 19.456C100.086 19.7373 100.195 20.0488 100.242 20.3727C100.192 20.6299 103.053 21.4734 103.371 21.3733C104.015 21.3814 104.658 21.4231 105.298 21.4984C106.252 21.4984 109.516 22.7993 109.667 22.7072C109.819 22.6151 108.605 21.0381 108.145 20.816C107.328 20.4679 106.605 19.9296 106.038 19.246C105.661 18.5665 102.919 17.645 102.609 17.4608C102.298 17.2767 102.058 17.714 101.41 17.9562C100.761 18.1983 100.111 17.722 99.1426 17.8321C98.1285 17.9411 98.682 18.3704 99.2695 18.7337ZM107.321 25.538C106.292 24.8807 105.165 24.3925 103.982 24.0921C103.742 24.1501 103.955 24.5154 104.122 24.8756C104.289 25.2358 105.394 25.7882 105.821 26.4536C106.495 27.2801 107.341 27.9502 108.299 28.4179C109.549 29.0261 110.873 29.4668 112.238 29.7287C113.337 30.0369 114.568 31.691 115.599 32.1553C116.226 32.5209 116.954 32.6723 117.675 32.5865C117.822 32.4524 119.153 32.1863 119.264 31.9441C119.375 31.702 118.393 31.6159 118.213 31.6219C117.601 31.2185 117.063 30.7136 116.62 30.129C116.261 29.6356 116.686 29.6176 116.967 29.4725C117.248 29.3274 117.067 28.9122 117.267 28.5019C117.467 28.0917 118.206 28.1867 118.845 28.0296C119.485 27.8725 118.295 27.2721 117.815 26.995C117.652 26.8747 117.459 26.8025 117.257 26.7866C117.055 26.7706 116.852 26.8116 116.672 26.9049C116.355 27.073 115.898 26.3906 115.473 26.3435C115.049 26.2965 114.407 27.5953 114.22 27.5093C114.032 27.4232 114.095 26.1624 113.863 25.7422C113.631 25.3219 113.125 25.2719 112.982 25.518C112.838 25.7642 112.173 25.447 112.369 25.3179C112.565 25.1888 111.57 24.3943 110.963 24.0431C110.357 23.6918 110.527 23.7249 110.564 23.4597C110.601 23.1945 108.177 22.5411 107.46 22.2369C106.911 22.0513 106.33 21.9768 105.752 22.0178C105.436 21.9887 104.293 21.7906 104.206 22.0478C104.138 22.2479 104.654 22.1969 104.906 22.5591C105.157 22.9213 107.543 23.5788 107.158 23.8169C106.772 24.0551 104.26 22.8163 104.217 22.9073C104.85 23.7319 105.693 24.3709 106.657 24.7575C108.169 25.434 108.655 26.0664 108.591 26.1184C108.112 26.0892 107.66 25.8844 107.322 25.543L107.321 25.538ZM121.619 32.3554C122.219 32.5285 122.58 32.7126 123.146 32.9087C123.376 33.002 123.628 33.0272 123.872 32.9815C124.116 32.9357 124.342 32.8209 124.523 32.6506C124.88 32.3294 124.402 31.9211 124.584 31.719C124.765 31.5169 125.459 31.6529 125.499 31.4348C125.539 31.2167 125.053 31.1546 124.799 30.8344C124.123 30.3512 123.398 29.9394 122.637 29.6056C122.213 29.4679 121.779 29.3642 121.338 29.2954C121.238 29.2374 121.976 30.2791 121.481 30.196C120.987 30.1129 120.402 29.3515 120.082 29.2574C119.669 29.1343 119.321 29.3234 119.419 29.5116C119.517 29.6997 119.609 30.3471 119.864 30.4932C120.288 30.7349 120.624 31.1067 120.822 31.5539C120.925 31.9791 121.017 32.1873 121.62 32.3604L121.619 32.3554ZM129.823 32.4394C129.899 32.3909 129.96 32.323 130.002 32.2427C130.043 32.1625 130.062 32.0727 130.057 31.9826C130.052 31.8926 130.023 31.8054 129.974 31.7301C129.924 31.6547 129.856 31.5939 129.775 31.5539C129.262 31.3409 128.785 31.0503 128.36 30.6923C127.968 30.2671 128.353 30.9075 128.018 30.8924C127.787 30.8845 127.555 30.8982 127.327 30.9335C127.762 31.4594 128.282 31.9086 128.865 32.2623C129.331 32.5325 129.542 32.6556 129.823 32.4444V32.4394ZM124.218 28.4769C124.237 28.6993 124.308 28.9141 124.425 29.104C124.542 29.2939 124.702 29.4537 124.892 29.5706C125.527 29.8808 126.212 30.0756 126.914 30.146C127.222 30.0819 128.063 30.0199 127.965 29.5226C127.866 29.0253 127.357 28.7971 126.883 28.4349C126.492 28.0561 126.026 27.7642 125.515 27.5783C124.926 27.4132 124.042 27.3862 123.743 27.038C123.424 26.6005 123.044 26.2104 122.615 25.8792C122.56 25.8443 122.497 25.8233 122.431 25.818C122.366 25.8126 122.3 25.8231 122.24 25.8485C122.179 25.8739 122.126 25.9135 122.084 25.964C122.042 26.0144 122.013 26.0743 121.999 26.1384C121.899 26.4086 122.398 27.115 122.663 27.4012C122.928 27.6874 124.254 28.1467 124.218 28.4769ZM121.515 27.3972C121.781 27.2431 122.004 26.7558 120.586 26.7278C120.374 26.7248 121.248 27.5523 121.514 27.3982L121.515 27.3972ZM116.991 23.1135C117.126 23.3456 117.945 23.7529 117.633 23.8359C117.32 23.919 116.962 23.7999 117.078 23.977C117.194 24.1541 117.519 24.3423 117.301 24.3693C117.083 24.3963 115.802 23.7209 115.708 23.3826C115.614 23.0444 115.755 22.8823 115.464 22.6262C115.174 22.37 114.06 21.7256 114.157 21.5395C114.253 21.3533 113.567 20.869 112.719 20.6389C111.76 20.4127 110.775 20.3238 109.791 20.3747C109.714 20.4838 110.598 21.0822 110.799 21.3754C111.309 21.7713 111.906 22.0408 112.54 22.1619C112.904 22.1969 113.088 22.1709 113.063 22.333C113.038 22.4951 114.407 23.1535 114.307 23.2275C114.208 23.3016 111.986 22.2369 111.882 22.396C111.777 22.5551 113.119 23.3766 113.911 23.7018C115.044 24.0406 116.145 24.4789 117.202 25.0117C117.648 25.4229 119.457 26.5126 120.29 26.2915C120.782 26.1614 120.834 25.8142 120.317 25.491C119.801 25.1678 119.134 25.1798 119.157 24.6454C119.18 24.1111 119.33 23.8449 119.157 23.6528C118.984 23.4607 117.92 23.4877 117.592 23.2526C117.263 23.0174 116.859 22.8813 116.991 23.1135ZM106.974 17.8491C107.485 18.1893 107.036 18.3674 107.845 18.6826C108.361 18.8416 108.892 18.9495 109.43 19.0048C109.679 19.1049 111.194 18.8818 110.967 19.323C110.741 19.7643 111.226 19.9564 111.552 20.0125C111.878 20.0685 112.787 20.3127 112.967 20.3027C113.146 20.2927 113.207 19.8023 113.575 19.9514C113.943 20.1005 113.989 19.6633 114.714 19.9284C115.439 20.1936 116.108 20.5578 116.12 20.829C116.233 21.1013 116.404 21.3452 116.622 21.5435C116.84 21.7417 117.098 21.8893 117.38 21.9757C118.016 22.1458 118.779 22.2589 119.229 22.408C119.68 22.5571 120.554 22.6692 120.368 22.385C120.182 22.1008 119.35 22.0598 118.654 21.8106C117.957 21.5615 118.219 21.2953 117.655 20.9691C117.066 20.641 116.446 20.3709 115.805 20.1626C115.006 19.8754 113.622 19.5812 112.784 19.251C111.995 18.7543 111.135 18.383 110.233 18.1503C108.785 17.8631 106.77 17.0055 106.386 16.9815C105.921 16.9535 106.464 17.5089 106.977 17.8491H106.974ZM110.838 20.0175C110.193 19.6165 109.468 19.3621 108.714 19.272C108.566 19.282 109.468 20.0605 109.813 20.0855C110.159 20.1105 110.825 20.1406 110.84 20.0175H110.838ZM122.278 25.1748C122.658 25.5725 123.106 25.8989 123.601 26.1384C123.772 26.1044 123.031 24.5114 122.611 24.3132C122.281 24.1621 122.255 25.0747 122.278 25.1748ZM124.731 24.4403C124.941 24.8256 124.132 24.3332 124.074 24.5404C124.016 24.7475 125.228 25.4059 125.417 25.492C125.606 25.578 125.389 25.9813 125.734 26.4016C126.08 26.8218 126.457 26.4896 126.989 26.6217C127.522 26.7538 127.836 27.6824 128.401 27.8115C128.967 27.9406 128.738 27.6994 128.749 27.5293C128.706 27.1507 128.598 26.7826 128.428 26.4416C128.007 26.0408 127.533 25.7 127.019 25.4289C126.455 25.1037 126.333 24.5054 125.82 24.2112C125.308 23.917 124.859 23.4107 124.48 23.6328C124.428 23.6738 124.523 24.0601 124.731 24.4453V24.4403ZM129.833 27.8515C129.968 28.0837 130.532 28.587 130.059 28.552C129.585 28.5169 129.016 28.3888 129.335 28.596C129.655 28.8031 130.287 28.9262 130.434 29.2514C130.582 29.5766 131.2 29.8688 131.565 30.146C132.06 30.5054 132.624 30.757 133.222 30.8844C133.506 30.8504 132.199 30.139 132.223 29.9118C132.247 29.6847 132.794 29.9569 132.764 29.6967C132.734 29.4365 131.846 28.8581 131.706 28.58C131.321 28.203 130.884 27.8838 130.407 27.6324C130.308 27.5753 130.331 27.6113 130.331 27.6113C130.08 27.4502 129.698 27.6244 129.833 27.8565V27.8515ZM133.516 28.7721C134.023 29.0653 135.906 29.8728 135.731 29.9869C135.556 30.1009 133.902 29.3475 133.717 29.5696C133.531 29.7917 134.243 30.4221 134.355 30.4882C134.467 30.5542 135.359 31.2447 135.825 31.5138C136.29 31.783 137.295 32.4084 137.55 32.5545C137.805 32.7006 138.785 32.3464 138.956 32.3784C139.127 32.4104 138.602 32.8117 139.286 32.9207C139.861 33.0344 140.429 33.1858 140.984 33.374C140.984 33.374 140.562 33.5742 140.463 33.5121C140.078 33.3434 139.669 33.2335 139.252 33.1859C139.001 33.2159 139.538 33.8353 139.877 34.0315C140.149 34.1712 140.437 34.2783 140.734 34.3507C140.734 34.3507 139.589 34.4587 140.027 34.7109C140.588 35.0508 141.186 35.3235 141.811 35.5234C142.301 35.6315 142.437 35.7976 142.242 35.7956C141.48 35.679 140.733 35.4825 140.012 35.2092C139.372 34.927 139.492 34.2716 138.998 33.9864C138.577 33.6782 138.121 33.4218 137.639 33.2229C137.468 33.256 138.295 34.3927 137.669 34.0535C136.993 33.6597 136.277 33.3413 135.532 33.1039C135.139 33.0528 134.517 33.0228 134.967 33.284C135.418 33.5451 137.586 34.82 137.586 34.82C137.586 34.82 140.24 36.5301 140.889 36.9063C141.382 37.1297 141.835 37.4341 142.227 37.8069C142.93 38.1753 143.668 38.4698 144.431 38.6854C144.699 38.8405 145.53 39.1437 145.074 38.7055C144.617 38.2672 144.06 37.5467 144.629 37.7228C145.484 37.9064 146.327 38.1376 147.156 38.4153C147.85 38.778 148.617 38.9808 149.4 39.0087C149.986 38.9306 147.951 37.7759 148.654 37.94C149.432 38.1256 150.201 38.3503 150.958 38.6134C151.959 39.1359 152.996 39.5883 154.06 39.9673C155.059 40.2575 155.244 40.2124 156.574 40.5206C157.904 40.8288 161.369 42.2167 161.569 42.1807C161.769 42.1447 158.272 40.7588 158.888 40.8278C159.955 41.0903 160.985 41.4867 161.953 42.0076C162.8 42.4507 163.696 42.7916 164.624 43.0232C165.091 43.0963 165.514 43.4055 165.689 43.2884C165.864 43.1713 163.79 42.2798 163.896 41.9445C164.002 41.6093 163.077 41.097 161.989 40.7318C160.901 40.3665 161.374 40.3535 160.89 39.9182C159.944 39.1636 158.946 38.4765 157.904 37.8619C157.128 37.5496 156.38 37.1751 155.664 36.7422C155.247 36.3469 153.241 35.1412 153.351 35.4053C153.462 35.6695 153.925 36.3299 153.551 36.1558C153.178 35.9817 153.095 35.4744 151.953 34.7669C150.971 34.1621 149.923 33.6738 148.828 33.312C147.947 33.0218 147.751 33.2179 147.751 33.2179C147.751 33.2179 149.81 34.4737 149.366 34.4367C148.761 34.2885 148.213 33.964 147.791 33.5041C147.314 33.0298 147.192 32.8907 146.692 32.4094C146.213 31.8965 145.621 31.5016 144.964 31.2557C144.346 31.0746 144.364 31.4378 143.327 30.9465C142.29 30.4552 141.998 30.0029 141.273 29.7377C140.594 29.371 139.868 29.0989 139.116 28.9292C138.616 28.9722 140.001 29.7707 140.279 29.9529C140.557 30.135 140.117 30.0789 140.323 30.2861C140.746 30.6272 141.201 30.9271 141.681 31.1816C142.287 31.5319 141.961 31.4748 142.138 31.732C142.315 31.9892 142.149 32.1322 142.838 32.5325C143.47 32.9163 144.15 33.2138 144.861 33.4171C145.295 33.4921 144.961 33.6522 145.451 33.9564C146.053 34.351 146.699 34.6728 147.376 34.915C148.275 35.2402 149.153 35.3053 149.554 35.4494C149.954 35.5935 148.826 35.3803 149.268 35.6795C149.71 35.9787 150.858 36.6201 150.909 36.6722C150.96 36.7242 151.856 37.3956 150.732 36.8553C149.608 36.3149 148.455 35.7546 148.455 35.7546C148.455 35.7546 147.725 35.4434 146.831 35.0791C145.937 34.7149 144.824 33.9404 145.005 34.2436C145.186 34.5468 145.205 34.844 145.414 34.9861C145.624 35.1282 145.15 35.0091 145.765 35.3213C146.381 35.6335 147.21 36.0678 146.534 35.9217C145.936 35.8262 145.37 35.5887 144.882 35.2292C144.643 34.9601 145.026 34.5428 144.482 34.2066C143.939 33.8704 143.142 33.4321 142.711 33.0949C142.279 32.7576 141.492 31.9721 141.568 32.4995C141.644 33.0268 142.436 33.6612 142.383 33.7403C142.33 33.8193 142.103 33.8203 142.766 34.2686C143.428 34.7169 144.084 35.3163 144.153 35.3573C144.223 35.3983 144.384 35.9747 143.402 35.3183C142.42 34.6619 141.584 34.2016 141.42 34.0175C141.256 33.8333 141.368 33.5912 141.481 33.5912C141.594 33.5912 141.649 33.38 141.526 33.291C141.245 33.0944 140.989 32.8649 140.762 32.6076C140.637 32.4074 140.612 32.4995 140.868 32.3174C141.125 32.1353 140.785 32.1372 140.782 31.8941C140.779 31.6509 141.245 31.9852 140.856 31.6069C140.468 31.2287 140.45 31.1066 140.257 31.1716C140.064 31.2367 140.12 31.6419 139.878 31.2597C139.636 30.8774 140.007 31.1366 139.627 30.7854C139.248 30.4342 139.491 30.7494 138.918 30.265C138.346 29.7807 138.494 30.0209 138.374 29.2914C138.253 28.562 137.842 28.5229 137.348 28.2367C136.855 27.9506 136.944 28.0466 136.944 28.0466C136.344 27.7464 136.434 27.9466 135.322 27.6804C134.21 27.4142 133.262 27.126 133.16 27.4623C133.068 27.6903 133.054 27.9419 133.118 28.1792C133.182 28.4164 133.321 28.6263 133.515 28.7771L133.516 28.7721ZM138.356 37.3776C138.646 37.6338 137.937 37.6848 138.53 37.962C139.124 38.2392 139.862 38.5123 140.271 38.7495C140.694 39.0204 141.188 39.1596 141.691 39.1497C141.974 39.0497 141.841 38.6214 141.715 38.5494C141.294 38.0834 140.797 37.692 140.246 37.3916C138.903 36.8988 137.599 36.3064 136.344 35.6195C136.028 35.1835 135.645 34.7994 135.211 34.4808C134.747 34.2116 133.744 33.258 133.866 33.2199C133.989 33.1819 134.277 33.259 134.124 32.9728C133.971 32.6866 134.351 32.4665 133.485 32.1192C132.619 31.772 131.841 31.4558 131.97 31.3317C132.099 31.2077 132.441 31.0756 131.99 30.8144C131.539 30.5532 131.303 30.5272 130.94 30.2961C130.377 29.9594 129.796 29.6528 129.2 29.3775C128.801 29.2904 129.515 30.0439 129.73 30.3441C129.945 30.6443 129.759 30.8654 129.851 31.0736C129.943 31.2817 130.314 31.0996 130.545 31.1446C130.942 31.2981 131.321 31.4951 131.674 31.732C131.839 31.8481 132.18 32.2873 131.852 32.4324C131.524 32.5775 131.225 32.2893 131.165 32.7156C131.105 33.1419 130.815 33.261 131.096 33.4901C131.377 33.7193 131.722 33.6982 131.952 33.8754C132.182 34.0525 131.837 34.0064 132.124 34.2826C132.416 34.5228 132.764 34.6862 133.135 34.7579C133.366 34.803 133.89 34.7779 133.777 34.909C133.663 35.0401 132.97 34.7719 133.677 35.1802C134.383 35.5885 136.174 36.5391 136.737 36.8813C137.299 37.2235 137.536 37.4306 137.787 37.3996C138.038 37.3686 138.065 37.1214 138.355 37.3826L138.356 37.3776ZM135.369 32.7276C135.794 32.7757 136.226 33.0478 136.144 32.7366C136.062 32.4254 135.404 32.0232 134.91 31.803C134.493 31.6179 134.041 31.6529 134.243 31.813C134.445 31.9731 134.7 32.0552 134.679 32.2633C134.658 32.4715 134.943 32.6796 135.369 32.7276ZM184.466 70.3518C183.791 69.7588 183.034 69.2655 182.218 68.8868C181.159 68.4716 179.886 68.1313 179.931 67.8602C179.976 67.589 180.937 68.0133 181.241 68.0603C181.546 68.1073 182.918 68.4355 182.48 68.1514C182.043 67.8672 180.703 67.2218 181.281 67.3278C181.86 67.4339 183.294 68.0953 182.872 67.8512C182.449 67.607 180.824 66.2711 181.804 66.8055C182.662 67.2311 183.347 67.9414 183.742 68.8158C183.749 69.066 183.824 69.3096 183.958 69.5209C184.092 69.7322 184.28 69.9035 184.503 70.0165C185.096 70.3588 185.179 70.6049 185.656 70.3528C186.134 70.1006 186.566 70.1206 186.342 69.7604C186.079 69.3706 185.794 68.9967 185.488 68.6407C185.228 68.3255 184.817 67.561 184.91 67.4819C185.003 67.4029 182.775 66.1481 184.097 66.4813C185.419 66.8145 186.224 67.2818 186.135 67.7251C186.111 67.8634 186.116 68.005 186.147 68.1418C186.178 68.2785 186.236 68.4078 186.317 68.5221C186.398 68.6365 186.501 68.7336 186.62 68.8081C186.739 68.8825 186.871 68.9327 187.009 68.9559C187.725 69.106 187.924 68.9899 187.686 68.5896C187.447 68.1894 186.234 67.619 186.331 67.1467C186.428 66.6744 186.922 66.8285 186.922 66.8285L188.745 68.3435C189.083 68.5157 189.438 68.6545 189.804 68.7577C189.911 68.7207 189.864 68.4295 190.409 68.3825C190.955 68.3355 190.789 67.9432 190.956 67.582C191.123 67.2208 191.583 67.9822 191.743 68.2034C191.903 68.4245 192.243 69.116 192.761 68.5936C193.073 68.2546 193.322 67.8621 193.495 67.4349C193.694 67.1227 193.876 66.8965 194.171 67.0676C194.466 67.2388 194.141 68.7978 194.483 68.5996C194.824 68.4015 195.36 68.0183 195.532 67.9202C195.704 67.8221 195.555 67.7351 195.36 67.2598C195.165 66.7845 195.828 67.2337 196.341 66.9376C196.855 66.6414 197.064 66.103 197.747 66.003C198.28 65.9747 198.813 66.0684 199.305 66.2772C200.092 66.3291 200.872 66.4598 201.633 66.6674C202.333 66.9726 202.633 66.9466 204.213 67.4989C205.794 68.0513 207.332 69.0719 206.311 68.2184C205.261 67.4003 204.152 66.6598 202.993 66.003C202.249 65.4437 201.456 64.9524 200.624 64.535C200.009 64.3769 199.725 64.7101 199.359 64.0667C198.994 63.4233 200.001 63.7445 198.943 63.1331C197.885 62.5217 194.868 62.1625 195.403 61.8773C195.937 61.5921 198.183 62.5948 198.924 62.8259C199.665 63.0571 201.25 63.6094 200.614 63.2422C199.979 62.875 199.216 62.1695 198.367 61.6792C197.519 61.1889 195.757 60.4004 196.02 60.2233C196.284 60.0461 197.042 60.1232 196.365 59.7299C195.688 59.3367 195.272 58.4051 193.947 58.265C192.622 58.1249 191.439 56.5839 190.614 56.1066C189.789 55.6293 184.383 53.0316 183.157 52.3222C181.931 51.6127 180.49 50.8793 179.637 50.421C178.783 49.9627 176.593 49.1201 177.453 49.7505C178.312 50.3809 179.95 51.3906 179.302 51.3516C178.653 51.3125 177.162 50.51 177.111 50.6131C177.06 50.7162 178.68 51.7838 177.96 51.5647C177.24 51.3456 175.862 50.8452 175.939 50.1638C176.016 49.4824 176.296 49.0521 175.852 48.7949C175.408 48.5378 173.736 47.6702 173.683 47.9704C173.63 48.2706 173.795 48.859 173.436 48.6518C173.087 48.4942 172.813 48.2073 172.671 47.8513C172.571 47.4951 172.339 46.8687 171.963 46.9147C171.588 46.9608 171.8 47.6452 170.964 47.295C170.128 46.9447 169.946 47.0028 170.046 46.8947C170.146 46.7866 171.132 46.7316 170.265 46.2303C169.398 45.729 166.535 44.0079 166.674 44.3191C166.813 44.6303 166.811 44.9254 166.474 44.7303C166.137 44.5352 166.315 44.3091 165.659 43.9298C165.002 43.5506 164.76 43.7397 164.25 43.7417C163.74 43.7437 164.301 44.3971 163.569 43.8418C162.836 43.2864 163.487 43.4975 162.534 43.0412C161.81 42.7749 161.057 42.5942 160.291 42.5029C159.776 42.3368 157.319 41.3111 157.811 41.7604C158.257 42.1285 158.75 42.4358 159.276 42.674C160.076 43.1383 162.213 44.0089 161.774 44.0179C161.215 44.0717 160.652 43.9533 160.162 43.6786C159.69 43.3394 159.64 43.3444 159.64 43.3444C158.435 43.1904 157.273 42.7964 156.222 42.1857C155.224 41.7207 154.203 41.3066 153.164 40.9449C152.804 40.7368 151.69 40.1584 151.418 40.3645C151.146 40.5707 151.239 41.2501 151.966 41.7364C152.692 42.2227 155.705 43.6376 155.407 43.7587C155.108 43.8798 152.123 42.3578 151.94 42.3148C151.757 42.2717 151.049 41.9976 151.469 42.636C151.889 43.2744 153.4 43.8187 153.138 43.8978C152.875 43.9768 152.168 43.7977 152.695 44.198C153.223 44.5982 154.205 44.9395 155.334 45.5589C156.309 46.0858 157.255 46.666 158.167 47.297C158.794 47.6568 159.348 48.1321 159.799 48.6979C159.999 49.0741 160.208 49.7575 159.921 50.1198C159.634 50.482 159.433 52.2121 158.928 52.5784C158.422 52.9446 157.682 53.0787 158.613 53.616C159.544 54.1534 160.697 54.3925 161.011 54.6047C161.325 54.8168 161.805 55.3932 161.426 55.6363C161.048 55.8795 160.78 56.5479 160.472 56.1366C159.956 55.5008 159.311 54.9814 158.58 54.6127C158.132 54.4726 157.651 54.4846 157.211 54.6467C156.826 54.8198 156.277 55.2601 157.096 55.5693C157.916 55.8785 158.471 55.6063 159.233 56.0466C159.996 56.4869 160.227 56.6209 160.02 56.8631C159.813 57.1053 160.519 57.5796 159.278 57.2924C158.557 57.1622 157.867 56.8971 157.244 56.5109C156.834 56.2915 156.359 56.2275 155.906 56.3308C155.735 56.4308 155.151 56.8161 154.637 57.1133C154.124 57.4105 153.315 57.5355 153.239 57.8517C153.163 58.1679 153.494 58.5602 153.157 59.0245C152.819 59.4888 153.098 59.3527 152.683 59.6409C152.268 59.9291 152.051 59.835 152.238 60.2413C152.426 60.6475 153.216 60.3123 152.443 61.0518C151.671 61.7913 152.387 62.5027 152.27 62.7659C152.154 63.0291 151.471 63.1291 152.212 63.6555C152.954 64.1818 153.962 64.6001 153.985 65.1744C154.008 65.7488 154.036 66.5883 154.743 66.7675C155.451 66.9466 155.928 66.5953 157.115 66.3252C158.302 66.055 158.959 65.4796 159.964 65.6317C160.969 65.7838 160.73 66.3382 162.026 65.7318C163.322 65.1254 162.256 64.6451 163.868 65.0824C164.533 65.1995 165.19 65.3593 165.835 65.5607C167.517 66.104 168.355 66.7204 168.895 66.6044C170.506 66.5145 172.122 66.6601 173.691 67.0366C175.041 67.4549 175.235 67.8311 176.359 68.1844C177.483 68.5376 179.915 69.185 180.31 69.4462C181.255 69.7634 182.215 70.0326 183.188 70.2527C183.601 70.3818 184.038 70.4144 184.465 70.3478L184.466 70.3518ZM253.333 171.554C253.885 171.326 254.422 171.065 254.942 170.77C254.988 170.643 254.988 170.504 254.942 170.377C254.308 170.01 253.864 170.413 253.383 170.398C252.901 170.383 251.952 170.298 251.534 170.977C251.116 171.657 250.829 172.217 250.685 172.398C251.611 172.281 252.509 171.995 253.333 171.554ZM242.818 175.627C242.443 176.334 241.243 177.223 241.794 177.54C242.344 177.858 243.692 177.912 242.919 178.455C242.145 178.998 243.379 179.315 242.396 179.736C241.413 180.157 241.455 180.378 241.074 180.158C240.694 179.938 241.074 179.958 240.482 179.816C239.889 179.674 239.449 179.679 239.289 180.116C239.129 180.553 239.453 180.805 238.827 180.971C238.202 181.137 237.063 181.599 237.615 181.72C238.168 181.841 239.945 181.156 240.681 181.32C241.416 181.484 241.796 181.898 241.268 182.253C240.74 182.607 240.424 183.083 239.815 182.994C239.207 182.905 238.748 183.366 238.117 182.999C237.485 182.632 238.152 182.299 237.317 182.338C236.483 182.377 236.37 182.053 235.701 182.392C235.419 182.531 235.128 182.65 234.829 182.746C235.29 182.747 235.748 182.812 236.191 182.94C236.94 183.24 237.59 183.157 237.123 183.478C236.655 183.8 236.054 184.047 236.067 184.187C236.153 184.445 236.198 184.715 236.2 184.987C236.141 185.216 237.456 184.065 238.294 184.021C239.131 183.977 238.058 184.94 238.571 184.643C239.085 184.346 240.196 183.802 240.969 183.258C241.743 182.715 241.853 181.329 242.268 181.238C242.684 181.147 243.445 181.194 243.747 180.774C244.049 180.353 242.826 180.774 243.416 179.791C243.789 179.214 244.107 178.603 244.368 177.968C244.615 177.385 244.96 176.794 245.567 176.685C246.175 176.576 248.253 176.062 247.973 175.637C247.81 175.387 247.627 175.149 247.428 174.926C246.934 174.575 247.649 173.867 246.566 174.494C245.483 175.12 244.624 176.008 244.088 175.829C243.551 175.651 243.193 174.922 242.818 175.628V175.627ZM233.28 182.904C233.799 182.997 234.334 182.941 234.823 182.742C233.877 182.703 232.913 182.776 233.28 182.905V182.904ZM234.806 178.841C233.906 178.917 232.521 179.041 232.418 179.442C232.256 180.076 235.88 179.202 236.175 179.373C236.471 179.544 236.899 179.396 237.326 179.049C237.754 178.703 239.146 178.585 239.135 178.249C239.124 177.913 238.596 178.267 237.161 178.558C236.387 178.728 235.599 178.824 234.807 178.842L234.806 178.841ZM218.746 189.204C218.12 189.369 218.296 190.395 218.975 190.392C219.655 190.389 219.389 190.104 220.359 189.543C221.329 188.983 221.674 188.391 222.382 188.471C223.091 188.552 222.262 189.324 221.605 189.801C220.949 190.279 220.49 190.739 220.786 190.91C221.082 191.081 220.678 191.903 221.461 191.498C222.245 191.094 222.772 190.741 223.271 190.498C223.769 190.255 223.756 190.119 224.003 189.536C224.25 188.954 223.942 188.447 224.382 188.435C224.821 188.424 225.971 188.299 226.11 188.513C226.249 188.726 225.211 189.179 225.52 189.489C225.828 189.799 227.158 190.107 227.383 190.369C227.608 190.631 227.35 190.877 226.838 191.169C226.325 191.461 225.399 191.855 226.388 192.163C227.377 192.471 227.904 192.314 228.454 192.631C228.953 193.014 229.393 193.469 229.76 193.98C229.76 193.98 230.817 193.079 229.26 192.505C227.704 191.931 226.588 191.752 226.987 191.52C227.387 191.289 229.107 190.834 228.26 190.344C227.414 189.853 225.615 189.672 226.315 189.022C227.015 188.371 227.639 188.402 226.225 188.046C224.811 187.69 224.227 187.684 223.659 188.013C223.092 188.342 222.695 187.983 223.152 187.719C223.608 187.455 225.035 186.434 225.035 186.434C226.087 186.119 226.816 187.069 227.407 187.411C228.244 187.879 229.193 188.109 230.152 188.074C230.639 187.896 231.115 187.686 231.575 187.447C231.575 187.447 229.557 187.928 229.126 187.147C228.819 186.567 228.35 186.09 227.777 185.774C227.427 185.603 227.043 185.516 226.654 185.52C226.265 185.524 225.882 185.619 225.536 185.797C224.596 186.242 224.988 186.797 223.357 186.91C222.575 186.882 221.797 187.015 221.07 187.303C220.842 187.435 221.052 187.753 220.352 188.203C219.876 188.624 219.333 188.962 218.746 189.205V189.204ZM214.512 193.218C214.812 192.798 214.28 192.227 214.28 192.227L213.061 192.247C213.314 192.394 213.35 193.008 213.647 193.181C213.944 193.353 214.207 193.637 214.513 193.219L214.512 193.218ZM221.306 195.5C221.435 195.377 220.662 194.599 219.699 194.57C218.736 194.541 218.184 194.223 217.814 194.338C217.445 194.453 216.45 194.739 216.45 194.739C218.093 194.964 218.121 194.849 218.758 195.018C219.588 195.276 220.444 195.438 221.311 195.501L221.306 195.5ZM229.008 198.239C230.285 198.186 229.867 198.867 229.867 198.867C229.867 198.867 231.109 198.003 231.155 197.633C231.201 197.264 232.454 196.539 231.532 196.733C230.814 196.968 230.083 197.162 229.343 197.313C228.544 197.382 227.913 197.213 228.052 197.424C228.348 197.723 228.669 197.996 229.013 198.24L229.008 198.239ZM239.961 208.592C239.786 207.569 241.208 207.137 240.799 206.836C240.391 206.535 239.247 206.07 239.582 205.143C239.916 204.217 240.88 204.243 241.255 203.542C241.589 202.581 241.652 201.546 241.439 200.55C241.26 199.919 238.891 197.032 238.657 196.238C238.424 195.445 236.706 195.703 235.855 195.804C235.003 195.905 233.869 195.777 234.072 195.368C234.275 194.959 235.771 193.846 235.441 193.06C235.111 192.275 231.913 191.472 231.705 192.285C231.514 193.031 232.305 192.963 231.987 194.031C231.669 195.099 231.209 195.361 232.338 195.882C232.571 196.008 232.774 196.182 232.935 196.393C233.095 196.604 233.208 196.847 233.266 197.106C233.324 197.365 233.326 197.633 233.272 197.892C233.217 198.152 233.108 198.396 232.951 198.61C232.406 199.411 231.377 198.689 230.678 199.142C229.98 199.596 229.279 200.243 230.125 200.734C230.97 201.226 231.024 201.781 231.083 202.872C231.142 203.962 228.985 204.821 227.099 205.909C225.214 206.996 223.995 207.41 222.591 205.874C221.188 204.338 224.431 203.245 225.801 202.256C227.172 201.268 225.568 201.461 224.284 200.784C223 200.108 222.933 199.608 221.846 199.111C220.759 198.615 220.759 198.611 220.074 199.011C218.977 199.468 217.809 199.729 216.622 199.785C215.024 199.978 215.804 199.378 214.861 198.7C213.918 198.023 213.476 198.229 210.922 198.335C208.369 198.441 207.81 197.59 207.012 198.052C206.03 198.677 204.931 199.096 203.782 199.283C202.263 199.526 199.722 198.255 198.986 197.897C198.249 197.538 197.2 197.853 195.655 197.817C194.109 197.78 192.781 198.793 190.519 199.661C188.257 200.528 188.104 201.693 187.028 203.049C186.093 204.229 184.854 205.131 183.445 205.659C181.908 206.352 181.608 206.575 182.346 207.86C183.085 209.145 187.269 209.123 187.998 209.875C188.728 210.628 191.137 210.898 194.477 211.511C197.817 212.125 198.506 212.655 199.201 214.313C199.895 215.971 199.406 216.542 199.572 217.034C199.738 217.525 198.928 217.651 198.696 218.177C198.464 218.702 200.464 218.671 199.817 219.678C199.486 220.064 199.277 220.54 199.217 221.045C199.157 221.55 199.248 222.062 199.478 222.515C199.994 223.539 201.313 223.51 202.355 224.178C203.397 224.847 203.979 224.854 205.677 225.242C207.375 225.63 207.501 225.703 209.138 225.002C210.775 224.3 214.395 223.821 217.323 223.009C219.923 222.162 222.357 220.871 224.517 219.191C225.691 218.126 226.467 216.691 226.715 215.124C226.756 215.382 227.005 215.601 226.985 215.806C226.971 216.143 226.982 216.48 227.018 216.815C227.042 217.29 227.742 216.838 228.368 216.474C228.995 216.111 228.502 215.761 228.136 215.483C227.771 215.205 227.82 214.442 227.809 214.107C227.712 213.462 227.462 212.85 227.079 212.322C227.551 211.019 228.357 209.863 229.415 208.97C230.585 208.196 229.864 207.976 230.17 207.169C230.475 206.361 232.194 205.9 232.751 205.43C233.812 204.434 235.165 203.806 236.61 203.639C238.482 203.539 237.151 204.94 236.888 205.778C236.625 206.615 237.16 206.99 238.255 208.217C239.35 209.444 240.131 210.753 240.543 210.661C240.954 210.569 240.136 209.616 239.961 208.592ZM227.465 213.763C227.785 214.409 227.347 214.222 226.889 214.682C226.837 214.733 226.793 214.793 226.76 214.857C226.802 214.559 226.809 214.257 226.783 213.957C226.757 213.518 226.819 213.079 226.963 212.664C227.125 213.037 227.317 213.463 227.466 213.763H227.465ZM246.84 205.057C247.223 205.08 248.275 204.766 247.54 204.604C246.755 204.523 245.962 204.629 245.226 204.914C244.642 205.104 244.161 205.09 243.951 204.77C243.741 204.45 243.489 204.108 243.489 204.108L242.798 203.773C242.717 203.833 242.651 203.911 242.605 204C242.559 204.089 242.534 204.188 242.532 204.289C242.529 204.389 242.55 204.489 242.592 204.58C242.634 204.671 242.697 204.752 242.775 204.815C243.341 205.276 244.051 205.524 244.781 205.515C245.561 205.505 245.502 205.735 245.958 205.471C246.414 205.208 246.46 205.031 246.841 205.054L246.84 205.057ZM248.831 212.077C249.645 211.558 249.281 212.6 249.35 212.706C249.419 212.812 250.288 212.458 250.049 211.861C249.811 211.263 249.398 211.747 249.05 210.625C248.703 209.502 248.451 209.946 248.228 209.095C248.005 208.243 247.913 207.858 248.158 207.472C248.403 207.085 247.922 206.871 247.922 206.871C247.664 207.118 246.638 207.711 247.301 208.16C247.963 208.609 247.692 208.717 247.885 209.29C248.078 209.863 248.656 210.263 248.725 210.566C248.794 210.868 249.098 211.573 248.756 211.766C248.413 211.96 247.862 211.844 247.817 212.016C247.772 212.188 248.21 212.572 248.377 212.866C248.544 213.16 247.702 213.795 247.884 214.032C248.066 214.269 248.369 213.851 248.545 213.161C248.721 212.472 248.02 212.595 248.832 212.074L248.831 212.077ZM238.585 224.411C238.839 224.558 239.45 224.449 239.409 224.227C239.368 224.006 239.618 223.027 239.565 222.669C239.511 222.312 238.978 221.737 239.265 221.376C239.533 220.958 239.76 220.515 239.943 220.054C239.287 220.531 238.669 221.426 238.722 221.787C238.775 222.148 239.096 222.795 238.879 223.262C238.662 223.729 238.328 224.263 238.585 224.411ZM235.254 189.056C235.341 188.908 234.919 188.663 234.919 188.663C234.255 188.62 233.597 188.796 233.042 189.163C232.216 189.542 231.277 189.988 231.203 190.276C231.129 190.563 230.984 190.94 230.984 190.94C230.984 190.94 232.314 189.731 232.61 189.902C232.905 190.074 232.743 190.703 233.116 190.392C233.489 190.081 233.489 189.882 233.489 189.882C233.489 189.882 234.114 189.716 234.272 189.482C234.43 189.248 234.062 189.163 234.062 189.163C234.062 189.163 235.164 189.203 235.25 189.056H235.254ZM221.566 194.524C220.625 194.266 219.7 193.951 218.797 193.582C218.557 193.382 218.174 193.355 218.106 193.051C218.038 192.748 217.806 193.47 216.889 192.875C215.972 192.281 216.4 192.131 216.104 191.959C215.764 191.855 215.406 191.829 215.055 191.881C215.612 192.562 216.373 193.048 217.225 193.267C218.007 193.466 218.765 193.75 219.486 194.112C219.792 194.227 221.561 194.524 221.561 194.524H221.566ZM241.017 178.673C241.474 178.409 241.139 177.82 240.927 177.698C240.927 177.698 240.442 178.077 240.368 178.363C240.301 178.565 240.188 178.748 240.036 178.897C240.377 178.912 240.716 178.834 241.017 178.673ZM243.046 106.46C243.672 106.641 244.322 106.727 244.973 106.716C244.976 106.561 244.944 106.408 244.879 106.267C244.814 106.127 244.718 106.004 244.597 105.907C244.216 105.686 243.114 105.246 243.114 105.246C242.882 105.577 242.482 106.202 243.046 106.462V106.46ZM178.225 105.045C177.981 104.985 177.74 104.912 177.503 104.826C176.924 104.626 177.404 104.441 176.924 104.626C176.444 104.811 176.437 105.201 175.925 105.498C175.412 105.795 174.644 105.945 174.941 106.116C175.32 106.358 175.764 106.476 176.214 106.456C176.717 106.32 177.198 106.108 177.637 105.828C177.928 105.688 178.201 105.514 178.451 105.309C178.936 104.93 178.95 104.677 178.95 104.677C179.334 104.504 180.44 104.55 179.989 104.222C179.846 104.097 179.673 104.012 179.487 103.973C179.302 103.935 179.109 103.946 178.928 104.004C178.748 104.179 178.598 104.382 178.483 104.605L178.682 104.785C178.682 104.785 178.946 105.267 178.225 105.048V105.045ZM186.379 117.21C186.579 116.997 185.791 116.277 185.565 116.209C185.34 116.141 183.767 115.83 183.767 115.83C184.264 116.056 184.71 116.381 185.077 116.786C185.315 117.192 186.178 117.427 186.379 117.213V117.21ZM192.283 121.086C192.283 121.086 193.262 121.058 193.134 120.986C193.006 120.914 192.301 120.636 192.047 120.486C191.726 120.388 191.39 120.35 191.056 120.374L190.456 120.426C190.617 120.757 190.899 121.014 191.244 121.144C191.591 121.166 191.94 121.147 192.283 121.088V121.086ZM222.356 81.2417C223.315 81.8621 223.822 82.1553 223.555 82.4595C223.289 82.7637 225.393 83.0599 225.633 83.26C225.872 83.4602 224.217 83.1009 224.217 83.1009C224.217 83.1009 222.957 82.9008 223.869 83.8894C224.781 84.8781 224.569 85.1503 224.777 85.2723C224.986 85.3944 225.777 84.9902 226.382 85.0782C226.987 85.1663 228.335 85.4174 228.959 85.4474C229.582 85.4775 229.98 85.4474 230.031 86.0018C230.082 86.5561 228.532 86.9164 228.9 87.1936C229.267 87.4707 228.884 87.4477 230.114 87.7639C230.976 88.0696 231.875 88.2571 232.787 88.3213C233.199 88.2302 233.052 87.2876 232.688 87.0104C232.323 86.7333 231.888 86.1519 232.058 86.0528C232.172 86.0124 232.296 86.013 232.41 86.0544C232.524 86.0959 232.619 86.1756 232.68 86.28C233.208 86.8184 233.848 87.2335 234.555 87.4958C235.366 87.8008 236.212 88.0025 237.073 88.0961C237.472 88.0621 238.601 88.3863 237.772 87.6418C236.925 86.9842 236.013 86.4143 235.051 85.9408C234.417 85.5735 232.794 84.701 232.724 84.5949C232.043 84.1398 231.304 83.778 230.526 83.5192C230.227 83.5452 229.798 84.0866 229.079 83.6713C228.503 83.4371 227.962 83.1243 227.471 82.7417C227.108 82.3202 226.767 81.8807 226.449 81.4249C225.493 81.008 224.517 80.6406 223.523 80.3242C222.999 80.4302 221.395 80.6244 222.353 81.2438L222.356 81.2417ZM285.864 120.403C287.038 120.752 287.49 120.881 287.844 121.02C288.266 121.145 288.696 121.239 289.131 121.303C289.131 121.303 288.514 120.682 288.289 120.42C288.087 120.107 287.792 119.867 287.445 119.734C287.077 119.653 286.733 120.049 286.294 120.058C285.855 120.067 284.936 119.668 285.176 119.873C285.416 120.077 285.861 120.405 285.861 120.405L285.864 120.403ZM291.09 119.534C291.4 119.935 291.8 120.257 292.258 120.474C292.568 120.587 294.156 120.845 294.025 120.968C293.894 121.091 292.633 121.283 293.326 121.815C294.018 122.346 294.325 122.262 295.287 122.882C296.249 123.503 296.893 124.009 297.077 124.049C297.26 124.089 297.94 124.284 297.811 124.407C297.483 124.573 297.139 124.707 296.786 124.808C297.36 125.18 297.953 125.522 298.562 125.834C299.592 126.364 299.889 126.535 300.439 126.854C300.977 127.166 301.585 127.336 302.207 127.348C302.378 127.248 302.295 127.004 301.282 126.22C300.269 125.435 300.47 125.219 299.805 124.97C299.141 124.721 298.606 124.539 298.606 124.539L299.32 124.028C298.916 123.59 298.427 123.24 297.883 123C297.007 122.625 297.397 121.862 298.032 122.229C298.666 122.596 299.867 123.03 298.869 122.185C297.871 121.34 297.887 121.084 297.27 120.665C296.654 120.246 295.772 120.457 295.332 120.265C294.892 120.073 293.733 119.672 293.733 119.672C292.888 119.522 290.596 118.989 291.088 119.535L291.09 119.534ZM359.508 174.937C358.288 173.436 353.659 168.193 351.546 166.773C349.433 165.353 350.347 164.789 349.277 164.171C348.207 163.553 345.633 163.735 345.98 163.143C346.327 162.552 349.963 163.776 350.176 162.933C350.39 162.091 346.796 160.452 345.411 159.031C344.027 157.61 342.755 156 340.737 155.536C338.718 155.073 340.426 154.478 340.737 154.035C341.047 153.593 334.848 148.96 333.02 148.255C331.193 147.549 334.019 146.897 332.66 146.377C331.3 145.856 323.985 142.064 324.223 142.905C324.461 143.747 324.332 145.517 323.542 145.061C322.751 144.604 323.242 142.69 321.943 142.202C320.644 141.714 320.734 142.118 319.827 142.122C318.92 142.126 314.452 140.597 312.994 138.962C312.254 138.057 311.298 137.353 310.215 136.915C309.763 136.654 309.745 134.709 308.005 134.671C306.266 134.633 303.924 134.421 304.8 133.784C305.676 133.148 307.897 133.818 306.948 132.477C305.999 131.135 303.598 130.891 301.929 129.311C299.94 127.335 297.421 125.979 294.679 125.408C294.632 125.326 294.571 125.252 294.5 125.19C294.231 124.915 293.904 124.703 293.543 124.57C293.1 124.544 292.66 124.488 292.226 124.401C292.015 124.278 291.251 124.035 290.701 123.717C290.152 123.399 289.556 123.253 288.837 122.837C288.117 122.422 289.368 122.09 288.537 121.937C287.706 121.784 288.537 121.937 288.322 122.208C288.107 122.479 286.891 122.108 286.255 121.936C285.618 121.764 285.565 121.406 285.172 121.045C284.779 120.685 285.078 120.463 284.357 120.245C283.635 120.027 283.704 120.329 283.67 120.837C283.636 121.345 282.99 120.837 282.439 120.522C281.889 120.207 281.809 119.761 281.085 119.739C280.481 119.773 279.876 119.691 279.302 119.499C278.76 119.092 278.1 118.872 277.422 118.874C276.636 118.896 277.528 119.208 276.123 119.049C275.655 118.825 275.231 118.52 274.869 118.148C274.796 118.054 274.725 117.957 274.655 117.856L274.835 117.776C274.835 117.776 276.266 117.876 276.663 117.844C277.061 117.812 276.314 117.313 276.174 117.1C276.071 116.977 275.933 116.889 275.779 116.847C275.625 116.805 275.462 116.811 275.311 116.865C274.801 116.896 274.291 116.789 273.836 116.553C273.294 115.501 272.516 114.59 271.562 113.891C270.609 113.192 269.506 112.725 268.341 112.527C263.906 111.634 264.928 113.456 262.869 113.407C260.81 113.358 259.455 112.576 259.054 113.135C258.652 113.695 258.61 114.109 257.239 113.14C255.96 112.336 254.793 111.366 253.768 110.254C253.359 109.578 250.985 106.711 256.442 107.405C261.899 108.098 268.598 111.269 269.359 110.83C270.119 110.39 267.327 109.656 265.086 108.799C262.845 107.943 261.312 106.09 255.778 105.44C250.245 104.791 248.542 105.123 249.118 106.161C249.695 107.198 253.115 109.788 252.409 109.998C251.704 110.208 249.194 108.139 246.648 107.459C244.103 106.778 241.042 106.591 240.692 105.684C240.341 104.778 239.634 103.491 238.803 103.45C237.972 103.409 237.298 104.777 236.091 104.431C234.884 104.084 232.419 104.858 230.911 104.426C229.403 103.993 227.534 99.6586 227.534 99.6586C227.534 99.6586 231.839 104.346 234.777 103.495C237.014 102.848 232.51 98.9131 229.752 96.6016C229.909 96.5425 230.038 96.4945 230.116 96.4705C230.485 96.3544 230.037 95.8311 229.784 95.684C229.575 95.5639 228.534 95.0956 227.526 94.7074C227.288 94.5253 226.987 94.3181 226.632 94.093C226.956 94.0216 227.276 93.9311 227.589 93.8218C227.833 93.6317 226.011 92.7771 226.011 92.7771C226.011 92.7771 224.922 92.7431 223.963 92.6491C223.23 92.3048 222.425 91.9636 221.572 91.6484C220.955 91.2404 220.303 90.8885 219.623 90.5967C217.661 89.7262 217.442 90.3906 216.947 90.2355C216.453 90.0804 216.313 89.8693 215.365 89.5851C214.416 89.3009 213.608 89.427 213.79 89.6641C213.972 89.9013 212.781 90.0034 212.341 90.0124C211.902 90.0214 210.656 89.7632 210.232 89.7122C209.466 89.7977 208.709 89.9565 207.973 90.1865C207.523 90.2915 206.299 90.3236 205.117 90.4867C205.063 90.4797 205.008 90.4717 204.956 90.4627C202.974 90.1084 199.643 88.4464 197.095 90.0504C194.548 91.6544 196.088 92.7201 197.218 93.1104C198.348 93.5006 200.499 93.9519 200.499 93.9519L198.339 96.5706C198.313 96.1944 198.211 95.8275 198.04 95.4919C197.868 95.1563 197.63 94.859 197.341 94.6178C197.052 94.3767 196.716 94.1967 196.356 94.0888C195.995 93.9809 195.616 93.9473 195.242 93.9899C192.256 94.0209 191.689 95.9792 191.689 95.9792C191.689 95.9792 187.429 94.6593 187.039 93.9059C186.65 93.1524 189.921 93.0223 189.921 93.0223C189.921 93.0223 187.986 91.7275 187.341 91.9696C186.695 92.2118 187.441 93.0843 187.441 93.0843C187.041 93.0521 186.652 92.9459 186.291 92.7711C185.84 92.51 184.606 91.005 185.025 90.6328C185.444 90.2605 185.019 89.2669 185.019 89.2669C185.019 89.2669 186.732 89.0267 187.111 88.9377C187.49 88.8486 187.811 88.8586 187.757 88.6945C187.703 88.5304 186.082 87.7709 186.348 87.6168C186.614 87.4627 187.738 87.6288 187.852 87.4317C187.967 87.2346 186.18 86.377 185.8 86.4651C185.203 86.628 184.591 86.7306 183.973 86.7713C183.662 86.7233 183.912 86.252 183.325 86.265C182.739 86.278 182.951 86.9714 182.751 87.1195C182.551 87.2676 181.706 87.6589 181.762 87.82C181.818 87.9811 183.203 88.3893 182.761 88.6155C182.319 88.8416 181.587 88.9037 181.507 89.3409C181.427 89.7782 182.121 90.3556 181.743 90.4417C181.364 90.5277 180.223 90.1785 179.635 90.4537C179.123 90.6524 178.588 90.7868 178.043 90.8539L178.536 91.7095C178.536 91.7095 175.769 91.3842 175.795 91.6634C175.821 91.9426 178.1 92.7761 178.593 93.0153C179.085 93.2544 181.49 94.7334 182.462 94.5933C183.434 94.4532 186.027 93.4456 186.115 94.112C186.203 94.7784 181.852 95.2067 180.296 94.7044C179.429 94.3963 178.58 94.0374 177.754 93.6297C177.537 93.5927 177.654 94.2751 176.919 93.9829C176.061 93.6072 175.152 93.3629 174.221 93.2584C173.843 93.3465 175.95 95.4879 174.465 96.6076C172.98 97.7273 171.953 98.4518 170.985 97.8084C170.017 97.165 167.32 95.4258 166.823 95.0946C166.577 94.8973 166.29 94.7579 165.983 94.6869C165.676 94.6158 165.357 94.615 165.049 94.6844C164.537 94.9155 163.838 95.8741 162.861 96.2764C161.884 96.6786 160.216 97.1209 159.864 97.3571C159.511 97.5932 160.064 97.8254 159.289 98.2106C158.515 98.5959 157.96 98.849 157.96 98.849C157.96 98.849 158.365 99.0392 158.949 99.2883C159.532 99.5375 160.125 99.8807 159.714 100.347C159.303 100.813 159.774 100.996 160.501 101.065C161.229 101.134 162.477 102.076 163.469 102.122C164.207 102.152 164.942 102.239 165.667 102.383C166.371 102.386 167.072 102.288 167.749 102.093C168.11 101.95 168.078 101.316 169.562 101.208C171.047 101.099 173.669 101.736 174.097 101.456C174.526 101.176 174.797 100.497 176.155 100.755C177.512 101.013 177.746 102.379 178.106 102.367C178.466 102.355 179.768 102.58 180.259 102.557C180.751 102.534 182.357 102.321 181.933 103.481C181.508 104.641 180.691 105.928 181.374 106.675C182.058 107.423 182.508 107.683 182.258 108.154C182.009 108.625 182.366 108.743 182.231 109.018C182.096 109.292 181.818 109.746 181.477 109.813C181.105 109.963 180.701 110.017 180.303 109.97C179.747 109.87 178.667 109.024 178.105 108.829C177.542 108.635 177.238 108.547 177.123 108.745C177.008 108.944 177.614 109.733 177.668 110.159C177.706 110.42 177.842 110.657 178.05 110.82L178.684 110.62C178.684 110.62 178.924 110.187 179.256 110.158C179.588 110.129 180.201 110.134 180.285 110.313C180.369 110.493 181.211 110.365 181.324 110.299C181.624 110.221 181.937 110.207 182.242 110.258C182.421 110.317 182.989 110.25 182.953 110.01C182.917 109.77 182.773 109.576 183.177 109.392C183.58 109.208 183.992 109.051 184.155 109.365C184.228 109.476 184.274 109.601 184.292 109.733C184.309 109.865 184.296 109.998 184.255 110.124C184.168 110.272 184.72 110.324 184.896 110.144C185.072 109.964 185.322 109.621 185.027 109.319C184.732 109.017 184.482 108.41 184.659 108.227C184.836 108.044 185.412 108.069 184.82 107.727C184.682 107.659 184.56 107.562 184.463 107.443C184.367 107.323 184.297 107.184 184.26 107.034C184.222 106.885 184.218 106.729 184.247 106.578C184.276 106.427 184.337 106.284 184.427 106.159C184.843 105.739 184.834 105.646 184.795 105.294C184.78 105.159 184.794 105.023 184.835 104.894C184.877 104.765 184.944 104.646 185.034 104.545C185.125 104.444 185.235 104.362 185.358 104.307C185.481 104.251 185.615 104.221 185.75 104.22C186.559 104.16 186.425 104.874 186.413 105.614C186.401 106.355 187.193 107.56 187.26 107.929C187.327 108.298 187.819 109.417 187.496 109.603C187.173 109.789 185.808 110.122 185.838 110.447C185.856 110.997 185.706 111.539 185.408 112C185.303 112.103 185.225 112.229 185.181 112.369C185.137 112.509 185.128 112.657 185.155 112.801C185.178 112.901 184.555 112.787 184.49 113.055C184.425 113.323 184.809 113.327 184.307 113.585C183.804 113.844 183.874 113.82 184.17 114.057C184.395 114.247 184.551 114.507 184.612 114.795C184.607 114.88 185.457 113.965 185.626 114.063C185.796 114.161 186.257 113.747 186.485 113.812C186.712 113.877 186.605 114.607 186.936 114.512C187.268 114.417 187.795 114.261 187.792 114.018C187.844 113.685 187.928 113.358 188.041 113.041C188.09 112.85 188.324 112.194 188.764 112.119C189.203 112.043 188.878 112.619 189.415 112.736C189.953 112.853 190.514 112.492 190.725 112.614C190.936 112.736 190.997 112.814 191.491 113.101C191.634 113.182 191.759 113.291 191.856 113.424C191.954 113.556 192.022 113.707 192.057 113.868C191.597 113.924 191.152 114.07 190.748 114.298C190.414 114.588 191.085 114.624 190.476 115.041C189.868 115.459 189.607 115.528 189.558 115.72C189.498 116.012 189.35 116.279 189.135 116.486C188.898 116.656 188.976 116.856 189.243 117.012C189.511 117.168 190.02 117.394 189.771 117.668C189.522 117.942 189.534 118.212 190.005 118.397C190.475 118.581 191.141 118.196 191.427 118.341C191.618 118.479 191.778 118.654 191.898 118.856C192.018 119.058 192.096 119.283 192.127 119.516C192.17 119.981 193.126 120.339 193.547 120.359C193.967 120.379 194.631 120.172 194.807 120.429C194.915 120.571 195.053 120.688 195.21 120.771C195.368 120.854 195.542 120.903 195.72 120.912C196.06 120.912 196.262 121.006 195.911 121.112C195.561 121.218 195.212 121.125 194.912 121.328C194.613 121.532 194.476 121.582 194.195 121.793C193.667 122.177 193.064 122.442 192.425 122.572C191.515 122.772 188.986 123.924 188.128 123.605C187.27 123.286 187.583 122.256 186.296 121.904C185.009 121.552 184.042 121.853 183.404 121.374C182.767 120.896 181.506 119.355 181.16 119.264C180.815 119.173 180.96 118.841 181.094 118.764C181.228 118.687 180.15 118.217 180.149 117.777C180.148 117.337 180.112 116.151 178.231 116.163C176.35 116.175 176.394 116.507 176.023 116.755C175.651 117.002 174.532 117.455 174.305 116.949C174.078 116.442 173.891 115.348 173.358 115.082C172.826 114.817 173.006 114.308 173.35 113.914C173.694 113.519 173.059 112.646 172.471 112.413C171.882 112.18 171.402 112.036 171.455 111.451C171.508 110.866 171.49 110.24 171.769 110.161C172.049 110.082 172.908 110.71 173.349 110.504C173.79 110.297 173.121 110.064 173.322 109.785C173.523 109.506 173.406 109.46 173.493 109.246C173.525 109.118 173.603 109.006 173.711 108.931C173.82 108.857 173.952 108.824 174.082 108.839C174.489 108.832 175.048 108.739 175.072 108.639C175.096 108.539 174.231 108.571 174.351 108.355C174.471 108.139 174.568 107.887 174.097 107.703C173.627 107.519 172.743 107.557 172.435 107.114C172.127 106.672 171.772 106.665 171.256 106.414C170.739 106.163 170.257 106.341 169.93 106.153C169.309 105.58 168.596 105.116 167.821 104.78C166.286 104.248 164.706 103.857 163.101 103.611C162.246 103.6 161.707 103.552 161.419 103.034C161.132 102.515 159.653 102.408 159.731 102.102C159.788 101.834 159.825 101.561 159.843 101.288L158.956 101.148C157.622 101.561 156.221 101.706 154.831 101.576C153.211 101.406 151.579 101.757 150.171 102.576C148.643 103.272 146.939 103.482 145.288 103.177C143.307 102.823 140.293 103.977 138.949 103.907C137.605 103.837 132.534 104.681 131.861 105.787C131.189 106.894 130.121 108.034 127.219 108.99C124.318 109.945 120.77 111.415 120.92 115.633C121.07 119.85 121.664 121.073 121.664 121.073C121.664 121.073 125.575 121.225 126.282 122.513C126.989 123.801 130.918 124.138 132.35 124.615C132.608 124.711 132.842 124.864 133.034 125.062C133.226 125.26 133.371 125.499 133.46 125.76C133.548 126.022 133.577 126.3 133.544 126.574C133.511 126.848 133.417 127.112 133.27 127.345C132.848 127.981 138.402 128.291 134.757 130.138C131.111 131.985 129.842 132.132 129.268 132.856C128.695 133.579 128.088 135.691 126.883 137.367C125.677 139.043 124.855 139.974 123.985 140.086C123.115 140.199 123.35 141.302 121.851 141.843C120.352 142.383 117.52 142.064 114.474 144.344C111.429 146.625 111.832 148.091 109.413 149.948C106.994 151.805 105.669 152.178 104.742 154.28C103.815 156.381 103.123 157.564 101.926 158.191C100.729 158.818 99.837 159.269 100.267 159.869C100.696 160.47 103.114 160.636 105.029 162.008C106.945 163.379 112.976 163.349 116.387 162.421C119.798 161.492 122.381 160.259 123.454 160.62C124.528 160.98 126.687 160.643 128.835 159.336C130.983 158.029 134.235 157.975 137.183 158.096C140.13 158.217 143.571 156.164 145.097 154.76C146.622 153.356 148.943 149.601 156.019 149.032C163.095 148.464 169.365 149.012 174.62 146.952C179.875 144.892 180.67 144.824 179.029 144.402C177.389 143.981 172.347 143.44 172.887 142.082C173.428 140.724 174.769 141.06 174.705 139.792C174.641 138.524 174.143 137.182 174.869 136.37C175.594 135.559 176.767 133.249 178.214 132.415C179.661 131.58 180.399 129.194 181.411 128.284C182.423 127.373 183.247 125.917 184.53 126.22C185.813 126.522 183.376 130.475 182.439 131.604C181.502 132.733 178.305 137.126 176.912 138.517C175.519 139.909 175.061 140.437 176.549 140.945C178.038 141.453 184.819 142.035 187.574 142.66C190.328 143.286 197.888 143.35 199.107 142.384C200.326 141.418 198.822 140.461 199.266 139.482C199.709 138.503 201.695 138.337 200.055 137.917C198.414 137.497 195.751 135.252 196.573 134.321C197.395 133.389 198.089 131.944 198.728 132.226C199.367 132.509 197.948 134.765 199.486 136.093C201.025 137.421 202.171 137.994 201.993 138.949C201.815 139.903 208.612 142.688 207.86 144.363C207.108 146.038 207.472 147.392 206.853 149.055C206.234 150.718 202.814 154.459 200.774 156.353C198.734 158.247 197.322 159.719 198.036 160.219C198.749 160.72 203.524 159.975 202.831 160.895C202.139 161.814 198.899 162.577 199.77 162.985C201.799 163.937 201.446 162.909 202.693 161.084C203.94 159.259 204.926 158.847 206.994 157.845C209.131 156.906 211.457 156.477 213.788 156.589C216.585 156.536 223.865 156.438 224.587 158.173C224.764 158.573 224.86 159.005 224.867 159.442C224.874 159.88 224.793 160.315 224.629 160.721C224.465 161.126 224.22 161.494 223.911 161.803C223.601 162.112 223.232 162.355 222.826 162.518C221.08 163.267 222.265 163.952 222.297 164.585C222.328 165.219 223.329 165.359 220.573 167.018C217.817 168.677 216.389 169.697 214.719 172.421C213.05 175.145 212.591 175.674 212.276 174.878C211.962 174.081 212.276 172.855 211.624 171.863C210.971 170.87 211.456 169.48 210.505 170.162C209.554 170.843 208.933 172.505 207.832 175.034C206.731 177.563 206.579 179.673 205.466 181.491C204.353 183.309 204.367 183.756 206.877 186.35C209.068 188.343 211.505 190.047 214.128 191.42C214.128 191.42 211.4 187.909 210.431 186.383C209.462 184.857 208.861 184.42 210.001 183.761C210.719 183.411 211.344 182.894 211.823 182.254C212.302 181.614 212.623 180.869 212.758 180.08C213.079 178.068 215.795 176.562 216.49 175.117C217.184 173.672 218.549 169.099 221.423 169.002C224.298 168.905 222.132 172.05 221.068 172.665C220.004 173.281 222.753 174.43 226.503 173.698C230.253 172.966 231.635 172.621 232.883 170.53C234.131 168.439 235.49 166.675 237.608 166.492C239.726 166.31 240.006 167.262 238.371 167.813C236.735 168.365 235.411 169.003 236.581 169.239C237.751 169.475 240.142 168.485 241.43 168.263C242.718 168.04 246.663 170.586 252.247 169.771C257.832 168.955 261.256 168.737 264.037 166.214C266.819 163.692 266.256 163.365 267.315 163.274C268.374 163.183 268.937 163.775 269.66 163.223C270.384 162.672 269.113 161.061 270.959 161.422C272.806 161.783 273.843 162.299 272.72 163.143C271.597 163.988 273.619 164.452 271.28 165.476C268.941 166.499 268.938 167.287 270.958 167.488C272.978 167.689 274.607 167.4 275.622 165.965C276.637 164.53 275.907 163.844 276.927 163.907C278.06 164.073 279.211 164.087 280.348 163.951C281.584 163.528 282.929 163.559 284.145 164.038C287.304 165.22 290.744 165.434 294.025 164.652C299.006 163.664 301.589 162.432 301.752 163.051C301.916 163.671 296.046 166.873 293.393 167.624C290.739 168.376 290.972 167.718 287.933 169.215C285.162 170.42 282.07 170.671 279.141 169.931C276.762 169.261 274.306 168.906 271.835 168.872C270.699 169.006 269.003 170.573 269.359 170.956C269.714 171.34 272.314 170.291 273.803 170.8C275.291 171.309 277.485 171.347 278.818 172.201C280.152 173.056 281.126 174.063 283.177 173.139C285.227 172.214 287.066 171.607 288.09 171.144C289.114 170.682 291.077 169.091 291.663 169.078C292.25 169.065 293.204 170.144 295.148 170.39C297.092 170.636 301.443 170.6 301.443 170.6C301.443 170.6 295.99 169.381 295.866 168.606C295.741 167.83 295.748 167.043 296.655 167.04C297.562 167.037 299.133 165.765 300.132 165.909C301.131 166.053 300.432 166.52 302.653 165.169C304.874 163.817 306.709 161.976 306.221 161.605C305.732 161.235 301.924 159.651 302.143 159.071C302.362 158.49 301.644 157.728 301.644 157.728C301.644 157.728 308.61 156.569 313.705 159.69C318.8 162.811 321.114 163.887 322.098 163.84C323.082 163.793 328.093 163.963 328.307 164.88C328.522 165.798 330.526 166.076 330.674 166.512C330.822 166.949 328.455 167.339 325.549 166.802C322.642 166.264 319.678 165.956 318.022 167.11C316.367 168.264 313.873 170.162 314.286 170.575C314.698 170.988 318.394 169.961 320.412 170.424C321.693 170.743 323.044 170.628 324.252 170.095C325.162 169.83 326.997 169.747 327.339 169.419C327.682 169.091 328.11 167.93 330.522 168.619C332.935 169.307 335.933 170.253 335.812 170.974C335.691 171.696 339.645 171.433 341.566 172.275C343.486 173.118 346.354 173.812 346.917 174.138C347.481 174.465 349.139 173.049 349.929 173.506C350.718 173.963 354.225 175.635 354.979 177.255C355.734 178.875 360.726 176.436 359.506 174.939L359.508 174.937ZM208.897 95.3858C209.663 95.1848 210.459 95.1308 211.245 95.2267C211.873 95.3368 212.487 95.515 213.077 95.758C213.48 95.955 213.937 96.01 214.375 95.9142C214.782 95.7531 214.985 96.0022 215.321 95.735C215.656 95.4679 215.127 95.1617 215.955 95.3438C216.783 95.5259 217.996 95.4348 218.014 95.744C218.032 96.0532 217.927 96.6496 217.021 96.5876C216.286 96.593 215.551 96.5432 214.823 96.4385C214.088 96.2764 213.807 95.9492 213.339 95.9762C212.872 96.0032 212.21 96.2133 212.221 96.5496C212.223 96.6643 212.202 96.7783 212.16 96.8849C212.118 96.9916 212.055 97.089 211.976 97.1714C211.896 97.2538 211.801 97.3197 211.696 97.3653C211.591 97.4109 211.478 97.4353 211.363 97.4371C210.544 97.6131 209.689 97.5033 208.941 97.1259C208.329 96.6726 208.151 96.7017 207.955 96.4255L207.899 96.3594C207.812 96.0122 208.036 95.614 208.896 95.3858H208.897ZM213.679 101.089C212.238 100.265 210.643 99.7467 208.993 99.5665C208.359 99.6739 207.738 99.8449 207.139 100.077C206.438 100.19 205.743 100.338 205.058 100.522C204.558 100.761 205.013 100.792 204.748 101.068C204.483 101.345 202.443 101.154 201.875 101.188C201.308 101.222 201.768 100.467 201.198 100.038C200.976 99.8351 200.716 99.6786 200.434 99.5774C200.151 99.4762 199.851 99.4324 199.551 99.4484C199.3 99.4847 199.044 99.4486 198.813 99.3442C198.581 99.2398 198.385 99.0715 198.245 98.859C197.946 98.4208 198.721 98.7059 199.083 98.7169C199.444 98.728 199.128 98.4458 198.129 98.3627C197.129 98.2797 197.066 97.7523 197.49 97.6313C198.329 97.3911 198.443 98.0835 199.442 98.0675C200.442 98.0515 200.713 98.6049 201.825 98.7209C202.937 98.837 203.248 98.0936 203.783 97.8084C204.317 97.5232 205.872 97.9955 206.596 97.9184C207.732 98.0365 208.833 98.3815 209.833 98.9331C210.489 99.3123 213.455 100.534 214.938 101.094C216.421 101.655 216.026 101.495 215.656 101.609C215.309 101.687 214.948 101.68 214.604 101.589C214.259 101.497 213.942 101.325 213.678 101.085L213.679 101.089ZM206.505 120.282C205.606 120.654 204.062 119.958 203.067 119.481C202.072 119.005 202.021 117.59 200.769 116.996C199.489 116.445 198.152 116.036 196.783 115.778C195.248 115.418 194.285 114.728 194.643 114.177C194.907 113.713 195.274 113.316 195.717 113.018C196.451 112.831 197.199 112.702 197.954 112.63C199.199 112.411 200.473 112.411 201.718 112.63C202.744 112.893 203.406 114.101 202.949 114.462C202.493 114.823 203.049 114.847 203.611 115.009C204.172 115.171 206.022 115.744 206.24 116.595C206.352 117.33 206.533 118.053 206.78 118.754C206.99 119.042 207.399 119.907 206.504 120.278L206.505 120.282ZM211.246 129.65C210.628 129.498 210.035 129.255 209.488 128.929C209.337 128.883 209.198 128.806 209.079 128.703C208.96 128.601 208.863 128.475 208.795 128.333C208.726 128.191 208.687 128.037 208.681 127.879C208.675 127.722 208.701 127.565 208.757 127.418C208.903 127.041 208.126 126.757 208.704 126.3C209.079 126.013 209.519 125.826 209.985 125.754C210.343 125.599 210.721 125.496 211.107 125.447C211.867 125.326 211.786 125.74 212.132 125.808C212.479 125.876 212.332 125.693 212.265 125.292C212.22 124.695 212.284 124.095 212.452 123.521C212.637 122.704 212.966 122.465 213.719 122.177C214.472 121.889 213.665 121.816 214.219 121.544C215.125 121.334 216.071 121.369 216.96 121.644C217.484 121.801 218.028 121.882 218.575 121.885C219.084 121.885 218.621 121.516 219.067 121.478C219.514 121.44 220.309 122.031 220.256 122.527C220.203 123.024 219.457 122.792 219.176 122.76C218.895 122.728 217.777 122.74 217.698 122.466C217.618 122.192 217.452 122.192 217.145 122.443C216.838 122.694 216.885 122.986 216.79 123.26C216.695 123.534 216.296 124.622 216.668 124.97C217.041 125.318 216.098 125.398 215.82 125.534C215.542 125.67 215.321 126.266 214.912 126.426C214.392 126.677 213.919 127.015 213.513 127.426C213.269 127.715 213.613 128.176 213.355 128.327C212.696 128.833 211.989 129.274 211.244 129.642L211.246 129.65ZM277.969 118.614C278.096 118.687 278.702 119.169 279.06 118.714C279.419 118.258 279.281 117.852 279.537 117.802C279.887 117.818 280.228 117.924 280.526 118.11C280.738 118.232 279.456 117.359 279.287 117.262C279.118 117.165 278.944 117.462 279.072 117.533C279.2 117.604 279.572 118.22 278.897 118.026C278.223 117.832 277.81 117.526 277.708 117.734C277.672 117.89 277.676 118.053 277.722 118.206C277.767 118.36 277.852 118.499 277.967 118.61L277.969 118.614ZM87.0571 112.073C87.0831 110.835 87.208 109.588 85.7263 108.732C84.2446 107.877 84.1806 105.662 84.1866 105.072C84.0698 104.544 84.0627 103.998 84.1658 103.468C84.269 102.937 84.4801 102.433 84.7861 101.988C85.7613 100.837 85.5055 97.8544 85.5974 97.1159C85.6893 96.3775 83.2135 95.8041 82.9797 93.4926C82.7459 91.1811 84.894 91.8916 82.9117 90.1565C80.9295 88.4213 79.7145 88.2402 78.5285 87.3547C77.3426 86.4691 78.1529 85.0282 77.0528 84.3918C75.9528 83.7554 70.5335 84.0516 69.4145 84.0626C68.2954 84.0736 68.4523 83.8354 68.2775 82.8118C68.1026 81.7881 65.7157 82.3855 65.1062 80.7805C64.4967 79.1754 71.7694 77.7105 72.6097 77.2782C73.45 76.8459 72.4188 76.5077 70.7523 75.8083C69.0857 75.1088 66.7148 73.9351 66.7148 73.9351C66.7148 73.9351 68.4953 73.0515 70.0319 72.3591C71.5686 71.6666 74.2493 71.6326 74.7558 70.6059C75.2624 69.5793 72.5158 69.113 70.8013 68.9779C69.0868 68.8428 65.9055 70.8301 64.0821 68.8518C62.2587 66.8735 68.792 63.9266 70.002 63.3733C71.2451 62.6173 72.6584 62.1871 74.1114 62.1225C76.3814 61.9844 78.3217 63.7005 79.5636 64.3519C80.8055 65.0033 83.0606 64.9233 84.3755 65.2885C85.6903 65.6537 85.2257 66.9005 84.5014 68.5906C83.777 70.2807 81.1483 70.8721 81.1483 70.8721C82.229 71.5759 83.5123 71.9007 84.7971 71.7957C86.7564 71.5435 89.9636 68.1233 91.6132 67.561C93.2627 66.9986 99.3225 67.9963 100.406 67.7611C101.489 67.526 102.361 66.3862 105.743 65.5067C106.63 65.2078 107.581 65.1523 108.496 65.3458C109.412 65.5394 110.26 65.975 110.95 66.6074C111.162 66.7304 111.791 66.1711 112.165 65.4646C112.54 64.7582 113.902 64.7542 115.035 64.8823C116.168 65.0103 119.904 65.7828 119.904 65.7828C119.093 65.7781 118.293 65.9719 117.574 66.3472C116.646 66.9326 118.618 66.8195 120.544 67.0757C122.47 67.3318 125.413 67.9762 125.413 67.9762L125.874 67.1227C125.034 66.8858 124.245 66.4964 123.545 65.9739C122.8 65.2795 123.445 64.8592 124.5 63.9547C125.554 63.0501 119.604 61.8463 119.604 61.8463C121.037 61.7962 122.471 61.8327 123.9 61.9554C125.499 62.1555 128.979 64.6941 129.755 65.0774C130.531 65.4606 132.817 65.0684 134.016 65.6958C134.529 65.9375 135.102 66.0198 135.661 65.9318C136.221 65.8439 136.741 65.5898 137.155 65.2025C137.741 64.6181 136.748 63.1872 136.486 60.7946C136.224 58.4021 138.02 55.9445 138.02 55.9445C136.885 56.1795 135.73 56.3065 134.571 56.3238C133.224 56.2707 132.65 55.4772 133.244 54.1063C133.47 53.4489 133.486 52.7377 133.292 52.0704C133.097 51.4032 132.701 50.8126 132.158 50.38C130.975 49.5802 129.747 48.8489 128.481 48.1895C128.481 48.1895 127.825 48.6679 126.712 49.4083C125.723 49.8918 124.629 50.1205 123.529 50.0738C123.529 50.0738 124.534 51.8409 123.321 52.7875C122.108 53.7341 118.404 52.4503 118.404 52.4503C118.404 52.4503 116.117 54.5516 115.636 54.3445C115.156 54.1374 116.112 51.9169 117.013 51.0534C117.914 50.1898 114.666 48.839 113.378 47.0398C112.09 45.2407 110.199 42.7621 112.051 41.7884C113.904 40.8148 119.057 41.5533 121.039 41.9736C122.787 42.2123 124.557 42.2398 126.312 42.0556C125.242 42.4178 124.137 42.663 123.015 42.7871C121.738 42.8401 122.354 42.687 122.836 43.6726C123.495 45.0205 125.369 44.215 126.114 44.9094C126.809 45.4631 127.57 45.9264 128.381 46.2883C128.381 46.2883 126.59 43.8017 126.766 43.1123C126.941 42.4228 128.651 43.1483 129.824 43.4965C130.997 43.8448 131.609 43.5406 131.571 43.1223C131.533 42.704 132.071 42.686 133.149 42.65C134.227 42.614 133.615 41.4022 134.148 41.5813C134.682 41.7604 136.034 43.1333 135.463 43.4625C134.893 43.7917 134.128 43.7457 134.293 44.237C134.458 44.7283 134.619 45.81 133.893 46.1813C133.168 46.5525 129.481 46.5315 131.148 47.2309C132.81 48.013 134.152 49.3469 134.944 51.0064C135.176 51.998 138.129 54.6947 138.384 54.6437C138.64 54.5926 137.801 51.8019 137.801 51.8019C138.56 52.7355 139.417 53.5846 140.358 54.3345C141.204 54.8238 142.104 54.1574 141.967 53.551C141.83 52.9446 140.928 50.9723 142.203 51.1154C143.478 51.2585 142.897 52.7685 143.485 53.5049C144.074 54.2414 146.941 53.8552 147.382 53.649C147.822 53.4429 146.491 51.8159 145.724 50.447C145.482 50.0511 145.366 49.5906 145.392 49.1271C145.411 48.834 146.283 48.94 146.347 48.6518C146.419 48.3186 145.68 47.5862 145.647 47.1679C145.573 46.3674 143.649 44.149 142.113 42.4058C141.774 42.0206 142.296 41.7394 142.019 41.4212C141.584 40.9209 140.412 40.4476 140.282 40.2414C139.694 39.3088 135.686 37.3216 135.686 37.3216C135.686 37.3216 132.246 35.2002 129.7 36.0357C127.154 36.8713 130.899 39.8932 130.899 39.8932C130.899 39.8932 127.231 40.9379 126.47 40.4936C125.709 40.0493 127.645 39.1287 127.645 39.1287C126.925 37.883 126.35 36.5584 125.931 35.1812C125.786 34.0415 127.118 34.1525 128.205 34.6489C129.179 34.9276 130.208 34.9551 131.196 34.7289C129.982 33.7114 128.622 32.8814 127.163 32.2663C125.538 31.788 125.087 32.9778 123.153 33.7053C121.218 34.4327 119.625 33.4451 117.074 33.355C114.523 33.265 112.52 30.6533 112.212 30.153C111.905 29.6527 106.078 28.1227 104.558 26.8509C103.038 25.579 100.498 22.7883 98.3923 20.5818C96.2861 18.3754 94.4387 17.2407 92.7412 16.8524C88.8383 15.6975 85.1791 13.8382 81.9436 11.3659C81.5291 10.6541 80.9568 10.0471 80.271 9.59179C78.6944 8.41604 79.129 8.49109 77.7942 7.63154C76.4593 6.77199 74.6109 6.40675 74.542 5.66327C74.4731 4.91979 74.7039 4.52654 73.3081 4.16231C71.9123 3.79808 71.0031 4.06224 70.1758 3.49488C69.092 2.62518 67.8536 1.96887 66.526 1.56064C65.1112 1.27046 63.7674 1.46057 62.7123 1.0253C61.6572 0.590016 60.2255 0.115711 60.6721 0.901215C60.9978 1.47458 61.5463 1.84883 61.3495 1.97691C61.2596 1.99292 61.1706 2.00793 61.0817 2.02494C60.9928 2.04195 60.8989 2.02494 60.775 2.01594C59.566 1.93188 58.9576 2.28411 58.3771 2.03395C58.0237 1.87908 57.7284 1.61598 57.5338 1.28246C56.87 1.75371 56.2396 2.27062 55.6474 2.82945C55.4366 3.14666 55.9472 3.70301 54.961 3.48687C53.9749 3.27073 53.0527 3.35079 52.9058 2.91351C52.759 2.47623 51.9217 0.938243 51.593 1.71274C51.2642 2.48724 53.9769 3.5309 52.5921 4.13629C51.2073 4.74168 50.8366 3.91215 50.41 5.0719C49.9834 6.23164 49.23 5.88441 50.3191 6.68993C51.4081 7.49545 50.5888 8.16488 52.2984 9.32862C53.0862 9.82919 53.7779 10.4674 54.3406 11.2128C54.7162 11.513 56.5656 11.8833 55.3727 11.9853C54.1797 12.0874 54.2736 12.4917 50.7447 11.5961C47.2158 10.7005 40.8883 8.358 41.0531 8.45606C41.218 8.55413 50.8856 12.2945 52.3373 12.6948C53.7891 13.095 54.7182 12.7528 56.8494 13.2822C58.9805 13.8115 61.5333 13.7044 60.717 14.1117C59.9221 14.3596 59.0854 14.444 58.2572 14.3598C57.5947 14.4159 55.6454 14.6961 56.9673 14.8452C58.2891 14.9943 59.1544 15.4065 60.3493 15.0453C61.5443 14.6841 60.6851 13.4813 63.2468 14.61C65.8086 15.7387 68.5672 15.8398 69.5034 16.7324C70.4396 17.6249 70.003 17.8121 71.3018 18.5635C72.6007 19.315 73.9875 22.4901 73.7307 23.7479C73.6659 24.1507 73.6505 24.56 73.6847 24.9667C73.4926 25.4825 73.4765 26.0476 73.6388 26.5737C73.6987 26.6647 73.7557 26.7608 73.8106 26.8619C73.8026 27.2051 73.7417 27.4282 73.5648 27.4322C72.9784 27.4442 72.201 25.6761 71.9243 27.011C71.6475 28.3458 71.2449 28.9042 72.0961 28.8692C72.9474 28.8341 73.7857 28.0877 74.1943 29.2884C74.2193 29.3635 74.2483 29.4405 74.2802 29.5206C74.2523 29.6962 74.2136 29.87 74.1643 30.0409C74.0728 30.5766 74.115 31.1266 74.2872 31.6419C72.7885 30.9945 72.8814 30.131 72.7805 31.0235C72.6796 31.9161 73.1093 32.2683 73.2341 33.0438C73.5129 33.9115 73.8851 34.7463 74.3442 35.5334C74.3382 35.5414 74.3302 35.5484 74.3232 35.5564C74.1893 35.5885 73.424 35.3803 72.9664 35.3563C72.4568 35.3253 71.5026 36.2689 69.5823 37.4437C67.662 38.6184 67.4732 38.5984 66.542 39.2018C65.6108 39.8052 62.4735 41.6844 61.946 43.2274C61.4184 44.7704 60.69 44.0839 61.2466 45.722C61.8031 47.36 61.5553 47.0438 61.909 47.6872C61.9541 47.7685 61.9827 47.858 61.9929 47.9504C61.4728 48.5804 61.0238 49.266 60.6541 49.9947C59.7808 50.9393 58.5889 51.0424 58.9216 51.7618C59.0015 51.9339 59.0794 52.062 59.1384 52.1711C58.9446 52.4243 58.7547 52.6834 58.5859 52.9476L58.476 52.9986C57.3879 53.4989 57.5977 53.3779 57.9584 54.4275C57.9412 54.5341 57.9322 54.6418 57.9315 54.7497C57.9041 55.2875 57.7802 55.816 57.5658 56.3097C56.2669 56.642 56.5906 56.8411 56.6965 57.4205C56.7141 57.5591 56.7717 57.6895 56.8624 57.7957C56.5466 58.4201 56.3388 58.8594 56.5736 58.9114C57.1251 59.0325 58.0034 57.4965 59.0235 56.1737C60.0436 54.8508 61.5503 51.2385 62.2547 51.7128C62.9591 52.1871 61.1297 55.3481 59.8278 58.1559C58.5259 60.9637 57.3809 62.0154 56.8404 63.7475C56.2999 65.4796 59.8578 70.1736 61.4674 70.9061C63.077 71.6386 61.2875 71.9888 62.6114 74.4024C63.1463 75.1697 63.4232 76.0879 63.4018 77.0235C63.3804 77.9591 63.0619 78.8636 62.4925 79.6057C61.6153 80.9445 62.7133 83.2941 64.8824 83.3611C67.0515 83.4281 66.3202 84.1926 64.5177 85.9197C62.7153 87.6468 59.8518 87.6398 57.0143 87.911C54.1767 88.1822 50.6838 90.2505 49.0871 91.1731C47.4905 92.0957 48.3518 92.528 46.8191 94.148C45.2864 95.7681 42.1642 99.2363 42.4229 101.433C42.6817 103.629 43.0104 105.399 40.6245 106.922C38.2386 108.445 28.8507 112.116 27.367 113.169C25.2566 114.489 22.9146 115.395 20.466 115.839C17.8103 116.347 17.9942 116.387 15.5413 118.001C13.0884 119.615 9.90321 120.478 4.55086 122.397C-0.801484 124.316 -0.0561271 128.436 1.55847 130.096C2.69221 131.132 4.1495 131.741 5.68188 131.821C4.27511 130.677 6.02458 128.59 7.56524 127.502C9.1059 126.415 12.0613 127.402 13.4401 126.943C14.8189 126.484 12.9586 125.412 13.9547 124.934C14.9508 124.455 16.5045 125.22 17.1309 124.858C18.2092 124.524 19.3447 124.418 20.466 124.545C21.7699 124.573 20.547 123.47 21.1744 123.108C21.8019 122.745 21.9547 123.097 22.9239 124.053C23.893 125.01 25.6445 124.241 27.1202 123.974C28.596 123.707 30.9169 124.717 32.5575 124.745C34.1981 124.773 37.4962 124.237 39.7343 124.411C41.9723 124.586 43.8817 123.579 47.6004 123.092C51.3192 122.604 50.6738 121.902 53.7431 121.105C56.8124 120.309 60.9268 121.698 62.7083 122.135C64.4897 122.572 67.0245 121.4 68.5182 120.88C70.0119 120.36 70.9551 121.036 70.9322 120.561C70.9092 120.086 72.6896 119.007 74.572 117.918C76.4543 116.83 79.3299 116.978 82.5381 116.59C85.7463 116.203 86.4496 115.16 87.3679 114.043C88.2861 112.925 87.0292 113.306 87.0551 112.069L87.0571 112.073Z" fill="url(#paint0_linear_33_5056)"/>
<defs>
<linearGradient id="paint0_linear_33_5056" x1="251.899" y1="-0.966147" x2="189.019" y2="251.347" gradientUnits="userSpaceOnUse">
<stop offset="0.091" stop-color="#861EB2"/>
<stop offset="0.455" stop-color="#6A24BA"/>
<stop offset="0.904" stop-color="#3D065F"/>
</linearGradient>
</defs>
</svg>
