<svg width="78" height="30" viewBox="0 0 78 30" fill="none" xmlns="http://www.w3.org/2000/svg">
<path d="M40.6848 9.33008V21.0901H38.22L32.1984 11.7301H32.136L32.1672 12.2401C32.2608 13.2001 32.292 14.1001 32.292 14.9701V21.0901H30.4824V9.33008H32.916L38.9064 18.6601H38.9688C38.8752 17.1301 38.8752 16.0801 38.8752 15.5101V9.33008H40.6848Z" fill="#373737"/>
<path d="M48.3287 16.6201L50.8871 9.33008H52.9775L48.6719 21.0901H46.5815L42.3071 9.33008H44.3663L46.9247 16.6501C47.0495 16.9801 47.1743 17.4001 47.3303 17.9401C47.4863 18.4501 47.5799 18.9001 47.6423 19.2301C47.7359 18.8101 47.8295 18.3301 47.9855 17.7901C48.1415 17.2201 48.2351 16.8601 48.3287 16.6201Z" fill="#373737"/>
<path d="M56.5657 21.0901H54.5688V9.33008H56.5657V21.0901Z" fill="#373737"/>
<path d="M61.8073 16.4101V21.1201H59.8105V9.33008H63.2425C64.8337 9.33008 65.9881 9.60008 66.7369 10.1701C67.5169 10.7401 67.8913 11.6101 67.8913 12.7501C67.8913 14.2201 67.1113 15.2701 65.5201 15.8701L68.9521 21.0901H66.6745L63.7417 16.3801L61.8073 16.4101ZM61.8073 10.9801V14.8201H63.2113C64.1161 14.8201 64.8025 14.6401 65.2393 14.3401C65.6761 14.0101 65.8633 13.5301 65.8633 12.8701C65.8633 12.2101 65.6449 11.7301 65.2081 11.4301C64.7713 11.1301 64.0849 10.9801 63.1489 10.9801H61.8073Z" fill="#373737"/>
<path d="M77.6569 19.4701V21.0901H70.7305V9.33008H77.6569V10.9501H72.7585V14.1601H77.3761V15.7501H72.7585V19.4401L77.6569 19.4701Z" fill="#373737"/>
<path d="M20.467 18.24H20.4046C19.219 20.22 17.0038 21.57 14.4454 21.57C10.6078 21.57 7.51905 18.6 7.51905 14.94C7.51905 11.28 10.6078 8.30997 14.4142 8.30997C17.7526 8.30997 20.5606 10.62 21.1846 13.68H9.89025V15.99H21.0286H21.2158H23.6806C23.7118 15.66 23.743 15.3 23.743 14.94C23.743 9.98997 19.5622 5.96997 14.4142 5.96997C9.26625 5.96997 5.08545 9.98997 5.08545 14.94C5.08545 19.89 9.26625 23.91 14.4142 23.91C17.8774 23.91 20.935 22.08 22.5262 19.38L20.467 18.24Z" fill="#373737"/>
<path d="M24.2425 5.25016C24.3673 4.98016 24.4297 4.68016 24.4297 4.38016C24.4297 3.12016 23.3689 2.13016 22.0897 2.13016C21.4657 2.13016 20.9353 2.34016 20.4985 2.73016C18.6577 1.86016 16.5985 1.41016 14.3833 1.41016C6.61446 1.41016 0.343262 7.47015 0.343262 14.9402C0.343262 22.4102 6.64566 28.4702 14.4145 28.4702C22.2145 28.4702 28.4857 22.4102 28.4857 14.9402C28.4857 11.1302 26.8633 7.71016 24.2425 5.25016ZM22.0585 2.88016C22.9321 2.88016 23.6497 3.57016 23.6497 4.41016C23.6497 5.25016 22.9321 5.94016 22.0585 5.94016C21.1849 5.94016 20.4673 5.25016 20.4673 4.41016C20.4673 3.57016 21.1849 2.88016 22.0585 2.88016ZM14.4145 26.7002C7.64406 26.7002 2.18406 21.4502 2.18406 14.9402C2.18406 8.43015 7.67526 3.18016 14.4145 3.18016C16.3177 3.18016 18.1273 3.60016 19.7497 4.35016C19.7497 4.38016 19.7497 4.38016 19.7497 4.41016C19.7497 5.67016 20.8105 6.66016 22.0897 6.66016C22.3705 6.66016 22.6825 6.60016 22.9321 6.51016C25.2097 8.64015 26.6449 11.6402 26.6449 14.9702C26.6449 21.4502 21.1849 26.7002 14.4145 26.7002Z" fill="#6ACCE5"/>
</svg>
