<svg width="292" height="292" viewBox="0 0 292 292" fill="none" xmlns="http://www.w3.org/2000/svg">
<path opacity="0.5" d="M72.0801 132.575C63.7524 136.969 50.2507 136.969 41.9259 132.575C33.601 128.182 33.5981 121.067 41.9259 116.677C50.2536 112.288 63.7562 112.284 72.0801 116.677C80.404 121.071 80.4079 128.186 72.0801 132.575Z" fill="#7817BE"/>
<path d="M81.2621 115.015V108.796H79.9757C78.4975 106.664 76.4918 104.953 74.1548 103.829C64.6811 98.8342 49.3196 98.8342 39.8458 103.829C37.5088 104.953 35.5031 106.664 34.0249 108.796H32.7462V114.981C32.73 118.266 35.0955 121.552 39.8486 124.055C49.3234 129.049 64.6839 129.049 74.1587 124.055C78.8936 121.559 81.2621 118.285 81.2621 115.015Z" fill="#7817BE"/>
<path d="M57.002 121.581C70.4009 121.581 81.2628 115.855 81.2628 108.792C81.2628 101.729 70.4009 96.0032 57.002 96.0032C43.6031 96.0032 32.7412 101.729 32.7412 108.792C32.7412 115.855 43.6031 121.581 57.002 121.581Z" fill="#7817BE"/>
<path d="M74.1604 117.836C64.6857 122.83 49.3252 122.83 39.8504 117.836C35.3101 115.443 32.9703 112.336 32.7813 109.199C32.5771 112.607 34.917 116.049 39.8504 118.655C49.3252 123.649 64.6857 123.649 74.1604 118.655C79.0939 116.054 81.4337 112.613 81.2285 109.205C81.0367 112.336 78.6969 115.443 74.1604 117.836Z" fill="white"/>
<path d="M45.3078 113.027C45.137 112.962 44.9872 112.852 44.8746 112.708C44.7621 112.564 44.6911 112.392 44.6694 112.21L44.6933 103.878C44.6933 103.243 45.6743 102.732 46.8804 102.732C48.0866 102.732 49.0599 103.249 49.0599 103.886L49.0389 110.795L71.001 108.339C72.1823 108.207 73.3408 108.605 73.5908 109.227C73.8408 109.848 73.087 110.459 71.9085 110.592L47.3051 113.342C46.6855 113.417 46.057 113.338 45.4758 113.11C45.4176 113.082 45.3613 113.055 45.3078 113.027Z" fill="white"/>
<path opacity="0.5" d="M281.729 167.156L199.961 119.763C195.519 117.185 187.755 117.5 182.618 120.459L11.0107 219.308C5.87394 222.269 5.30998 226.758 9.752 229.328L91.5197 276.721C95.9607 279.3 103.725 278.984 108.863 276.025L280.468 177.176C285.606 174.217 286.17 169.731 281.729 167.156Z" fill="#561B81"/>
<path d="M89.142 259.167L4.04597 209.844C1.25002 208.22 -0.0525216 206.039 0.038132 203.765L0.019043 203.772L0.0534062 191.413L4.78647 196.962C5.09278 196.759 5.40196 196.557 5.74072 196.363L179.819 96.0899C186.729 92.109 197.176 91.6897 203.152 95.1539L287.053 143.784C288.751 141.923 292.312 137.994 292.312 137.994L292.272 150.082C292.398 152.808 290.459 155.712 286.557 157.959L112.474 258.231C105.564 262.212 95.1166 262.631 89.142 259.167Z" fill="#A35BD6"/>
<path d="M43.1262 228.908L48.0273 231.741C48.6781 232.117 49.2058 231.717 49.2058 230.849C49.199 230.407 49.0889 229.973 48.8842 229.581C48.6796 229.19 48.3861 228.852 48.0273 228.595L43.1262 225.763C42.4754 225.386 41.9478 225.786 41.9478 226.655C41.9544 227.096 42.0645 227.53 42.2692 227.922C42.4738 228.313 42.7674 228.651 43.1262 228.908Z" fill="#173D7A"/>
<path d="M179.818 96.0899C186.729 92.109 197.176 91.6897 203.152 95.1539L287.053 143.783C288.751 141.923 292.312 137.994 292.312 137.994L292.272 150.082C292.398 152.808 290.459 155.711 286.557 157.959L112.474 258.231C108.615 260.33 104.301 261.451 99.9097 261.497L100.076 142.023L179.818 96.0899Z" fill="#7E3AAF"/>
<path d="M288.283 132.051L203.188 82.7318C197.212 79.2676 186.765 79.6869 179.854 83.6678L5.77488 183.937C-1.13674 187.918 -1.89536 193.954 4.08109 197.419L89.1762 246.741C95.1517 250.205 105.599 249.787 112.509 245.806L286.589 145.531C293.501 141.55 294.258 135.515 288.283 132.051Z" fill="#D4ECFF"/>
<path d="M89.1113 248.062L4.01622 198.74C0.933995 196.953 -0.342789 194.482 0.078035 191.958C0.228806 194.005 1.53994 195.944 4.08015 197.417L89.1762 246.739C95.1517 250.203 105.599 249.785 112.51 245.804L286.589 145.531C289.937 143.604 291.826 141.194 292.219 138.828C292.423 141.598 290.496 144.559 286.522 146.851L112.446 247.125C105.534 251.106 95.0868 251.524 89.1113 248.062Z" fill="white"/>
<path d="M281.729 133.995L199.961 86.602C195.519 84.0232 187.755 84.3384 182.618 87.2973L11.0107 186.147C5.87394 189.107 5.30998 193.596 9.752 196.167L91.5197 243.559C95.9607 246.138 103.725 245.823 108.863 242.864L280.468 144.015C285.606 141.056 286.17 136.57 281.729 133.995Z" fill="#7817BE"/>
<path d="M112.116 228.495L54.4175 195.149L58.0999 193.021L115.8 226.363L112.116 228.495Z" fill="#D4ECFF"/>
<path d="M71.9701 218.775L42.7549 201.892L46.4373 199.764L75.6526 216.646L71.9701 218.775Z" fill="#D4ECFF"/>
<path d="M86.1486 226.968L76.6729 221.493L80.3553 219.365L89.831 224.84L86.1486 226.968Z" fill="#FF2C9C"/>
<path d="M100.454 235.235L90.9785 229.76L94.661 227.632L104.137 233.107L100.454 235.235Z" fill="white"/>
<path d="M72.2976 212.224L48.5864 198.523L52.2689 196.395L75.98 210.097L72.2976 212.224Z" fill="white"/>
<path d="M101.241 228.95L77.5298 215.248L81.2122 213.12L104.923 226.822L101.241 228.95Z" fill="#D4ECFF"/>
<path d="M83.6863 199.66C83.0209 199.998 82.2853 200.174 81.5392 200.174C80.7931 200.174 80.0575 199.998 79.3921 199.66C79.1326 199.573 78.907 199.406 78.7472 199.183C78.5874 198.96 78.5015 198.693 78.5015 198.419C78.5015 198.144 78.5874 197.877 78.7472 197.654C78.907 197.432 79.1326 197.265 79.3921 197.177C80.0576 196.839 80.7932 196.664 81.5392 196.664C82.2852 196.664 83.0208 196.839 83.6863 197.177C83.9463 197.264 84.1724 197.431 84.3326 197.654C84.4928 197.877 84.579 198.144 84.579 198.419C84.579 198.693 84.4928 198.961 84.3326 199.184C84.1724 199.406 83.9463 199.573 83.6863 199.66Z" fill="#FF2C9C"/>
<path d="M90.1067 203.371C89.4411 203.708 88.7056 203.884 87.9596 203.884C87.2136 203.884 86.4781 203.708 85.8126 203.371C85.553 203.283 85.3274 203.116 85.1676 202.894C85.0078 202.671 84.9219 202.403 84.9219 202.129C84.9219 201.855 85.0078 201.588 85.1676 201.365C85.3274 201.142 85.553 200.975 85.8126 200.888C86.4779 200.55 87.2135 200.374 87.9596 200.374C88.7057 200.374 89.4413 200.55 90.1067 200.888C90.3663 200.975 90.5918 201.142 90.7516 201.365C90.9114 201.588 90.9973 201.855 90.9973 202.129C90.9973 202.403 90.9114 202.671 90.7516 202.894C90.5918 203.116 90.3663 203.283 90.1067 203.371Z" fill="white"/>
<path d="M96.5266 207.081C95.8612 207.418 95.1256 207.594 94.3795 207.594C93.6334 207.594 92.8979 207.418 92.2325 207.081C91.9729 206.993 91.7473 206.826 91.5875 206.603C91.4277 206.38 91.3418 206.113 91.3418 205.839C91.3418 205.565 91.4277 205.297 91.5875 205.075C91.7473 204.852 91.9729 204.685 92.2325 204.597C92.8979 204.26 93.6334 204.083 94.3795 204.083C95.1256 204.083 95.8612 204.26 96.5266 204.597C96.7862 204.685 97.0118 204.852 97.1715 205.075C97.3313 205.297 97.4173 205.565 97.4173 205.839C97.4173 206.113 97.3313 206.38 97.1715 206.603C97.0118 206.826 96.7862 206.993 96.5266 207.081Z" fill="#D4ECFF"/>
<path d="M102.947 210.79C102.282 211.128 101.546 211.304 100.8 211.304C100.054 211.304 99.3183 211.128 98.6529 210.79C98.3933 210.703 98.1677 210.536 98.0079 210.313C97.8481 210.09 97.7622 209.823 97.7622 209.549C97.7622 209.275 97.8481 209.007 98.0079 208.784C98.1677 208.562 98.3933 208.395 98.6529 208.307C99.3183 207.969 100.054 207.793 100.8 207.793C101.546 207.793 102.282 207.969 102.947 208.307C103.207 208.394 103.433 208.561 103.593 208.784C103.754 209.007 103.84 209.274 103.84 209.549C103.84 209.823 103.754 210.091 103.593 210.314C103.433 210.536 103.207 210.703 102.947 210.79Z" fill="#FF2C9C"/>
<path d="M109.372 214.501C108.706 214.838 107.971 215.014 107.225 215.014C106.479 215.014 105.743 214.838 105.078 214.501C104.818 214.413 104.593 214.246 104.434 214.023C104.275 213.8 104.189 213.533 104.189 213.259C104.189 212.985 104.275 212.718 104.434 212.495C104.593 212.273 104.818 212.106 105.078 212.018C105.743 211.68 106.479 211.504 107.225 211.504C107.971 211.504 108.706 211.68 109.372 212.018C109.631 212.105 109.857 212.272 110.017 212.495C110.176 212.718 110.262 212.985 110.262 213.259C110.262 213.533 110.176 213.801 110.017 214.023C109.857 214.246 109.631 214.413 109.372 214.501Z" fill="white"/>
<path d="M238.414 143.912L228.699 138.297L232.475 136.115L242.19 141.729L238.414 143.912Z" fill="#FF2C9C"/>
<path d="M251.941 151.728L242.226 146.114L246.002 143.932L255.717 149.546L251.941 151.728Z" fill="white"/>
<path d="M195.02 118.6L185.305 112.986L189.081 110.803L198.796 116.418L195.02 118.6Z" fill="white"/>
<path d="M236.248 149.57L222.72 141.752L226.496 139.57L240.024 147.387L236.248 149.57Z" fill="white"/>
<path d="M245.963 155.183L240.027 151.753L243.803 149.571L249.74 153L245.963 155.183Z" fill="#D4ECFF"/>
<path opacity="0.5" d="M266.571 109.164L250.124 99.6611L266.566 90.1597L283.009 99.6611L266.571 109.164Z" fill="#50157B"/>
<path d="M283.012 87.6029L266.57 97.1044V78.0976L283.012 68.5962V87.6029Z" fill="#8100DE"/>
<path d="M266.571 78.0976L250.128 68.5962L266.57 59.0947L283.012 68.5962L266.571 78.0976Z" fill="#A527FF"/>
<path d="M266.571 97.0996L250.128 87.6029V68.5962L266.571 78.0976V97.0996Z" fill="#A120FF"/>
<path d="M260.649 86.8341L256.05 84.176V78.8608L260.649 81.518V86.8341Z" fill="white"/>
<path opacity="0.5" d="M18.1095 288.281L0.991211 278.389L18.1095 268.501L35.2268 278.389L18.1095 288.281Z" fill="#571A82"/>
<path d="M35.2267 265.827L18.1094 275.722V255.938L35.2267 246.046V265.827Z" fill="#551781"/>
<path d="M18.1095 255.938L0.992188 246.046L18.1095 236.154L35.2268 246.047L18.1095 255.938Z" fill="#E8CDFC"/>
<path d="M18.1095 275.722L0.992188 265.827V246.046L18.1095 255.938V275.722Z" fill="#A35DD5"/>
<path d="M11.9432 265.034L7.15576 262.264V256.734L11.9432 259.504V265.034Z" fill="white"/>
<path opacity="0.5" d="M214.427 263.535L231.432 253.708L248.438 263.535L231.432 273.362L214.427 263.535Z" fill="#7817BE"/>
<path opacity="0.5" d="M183.864 281.957L200.87 272.131L217.876 281.958L200.87 291.785L183.864 281.957Z" fill="#541A7E"/>
<path opacity="0.5" d="M244.989 246.048L261.994 236.219L279 246.046L261.994 255.875L244.989 246.048Z" fill="#173D7A"/>
<path d="M261.994 246.047V214.371L242.585 203.155V234.831L261.994 246.047Z" fill="#FDD762"/>
<path d="M261.994 214.371L281.403 203.155V234.831L261.994 246.047V214.371Z" fill="#E8A200"/>
<path d="M242.585 203.155L261.994 191.939L281.403 203.155L261.994 214.371L242.585 203.155Z" fill="#FDD762"/>
<path d="M261.994 215.951L281.403 204.735V205.774L261.994 216.99L242.585 205.774V204.735L261.994 215.951Z" fill="#FDD762"/>
<path d="M231.432 264.002V218.881L212.024 207.665V252.786L231.432 264.002Z" fill="#AB36FF"/>
<path d="M231.433 218.881L250.841 207.665V252.786L231.433 264.002V218.881Z" fill="#8000DC"/>
<path d="M212.023 207.666L231.431 196.45L250.84 207.666L231.431 218.882L212.023 207.666Z" fill="#A62CFF"/>
<path d="M231.432 220.459L250.841 209.243V210.282L231.431 221.498L212.023 210.282V209.243L231.432 220.459Z" fill="#A426FF"/>
<path d="M200.87 281.957V262.219L181.46 251.003V270.742L200.87 281.957Z" fill="#9B58CB"/>
<path d="M200.87 262.219L220.279 251.003V270.742L200.87 281.958V262.219Z" fill="#813CB2"/>
<path d="M181.461 251.003L200.871 239.787L220.28 251.003L200.871 262.219L181.461 251.003Z" fill="#EDD4FF"/>
<path d="M200.87 263.789L220.278 252.573V253.612L200.869 264.828L181.459 253.612V252.573L200.87 263.789Z" fill="#5793CE"/>
<path d="M113.656 9.27317L107.886 5.93792C103.497 3.40018 99.3713 2.95606 96.2719 4.55778H96.2653L90.4873 7.81375L92.8042 7.93888C92.246 8.89581 91.8197 9.92391 91.537 10.9952C95.2108 11.1557 98.8933 11.8988 100.459 14.4107C100.812 14.1011 101.21 13.8478 101.641 13.66L108.05 21.0373L113.656 17.874V9.27795V9.27317Z" fill="#FDD762"/>
<path d="M114.859 52.3105C109.801 49.3879 105.165 43.28 103.049 36.7489L99.2748 25.1042C97.894 20.8453 98.1221 17.1519 99.8998 14.9704C100.071 14.7676 100.258 14.5789 100.459 14.406C98.8931 11.894 95.2106 11.1509 91.5368 10.9905C90.5234 14.7536 90.8345 19.5989 92.5197 24.7995L95.5971 34.2923L94.5131 35.7317C94.5131 35.7317 101.684 53.8397 102.042 54.0785C102.283 54.2389 105.599 54.897 107.749 55.3115C109.863 57.4815 112.253 59.3625 114.859 60.9056L132.703 71.2208V77.6248L138.309 74.4605V65.8645L114.859 52.3105Z" fill="#E8A200"/>
<path d="M109.252 55.4739C104.195 52.5522 99.5592 46.4433 97.4427 39.9122L93.6686 28.2684C92.2878 24.0086 92.5159 20.3162 94.2937 18.1337C96.0714 15.9513 98.9819 15.7928 102.28 17.6982L108.05 21.0325V12.4365L102.28 9.10125C96.4827 5.75167 91.1551 6.04489 88.03 9.87871C84.9048 13.7125 84.4869 20.4747 86.9135 27.9619L90.6876 39.6066C94.016 49.8731 101.303 59.4729 109.252 64.0689L132.705 77.6219V69.0259L109.252 55.4739Z" fill="#F9BF30"/>
<path d="M147.825 184.188C167.174 184.188 182.86 175.123 182.86 163.942C182.86 152.761 167.174 143.697 147.825 143.697C128.476 143.697 112.791 152.761 112.791 163.942C112.791 175.123 128.476 184.188 147.825 184.188Z" fill="#400B65"/>
<path d="M185.528 131.301L176.837 131.355C176.204 130.925 175.545 130.503 174.842 130.097C160.594 121.863 137.495 121.863 123.247 130.097C122.356 130.612 121.519 131.148 120.736 131.702L112.562 131.753V145.005C112.562 150.4 116.124 155.798 123.25 159.912C137.497 168.146 160.597 168.146 174.845 159.912C181.968 155.796 185.532 150.399 185.532 145.004L185.528 131.301Z" fill="#7F3EAE"/>
<path d="M147.828 123.938C138.902 124.109 130.064 126.158 123.25 130.096C122.359 130.612 121.522 131.147 120.739 131.701L112.565 131.752V145.005C112.565 150.401 116.127 155.798 123.253 159.913C130.066 163.85 138.902 165.9 147.83 166.071L147.828 123.938Z" fill="#A25AD6"/>
<path d="M117.579 131.72L112.565 131.752V145.005C112.565 148.7 114.237 152.395 117.579 155.679V131.72Z" fill="#D4ECFF"/>
<path d="M149.045 152.382C169.194 152.382 185.528 142.944 185.528 131.3C185.528 119.657 169.194 110.218 149.045 110.218C128.896 110.218 112.562 119.657 112.562 131.3C112.562 142.944 128.896 152.382 149.045 152.382Z" fill="#EBD1FE"/>
<path d="M174.843 146.209C160.595 154.442 137.496 154.442 123.248 146.209C116.482 142.298 112.936 137.231 112.596 132.115C112.214 137.778 115.766 143.513 123.248 147.837C137.496 156.07 160.595 156.07 174.843 147.837C182.324 143.513 185.871 137.779 185.494 132.115C185.154 137.237 181.609 142.299 174.843 146.209Z" fill="white"/>
<path d="M169.209 125.553C168.749 125.242 168.272 124.935 167.761 124.64C157.424 118.667 140.661 118.667 130.327 124.64C129.679 125.015 129.072 125.403 128.506 125.805L126.215 125.82V138.147C127.453 139.34 128.836 140.372 130.331 141.219C140.668 147.192 157.432 147.193 167.765 141.219C172.933 138.232 175.518 134.317 175.518 130.403V125.514L169.209 125.553Z" fill="#7E3BAE"/>
<path d="M130.327 124.64C129.679 125.015 129.072 125.403 128.506 125.805L126.215 125.82V138.147C127.453 139.34 128.836 140.372 130.331 141.219C135.274 144.076 141.687 145.563 148.163 145.687V120.172C141.684 120.296 135.271 121.783 130.327 124.64Z" fill="#5793CE"/>
<path d="M126.212 125.82L122.575 125.842V130.402C122.628 131.872 122.978 133.316 123.603 134.647C124.228 135.978 125.116 137.169 126.212 138.147V125.82Z" fill="#5793CE"/>
<path d="M149.045 140.81C163.664 140.81 175.514 133.962 175.514 125.514C175.514 117.066 163.664 110.218 149.045 110.218C134.426 110.218 122.575 117.066 122.575 125.514C122.575 133.962 134.426 140.81 149.045 140.81Z" fill="#5793CE"/>
<path d="M134.868 113.033C142.693 117.556 155.391 117.556 163.221 113.033C171.051 108.509 171.051 101.173 163.221 96.6486C155.391 92.1243 142.698 92.1243 134.868 96.6486C127.039 101.173 127.039 108.508 134.868 113.033Z" fill="white"/>
<path d="M125.634 116.425C129.857 113.287 129.043 110.217 129.043 110.217L132.238 114.077C141.953 109.385 156.144 109.386 165.857 114.077L169.055 110.214C169.055 110.214 168.241 113.283 172.463 116.422C176.686 119.562 175.308 125.722 175.308 125.722L175.299 125.713C175.299 129.599 172.74 133.484 167.61 136.449C157.356 142.371 140.732 142.371 130.479 136.449C125.353 133.488 122.79 129.604 122.79 125.72C122.789 125.721 121.413 119.563 125.634 116.425Z" fill="#F9BF30"/>
<path d="M163.712 117.348C163.712 117.348 156.128 112.859 156.128 111.904C156.201 111.637 156.342 111.394 156.538 111.199C159.763 111.721 162.899 112.69 165.856 114.077L169.054 110.214C169.054 110.214 168.24 113.283 172.463 116.422C176.685 119.562 175.307 125.722 175.307 125.722L175.299 125.713C175.246 127.984 174.431 130.171 172.985 131.921C173.053 131.443 173.862 125.092 169.093 123.013C164.136 120.851 163.712 117.348 163.712 117.348Z" fill="#E8A200"/>
<path d="M134.868 117.643C142.693 122.167 155.391 122.167 163.221 117.643C171.051 113.119 171.051 105.782 163.221 101.258C155.391 96.7337 142.698 96.7337 134.868 101.258C127.039 105.782 127.039 113.119 134.868 117.643Z" fill="#E8A200"/>
<path d="M201.485 31.2618C200.959 60.516 185.891 64.0585 177.83 75.006C170.306 85.2257 171.162 100.005 171.31 101.933C171.31 102.004 171.327 102.076 171.327 102.147C171.327 105.444 169.152 108.738 164.801 111.253C156.098 116.281 141.995 116.281 133.288 111.253C129.209 108.895 127.067 105.851 126.813 102.764H126.762V102.144C126.762 102.074 126.777 102.004 126.779 101.935C126.926 100.025 127.788 85.2305 120.26 75.0012C112.198 64.0509 97.1307 60.5083 96.603 31.2571L201.485 31.2618Z" fill="#F9BF30"/>
<path d="M163.176 63.1119C163.176 63.1119 161.951 66.6086 158.146 76.6067C154.34 86.6048 156.128 111.908 156.128 111.908L162.604 112.354C163.354 112.027 164.087 111.66 164.799 111.255C169.149 108.741 171.325 105.446 171.325 102.15C171.325 102.079 171.309 102.007 171.307 101.935C171.16 100.008 170.304 85.2285 177.827 75.0088C185.887 64.0584 200.956 60.5169 201.483 31.2646H195.74L163.176 63.1119Z" fill="#E8A200"/>
<path d="M149.044 61.5665C178.006 61.5665 201.484 47.9986 201.484 31.2618C201.484 14.5249 178.006 0.957031 149.044 0.957031C120.082 0.957031 96.603 14.5249 96.603 31.2618C96.603 47.9986 120.082 61.5665 149.044 61.5665Z" fill="#FDD762"/>
<path d="M111.962 52.6907C132.442 64.5246 165.646 64.5246 186.126 52.6907C195.78 47.1119 200.878 39.8989 201.431 32.5923C202.05 40.7852 196.952 49.0966 186.126 55.3526C165.646 67.1874 132.442 67.1874 111.962 55.3526C101.137 49.0966 96.0389 40.7871 96.6582 32.5942C97.2107 39.8998 102.31 47.1119 111.962 52.6907Z" fill="white"/>
<path d="M149.045 56.6955C173.352 56.6955 193.057 45.3084 193.057 31.2618C193.057 17.2152 173.352 5.82812 149.045 5.82812C124.737 5.82812 105.032 17.2152 105.032 31.2618C105.032 45.3084 124.737 56.6955 149.045 56.6955Z" fill="#F2B42A"/>
<path d="M117.922 49.2466C125.125 53.409 134.209 55.8025 143.591 56.4758C144.318 55.6876 144.823 54.7214 145.057 53.6749C145.29 52.6283 145.244 51.5386 144.921 50.5159C140.35 36.8063 142.118 8.40409 142.118 8.40409L133.839 7.4165C128.261 8.52995 122.891 10.5072 117.923 13.2771C100.735 23.2102 100.735 39.3144 117.922 49.2466Z" fill="#E8A200"/>
<path d="M180.166 15.5349C162.978 5.60176 135.111 5.60176 117.923 15.5349C109.825 20.215 105.546 26.2637 105.078 32.3917C104.552 25.5149 108.831 18.5311 117.923 13.278C135.111 3.34483 162.978 3.34483 180.166 13.278C189.257 18.5311 193.536 25.5101 193.011 32.3898C192.542 26.2618 188.263 20.2131 180.166 15.5349Z" fill="white"/>
<path d="M170.592 53.4375C156.553 57.7713 141.536 57.7713 127.497 53.4375C127.954 53.1309 128.425 52.83 128.928 52.5397C140.038 46.1194 158.052 46.1185 169.162 52.5397C169.664 52.83 170.135 53.1309 170.592 53.4375Z" fill="#E8A200"/>
<path d="M126.779 101.939C126.797 101.709 126.825 101.288 126.847 100.714C127.183 103.725 129.305 106.683 133.288 108.984C141.99 114.013 156.095 114.013 164.801 108.984C168.697 106.733 170.843 103.855 171.25 100.912C171.271 101.38 171.294 101.733 171.31 101.935C171.31 102.007 171.327 102.078 171.327 102.15C171.327 105.446 169.152 108.74 164.801 111.255C156.099 116.284 141.995 116.284 133.288 111.255C129.209 108.899 127.068 105.855 126.813 102.768H126.761V102.147C126.762 102.078 126.777 102.009 126.779 101.939Z" fill="white"/>
<path d="M207.983 75.0366C204.857 67.5867 199.529 61.1406 193.733 57.7911L187.962 54.4558L182.355 57.6191L182.631 59.5828L190.385 67.8599L201.398 83.6192L203.218 82.6077C203.284 84.0905 202.984 85.5667 202.344 86.9057L198.569 94.1875C198.034 95.2555 197.227 96.1642 196.231 96.8227C197.464 99.8676 197.91 103.084 195.945 105.877L194.661 105.863L195.065 106.932C194.913 107.086 194.76 107.241 194.588 107.393C194.812 107.414 195.033 107.425 195.256 107.436L195.891 109.115L201.521 105.938H201.502C203.142 104.897 204.465 103.428 205.331 101.689L209.105 94.4072C211.525 89.7281 211.108 82.4855 207.983 75.0366Z" fill="#E8A200"/>
<path d="M196.231 96.8256C193.81 98.3978 190.397 98.2048 186.76 96.1036L163.307 82.5505L157.701 85.7148L159.331 88.5143L163.307 89.5744V91.1465L186.761 104.7C189.148 106.146 191.816 107.065 194.586 107.396C198.063 104.296 197.694 100.438 196.231 96.8256Z" fill="#E8A200"/>
<path d="M193.733 57.7911L187.962 54.4558L182.355 57.6191L182.631 59.5828L190.385 67.8599L196.492 76.5972L206.059 71.069C202.888 65.3364 198.471 60.5284 193.733 57.7911Z" fill="#FDD762"/>
<path d="M181.153 107.864L157.701 94.3108V85.7148L181.153 99.2678C186.211 102.19 190.846 101.439 192.963 97.3576L196.737 90.0749C198.119 87.412 197.89 83.455 196.112 79.2181C194.543 75.2294 191.747 71.8443 188.127 69.5533L182.356 66.2181V57.6221L188.127 60.9573C193.923 64.3069 199.251 70.7549 202.377 78.2038C205.503 85.6527 205.919 92.8944 203.492 97.5773L199.718 104.859C196.39 111.276 189.103 112.457 181.153 107.864Z" fill="#F9BF30"/>
</svg>
