<svg width="24" height="24" viewBox="0 0 24 24" fill="none" xmlns="http://www.w3.org/2000/svg">
<path d="M6.99771 22.2247C6.20494 22.2159 5.41961 22.0706 4.6762 21.7951C4.13245 21.5948 3.64041 21.2754 3.23612 20.8602C2.81977 20.4567 2.49981 19.9645 2.30008 19.4202C2.02477 18.6767 1.87964 17.8914 1.87106 17.0987C1.81105 15.7786 1.79785 15.3856 1.79785 12.0464C1.79785 8.70724 1.81105 8.31302 1.87046 6.99475C1.88035 6.20306 2.02565 5.41891 2.30008 4.67624C2.50103 4.13268 2.82059 3.64073 3.23552 3.23616C3.6392 2.82016 4.13141 2.50043 4.6756 2.30072C5.41912 2.02582 6.20444 1.8811 6.99711 1.8729C8.31718 1.81289 8.7114 1.80029 12.0488 1.80029C15.3861 1.80029 15.7815 1.81349 17.1004 1.8729C17.8929 1.88252 18.6779 2.02782 19.4213 2.30252C19.9653 2.50235 20.4574 2.82183 20.8614 3.23736C21.2771 3.64132 21.5968 4.13345 21.7969 4.67744C22.0726 5.42081 22.2181 6.20614 22.2271 6.99895C22.2871 8.31902 22.2997 8.71264 22.2997 12.0506C22.2997 15.3886 22.2877 15.7834 22.2271 17.1023C22.2175 17.895 22.072 18.6802 21.7969 19.4238C21.5888 19.963 21.2701 20.4526 20.8614 20.8612C20.4527 21.2698 19.963 21.5884 19.4237 21.7963C18.6804 22.072 17.895 22.2175 17.1022 22.2265C15.7821 22.2865 15.3885 22.2991 12.0506 22.2991C8.7126 22.2991 8.31718 22.2877 7.00011 22.2265" fill="url(#paint0_linear_373_192)"/>
<path d="M6.99771 22.2247C6.20494 22.2159 5.41961 22.0706 4.6762 21.7951C4.13245 21.5948 3.64041 21.2754 3.23612 20.8602C2.81977 20.4567 2.49981 19.9645 2.30008 19.4202C2.02477 18.6767 1.87964 17.8914 1.87106 17.0987C1.81105 15.7786 1.79785 15.3856 1.79785 12.0464C1.79785 8.70724 1.81105 8.31302 1.87046 6.99475C1.88035 6.20306 2.02565 5.41891 2.30008 4.67624C2.50103 4.13268 2.82059 3.64073 3.23552 3.23616C3.6392 2.82016 4.13141 2.50043 4.6756 2.30072C5.41912 2.02582 6.20444 1.8811 6.99711 1.8729C8.31718 1.81289 8.7114 1.80029 12.0488 1.80029C15.3861 1.80029 15.7815 1.81349 17.1004 1.8729C17.8929 1.88252 18.6779 2.02782 19.4213 2.30252C19.9653 2.50235 20.4574 2.82183 20.8614 3.23736C21.2771 3.64132 21.5968 4.13345 21.7969 4.67744C22.0726 5.42081 22.2181 6.20614 22.2271 6.99895C22.2871 8.31902 22.2997 8.71264 22.2997 12.0506C22.2997 15.3886 22.2877 15.7834 22.2271 17.1023C22.2175 17.895 22.072 18.6802 21.7969 19.4238C21.5888 19.963 21.2701 20.4526 20.8614 20.8612C20.4527 21.2698 19.963 21.5884 19.4237 21.7963C18.6804 22.072 17.895 22.2175 17.1022 22.2265C15.7821 22.2865 15.3885 22.2991 12.0506 22.2991C8.7126 22.2991 8.31718 22.2877 7.00011 22.2265" fill="url(#paint1_radial_373_192)"/>
<path d="M9.5322 12.0918C9.53218 11.5046 9.73577 10.9355 10.1083 10.4816C10.4808 10.0277 10.9992 9.71696 11.5751 9.60239C12.151 9.48781 12.7488 9.57648 13.2667 9.85327C13.7846 10.1301 14.1905 10.5779 14.4152 11.1204C14.64 11.6629 14.6696 12.2665 14.4992 12.8285C14.3287 13.3904 13.9687 13.8758 13.4805 14.2021C12.9922 14.5283 12.406 14.6752 11.8216 14.6176C11.2372 14.5601 10.6909 14.3017 10.2756 13.8865C9.79964 13.4105 9.53222 12.765 9.5322 12.0918ZM8.15993 12.0918C8.15856 13.0624 8.51822 13.9988 9.16898 14.7188C9.81974 15.4389 10.7151 15.8912 11.6808 15.9877C12.6466 16.0843 13.6137 15.8182 14.3941 15.2412C15.1745 14.6642 15.7125 13.8175 15.9032 12.8659C16.094 11.9143 15.924 10.9257 15.4263 10.0924C14.9286 9.2592 14.1388 8.64085 13.2105 8.35767C12.2822 8.07448 11.2817 8.1467 10.4037 8.56029C9.52562 8.97387 8.8328 9.69925 8.45994 10.5953C8.2626 11.0696 8.16065 11.5781 8.15993 12.0918ZM15.2211 8.0266C15.2207 8.23836 15.2938 8.44369 15.4279 8.60759C15.562 8.7715 15.7487 8.88382 15.9564 8.92543C16.164 8.96703 16.3796 8.93533 16.5665 8.83573C16.7534 8.73614 16.8999 8.57481 16.9812 8.37926C17.0624 8.18371 17.0733 7.96603 17.012 7.76334C16.9507 7.56065 16.821 7.38549 16.645 7.26772C16.469 7.14996 16.2576 7.09688 16.0469 7.11753C15.8361 7.13818 15.6391 7.23128 15.4893 7.38097C15.3178 7.55213 15.2214 7.78435 15.2211 8.0266ZM8.99397 18.2931C8.51106 18.2879 8.03266 18.1996 7.5797 18.0321C7.25121 17.9056 6.95288 17.7116 6.70392 17.4628C6.45496 17.2139 6.26089 16.9157 6.13423 16.5872C5.96664 16.1343 5.87835 15.6559 5.87321 15.173C5.83601 14.3701 5.82881 14.1295 5.82881 12.096C5.82881 10.0625 5.83661 9.82189 5.87321 9.01845C5.87898 8.5356 5.96725 8.05729 6.13423 7.60418C6.26054 7.2752 6.45445 6.97636 6.70343 6.72697C6.95241 6.47757 7.25092 6.28317 7.5797 6.15631C8.03264 5.98874 8.51106 5.90044 8.99397 5.8953C9.79681 5.8581 10.0374 5.8509 12.0703 5.8509C14.1032 5.8509 14.3444 5.8587 15.1479 5.8953C15.6307 5.90106 16.109 5.98934 16.5621 6.15631C16.8907 6.28291 17.1891 6.47694 17.438 6.7259C17.687 6.97487 17.881 7.27324 18.0076 7.60178C18.1752 8.05472 18.2635 8.53314 18.2686 9.01605C18.3058 9.82009 18.313 10.0595 18.313 12.0936C18.313 14.1277 18.3058 14.3677 18.2686 15.1712C18.2631 15.654 18.1748 16.1324 18.0076 16.5854C17.881 16.9136 17.6871 17.2117 17.4384 17.4604C17.1896 17.7092 16.8916 17.9031 16.5633 18.0297C16.1104 18.1973 15.632 18.2856 15.1491 18.2907C14.3462 18.3279 14.105 18.3351 12.0715 18.3351C10.038 18.3351 9.79741 18.3279 8.99517 18.2907L8.99397 18.2931ZM8.93097 4.52363C8.29935 4.53624 7.67444 4.65595 7.08287 4.87765C6.57688 5.07311 6.11732 5.37215 5.73365 5.75561C5.34999 6.13907 5.0507 6.59847 4.85496 7.10436C4.63378 7.69642 4.51468 8.32173 4.50275 8.95365C4.46494 9.76549 4.45654 10.0253 4.45654 12.093C4.45654 14.1607 4.46494 14.4205 4.50275 15.2324C4.51511 15.8642 4.63461 16.4893 4.85616 17.0811C5.05173 17.5869 5.35082 18.0464 5.73426 18.4299C6.11771 18.8135 6.57706 19.1127 7.08287 19.3084C7.67469 19.5299 8.29979 19.6494 8.93157 19.6618C9.74401 19.699 10.0032 19.708 12.0709 19.708C14.1386 19.708 14.3984 19.6996 15.2103 19.6618C15.8421 19.6494 16.4672 19.5299 17.059 19.3084C17.5649 19.1127 18.0244 18.8136 18.4079 18.43C18.7915 18.0464 19.0907 17.587 19.2863 17.0811C19.5082 16.4894 19.6277 15.8642 19.6397 15.2324C19.6769 14.4199 19.6853 14.1607 19.6853 12.093C19.6853 10.0253 19.6769 9.76549 19.6397 8.95365C19.6274 8.32185 19.5079 7.69673 19.2863 7.10496C19.0907 6.59911 18.7916 6.1397 18.4081 5.75615C18.0247 5.3726 17.5654 5.07338 17.0596 4.87765C16.4678 4.65594 15.8427 4.53643 15.2109 4.52423C14.399 4.48703 14.1392 4.47803 12.0721 4.47803C10.005 4.47803 9.74461 4.48643 8.93217 4.52423" fill="white"/>
<defs>
<linearGradient id="paint0_linear_373_192" x1="3.27398" y1="2.86623" x2="20.5954" y2="20.8257" gradientUnits="userSpaceOnUse">
<stop stop-color="#9939A0"/>
<stop offset="0.505208" stop-color="#D53B77"/>
<stop offset="1" stop-color="#DD3B71"/>
</linearGradient>
<radialGradient id="paint1_radial_373_192" cx="0" cy="0" r="1" gradientUnits="userSpaceOnUse" gradientTransform="translate(-28.1834 33.1867) rotate(46.1344) scale(10.1694 24.2334)">
<stop stop-color="#FA8F21"/>
<stop offset="1" stop-color="#FA8F21" stop-opacity="0"/>
</radialGradient>
</defs>
</svg>
