<svg width="128" height="48" viewBox="0 0 128 48" fill="none" xmlns="http://www.w3.org/2000/svg">
<g clip-path="url(#clip0_1_1904)">
<path d="M6.99114 32.7617H6.96253H6.96129C6.6871 32.7575 6.41449 32.7193 6.14968 32.648C5.87276 32.5737 5.60421 32.4711 5.34823 32.342C4.807 32.0657 4.31624 31.7002 3.89657 31.2609C3.68077 31.0369 3.48355 30.7958 3.30684 30.5399C3.13082 30.2853 2.97736 30.0159 2.8482 29.7347C2.58895 29.1856 2.45143 28.5869 2.44507 27.9798L2.50329 8.45166C2.50329 8.13695 2.47112 7.82527 2.52259 5.65593C2.52113 4.89967 2.6724 4.15089 2.96735 3.45444C3.25144 2.78251 3.66332 2.17208 4.18016 1.65699C4.69556 1.14046 5.30638 0.728807 5.97874 0.444878C6.67563 0.14997 7.4249 -0.0013407 8.18169 8.9499e-06H24.2294C24.8369 0.00636557 25.4359 0.143791 25.9854 0.402885C26.2668 0.531955 26.5364 0.68532 26.7911 0.861235C27.0472 1.0378 27.2885 1.23488 27.5126 1.45052C27.9521 1.86997 28.3177 2.36045 28.594 2.90134C28.7233 3.15716 28.8259 3.42554 28.9003 3.70229C28.9715 3.96692 29.0098 4.23937 29.014 4.51339C29.0234 5.41482 28.604 6.34005 27.8329 7.11861C27.3592 7.59312 26.8015 7.97562 26.1881 8.24666C25.8791 8.38366 25.5575 8.49005 25.2278 8.56431C24.9002 8.63842 24.5653 8.67633 24.2294 8.67735H11.1276V27.9797C11.1239 28.5807 11.0067 29.1755 10.7822 29.7331C10.6717 30.0129 10.5382 30.2831 10.383 30.5408C10.2295 30.7962 10.0552 31.0384 9.86182 31.2651C9.67284 31.4868 9.46488 31.6916 9.2403 31.8772C9.02292 32.0571 8.78842 32.2154 8.54017 32.3498C8.0662 32.6138 7.53375 32.7554 6.99114 32.7617ZM8.2862 1.08468C5.65748 1.08468 3.67523 3.23224 3.67523 6.08011C3.63043 8.3542 3.60779 8.62908 3.60779 8.90219V27.119C3.6064 28.1421 3.9258 29.1398 4.52111 29.9721C5.13581 30.8045 5.95835 31.268 6.83725 31.2772H6.86315C7.73484 31.2772 8.61645 30.8027 9.28193 29.9756C9.93331 29.1646 10.2936 28.1587 10.3053 27.1188V8.86422C10.3074 8.78129 10.317 8.69872 10.3337 8.61746V8.61599C10.345 8.57191 10.3553 8.52875 10.3653 8.48707C10.4213 8.25123 10.4698 8.04747 10.6686 7.8327C10.9255 7.55526 11.3378 7.5472 11.3839 7.5472H11.3864L23.3253 7.54542C24.5167 7.54542 25.762 7.03524 26.5753 6.21392C27.1787 5.60456 27.4937 4.89333 27.486 4.15707C27.4769 3.28733 27.0131 2.49281 26.1801 1.91995C25.4088 1.38916 24.3683 1.08468 23.3258 1.08468H8.2862Z" fill="url(#paint0_radial_1_1904)"/>
<path d="M3.65496 6.09082H2.53085L2.48364 14.3111H3.60776L3.65496 6.09082Z" fill="url(#paint1_linear_1_1904)"/>
<path d="M6.86294 31.2772H6.83705C4.96668 31.2576 3.60767 29.2026 3.60767 27.119V8.90207C3.60759 8.62861 3.63015 8.35561 3.67511 8.08586V6.08015C3.67511 3.36407 5.56827 1.08472 8.28607 1.08472H23.3259C25.4108 1.08472 27.4672 2.28792 27.4866 4.15711C27.5061 6.02631 25.4107 7.54546 23.3258 7.54546L11.3869 7.54732C11.3869 7.54732 10.9395 7.54066 10.6691 7.83274C10.4344 8.08632 10.4084 8.32789 10.3343 8.61603C10.3171 8.69762 10.3075 8.7806 10.3054 8.86395V27.119C10.3054 29.1929 8.72393 31.2771 6.86333 31.2772H6.86294Z" fill="#6B16A8"/>
<path d="M6.96105 32.7616C4.81012 32.7391 2.44482 30.3758 2.44482 27.9797V8.45568C2.4447 8.1412 2.47063 7.82726 2.52235 7.51706V5.65577C2.52235 4.15576 3.1186 2.7172 4.17993 1.65654C5.24126 0.595874 6.68073 0 8.18168 0L24.2294 0C26.6271 0 28.9918 2.3638 29.0142 4.51338C29.0366 6.66296 26.6271 8.67734 24.2294 8.67734H11.1276V27.9797C11.1276 30.3649 9.13066 32.7619 6.99082 32.7618L6.96105 32.7616Z" fill="#6B16A8"/>
<path d="M26.4062 13.2485H26.4348H26.4361C26.7103 13.2528 26.9829 13.291 27.2477 13.3622C27.5246 13.4365 27.7931 13.5391 28.0491 13.6682C28.5905 13.9445 29.0813 14.3101 29.5011 14.7495C29.7169 14.9734 29.9141 15.2146 30.0908 15.4705C30.2668 15.725 30.4203 15.9945 30.5495 16.2757C30.8087 16.8248 30.9462 17.4234 30.9526 18.0306L30.8944 37.5587C30.8944 37.8734 30.9265 38.1851 30.8751 40.3545C30.8765 41.1107 30.7253 41.8595 30.4303 42.5559C30.1462 43.2279 29.7343 43.8383 29.2175 44.3534C28.7021 44.8699 28.0913 45.2816 27.4189 45.5655C26.722 45.8603 25.9728 46.0115 25.216 46.01H9.16836C8.56082 46.0036 7.96182 45.8662 7.41234 45.6071C7.13093 45.478 6.86134 45.3247 6.60662 45.1488C6.35055 44.9722 6.10928 44.7751 5.88517 44.5595C5.44558 44.1401 5.07986 43.6496 4.80338 43.1087C4.67418 42.8529 4.57157 42.5845 4.49716 42.3078C4.42574 42.0432 4.38738 41.7708 4.38297 41.4968C4.37359 40.5954 4.793 39.6702 5.56406 38.8916C6.03775 38.4171 6.59549 38.0346 7.20891 37.7636C7.5178 37.6266 7.83939 37.5202 8.16906 37.4459C8.49683 37.3719 8.83176 37.334 9.16781 37.3331H22.2696V18.0306C22.2733 17.4296 22.3905 16.8348 22.615 16.2772C22.7255 15.9974 22.859 15.7272 23.0142 15.4695C23.1677 15.2142 23.342 14.9719 23.5354 14.7452C23.7244 14.5235 23.9323 14.3187 24.1569 14.1332C24.3743 13.9532 24.6088 13.7949 24.857 13.6606C25.331 13.3964 25.8635 13.2548 26.4062 13.2485V13.2485ZM25.1115 44.9256C27.7403 44.9256 29.7225 42.778 29.7225 39.9301C29.7673 37.656 29.79 37.3812 29.79 37.108V18.8913C29.7913 17.8682 29.4719 16.8705 28.8766 16.0382C28.2619 15.2058 27.4394 14.7424 26.5605 14.7331H26.5346C25.6629 14.7331 24.7813 15.2076 24.1158 16.0347C23.4644 16.8457 23.1041 17.8516 23.0925 18.8915V37.146C23.0903 37.2289 23.0808 37.3115 23.064 37.3928V37.3942C23.0527 37.4383 23.0424 37.4815 23.0325 37.5232C22.9764 37.759 22.928 37.9628 22.7291 38.1775C22.4722 38.455 22.0599 38.463 22.0138 38.463H22.0113L10.0725 38.4648C8.88105 38.4648 7.63576 38.975 6.82245 39.7963C6.21899 40.4057 5.90408 41.1169 5.91176 41.8532C5.92083 42.7229 6.38467 43.5174 7.2176 44.0903C7.98944 44.6211 9.03005 44.9256 10.0725 44.9256H25.1115Z" fill="url(#paint2_radial_1_1904)"/>
<path d="M26.5343 14.7332H26.5602C28.4306 14.7527 29.7896 16.8077 29.7896 18.8913V37.1083C29.7897 37.3817 29.7671 37.6547 29.7222 37.9244V39.9303C29.7222 42.6464 27.829 44.9257 25.1112 44.9257H10.0714C7.98647 44.9257 5.93012 43.7225 5.91066 41.8533C5.8912 39.9841 7.98647 38.465 10.0714 38.465L22.0102 38.4631C22.0102 38.4631 22.4576 38.4698 22.728 38.1777C22.9627 37.9241 22.9887 37.6826 23.0628 37.3944C23.08 37.3128 23.0897 37.2298 23.0917 37.1465V18.8914C23.0917 16.8175 24.6732 14.7332 26.5338 14.7332H26.5343Z" fill="url(#paint3_radial_1_1904)"/>
<path d="M29.7897 19.7275V35.9278H30.906L30.9464 19.7291L29.7897 19.7275Z" fill="url(#paint4_linear_1_1904)"/>
<path d="M26.4363 13.2485C28.5872 13.271 30.9525 15.6343 30.9525 18.0304V37.5545C30.9526 37.8689 30.9267 38.1829 30.875 38.4931V40.3544C30.875 41.8544 30.2787 43.2929 29.2174 44.3536C28.156 45.4143 26.7166 46.0101 25.2156 46.0101H9.16794C6.77024 46.0101 4.40549 43.6463 4.38309 41.4968C4.36068 39.3472 6.77032 37.3329 9.16794 37.3329H22.2697V18.0306C22.2697 15.6454 24.2666 13.2485 26.4065 13.2485H26.4363Z" fill="#6B16A8"/>
<path d="M15.1003 24.6115H15.0953C15.0502 24.6108 15.0053 24.6045 14.9617 24.5928C14.9162 24.5805 14.872 24.5636 14.8299 24.5424C14.7408 24.4968 14.66 24.4366 14.5909 24.3642C14.5553 24.3274 14.5228 24.2878 14.4937 24.2457C14.4647 24.2038 14.4394 24.1595 14.4182 24.1132C14.3755 24.0227 14.3528 23.9242 14.3518 23.8242L14.3614 20.6089C14.3614 20.5571 14.3561 20.5058 14.3646 20.1486C14.3644 20.0241 14.3893 19.9009 14.4379 19.7862C14.4846 19.6756 14.5525 19.5751 14.6376 19.4902C14.7223 19.4053 14.8227 19.3375 14.9332 19.2907C15.0481 19.2422 15.1716 19.2173 15.2963 19.2175H17.9384C18.0384 19.2186 18.1371 19.2412 18.2275 19.2839C18.2738 19.3051 18.3182 19.3304 18.3602 19.3593C18.4023 19.3884 18.442 19.4208 18.4789 19.4563C18.5514 19.5254 18.6117 19.6061 18.6572 19.6952C18.6785 19.7372 18.6954 19.7814 18.7076 19.8269C18.7194 19.8705 18.7256 19.9153 18.7263 19.9605C18.7238 20.0412 18.7054 20.1207 18.672 20.1943C18.6387 20.268 18.591 20.3342 18.5319 20.3894C18.4539 20.4676 18.3621 20.5306 18.2611 20.5753C18.2102 20.5979 18.1573 20.6154 18.103 20.6276C18.0491 20.6398 17.9939 20.646 17.9386 20.6462H15.7814V23.8242C15.7807 23.9231 15.7614 24.0211 15.7245 24.1129C15.7063 24.159 15.6843 24.2034 15.6587 24.2459C15.6334 24.2879 15.6047 24.3278 15.5729 24.3651C15.5418 24.4016 15.5075 24.4353 15.4706 24.4659C15.4348 24.4954 15.3961 24.5213 15.3553 24.5433C15.2773 24.5869 15.1897 24.6104 15.1003 24.6115ZM15.3135 19.3961C14.8807 19.3961 14.5543 19.7497 14.5543 20.2186C14.5465 20.593 14.5432 20.6382 14.5432 20.6835V23.6825C14.543 23.8509 14.5956 24.0152 14.6936 24.1522C14.7358 24.2155 14.7923 24.268 14.8585 24.3053C14.9248 24.3426 14.999 24.3638 15.075 24.3671H15.0792C15.1574 24.3633 15.2337 24.342 15.3026 24.305C15.3715 24.2679 15.4313 24.2159 15.4775 24.1528C15.5847 24.0192 15.644 23.8536 15.6459 23.6824V20.677C15.6463 20.6633 15.6478 20.6497 15.6506 20.6364C15.6524 20.6291 15.6542 20.622 15.6558 20.6151C15.6617 20.5752 15.679 20.5377 15.7057 20.5074C15.7376 20.4773 15.7797 20.4605 15.8235 20.4603H15.8239H17.7896C17.9895 20.4587 18.1811 20.3802 18.3245 20.2411C18.371 20.1976 18.4082 20.1452 18.434 20.087C18.4597 20.0288 18.4735 19.966 18.4744 19.9024C18.4716 19.8281 18.4505 19.7557 18.413 19.6914C18.3755 19.6272 18.3228 19.5732 18.2595 19.5341C18.1198 19.443 17.9562 19.3951 17.7894 19.3966L15.3135 19.3961Z" fill="url(#paint5_radial_1_1904)"/>
<path d="M14.551 20.2202H14.3657L14.3579 21.5736H14.5429L14.551 20.2202Z" fill="url(#paint6_linear_1_1904)"/>
<path d="M15.0792 24.367H15.075C14.767 24.3639 14.5432 24.0254 14.5432 23.6824V20.6831C14.5432 20.6381 14.5469 20.5932 14.5543 20.5488V20.2185C14.5543 19.7713 14.866 19.396 15.3135 19.396H17.7897C18.1329 19.396 18.4715 19.5941 18.4747 19.9018C18.4778 20.2096 18.1329 20.4597 17.7897 20.4597H15.8239C15.7801 20.4601 15.7381 20.477 15.7062 20.507C15.6759 20.5438 15.6567 20.5884 15.6507 20.6356C15.6479 20.6491 15.6463 20.6628 15.646 20.6765V23.6824C15.646 24.0238 15.3856 24.367 15.0793 24.367H15.0792Z" fill="#6B16A8"/>
<path d="M15.0955 24.6115C14.7413 24.6078 14.3519 24.2187 14.3519 23.8242V20.6097C14.3519 20.5579 14.3562 20.5062 14.3647 20.4551V20.1487C14.3647 19.9018 14.4629 19.6649 14.6376 19.4903C14.8123 19.3157 15.0493 19.2175 15.2964 19.2175H17.9385C18.3333 19.2175 18.7226 19.6067 18.7264 19.9606C18.7301 20.3145 18.3333 20.6462 17.9385 20.6462H15.7815V23.8242C15.7815 24.2169 15.4527 24.6116 15.1004 24.6115H15.0955Z" fill="#6B16A8"/>
<path d="M18.2971 21.3987H18.302C18.3472 21.3994 18.3921 21.4056 18.4357 21.4174C18.4812 21.4296 18.5254 21.4465 18.5675 21.4677C18.6566 21.5133 18.7374 21.5735 18.8065 21.6459C18.8422 21.6827 18.8748 21.7224 18.904 21.7645C18.933 21.8064 18.9583 21.8508 18.9795 21.8971C19.0222 21.9875 19.0448 22.086 19.0459 22.186L19.0363 25.4013C19.0363 25.4531 19.0415 25.5044 19.0331 25.8615C19.0333 25.9861 19.0084 26.1093 18.9598 26.224C18.9131 26.3346 18.8452 26.4351 18.7601 26.5199C18.6753 26.605 18.5747 26.6728 18.464 26.7195C18.3493 26.7681 18.2259 26.793 18.1013 26.7927H15.4592C15.3592 26.7917 15.2606 26.7691 15.1701 26.7264C15.1238 26.7052 15.0794 26.6799 15.0374 26.651C14.9953 26.6219 14.9556 26.5894 14.9187 26.554C14.8462 26.4849 14.7859 26.4042 14.7404 26.3151C14.7191 26.273 14.7022 26.2289 14.69 26.1834C14.6782 26.1397 14.6719 26.0948 14.6711 26.0496C14.6736 25.9688 14.6921 25.8893 14.7254 25.8157C14.7588 25.7421 14.8064 25.6758 14.8656 25.6207C14.9436 25.5426 15.0354 25.4798 15.1363 25.4352C15.1871 25.4126 15.2401 25.3951 15.2944 25.3829C15.3483 25.3707 15.4035 25.3645 15.4588 25.3643H17.6159V22.186C17.6166 22.087 17.6359 21.9891 17.6728 21.8973C17.691 21.8512 17.713 21.8067 17.7386 21.7643C17.7639 21.7223 17.7926 21.6824 17.8244 21.6451C17.8555 21.6086 17.8898 21.5749 17.9267 21.5443C17.9625 21.5148 18.0012 21.4889 18.042 21.4669C18.12 21.4233 18.2077 21.3998 18.2971 21.3987V21.3987ZM18.0839 26.6141C18.5167 26.6141 18.8431 26.2605 18.8431 25.7916C18.8508 25.4171 18.8542 25.372 18.8542 25.3267V22.3277C18.8544 22.1593 18.8018 21.995 18.7038 21.858C18.6616 21.7947 18.6051 21.7423 18.5389 21.7049C18.4727 21.6676 18.3985 21.6464 18.3226 21.6431H18.3183C18.2401 21.6469 18.1638 21.6682 18.0949 21.7052C18.026 21.7423 17.9663 21.7943 17.9201 21.8574C17.8128 21.9909 17.7535 22.1566 17.7516 22.3278V25.3332C17.7513 25.3469 17.7497 25.3605 17.7469 25.3738C17.7451 25.3811 17.7434 25.3882 17.7418 25.3951C17.7358 25.435 17.7185 25.4724 17.6918 25.5028C17.66 25.5329 17.6179 25.5497 17.5741 25.5499H17.5737H15.608C15.4081 25.5515 15.2165 25.63 15.073 25.7691C15.0265 25.8126 14.9893 25.865 14.9636 25.9232C14.9378 25.9814 14.924 26.0441 14.9231 26.1078C14.926 26.1821 14.9471 26.2545 14.9846 26.3188C15.022 26.383 15.0748 26.437 15.1381 26.4761C15.2778 26.5672 15.4413 26.6151 15.6081 26.6136L18.0839 26.6141Z" fill="url(#paint7_radial_1_1904)"/>
<path d="M18.3182 21.6431H18.3224C18.6303 21.6462 18.8542 21.9847 18.8542 22.3276V25.327C18.8542 25.372 18.8505 25.4169 18.8431 25.4613V25.7916C18.8431 26.2388 18.5313 26.6141 18.0839 26.6141H15.6076C15.2644 26.6141 14.9258 26.416 14.9226 26.1083C14.9195 25.8005 15.2644 25.5504 15.6076 25.5504H17.5734C17.6173 25.5502 17.6595 25.5334 17.6915 25.5034C17.7217 25.4665 17.7409 25.4217 17.7466 25.3744C17.7495 25.3609 17.751 25.3472 17.7514 25.3335V22.3277C17.7514 21.9863 18.0118 21.6431 18.3181 21.6431H18.3182Z" fill="url(#paint8_radial_1_1904)"/>
<path d="M18.8541 22.4653V25.1326H19.0379L19.0446 22.4656L18.8541 22.4653Z" fill="url(#paint9_linear_1_1904)"/>
<path d="M18.3019 21.3987C18.656 21.4024 19.0454 21.7915 19.0454 22.186V25.4005C19.0454 25.4523 19.0412 25.504 19.0326 25.5551V25.8613C19.0326 26.1083 18.9345 26.3451 18.7597 26.5198C18.585 26.6944 18.348 26.7925 18.1009 26.7925H15.4587C15.064 26.7925 14.6746 26.4033 14.6709 26.0494C14.6672 25.6955 15.064 25.3638 15.4587 25.3638H17.6159V22.186C17.6159 21.7933 17.9446 21.3986 18.297 21.3987H18.3019Z" fill="#6B16A8"/>
<path d="M75.9612 9.6095C78.4098 7.59121 77.462 4.34612 74.6579 2.96102C71.8143 1.53635 65.9298 1.77379 61.9804 3.15889C56.2143 5.21676 52.6203 11.0738 58.5049 14.9916C61.4669 16.9703 66.7591 18.395 69.2077 20.3737C73.9865 24.252 71.1824 31.0588 64.5475 34.5413C56.6487 38.657 42.4704 37.6281 42.5494 27.8137C42.5949 25.1902 43.3601 22.63 44.761 20.4133C45.4873 19.2704 46.4099 18.2655 47.4861 17.4452C48.7894 16.4559 47.6441 16.6142 47.0912 16.8516C43.2208 18.672 40.1403 24.0541 40.3377 27.8137C41.0091 38.9736 57.8335 40.0817 66.7591 34.7392C73.4336 30.7422 78.7258 23.3022 70.669 18.3158C67.7465 16.4954 63.7576 15.1103 61.3485 13.6461C56.0168 10.3614 58.7814 5.92909 63.4811 4.2274C76.1982 -0.323644 78.4493 9.49078 73.5126 10.0844C72.2093 10.2427 72.2488 11.1529 73.3151 10.8759C74.2746 10.6405 75.1754 10.2094 75.9612 9.6095ZM89.3496 26.8243C89.7445 25.9933 88.9547 26.0724 88.6387 26.7847C87.7304 28.8822 85.5977 33.5519 82.1222 33.5519C79.5156 33.5519 80.187 29.5549 80.7794 28.1303C81.8458 28.1303 84.4129 27.2992 85.6372 26.389C88.1648 24.4499 89.3101 21.7588 87.8094 20.6112C86.0716 19.3052 83.0701 20.809 81.0559 23.1835C79.3182 25.2413 77.9754 28.2094 78.0149 30.5839C78.0544 33.0771 79.8316 34.383 81.8063 34.383C86.1901 34.383 87.8883 29.9903 89.3496 26.8243ZM85.2422 25.7162C83.8205 26.9035 81.7668 27.4575 81.0559 27.4575C81.7286 26.1464 82.522 24.901 83.4255 23.7375C88.2833 17.841 88.4807 22.9856 85.2422 25.7162ZM99.8155 14.7146C102.659 8.3827 98.3937 7.82866 95.5896 12.538C93.299 16.3767 90.8109 22.0754 89.5866 26.5077C88.9152 28.8822 87.0195 34.3039 91.4428 34.3039C95.4317 34.3039 97.4853 28.9613 98.4727 26.8639C98.8281 26.0724 98.2357 25.9933 97.8803 26.666C97.0242 28.4075 96.0476 30.0869 94.9577 31.692C92.8646 34.6205 89.7051 33.9477 90.8899 29.1988C91.1268 28.2094 91.5218 27.2596 91.7192 26.5869C95.5896 23.0648 97.9988 18.7907 99.8155 14.7146ZM99.2231 14.121C97.6828 17.8014 94.8393 22.4711 92.0352 25.3205C93.2595 22.1546 96.34 15.0708 98.2752 12.3401C100.408 9.29291 100.013 12.3006 99.2231 14.121ZM110.795 9.64908C110.202 9.72823 109.531 9.45121 109.057 9.45121C107.398 9.45121 106.569 10.5197 105.7 12.2214C103.528 16.2976 100.447 22.7086 97.6038 29.1196C97.3497 29.0906 97.0924 29.1142 96.8478 29.1891C96.6032 29.264 96.3766 29.3885 96.182 29.5549C95.4317 30.109 95.0762 31.8107 95.9056 33.0771C93.5755 38.5779 91.7587 43.3664 91.8377 45.9387C91.8772 47.5217 92.7856 47.957 93.8914 47.9966C98.1567 48.1944 101.158 39.8047 100.684 34.2643C103.488 34.2643 105.661 30.109 107.122 26.7847C107.398 26.1911 106.806 25.9933 106.529 26.5077C105.226 29.2779 102.975 33.6707 100.605 33.5124L100.487 32.9979C100.21 31.6128 99.7365 30.663 99.2231 30.0298C103.172 21.1256 108.307 11.984 110.795 9.64908ZM99.855 34.4226C99.934 37.9447 98.5122 42.8123 96.577 45.3451C95.0367 47.4029 93.22 48.1549 94.2864 43.5642C94.9183 40.9523 96.182 37.2719 97.5643 33.7894C98.0778 34.2247 99.0651 34.5017 99.855 34.4226ZM99.776 33.6707H99.539C98.8281 33.6707 98.1962 33.3541 97.9593 32.9188L98.8281 30.94C99.0657 31.2297 99.2649 31.5489 99.4205 31.8898C99.6297 32.4616 99.7496 33.0623 99.776 33.6707ZM113.401 17.6827C113.444 17.4809 113.44 17.272 113.39 17.0721C113.339 16.8721 113.243 16.6865 113.11 16.5296C112.976 16.3727 112.808 16.2488 112.619 16.1674C112.43 16.086 112.225 16.0493 112.019 16.0601C111.567 16.078 111.134 16.2478 110.791 16.5422C110.447 16.8365 110.212 17.2382 110.123 17.6827C110.005 18.5929 110.597 19.3052 111.506 19.3052C111.959 19.2935 112.395 19.1259 112.74 18.8305C113.086 18.5351 113.319 18.1299 113.401 17.6827ZM107.833 30.8609C107.912 30.5839 108.307 29.7132 108.307 29.7132L111.466 22.3128C111.901 21.3631 111.901 20.9277 110.637 20.9277L108.465 20.9673C108.623 21.1652 109.176 21.8775 108.86 22.6294L106.332 29.0801C105.503 31.1379 105.503 34.2247 108.465 34.2247C111.387 34.2247 113.638 29.1988 114.665 26.9826C115.021 26.1911 114.468 25.9141 114.152 26.6264C113.046 28.8426 111.743 31.2962 110.439 32.6022C110.005 32.9979 109.255 33.4332 108.662 33.3541C107.556 33.2749 107.477 32.1668 107.833 30.8609ZM125.289 26.8243C125.684 25.9933 124.894 26.0724 124.578 26.7847C123.67 28.8822 121.537 33.5519 118.062 33.5519C115.455 33.5519 116.126 29.5549 116.719 28.1303C117.785 28.1303 120.352 27.2992 121.577 26.389C124.104 24.4499 125.25 21.7588 123.749 20.6112C122.011 19.3052 119.01 20.809 116.995 23.1835C115.258 25.2413 113.915 28.2094 113.954 30.5839C113.994 33.0771 115.771 34.383 117.746 34.383C122.13 34.383 123.828 29.9903 125.289 26.8243ZM121.182 25.7162C119.76 26.9035 117.706 27.4575 116.995 27.4575C117.668 26.1464 118.461 24.901 119.365 23.7375C124.223 17.841 124.42 22.9856 121.182 25.7162Z" fill="#6B16A8"/>
</g>
<defs>
<radialGradient id="paint0_radial_1_1904" cx="0" cy="0" r="1" gradientUnits="userSpaceOnUse" gradientTransform="translate(69.2321 -51.9654) rotate(90.6306) scale(29.2094 179.123)">
<stop stop-color="white"/>
<stop offset="0.102" stop-color="#E5E3E6"/>
<stop offset="0.277" stop-color="#11031A"/>
<stop offset="0.557" stop-color="#440E6A"/>
<stop offset="1" stop-color="#191022"/>
</radialGradient>
<linearGradient id="paint1_linear_1_1904" x1="3.0693" y1="6.09082" x2="3.0693" y2="14.3111" gradientUnits="userSpaceOnUse">
<stop stop-color="#655C6B"/>
<stop offset="1" stop-color="#300A4B"/>
</linearGradient>
<radialGradient id="paint2_radial_1_1904" cx="0" cy="0" r="1" gradientUnits="userSpaceOnUse" gradientTransform="translate(232.625 55.9369) rotate(-89.3694) scale(29.2101 179.122)">
<stop/>
<stop offset="0.102" stop-color="#1E1E1E"/>
<stop offset="0.277" stop-color="white"/>
<stop offset="0.442" stop-color="#440E6A"/>
<stop offset="0.701" stop-color="#55485E"/>
<stop offset="0.863" stop-color="#E9E8EA"/>
<stop offset="1" stop-color="white"/>
</radialGradient>
<radialGradient id="paint3_radial_1_1904" cx="0" cy="0" r="1" gradientUnits="userSpaceOnUse" gradientTransform="translate(146.937 14.2857) rotate(-115.862) scale(39.7642 113.329)">
<stop stop-color="#EEDAFC"/>
<stop offset="0.136" stop-color="#D4B2EB"/>
<stop offset="0.32" stop-color="#8941BA"/>
<stop offset="0.44" stop-color="#7727AF"/>
<stop offset="1" stop-color="#6B15A8"/>
</radialGradient>
<linearGradient id="paint4_linear_1_1904" x1="30.368" y1="19.7275" x2="30.368" y2="35.9278" gradientUnits="userSpaceOnUse">
<stop stop-color="#958D9A"/>
<stop offset="1" stop-color="#CCBED7"/>
</linearGradient>
<radialGradient id="paint5_radial_1_1904" cx="0" cy="0" r="1" gradientUnits="userSpaceOnUse" gradientTransform="translate(75.7685 -39.1942) rotate(90.6306) scale(4.80922 29.4913)">
<stop stop-color="white"/>
<stop offset="0.102" stop-color="#E5E3E6"/>
<stop offset="0.277" stop-color="#11031A"/>
<stop offset="0.557" stop-color="#440E6A"/>
<stop offset="1" stop-color="#191022"/>
</radialGradient>
<linearGradient id="paint6_linear_1_1904" x1="14.4545" y1="20.2202" x2="14.4545" y2="21.5736" gradientUnits="userSpaceOnUse">
<stop stop-color="#655C6B"/>
<stop offset="1" stop-color="#300A4B"/>
</linearGradient>
<radialGradient id="paint7_radial_1_1904" cx="0" cy="0" r="1" gradientUnits="userSpaceOnUse" gradientTransform="translate(101.279 78.3713) rotate(-89.3694) scale(4.80948 29.4917)">
<stop/>
<stop offset="0.102" stop-color="#1E1E1E"/>
<stop offset="0.277" stop-color="white"/>
<stop offset="0.442" stop-color="#440E6A"/>
<stop offset="0.701" stop-color="#55485E"/>
<stop offset="0.863" stop-color="#E9E8EA"/>
<stop offset="1" stop-color="white"/>
</radialGradient>
<radialGradient id="paint8_radial_1_1904" cx="0" cy="0" r="1" gradientUnits="userSpaceOnUse" gradientTransform="translate(109.704 66.6196) rotate(-115.862) scale(6.54694 18.659)">
<stop stop-color="#EEDAFC"/>
<stop offset="0.136" stop-color="#D4B2EB"/>
<stop offset="0.32" stop-color="#8941BA"/>
<stop offset="0.44" stop-color="#7727AF"/>
<stop offset="1" stop-color="#6B15A8"/>
</radialGradient>
<linearGradient id="paint9_linear_1_1904" x1="18.9494" y1="22.4653" x2="18.9494" y2="25.1326" gradientUnits="userSpaceOnUse">
<stop stop-color="#958D9A"/>
<stop offset="1" stop-color="#CCBED7"/>
</linearGradient>
<clipPath id="clip0_1_1904">
<rect width="128" height="48" fill="white"/>
</clipPath>
</defs>
</svg>
