<svg width="14" height="22" viewBox="0 0 14 22" fill="none" xmlns="http://www.w3.org/2000/svg">
<path d="M2.12229 15.8164H2.10894H2.10836C1.98039 15.8144 1.85315 15.7966 1.72956 15.7633C1.60031 15.7286 1.47496 15.6808 1.35549 15.6205C1.10288 15.4915 0.873829 15.321 0.677954 15.1159C0.577233 15.0114 0.485181 14.8988 0.402706 14.7794C0.320551 14.6606 0.248925 14.5348 0.188643 14.4036C0.0676413 14.1473 0.00345927 13.8679 0.000488281 13.5845L0.0276635 4.47007C0.0276635 4.32318 0.012646 4.17771 0.0366719 3.16521C0.0359882 2.81223 0.106593 2.46275 0.244257 2.1377C0.376849 1.82408 0.569089 1.53917 0.810313 1.29877C1.05087 1.05768 1.33596 0.86555 1.64977 0.73303C1.97503 0.595387 2.32475 0.524765 2.67797 0.525395H10.168C10.4515 0.528362 10.7311 0.592503 10.9876 0.713431C11.1189 0.773672 11.2447 0.845253 11.3636 0.927358C11.4831 1.00977 11.5957 1.10175 11.7003 1.2024C11.9055 1.39817 12.0761 1.62709 12.2051 1.87954C12.2654 1.99894 12.3133 2.12421 12.348 2.25337C12.3813 2.37689 12.3991 2.50405 12.4011 2.63194C12.4055 3.05267 12.2097 3.48451 11.8499 3.84789C11.6288 4.06936 11.3685 4.24789 11.0821 4.37439C10.938 4.43833 10.7879 4.48799 10.634 4.52265C10.481 4.55724 10.3248 4.57493 10.168 4.5754H4.05294V13.5845C4.05117 13.865 3.99647 14.1426 3.89171 14.4028C3.84015 14.5334 3.77784 14.6595 3.7054 14.7798C3.63374 14.899 3.55238 15.0121 3.46214 15.1179C3.37394 15.2213 3.27688 15.3169 3.17205 15.4035C3.07059 15.4876 2.96115 15.5614 2.84528 15.6241C2.62406 15.7474 2.37555 15.8135 2.12229 15.8164ZM2.72674 1.03165C1.49983 1.03165 0.574649 2.03399 0.574649 3.36319C0.553735 4.42458 0.543169 4.55288 0.543169 4.68034V13.1828C0.54252 13.6602 0.691597 14.1259 0.969448 14.5144C1.25635 14.9029 1.64026 15.1192 2.05047 15.1235H2.06256C2.4694 15.1235 2.88088 14.9021 3.19148 14.516C3.49551 14.1375 3.66369 13.668 3.66911 13.1827V4.66262C3.67013 4.62392 3.67457 4.58538 3.68239 4.54745V4.54677C3.68767 4.52619 3.69248 4.50605 3.69711 4.48659C3.72327 4.37652 3.74589 4.28142 3.8387 4.18118C3.95861 4.05169 4.15104 4.04793 4.17257 4.04793H4.17372L9.746 4.0471C10.3021 4.0471 10.8833 3.80898 11.2629 3.42564C11.5445 3.14123 11.6915 2.80927 11.6879 2.46564C11.6837 2.0597 11.4672 1.68887 11.0785 1.4215C10.7185 1.17376 10.2328 1.03165 9.74625 1.03165H2.72674Z" fill="url(#paint0_radial_33_6534)"/>
<path d="M0.56476 3.36816H0.0400981L0.0180664 7.20483H0.542728L0.56476 3.36816Z" fill="url(#paint1_linear_33_6534)"/>
<path d="M2.06232 15.1236H2.05023C1.17727 15.1145 0.542969 14.1553 0.542969 13.1828V4.68036C0.542933 4.55273 0.553462 4.42531 0.574448 4.29941V3.36328C0.574448 2.09559 1.45805 1.03174 2.72654 1.03174H9.74616C10.7192 1.03174 11.679 1.59332 11.6881 2.46573C11.6972 3.33815 10.7192 4.04719 9.74608 4.04719L4.17381 4.04806C4.17381 4.04806 3.965 4.04495 3.83879 4.18127C3.72926 4.29963 3.7171 4.41238 3.68251 4.54686C3.6745 4.58494 3.67 4.62367 3.66905 4.66257V13.1828C3.66905 14.1508 2.9309 15.1236 2.0625 15.1236H2.06232Z" fill="#6B16A8"/>
<path d="M2.10788 15.8163C1.10396 15.8059 2.25351e-07 14.7028 2.25351e-07 13.5845V4.47194C-6.02277e-05 4.32517 0.0120423 4.17864 0.0361838 4.03386V3.16513C0.0361838 2.46503 0.314474 1.7936 0.809833 1.29855C1.30519 0.803505 1.97704 0.525391 2.67759 0.525391L10.1676 0.525391C11.2867 0.525391 12.3904 1.62866 12.4008 2.63194C12.4113 3.63522 11.2867 4.5754 10.1676 4.5754H4.05256V13.5845C4.05256 14.6977 3.12051 15.8165 2.12177 15.8164L2.10788 15.8163Z" fill="#6B16A8"/>
<path d="M11.1834 6.70898H11.1967H11.1973C11.3253 6.71097 11.4525 6.72879 11.5761 6.76203C11.7054 6.79674 11.8307 6.8446 11.9502 6.90487C12.2028 7.03383 12.4319 7.20444 12.6279 7.40953C12.7286 7.51406 12.8206 7.6266 12.9031 7.74604C12.9853 7.86485 13.0569 7.9906 13.1172 8.12186C13.2382 8.37816 13.3023 8.65756 13.3053 8.94094L13.2781 18.0554C13.2781 18.2023 13.2932 18.3477 13.2691 19.3602C13.2698 19.7132 13.1992 20.0627 13.0615 20.3877C12.929 20.7014 12.7367 20.9863 12.4955 21.2267C12.2549 21.4678 11.9698 21.6599 11.656 21.7924C11.3308 21.93 10.9811 22.0006 10.6279 21.9999H3.13787C2.85431 21.9969 2.57474 21.9328 2.31828 21.8118C2.18694 21.7516 2.06111 21.68 1.94222 21.5979C1.82271 21.5155 1.7101 21.4235 1.6055 21.3229C1.40033 21.1271 1.22963 20.8982 1.10059 20.6458C1.04029 20.5264 0.992395 20.4011 0.957668 20.2719C0.924331 20.1484 0.906428 20.0213 0.904369 19.8934C0.899991 19.4727 1.09574 19.0409 1.45563 18.6775C1.67671 18.456 1.93703 18.2775 2.22333 18.151C2.3675 18.087 2.5176 18.0374 2.67147 18.0027C2.82445 17.9682 2.98077 17.9505 3.13762 17.9501H9.25265V8.94094C9.25441 8.66045 9.30912 8.38281 9.41388 8.12258C9.46544 7.99198 9.52775 7.86587 9.60019 7.74557C9.67185 7.62641 9.75321 7.51335 9.84345 7.40754C9.93165 7.30407 10.0287 7.20848 10.1335 7.12187C10.235 7.03786 10.3444 6.96398 10.4603 6.90129C10.6815 6.77802 10.9301 6.71191 11.1834 6.70898V6.70898ZM10.5791 21.4937C11.806 21.4937 12.7312 20.4914 12.7312 19.1622C12.7521 18.1008 12.7627 17.9725 12.7627 17.845V9.34265C12.7633 8.86516 12.6142 8.39947 12.3364 8.01103C12.0495 7.62251 11.6656 7.4062 11.2554 7.4019H11.2433C10.8364 7.4019 10.425 7.62335 10.1144 8.0094C9.81034 8.38792 9.64216 8.85741 9.63674 9.34276V17.8627C9.63572 17.9015 9.63127 17.94 9.62346 17.9779V17.9786C9.61817 17.9992 9.61336 18.0193 9.60873 18.0388C9.58257 18.1489 9.55995 18.244 9.46714 18.3442C9.34723 18.4737 9.15481 18.4774 9.13328 18.4774H9.13212L3.55985 18.4783C3.00378 18.4783 2.42256 18.7164 2.04296 19.0997C1.7613 19.3841 1.61433 19.7161 1.61791 20.0597C1.62214 20.4657 1.83863 20.8365 2.22739 21.1039C2.58763 21.3516 3.07332 21.4937 3.55985 21.4937H10.5791Z" fill="url(#paint2_radial_33_6534)"/>
<path d="M11.243 7.40186H11.2551C12.1281 7.41097 12.7624 8.37013 12.7624 9.34261V17.8451C12.7624 17.9727 12.7519 18.1001 12.7309 18.226V19.1622C12.7309 20.4299 11.8473 21.4938 10.5788 21.4938H3.55919C2.5861 21.4938 1.62633 20.9322 1.61725 20.0598C1.60817 19.1873 2.5861 18.4783 3.55919 18.4783L9.13146 18.4774C9.13146 18.4774 9.34027 18.4805 9.46648 18.3442C9.57601 18.2259 9.58817 18.1131 9.62276 17.9786C9.63077 17.9406 9.63527 17.9018 9.63622 17.8629V9.34264C9.63622 8.37469 10.3744 7.40189 11.2428 7.40186H11.243Z" fill="url(#paint3_radial_33_6534)"/>
<path d="M12.7627 9.73291V17.2941H13.2837L13.3026 9.73363L12.7627 9.73291Z" fill="url(#paint4_linear_33_6534)"/>
<path d="M11.1973 6.70898C12.2012 6.71947 13.3052 7.82252 13.3052 8.94087V18.0534C13.3053 18.2002 13.2932 18.3467 13.269 18.4915V19.3602C13.269 20.0603 12.9907 20.7317 12.4954 21.2268C12 21.7218 11.3282 21.9999 10.6276 21.9999H3.13762C2.01853 21.9999 0.914826 20.8967 0.904369 19.8934C0.893912 18.8901 2.01857 17.95 3.13762 17.95H9.25265V8.94094C9.25265 7.82769 10.1847 6.70898 11.1834 6.70898H11.1973Z" fill="#6B16A8"/>
<path d="M5.90697 12.0122H5.90465C5.88358 12.0119 5.86263 12.0089 5.84227 12.0034C5.82102 11.9977 5.80041 11.9898 5.78076 11.9799C5.73916 11.9587 5.70145 11.9305 5.66921 11.8968C5.65261 11.8796 5.63744 11.8611 5.62383 11.8415C5.61031 11.8219 5.59852 11.8012 5.58859 11.7796C5.56867 11.7374 5.5581 11.6914 5.55762 11.6447L5.5621 10.144C5.5621 10.1199 5.55964 10.0959 5.56359 9.92921C5.56348 9.8711 5.57511 9.81356 5.59778 9.76005C5.61961 9.70841 5.65127 9.6615 5.69099 9.62192C5.73054 9.58226 5.7774 9.55063 5.82899 9.5288C5.8826 9.50612 5.94023 9.4945 5.99844 9.49463H7.23161C7.2783 9.49512 7.32432 9.50568 7.36654 9.52558C7.38817 9.5355 7.40888 9.54729 7.42845 9.5608C7.44813 9.57437 7.46667 9.58951 7.48389 9.60608C7.5177 9.6383 7.54584 9.67599 7.56711 9.71756C7.57703 9.7372 7.58491 9.75779 7.59063 9.77903C7.5961 9.79938 7.59903 9.82032 7.59935 9.84138C7.5982 9.87908 7.58958 9.91618 7.57401 9.95054C7.55843 9.9849 7.5362 10.0158 7.5086 10.0416C7.47221 10.0781 7.42936 10.1075 7.38221 10.1283C7.35848 10.1389 7.33377 10.1471 7.30843 10.1528C7.28325 10.1585 7.25751 10.1614 7.23169 10.1614H6.22484V11.6447C6.22455 11.6909 6.21554 11.7366 6.19828 11.7795C6.18979 11.801 6.17953 11.8217 6.1676 11.8415C6.1558 11.8612 6.1424 11.8798 6.12754 11.8972C6.11302 11.9142 6.09704 11.9299 6.07978 11.9442C6.06307 11.958 6.04505 11.9701 6.02598 11.9804C5.98958 12.0007 5.94867 12.0116 5.90697 12.0122ZM6.00648 9.57798C5.80446 9.57798 5.65213 9.74302 5.65213 9.96186C5.64851 10.1366 5.64695 10.1577 5.64695 10.1788V11.5786C5.64685 11.6572 5.6714 11.7339 5.71715 11.7978C5.73682 11.8274 5.7632 11.8518 5.79413 11.8693C5.82506 11.8867 5.85967 11.8966 5.89514 11.8981H5.89713C5.93361 11.8963 5.96923 11.8864 6.00139 11.8691C6.03355 11.8518 6.06143 11.8275 6.083 11.7981C6.13305 11.7357 6.16074 11.6584 6.16163 11.5785V10.1758C6.1618 10.1694 6.16252 10.1631 6.1638 10.1568C6.16467 10.1534 6.16547 10.1502 6.16623 10.1469C6.169 10.1283 6.17709 10.1108 6.18953 10.0966C6.20439 10.0826 6.22404 10.0748 6.24449 10.0747H6.24467H7.16214C7.25544 10.0739 7.34486 10.0373 7.41181 9.97235C7.43351 9.95206 7.45089 9.9276 7.46291 9.90044C7.47493 9.87329 7.48135 9.84399 7.48179 9.81429C7.48045 9.77961 7.4706 9.74579 7.4531 9.71581C7.43561 9.68584 7.411 9.66062 7.38145 9.64238C7.31625 9.59985 7.23993 9.57752 7.16207 9.5782L6.00648 9.57798Z" fill="url(#paint5_radial_33_6534)"/>
<path d="M5.65068 9.9624H5.56417L5.56055 10.5941H5.64688L5.65068 9.9624Z" fill="url(#paint6_linear_33_6534)"/>
<path d="M5.89715 11.8978H5.89515C5.75143 11.8963 5.64697 11.7384 5.64697 11.5783V10.1784C5.64697 10.1574 5.6487 10.1364 5.65215 10.1157V9.96152C5.65215 9.7528 5.79764 9.57764 6.00649 9.57764H7.1622C7.32242 9.57764 7.48043 9.6701 7.48191 9.81373C7.4834 9.95736 7.32242 10.0741 7.1622 10.0741H6.24472C6.22428 10.0743 6.20465 10.0822 6.18976 10.0962C6.17564 10.1133 6.16666 10.1342 6.16389 10.1562C6.16257 10.1625 6.16183 10.1689 6.16168 10.1753V11.5782C6.16168 11.7376 6.04014 11.8977 5.89718 11.8978H5.89715Z" fill="#6B16A8"/>
<path d="M5.90465 12.0122C5.73937 12.0104 5.55762 11.8288 5.55762 11.6447V10.1444C5.55761 10.1202 5.55961 10.0961 5.56359 10.0723V9.92925C5.56359 9.81398 5.6094 9.70344 5.69095 9.62194C5.7725 9.54043 5.88311 9.49464 5.99844 9.49463H7.23161C7.41586 9.49463 7.59758 9.67626 7.59931 9.84145C7.60105 10.0066 7.41586 10.1614 7.23161 10.1614H6.22484V11.6447C6.22484 11.828 6.07139 12.0122 5.90693 12.0122H5.90465Z" fill="#6B16A8"/>
<path d="M7.39889 10.5127H7.4012C7.42228 10.513 7.44323 10.5159 7.46358 10.5214C7.48484 10.5271 7.50545 10.535 7.52509 10.5449C7.56669 10.5662 7.6044 10.5943 7.63665 10.6281C7.6533 10.6453 7.66852 10.6638 7.68217 10.6834C7.69569 10.703 7.70748 10.7237 7.71741 10.7453C7.73733 10.7875 7.74789 10.8335 7.74838 10.8802L7.7439 12.3808C7.7439 12.405 7.74636 12.429 7.74241 12.5957C7.74252 12.6538 7.73089 12.7113 7.70822 12.7648C7.68639 12.8165 7.65473 12.8634 7.61501 12.903C7.5754 12.9427 7.52846 12.9743 7.47679 12.9961C7.42324 13.0188 7.36567 13.0304 7.30752 13.0303H6.07435C6.02767 13.0298 5.98164 13.0192 5.93942 12.9993C5.9178 12.9894 5.89708 12.9776 5.87751 12.9641C5.85783 12.9505 5.8393 12.9354 5.82208 12.9188C5.78826 12.8866 5.76013 12.8489 5.73886 12.8074C5.72893 12.7877 5.72105 12.7671 5.71533 12.7459C5.70983 12.7255 5.70688 12.7045 5.70654 12.6834C5.7077 12.6457 5.71631 12.6086 5.73188 12.5743C5.74746 12.5399 5.76969 12.509 5.79729 12.4832C5.83369 12.4468 5.87653 12.4175 5.92364 12.3967C5.94738 12.3861 5.97209 12.378 5.99742 12.3723C6.02261 12.3666 6.04834 12.3637 6.07417 12.3636H7.08098V10.8802C7.08127 10.834 7.09028 10.7883 7.10754 10.7454C7.11603 10.7239 7.12629 10.7031 7.13822 10.6833C7.15002 10.6637 7.16342 10.6451 7.17827 10.6277C7.1928 10.6107 7.20878 10.5949 7.22604 10.5807C7.24275 10.5669 7.26077 10.5548 7.27984 10.5445C7.31625 10.5242 7.35717 10.5132 7.39889 10.5127V10.5127ZM7.29938 12.9469C7.50139 12.9469 7.65373 12.7819 7.65373 12.563C7.65735 12.3882 7.6589 12.3672 7.6589 12.346V10.9463C7.65901 10.8677 7.63446 10.791 7.58871 10.7271C7.56904 10.6975 7.54268 10.6731 7.51176 10.6556C7.48085 10.6382 7.44625 10.6283 7.41079 10.6268H7.4088C7.37232 10.6286 7.3367 10.6385 7.30454 10.6558C7.27238 10.6731 7.2445 10.6973 7.22293 10.7268C7.17287 10.7891 7.14519 10.8664 7.1443 10.9463V12.3491C7.14413 12.3555 7.14341 12.3618 7.14213 12.368C7.14126 12.3714 7.14046 12.3747 7.1397 12.3779C7.13693 12.3966 7.12884 12.4141 7.1164 12.4282C7.10153 12.4423 7.08188 12.4501 7.06144 12.4502H7.06126H6.14378C6.05049 12.4509 5.96107 12.4876 5.89412 12.5525C5.87242 12.5728 5.85504 12.5973 5.84302 12.6244C5.831 12.6516 5.82457 12.6809 5.82414 12.7106C5.82548 12.7453 5.83533 12.7791 5.85282 12.8091C5.87032 12.839 5.89493 12.8643 5.92448 12.8825C5.98968 12.925 6.066 12.9474 6.14386 12.9467L7.29938 12.9469Z" fill="url(#paint7_radial_33_6534)"/>
<path d="M7.40903 10.627H7.41102C7.55475 10.6284 7.65921 10.7864 7.65921 10.9465V12.3464C7.65921 12.3674 7.65748 12.3883 7.65403 12.4091V12.5632C7.65403 12.7719 7.50854 12.9471 7.29969 12.9471H6.14395C5.98373 12.9471 5.82571 12.8546 5.82423 12.711C5.82275 12.5674 5.98373 12.4507 6.14395 12.4507H7.06142C7.08191 12.4505 7.1016 12.4427 7.11656 12.4287C7.13067 12.4115 7.13959 12.3906 7.14229 12.3685C7.14361 12.3622 7.14435 12.3558 7.1445 12.3494V10.9465C7.1445 10.7871 7.26604 10.627 7.409 10.627H7.40903Z" fill="url(#paint8_radial_33_6534)"/>
<path d="M7.65918 11.0103V12.2552H7.74497L7.74808 11.0104L7.65918 11.0103Z" fill="url(#paint9_linear_33_6534)"/>
<path d="M7.40125 10.5127C7.56654 10.5144 7.74829 10.696 7.74829 10.8802V12.3805C7.74829 12.4046 7.7463 12.4288 7.74232 12.4526V12.5956C7.74232 12.7108 7.6965 12.8214 7.61494 12.9029C7.53338 12.9844 7.42277 13.0302 7.30743 13.0302H6.07425C5.89001 13.0302 5.70829 12.8485 5.70656 12.6834C5.70482 12.5182 5.89001 12.3634 6.07425 12.3634H7.08106V10.8802C7.08106 10.6969 7.23451 10.5127 7.39897 10.5127H7.40125Z" fill="#6B16A8"/>
<defs>
<radialGradient id="paint0_radial_33_6534" cx="0" cy="0" r="1" gradientUnits="userSpaceOnUse" gradientTransform="translate(31.1723 -23.7286) rotate(90.6306) scale(13.633 83.6028)">
<stop stop-color="white"/>
<stop offset="0.102" stop-color="#E5E3E6"/>
<stop offset="0.277" stop-color="#11031A"/>
<stop offset="0.557" stop-color="#440E6A"/>
<stop offset="1" stop-color="#191022"/>
</radialGradient>
<linearGradient id="paint1_linear_33_6534" x1="0.291413" y1="3.36816" x2="0.291413" y2="7.20483" gradientUnits="userSpaceOnUse">
<stop stop-color="#655C6B"/>
<stop offset="1" stop-color="#300A4B"/>
</linearGradient>
<radialGradient id="paint2_radial_33_6534" cx="0" cy="0" r="1" gradientUnits="userSpaceOnUse" gradientTransform="translate(107.433 26.6331) rotate(-89.3694) scale(13.6334 83.6022)">
<stop/>
<stop offset="0.102" stop-color="#1E1E1E"/>
<stop offset="0.277" stop-color="white"/>
<stop offset="0.442" stop-color="#440E6A"/>
<stop offset="0.701" stop-color="#55485E"/>
<stop offset="0.863" stop-color="#E9E8EA"/>
<stop offset="1" stop-color="white"/>
</radialGradient>
<radialGradient id="paint3_radial_33_6534" cx="0" cy="0" r="1" gradientUnits="userSpaceOnUse" gradientTransform="translate(67.4392 7.19299) rotate(-115.862) scale(18.5593 52.8946)">
<stop stop-color="#EEDAFC"/>
<stop offset="0.136" stop-color="#D4B2EB"/>
<stop offset="0.32" stop-color="#8941BA"/>
<stop offset="0.44" stop-color="#7727AF"/>
<stop offset="1" stop-color="#6B15A8"/>
</radialGradient>
<linearGradient id="paint4_linear_33_6534" x1="13.0326" y1="9.73291" x2="13.0326" y2="17.2941" gradientUnits="userSpaceOnUse">
<stop stop-color="#958D9A"/>
<stop offset="1" stop-color="#CCBED7"/>
</linearGradient>
<radialGradient id="paint5_radial_33_6534" cx="0" cy="0" r="1" gradientUnits="userSpaceOnUse" gradientTransform="translate(34.2229 -17.7681) rotate(90.6306) scale(2.24463 13.7646)">
<stop stop-color="white"/>
<stop offset="0.102" stop-color="#E5E3E6"/>
<stop offset="0.277" stop-color="#11031A"/>
<stop offset="0.557" stop-color="#440E6A"/>
<stop offset="1" stop-color="#191022"/>
</radialGradient>
<linearGradient id="paint6_linear_33_6534" x1="5.60561" y1="9.9624" x2="5.60561" y2="10.5941" gradientUnits="userSpaceOnUse">
<stop stop-color="#655C6B"/>
<stop offset="1" stop-color="#300A4B"/>
</linearGradient>
<radialGradient id="paint7_radial_33_6534" cx="0" cy="0" r="1" gradientUnits="userSpaceOnUse" gradientTransform="translate(46.1293 37.1038) rotate(-89.3694) scale(2.24475 13.7648)">
<stop/>
<stop offset="0.102" stop-color="#1E1E1E"/>
<stop offset="0.277" stop-color="white"/>
<stop offset="0.442" stop-color="#440E6A"/>
<stop offset="0.701" stop-color="#55485E"/>
<stop offset="0.863" stop-color="#E9E8EA"/>
<stop offset="1" stop-color="white"/>
</radialGradient>
<radialGradient id="paint8_radial_33_6534" cx="0" cy="0" r="1" gradientUnits="userSpaceOnUse" gradientTransform="translate(50.0619 31.619) rotate(-115.862) scale(3.05568 8.70879)">
<stop stop-color="#EEDAFC"/>
<stop offset="0.136" stop-color="#D4B2EB"/>
<stop offset="0.32" stop-color="#8941BA"/>
<stop offset="0.44" stop-color="#7727AF"/>
<stop offset="1" stop-color="#6B15A8"/>
</radialGradient>
<linearGradient id="paint9_linear_33_6534" x1="7.70363" y1="11.0103" x2="7.70363" y2="12.2552" gradientUnits="userSpaceOnUse">
<stop stop-color="#958D9A"/>
<stop offset="1" stop-color="#CCBED7"/>
</linearGradient>
</defs>
</svg>
