<svg width="16" height="17" viewBox="0 0 16 17" fill="none" xmlns="http://www.w3.org/2000/svg">
<path d="M8.00509 16.2643H7.90703C7.20556 16.2419 6.53163 15.986 5.99218 15.5371C5.43474 15.0648 4.92674 14.537 4.47605 13.962C4.40629 13.8765 4.33382 13.7937 4.26362 13.7086C4.18351 13.6258 4.10075 13.5403 4.02064 13.4602C3.19285 12.6625 2.47341 11.7595 1.88078 10.7745C1.30673 9.82307 0.998661 8.73499 0.988813 7.62387C0.977366 6.7125 1.15096 5.80823 1.49904 4.96587C1.84713 4.12351 2.36246 3.36057 3.01391 2.72312C3.66847 2.07889 4.44532 1.57211 5.29869 1.23264C6.15613 0.892078 7.07227 0.723875 7.99476 0.737626H8.01009C8.92802 0.723659 9.83968 0.890609 10.6931 1.22901C11.544 1.56575 12.3196 2.06795 12.9752 2.70647C13.6251 3.3398 14.1406 4.09763 14.4909 4.93472C14.8413 5.77181 15.0193 6.67095 15.0142 7.57839V7.62338C15.0006 8.7328 14.6925 9.81872 14.1214 10.77C13.5272 11.7531 12.8079 12.655 11.9815 13.453C11.9041 13.5304 11.8235 13.6132 11.7407 13.6987C11.6683 13.7842 11.5959 13.8697 11.5261 13.9548C11.0762 14.5314 10.5681 15.0603 10.01 15.533C9.47052 15.9819 8.7966 16.2379 8.09512 16.2602L8.00509 16.2643ZM8.11627 4.96466C7.6667 4.96467 7.22689 5.09588 6.85081 5.34223C6.47791 5.58747 6.18613 5.93784 6.0124 6.34895C5.84055 6.75793 5.79588 7.20918 5.88418 7.64392C5.97248 8.07866 6.18963 8.47675 6.50741 8.78628C6.82814 9.10023 7.2337 9.31352 7.67411 9.39995C8.11451 9.48639 8.57057 9.44216 8.98616 9.27273C9.40126 9.10525 9.75705 8.81793 10.0082 8.44739C10.3004 8.01805 10.4321 7.49943 10.38 6.98268C10.3279 6.46592 10.0954 5.98405 9.72332 5.62168C9.294 5.20132 8.71756 4.9651 8.11671 4.96329L8.11627 4.96466Z" fill="#4D4F60"/>
</svg>
