<svg width="15" height="16" viewBox="0 0 15 16" fill="none" xmlns="http://www.w3.org/2000/svg">
<path fill-rule="evenodd" clip-rule="evenodd" d="M2.6421 2.83329C2.66063 2.56225 2.77646 2.30625 2.96929 2.11298L3.91703 1.1671C4.1311 0.955684 4.41999 0.837112 4.72103 0.837112C5.02206 0.837112 5.31096 0.955684 5.52503 1.1671L7.56106 2.83329H7.68559L9.72318 1.1671C9.9373 0.955776 10.2262 0.837271 10.5272 0.837271C10.8282 0.837271 11.1171 0.955776 11.3312 1.1671L12.2785 2.11338C12.4727 2.30584 12.5894 2.56192 12.6082 2.83329H12.6321C12.8782 2.81286 13.1259 2.84625 13.3578 2.93114C13.5897 3.01603 13.8003 3.15038 13.975 3.32484C14.1496 3.49931 14.2841 3.70969 14.3691 3.94135C14.4541 4.17301 14.4875 4.42038 14.4671 4.66626V5.33258C14.4875 5.5786 14.454 5.82612 14.3689 6.05789C14.2838 6.28965 14.1491 6.50009 13.9742 6.67454C13.8218 6.82654 13.6421 6.94803 13.4449 7.03283V11.9969C13.4449 14.2763 12.5572 15.1641 10.2753 15.1641H4.93763C2.65576 15.1641 1.76848 14.2763 1.76848 11.9969V7.01484C1.13538 6.75694 0.787109 6.17527 0.787109 5.33258V4.66626C0.787109 3.49961 1.45417 2.83329 2.62213 2.83329H2.6421ZM3.66999 2.83289H6.18528L4.81752 1.87301C4.79185 1.84744 4.75708 1.83308 4.72083 1.83308C4.68458 1.83308 4.6498 1.84744 4.62413 1.87301L3.67679 2.81969C3.67679 2.82309 3.67509 2.82479 3.67339 2.82649C3.67175 2.82812 3.67012 2.82976 3.66999 2.83289ZM13.4661 5.33258C13.4661 5.90533 13.2304 6.15407 12.6723 6.16527H2.57887C2.00431 6.15451 1.7881 5.92428 1.7881 5.33258V4.66626C1.7881 4.05954 2.01473 3.83316 2.62213 3.83316H12.6321C13.2191 3.83316 13.4661 4.07993 13.4661 4.66626V5.33258ZM5.08415 7.16515H2.76947V11.9969C2.76947 13.7163 3.21632 14.1643 4.93763 14.1643H10.2753C11.997 14.1643 12.4439 13.7179 12.4439 11.9981V7.16515H10.1151V10.8847C10.1155 11.0958 10.0582 11.3031 9.94959 11.4842C9.84094 11.6653 9.68499 11.8135 9.49844 11.9128C9.3119 12.0121 9.1018 12.0588 8.8907 12.0479C8.6796 12.0371 8.47545 11.969 8.30014 11.851L7.70635 11.451C7.67911 11.4315 7.64641 11.4209 7.61286 11.4209C7.57931 11.4209 7.54661 11.4315 7.51937 11.451L6.89235 11.8638C6.70388 11.9934 6.48056 12.0632 6.25171 12.0637C5.94215 12.0634 5.64536 11.9404 5.42647 11.7218C5.20758 11.5032 5.08447 11.2067 5.08415 10.8975V7.16515ZM6.08514 7.16515H9.11415V10.8775C9.11418 10.9078 9.106 10.9375 9.09046 10.9635C9.07492 10.9895 9.05262 11.0108 9.02592 11.0252C8.99923 11.0396 8.96913 11.0464 8.93884 11.0451C8.90855 11.0437 8.87919 11.0342 8.85389 11.0175L8.2601 10.6175C8.06942 10.4906 7.8454 10.4229 7.61626 10.4229C7.38713 10.4229 7.16311 10.4906 6.97242 10.6175L6.3454 11.0307C6.3201 11.0474 6.29075 11.0569 6.26046 11.0583C6.23017 11.0596 6.20007 11.0528 6.17337 11.0384C6.14667 11.024 6.12437 11.0027 6.10884 10.9767C6.0933 10.9507 6.08511 10.921 6.08514 10.8907V7.16515ZM9.07454 2.83329H11.5902L10.6293 1.87341C10.6036 1.84784 10.5688 1.83348 10.5326 1.83348C10.4963 1.83348 10.4616 1.84784 10.4359 1.87341L9.07454 2.83329Z" fill="#6E7191"/>
</svg>
