<svg width="15" height="14" viewBox="0 0 15 14" fill="none" xmlns="http://www.w3.org/2000/svg">
<path fill-rule="evenodd" clip-rule="evenodd" d="M6.35294 9.42085H8.08412C9.02653 9.32698 9.60118 8.92937 9.80809 8.22802C9.93997 7.55334 9.80462 7.09319 9.40202 6.84759C9.68958 6.58972 9.87914 6.24056 9.93864 5.85917C9.95652 5.07061 9.54165 4.6618 8.69401 4.63273H6.71495C6.35863 4.61759 6.00885 4.73172 5.73019 4.95405C5.45152 5.17638 5.26279 5.49189 5.19882 5.84236C5.1791 6.02257 5.19792 6.20491 5.25405 6.37731C5.31018 6.54971 5.40232 6.70823 5.52439 6.84239C5.29099 6.98504 5.10341 7.19153 4.98389 7.43739C4.86437 7.68326 4.81791 7.95819 4.85002 8.22962C4.92184 8.93204 5.42281 9.32912 6.35294 9.42085ZM8.07731 8.29483H6.37656C6.13068 8.21669 6.01615 8.08482 6.03297 7.89921C6.04319 7.80628 6.08259 7.71896 6.14553 7.64976C6.20848 7.58056 6.29173 7.53304 6.38337 7.514H8.17822C8.49993 7.56761 8.63341 7.70668 8.57868 7.93121C8.55148 8.04116 8.48624 8.13797 8.39449 8.20451C8.30274 8.27105 8.19039 8.30304 8.07731 8.29483ZM8.20145 6.43518H6.6717C6.44131 6.35145 6.3452 6.2113 6.38337 6.01477C6.39911 5.9211 6.44741 5.83598 6.51978 5.77437C6.59214 5.71277 6.68394 5.67863 6.77902 5.67796H8.3324C8.60498 5.72916 8.71457 5.8637 8.66118 6.08157C8.63817 6.18498 8.57954 6.27703 8.49552 6.34166C8.41149 6.40629 8.30741 6.43939 8.20145 6.43518Z" fill="#6E7191"/>
<path fill-rule="evenodd" clip-rule="evenodd" d="M4.35129 1.08697V0.608171C4.35203 0.48109 4.40289 0.359424 4.49285 0.269563C4.58282 0.179702 4.70462 0.128893 4.83184 0.128159C4.95906 0.128893 5.08087 0.179702 5.17083 0.269563C5.26079 0.359424 5.31165 0.48109 5.31239 0.608171V1.08697H9.47121V0.608171C9.47194 0.48109 9.52281 0.359424 9.61277 0.269563C9.70273 0.179702 9.82453 0.128893 9.95176 0.128159C10.079 0.128893 10.2008 0.179702 10.2907 0.269563C10.3807 0.359424 10.4316 0.48109 10.4323 0.608171V1.08697H10.5542C13.1872 1.23418 14.2103 2.46781 14.2103 5.49788V9.44198C14.2103 12.1784 13.4871 13.8725 9.8906 13.8725H4.89289C1.29598 13.8725 0.572754 12.1784 0.572754 9.44238V5.49828C0.572754 2.46781 1.59672 1.23418 4.22693 1.08697H4.35129ZM4.83184 3.00503C4.70469 3.0043 4.58294 2.95354 4.49299 2.86377C4.40304 2.77399 4.35213 2.65243 4.35129 2.52542V2.047H4.25256C2.46051 2.1494 1.53265 2.71181 1.53265 5.49908V9.44318C1.53265 9.69997 1.53779 9.94107 1.55033 10.167C1.62296 10.1245 1.70608 10.1014 1.79165 10.1009H12.9908C13.0765 10.1014 13.1597 10.1246 13.2324 10.1671C13.2449 9.94116 13.25 9.70001 13.25 9.44318V5.49908C13.25 2.71821 12.329 2.1494 10.5173 2.047H10.4323V2.52542C10.4315 2.65243 10.3806 2.77399 10.2906 2.86377C10.2007 2.95354 10.0789 3.0043 9.95176 3.00503C9.8246 3.0043 9.70286 2.95354 9.61291 2.86377C9.52296 2.77399 9.47205 2.65243 9.47121 2.52542V2.047H5.31239V2.52542C5.31155 2.65243 5.26064 2.77399 5.17069 2.86377C5.08074 2.95354 4.95899 3.0043 4.83184 3.00503ZM4.89249 12.9145C2.73518 12.9145 1.92689 12.3455 1.65537 11.0405C1.69921 11.0536 1.74506 11.0606 1.79165 11.0609H12.9908C13.0375 11.0606 13.0835 11.0536 13.1274 11.0404C12.856 12.3455 12.0479 12.9145 9.8902 12.9145H4.89249Z" fill="#6E7191"/>
</svg>
