<svg width="16" height="16" viewBox="0 0 16 16" fill="none" xmlns="http://www.w3.org/2000/svg">
<path fill-rule="evenodd" clip-rule="evenodd" d="M6.83333 10.7234H8.77873C9.83775 10.6178 10.4835 10.1705 10.716 9.38151C10.8642 8.62249 10.7121 8.10483 10.2597 7.82852C10.5828 7.53843 10.7959 7.14562 10.8627 6.71655C10.8828 5.82943 10.4166 5.36951 9.46409 5.33681H7.24014C6.83972 5.31977 6.44666 5.44817 6.13352 5.69829C5.82037 5.94841 5.60828 6.30337 5.53639 6.69764C5.51423 6.90038 5.53539 7.10551 5.59846 7.29946C5.66153 7.49341 5.76508 7.67175 5.90225 7.82267C5.63997 7.98315 5.42918 8.21545 5.29487 8.49205C5.16056 8.76865 5.10835 9.07795 5.14443 9.38331C5.22514 10.1735 5.7881 10.6202 6.83333 10.7234ZM8.77108 9.45667H6.85988C6.58357 9.36877 6.45487 9.22041 6.47377 9.0116C6.48525 8.90705 6.52952 8.80882 6.60026 8.73097C6.67099 8.65312 6.76455 8.59966 6.86753 8.57824H8.88448C9.24599 8.63854 9.39599 8.795 9.33449 9.0476C9.30393 9.1713 9.23061 9.2802 9.12751 9.35506C9.0244 9.42991 8.89815 9.46591 8.77108 9.45667ZM8.91058 7.36456H7.19154C6.93263 7.27036 6.82463 7.1127 6.86753 6.8916C6.88521 6.78622 6.93949 6.69046 7.02081 6.62116C7.10213 6.55185 7.20529 6.51344 7.31214 6.51269H9.05773C9.36404 6.57029 9.48719 6.72165 9.42719 6.96675C9.40134 7.08309 9.33546 7.18665 9.24103 7.25935C9.14661 7.33206 9.02966 7.3693 8.91058 7.36456Z" fill="#6E7191"/>
<path fill-rule="evenodd" clip-rule="evenodd" d="M4.58399 1.34783V0.809179C4.58482 0.666213 4.64198 0.529338 4.74307 0.428245C4.84417 0.327151 4.98104 0.269992 5.12401 0.269165C5.26697 0.269992 5.40385 0.327151 5.50494 0.428245C5.60603 0.529338 5.66319 0.666213 5.66402 0.809179V1.34783H10.3375V0.809179C10.3383 0.666213 10.3954 0.529338 10.4965 0.428245C10.5976 0.327151 10.7345 0.269992 10.8775 0.269165C11.0204 0.269992 11.1573 0.327151 11.2584 0.428245C11.3595 0.529338 11.4167 0.666213 11.4175 0.809179V1.34783H11.5544C14.5132 1.51343 15.663 2.90127 15.663 6.3101V10.7472C15.663 13.8257 14.8503 15.7315 10.8088 15.7315H5.19261C1.15061 15.7315 0.337891 13.8257 0.337891 10.7477V6.31055C0.337891 2.90127 1.48857 1.51343 4.44424 1.34783H4.58399ZM5.12401 3.50565C4.98112 3.50482 4.84431 3.44772 4.74323 3.34673C4.64215 3.24573 4.58494 3.10897 4.58399 2.96608V2.42786H4.47304C2.45924 2.54306 1.41657 3.17578 1.41657 6.31145V10.7486C1.41657 11.0374 1.42234 11.3087 1.43643 11.5628C1.51805 11.5151 1.61145 11.489 1.70761 11.4885H14.2926C14.3889 11.489 14.4824 11.5151 14.564 11.563C14.5781 11.3088 14.5839 11.0375 14.5839 10.7486V6.31145C14.5839 3.18298 13.5489 2.54306 11.513 2.42786H11.4175V2.96608C11.4165 3.10897 11.3593 3.24573 11.2582 3.34673C11.1572 3.44772 11.0204 3.50482 10.8775 3.50565C10.7346 3.50482 10.5978 3.44772 10.4967 3.34673C10.3956 3.24573 10.3384 3.10897 10.3375 2.96608V2.42786H5.66402V2.96608C5.66307 3.10897 5.60586 3.24573 5.50478 3.34673C5.4037 3.44772 5.26689 3.50482 5.12401 3.50565ZM5.19216 14.6538C2.7679 14.6538 1.85959 14.0137 1.55448 12.5455C1.60373 12.5603 1.65526 12.5682 1.70761 12.5685H14.2926C14.3451 12.5682 14.3967 12.5603 14.4461 12.5454C14.1411 14.0137 13.2329 14.6538 10.8083 14.6538H5.19216Z" fill="#6E7191"/>
</svg>
