<svg width="291" height="245" viewBox="0 0 291 245" fill="none" xmlns="http://www.w3.org/2000/svg">
<path d="M115.463 156.917L108.196 232.182" stroke="#7817BE" stroke-width="3.171" stroke-miterlimit="10"/>
<path d="M138.772 156.917L146.039 232.182" stroke="#7817BE" stroke-width="3.171" stroke-miterlimit="10"/>
<path d="M113.65 175.68H140.699" stroke="#7817BE" stroke-width="3.171" stroke-miterlimit="10"/>
<path d="M112.164 192.284H142.186" stroke="#7817BE" stroke-width="3.341" stroke-miterlimit="10"/>
<path d="M141.945 150.894H112.29C110.029 150.894 108.196 152.725 108.196 154.985C108.196 157.244 110.029 159.075 112.29 159.075H141.945C144.206 159.075 146.039 157.244 146.039 154.985C146.039 152.725 144.206 150.894 141.945 150.894Z" fill="#0C3069"/>
<path d="M241.295 233.249C240.378 235.23 244.671 239.166 250.885 242.041C257.098 244.915 262.88 245.638 263.798 243.658C264.717 241.678 260.422 237.741 254.208 234.866C247.995 231.992 242.212 231.267 241.295 233.249Z" fill="#E2D0EF"/>
<path d="M205.47 232.213C206.387 234.194 202.094 238.131 195.88 241.005C189.666 243.879 183.885 244.604 182.968 242.623C182.051 240.641 186.342 236.705 192.558 233.831C198.773 230.956 204.551 230.232 205.47 232.213Z" fill="#E2D0EF"/>
<path d="M203.186 220.59L201.968 229.243C201.968 229.243 203.321 233.368 201.968 234.786C200.614 236.205 195.338 238.167 195.338 238.167C195.338 238.167 186.748 242.359 185.394 241.479C184.04 240.6 192.835 231.609 192.835 231.609L195.744 224.983L196.398 220.787L203.186 220.59Z" fill="#0C3069"/>
<path d="M194.735 227.283C195.519 227.572 196.198 228.09 196.683 228.77C197.168 229.45 197.437 230.261 197.455 231.096L201.969 229.243C201.969 229.243 203.322 233.368 201.969 234.786C200.615 236.205 195.339 238.167 195.339 238.167C195.339 238.167 186.749 242.359 185.395 241.479C184.041 240.6 192.836 231.609 192.836 231.609L194.735 227.283Z" fill="#7817BE"/>
<path d="M243.604 220.59V229.243C243.198 230.135 242.988 231.103 242.988 232.083C242.988 233.062 243.198 234.031 243.604 234.922C245.025 237.761 261.158 243.137 261.969 242.426C262.78 241.715 254.257 233.805 254.257 233.805L250.502 227.283L250.299 220.59H243.604Z" fill="#0C3069"/>
<path d="M251.137 228.383L254.257 233.807C254.257 233.807 262.78 241.717 261.969 242.428C261.158 243.138 245.025 237.763 243.604 234.924C243.016 233.713 242.829 232.347 243.071 231.023L247.349 231.984C247.608 231.104 248.094 230.307 248.759 229.675C249.424 229.043 250.244 228.597 251.137 228.383Z" fill="#7817BE"/>
<path d="M212.046 99.8484L209.407 121.752C207.378 129.893 205.887 138.159 204.942 146.495C204.131 156.636 193.374 221.942 193.374 221.942H205.347C206.397 219.656 206.884 217.153 206.768 214.641C206.356 211.193 210.625 208.151 210.015 204.298C209.406 200.446 214.271 193.144 215.293 186.05C216.314 178.957 231.934 129.465 231.934 129.465L239.239 188.484C239.239 188.484 238.021 198.828 239.239 203.29C240.457 207.752 239.651 214.039 241.675 221.95H253.519C253.519 221.95 255.067 175.3 255.27 163.945C255.474 152.59 255.364 114.083 250.706 99.8566L212.046 99.8484Z" fill="#4C0C7A"/>
<path d="M254.024 120.485C241.238 112.057 219.208 106.95 211.387 105.329L212.047 99.8413H250.708C252.275 104.633 253.325 112.166 254.024 120.485Z" fill="url(#paint0_linear_27_1306)"/>
<path d="M241.879 36.0302C241.879 36.0302 232.257 23.1851 219.344 36.0302C219.344 36.0302 202.408 35.7558 198.45 48.9426L189.114 75.1734L158.537 85.3143L159.755 90.6735C159.755 90.6735 183.026 92.9223 193.037 90.6735C203.048 88.4247 209.678 75.4437 209.678 75.4437L211.03 96.8065C211.03 96.8065 209.137 99.375 209.678 100.862C210.219 102.35 214.403 102.623 219.346 102.623H251.486L258.521 41.1027C253.221 38.6879 247.626 36.9824 241.879 36.0302Z" fill="#7817BE"/>
<path d="M257.219 99.8539C257.219 99.8539 254.856 101.281 253.208 100.622C251.561 99.9637 250.351 98.3707 247.604 97.9865C244.857 97.6024 244.309 97.8768 244.309 98.261C244.309 98.6451 248.045 98.9744 249.474 100.017C249.474 100.017 243.326 98.9195 243.21 100.072C243.155 100.621 248.374 100.731 249.584 101.499C249.584 101.499 243.65 101.005 243.594 101.499C243.538 101.993 248.759 102.285 249.583 103.018C249.583 103.018 245.298 103.036 245.572 103.915C245.847 104.795 248.21 103.641 250.023 104.519C250.778 105.029 251.668 105.302 252.578 105.302C253.489 105.302 254.379 105.029 255.133 104.519C256.083 103.877 257.119 103.372 258.21 103.018L257.219 99.8539Z" fill="#FF6D6D"/>
<path d="M197.377 88.9734C197.383 88.9583 200.979 81.2543 202.89 77.6883C204.801 74.1224 202.507 69.0211 201.87 64.5605C201.233 60.1 206.891 56.2542 206.891 56.2542L209.679 75.4423C209.679 75.4423 204.919 84.7585 197.377 88.9734Z" fill="url(#paint1_linear_27_1306)"/>
<path d="M258.519 41.107C254.511 39.359 251.359 63.1517 255.396 68.4217C259.432 73.6918 269.782 85.5572 269.782 85.5572C269.782 85.5572 267.753 86.1651 269.782 87.9913L254.967 99.8554L256.34 104.774C256.34 104.774 272.422 101.174 283.078 95.4964C293.733 89.8188 287.036 77.0217 284.802 72.5187C282.568 68.0156 271.227 55.3392 271.227 55.3392C271.227 55.3392 267.043 44.8197 258.519 41.107Z" fill="#7817BE"/>
<path d="M262.443 54.2153C262.443 54.2153 262.052 58.8501 255.619 66.4705" stroke="#0C3069" stroke-width="0.889" stroke-miterlimit="10"/>
<path d="M260.743 58.9766C260.743 58.9766 264.313 67.3172 262.443 69.1366C260.803 70.7323 266.129 77.1013 265.524 80.6193C262.187 76.7281 257.734 71.4677 255.396 68.4149C255.157 68.0908 254.956 67.741 254.796 67.3721C257.085 64.8036 259.079 61.9876 260.743 58.9766Z" fill="url(#paint2_linear_27_1306)"/>
<path d="M194.277 216.448H206.8" stroke="#0C3069" stroke-width="0.889" stroke-miterlimit="10"/>
<path d="M241.087 216.448H253.611" stroke="#0C3069" stroke-width="0.889" stroke-miterlimit="10"/>
<path d="M232.022 130.159V102.62" stroke="#0C3069" stroke-width="0.889" stroke-miterlimit="10"/>
<path d="M227.776 102.616V113.738C227.696 115.183 228.06 116.617 228.819 117.85C229.578 119.082 230.695 120.053 232.022 120.634" stroke="#0C3069" stroke-width="0.889" stroke-miterlimit="10"/>
<path d="M219.343 102.616C219.343 102.616 219.8 110.789 210.19 115.254" stroke="#0C3069" stroke-width="0.889" stroke-miterlimit="10"/>
<path d="M245.453 102.041C245.453 102.041 248.951 115.885 253.69 116.79" stroke="#0C3069" stroke-width="0.889" stroke-miterlimit="10"/>
<path d="M213.602 160.22C212.366 161.524 210.761 162.421 209.002 162.788" stroke="#0C3069" stroke-width="0.889" stroke-miterlimit="10"/>
<path d="M242.149 160.896C244.472 162.54 246.956 163.944 249.562 165.088" stroke="#0C3069" stroke-width="0.889" stroke-miterlimit="10"/>
<path d="M236.522 24.3926L241.723 17.0618C241.723 17.0618 246.551 13.5356 243.766 8.71008C240.98 3.88458 232.066 6.57518 227.887 7.78258C227.887 7.78258 219.343 8.24634 219.343 14.094C219.343 19.9417 225.933 24.3954 225.933 24.3954L236.522 24.3926Z" fill="#0F3D85"/>
<path d="M234.774 27.647L236.04 36.1386C236.105 36.5435 236.062 36.9585 235.915 37.3414C235.768 37.7243 235.522 38.0615 235.203 38.3188C234.017 39.1041 232.625 39.5193 231.202 39.5115C229.78 39.5037 228.392 39.0732 227.215 38.2749C226.879 38.0179 226.619 37.6755 226.461 37.2835C226.304 36.8915 226.254 36.4643 226.319 36.0467L227.571 27.647H234.774Z" fill="#FF6D6D"/>
<path d="M236.049 36.4515C232.631 36.1903 229.396 34.8046 226.85 32.511L227.574 27.6484H234.779L236.045 36.1401C236.052 36.2437 236.054 36.3477 236.049 36.4515Z" fill="url(#paint3_linear_27_1306)"/>
<path d="M228.894 10.8201C229.776 12.4808 231.04 13.9089 232.581 14.9872C234.122 16.0654 235.897 16.7632 237.761 17.0231C237.761 17.0231 238.056 30.9041 231.555 30.9041C225.054 30.9041 223.867 18.7944 223.867 18.7944C223.867 18.7944 229.092 14.6618 228.894 10.8201Z" fill="#FF6D6D"/>
<path d="M256.463 59.0808C256.463 59.0808 252.297 53.9397 244.584 59.0808C242.805 57.306 240.395 56.3091 237.882 56.3091C235.369 56.3091 232.958 57.306 231.18 59.0808C231.18 59.0808 223.614 52.7241 216.578 59.0808C216.578 59.0808 210.621 56.1035 207.308 59.0808L209.206 70.3412H255.085L256.463 59.0808Z" fill="#640EA2"/>
<path d="M206.162 49.9565C206.162 49.9565 206.365 52.4921 206.973 56.8525C207.581 61.2128 209.815 73.7863 209.815 73.7863" stroke="#0C3069" stroke-width="0.889" stroke-miterlimit="10"/>
<path d="M203.726 56.6494C203.726 56.6494 205.113 62.7345 208.531 65.9794" stroke="#0C3069" stroke-width="0.889" stroke-miterlimit="10"/>
<path d="M255.086 70.3409C255.086 70.3409 256.788 56.2555 256.459 50.604" stroke="#0C3069" stroke-width="0.889" stroke-miterlimit="10"/>
<path d="M40.3971 228.687C40.2598 230.271 44.104 231.903 48.9819 232.329C53.8599 232.756 57.9319 231.818 58.0706 230.233C58.2092 228.648 54.3637 227.017 49.4858 226.59C44.6078 226.163 40.5358 227.101 40.3971 228.687Z" fill="#E2D0EF"/>
<path d="M0.508814 228.687C0.371523 230.271 4.2157 231.903 9.09365 232.329C13.9716 232.756 18.0423 231.818 18.1809 230.233C18.3196 228.648 14.4741 227.017 9.59614 226.59C4.71818 226.163 0.646105 227.101 0.508814 228.687Z" fill="#E2D0EF"/>
<path d="M43.2642 196.023L46.2928 222.859L51.7007 226.616C51.7007 226.616 57.2665 227.439 57.2446 228.549C57.2226 229.659 45.4759 228.32 42.6354 228.264C39.7948 228.208 42.1672 226.224 41.9064 223.989C41.6455 221.754 35.1476 195.862 35.1476 195.862L43.2642 196.023Z" fill="#FF6D6D"/>
<path d="M10.3679 196.023L6.407 222.859L11.8136 226.616C11.8136 226.616 17.3793 227.439 17.3574 228.549C17.3354 229.659 5.58873 228.32 2.74818 228.264C-0.092371 228.208 2.28002 226.224 2.02054 223.989C1.76106 221.754 2.25119 195.862 2.25119 195.862L10.3679 196.023Z" fill="#FF6D6D"/>
<path d="M6.89866 93.2913C6.89866 93.2913 1.01302 101.971 1.25053 125.889L-0.000205994 198.067H13.5449L23.8074 129.464L29.899 166.866C29.899 166.866 26.9487 175.742 33.5647 198.061H45.5928L43.355 161.427C43.9737 138.508 41.6337 115.604 36.3929 93.2817L6.89866 93.2913Z" fill="#456B4B"/>
<path d="M23.8061 129.469C23.8061 129.469 27.3272 109.245 26.381 92.3445" stroke="#38573D" stroke-width="0.72" stroke-miterlimit="10"/>
<path d="M29.9659 92.3445C29.9659 92.3445 30.9269 109.956 26.0846 110.181" stroke="#38573D" stroke-width="0.72" stroke-miterlimit="10"/>
<path opacity="0.5" d="M6.89838 93.2913H36.3926C36.9418 95.5725 37.4452 97.8337 37.9028 100.075C35.2857 100.744 32.5543 100.838 29.8974 100.349C23.4447 99.3461 10.1178 108.749 2.31148 108.649C3.95485 97.6434 6.89838 93.2913 6.89838 93.2913Z" fill="url(#paint4_linear_27_1306)"/>
<path d="M37.5421 50.3378L55.3199 62.9964L62.6402 53.7597L61.8961 53.2699L64.5349 46.9146L68.1415 49.1729C68.5362 49.4162 68.8437 49.7781 69.02 50.2066C69.1964 50.6352 69.2325 51.1086 69.1231 51.5589C68.6934 53.2932 67.6802 55.8411 65.4163 55.9742C65.4163 55.9742 63.1167 70.9295 56.8933 72.8504C50.6699 74.7713 30.9837 57.8004 30.9837 57.8004L37.5421 50.3378Z" fill="#FF6D6D"/>
<path d="M37.5417 50.3381L49.4517 58.8188C45.4839 58.9176 38.9297 59.642 37.8108 63.2738C33.8843 60.3006 30.9805 57.7993 30.9805 57.7993L37.5417 50.3381Z" fill="url(#paint5_linear_27_1306)"/>
<path d="M28.6619 42.8987L37.9332 49.5037C38.0802 49.6081 38.2033 49.7425 38.2943 49.898C38.3854 50.0536 38.4423 50.2267 38.4612 50.4059C38.4802 50.5851 38.4608 50.7663 38.4043 50.9374C38.3478 51.1086 38.2555 51.2657 38.1336 51.3985L30.8462 59.3564L28.6619 42.8987Z" fill="#7817BE"/>
<path d="M25.5683 42.184C29.2889 44.2791 35.85 54.6902 35.85 54.6902C36.1 51.3598 35.5429 48.0182 34.2259 44.9487C34.2259 44.9487 38.8265 44.8814 39.3675 43.8003C41.1399 40.2563 35.5796 32.308 35.5796 32.308C43.088 30.549 45.7941 26.0199 40.8557 23.0453C35.9174 20.0707 30.3021 17.4336 30.3021 17.4336C30.3021 17.4336 27.3504 12.8345 21.5155 16.7585C17.7936 19.2598 18.2068 23.9234 16.9176 25.6137C15.6285 27.3041 11.9079 29.5351 13.2616 30.4818C13.2616 30.4818 7.17272 32.5783 5.88768 38.1886C5.88768 38.1886 12.0424 37.0443 15.4981 39.2053L25.5683 42.184Z" fill="#FFA526"/>
<path d="M15.4889 39.2108C11.5665 35.9631 5.61222 35.4898 2.90759 38.3972C0.20295 41.3045 -0.000255585 51.1751 -0.000255585 51.1751H3.78761C3.78761 51.1751 8.25233 65.3072 8.38825 71.3881C8.52417 77.469 3.38263 93.9679 3.38263 93.9679C2.67283 96.4019 5.81817 96.605 10.9927 96.605H35.9522C41.0319 96.605 38.698 92.3516 37.6766 87.9858C36.6551 83.6199 33.146 70.2397 33.0773 67.405C33.0087 64.5704 38.1845 60.2402 35.8506 54.6957C33.5166 49.1513 29.4913 41.7161 25.5689 42.1895L15.4889 39.2108Z" fill="#7817BE"/>
<path d="M15.0504 46.9146L15.9634 52.3904C14.92 53.3222 13.556 53.814 12.1577 53.7624" stroke="#0C3069" stroke-width="0.72" stroke-miterlimit="10"/>
<path d="M18.9057 49.095C19.0101 50.8501 18.4449 52.5795 17.3238 53.9346C16.2028 55.2896 14.6094 56.1696 12.8649 56.397" stroke="#0C3069" stroke-width="0.72" stroke-miterlimit="10"/>
<path opacity="0.57" d="M8.38615 71.3866C8.29041 69.5407 8.04661 67.7054 7.65713 65.8985L13.9245 53.4855L15.9619 52.3879L15.4127 49.095C18.5169 50.2612 17.0273 54.2676 16.4699 56.8525C15.9124 59.4375 16.8817 60.7052 20.7259 60.5022C24.57 60.2991 24.4794 60.7053 22.2485 64.3563C20.0175 68.0073 18.6501 72.8493 19.5452 80.0745C20.5073 85.684 21.9041 91.2103 23.723 96.6035H10.9865C5.81196 96.6035 2.66662 96.4005 3.37642 93.9678C3.38054 93.9678 8.52207 77.4717 8.38615 71.3866Z" fill="url(#paint6_linear_27_1306)"/>
<path d="M55.3198 62.9966C54.875 63.271 54.4987 63.6433 54.2198 64.0851C53.9408 64.5269 53.7666 65.0265 53.7103 65.5459" stroke="#D92727" stroke-width="0.528" stroke-miterlimit="10"/>
<path d="M60.7026 56.2036C61.9918 56.1721 64.01 56.1035 65.4131 55.9731C65.1207 57.7119 64.7381 59.4343 64.2667 61.1334C61.8106 60.0358 58.1751 61.0936 56.2613 61.8071L60.7026 56.2036Z" fill="url(#paint7_linear_27_1306)"/>
<path opacity="0.5" d="M43.8271 169.166L45.5913 198.069H33.566C26.9499 175.749 29.9003 166.874 29.9003 166.874L23.8087 129.472L25.0279 120.935C27.727 131.75 37.7424 155.304 43.8271 169.166Z" fill="url(#paint8_linear_27_1306)"/>
<path d="M57.2446 228.549C57.2226 229.665 45.4759 228.32 42.6354 228.264C40.2685 228.217 41.5179 226.83 41.8501 225.077C46.7775 227.603 44.5959 222.881 46.2928 222.858L51.7007 226.615C51.7007 226.615 57.2665 227.438 57.2446 228.549Z" fill="#0C3069"/>
<path d="M17.3628 228.549C17.3408 229.665 5.59418 228.32 2.75362 228.264C0.386726 228.217 1.63605 226.83 1.96829 225.077C6.89567 227.603 4.7141 222.881 6.41102 222.858L11.8176 226.615C11.8176 226.615 17.3792 227.438 17.3628 228.549Z" fill="#0C3069"/>
<path d="M56.2613 46.9148C56.2613 46.9148 62.5946 44.1776 60.181 36.4708C57.7674 28.764 48.5346 30.2842 49.0412 23.1866C49.556 15.9929 56.8105 17.8123 60.181 15.7775C63.5515 13.7428 60.3718 7.96919 65.4118 5.53654C70.4518 3.1039 75.4244 6.75355 82.3233 7.97056C89.2222 9.18757 95.2108 10.303 95.0063 7.97056C94.8017 5.63808 91.4546 5.33485 92.5707 2.49471C93.6869 -0.345437 99.3694 -0.344061 100.182 0.466821C100.182 0.466821 93.9917 0.466823 93.7899 2.59624C93.5881 4.72567 98.3754 5.73961 98.1626 9.59369C97.9498 13.4478 89.5284 12.6355 81.3088 12.1292C73.0891 11.6229 73.8305 14.8733 74.4744 18.9236C75.1183 22.9739 73.8003 25.718 68.4212 26.4274C63.0422 27.1367 60.5476 27.7994 63.5501 33.728C66.1381 38.8348 64.0828 43.5643 59.2337 46.9107L56.2613 46.9148Z" fill="#E0E0E0"/>
<path d="M33.0781 30.5545C33.0781 30.5545 32.5372 31.5012 31.3867 34.0711C30.2362 36.6409 28.8839 37.7893 26.1092 37.519L25.5683 42.184C25.5683 42.184 30.9117 46.521 28.0038 47.8684C25.096 49.2157 20.9004 43.1362 15.4884 39.2121C15.4884 39.2121 19.7911 37.198 21.0349 33.4632C23.2 26.9735 26.5142 28.731 28.1384 21.9023C28.1398 21.901 30.1058 28.6611 33.0781 30.5545Z" fill="#FF6D6D"/>
<path d="M21.0408 33.4618C21.1301 33.1874 21.2234 32.9431 21.3154 32.7017C22.3355 34.912 24.517 37.3035 26.1206 37.5176L25.9009 39.4124L16.9249 38.3765C18.7871 37.2199 20.2296 35.4975 21.0408 33.4618Z" fill="url(#paint9_linear_27_1306)"/>
<path d="M1.25019 51.1748C3.23746 50.2573 5.42545 49.8597 7.6087 50.0193C9.79195 50.1789 11.8988 50.8904 13.7313 52.0872L23.6753 123.882C23.6753 123.882 25.0962 125.555 24.1833 126.29C23.2703 127.026 21.1395 126.721 18.704 126.721H12.0069C12.0069 126.721 16.37 123.782 17.4862 123.224C18.2576 122.676 18.7998 121.863 19.0088 120.941C19.0088 120.941 9.67298 98.4282 10.586 85.9535C6.60737 74.6105 3.48668 62.9849 1.25019 51.1748Z" fill="#FF6D6D"/>
<path d="M66.1363 46.4661C65.8807 49.416 64.9339 52.2643 63.3726 54.7807C63.2249 55.0061 63.0232 55.191 62.7858 55.3187C62.5485 55.4464 62.2829 55.5129 62.0134 55.512H56.4449C56.1753 55.5129 55.9098 55.4464 55.6724 55.3187C55.4351 55.191 55.2334 55.0061 55.0857 54.7807C53.5263 52.2629 52.5819 49.4136 52.3289 46.4634C52.3183 46.3532 52.331 46.2421 52.366 46.1372C52.4011 46.0323 52.4578 45.9358 52.5324 45.8541C52.6071 45.7724 52.698 45.7072 52.7994 45.6628C52.9008 45.6184 53.0103 45.5957 53.121 45.5962H65.3399C65.4512 45.5951 65.5616 45.6174 65.6636 45.6618C65.7657 45.7061 65.8573 45.7714 65.9324 45.8535C66.0076 45.9356 66.0646 46.0325 66.0997 46.1381C66.1348 46.2436 66.1473 46.3554 66.1363 46.4661Z" fill="#967C45"/>
<path d="M148.787 237.927C148.787 240.481 144.98 242.551 140.283 242.551C135.587 242.551 131.775 240.481 131.775 237.927C131.775 235.374 135.582 233.303 140.281 233.303C144.979 233.303 148.787 235.374 148.787 237.927Z" fill="#E2D0EF"/>
<path d="M136.759 221.991L136.541 229.854C136.541 229.854 134.225 235.694 135.393 235.827C136.562 235.96 138.388 236.029 137.608 237.343C136.828 238.657 135.926 240.397 140.669 240.757C145.413 241.116 146.25 239.549 145.656 237.708C144.459 235.156 143.083 232.693 141.537 230.336C141.289 229.94 141.174 229.475 141.209 229.009L141.86 220.091L136.759 221.991Z" fill="#FF6D6D"/>
<path d="M135.392 235.826C136.561 235.964 138.384 236.028 137.606 237.343C136.828 238.657 135.924 240.397 140.668 240.756C145.411 241.116 146.248 239.549 145.654 237.708C144.62 235.447 143.419 233.267 142.061 231.185C140.607 231.521 138.612 232.178 137.875 233.354C137.23 234.383 136.339 233.475 135.647 232.394C135.153 233.992 134.755 235.755 135.392 235.826Z" fill="#0C3069"/>
<path d="M133.335 163.819L134.553 223.563H146.73C146.73 223.563 149.165 220.202 148.893 212.629C148.621 205.057 151.599 203.711 151.87 197.216C152.14 190.72 154.982 161.521 154.982 161.521L133.335 163.819Z" fill="#4C0C7A"/>
<path d="M154.36 168.01C154.36 168.01 151.87 172.878 148.082 173.417C144.294 173.957 143.753 178.42 140.1 182.61C136.446 186.8 137.941 190.72 133.946 193.831L133.334 163.816L154.982 161.518L154.36 168.01Z" fill="url(#paint10_linear_27_1306)"/>
<path d="M155.931 159.694L165.085 158.912C165.493 158.877 165.904 158.927 166.291 159.057C166.679 159.188 167.036 159.397 167.34 159.671C168.755 160.978 169.831 162.611 170.475 164.426C171.964 168.482 172.031 170.715 173.588 170.916C175.145 171.118 172.776 151.311 172.776 151.311L154.173 149.824L155.931 159.694Z" fill="#FF6D6D"/>
<path d="M169.281 151.033L170.272 158.782L168.137 160.477C169.158 161.634 169.95 162.974 170.471 164.427C171.959 168.482 172.027 170.715 173.584 170.916C175.14 171.118 172.772 151.311 172.772 151.311L169.281 151.033Z" fill="#0C3069"/>
<path d="M141.683 81.1172C125.456 83.4497 117.578 88.4165 115.92 89.5772C115.695 89.735 115.581 89.8242 115.581 89.8242V89.8324C103.28 98.8784 94.6289 127.877 95.3854 131.772C96.7391 138.735 104.924 136.91 106.818 133.936C108.303 131.603 116.366 120.034 119.772 115.156C121.101 125.46 122.072 134.639 122.072 134.639H162.558L164.79 90.0204C157.79 81.4094 141.683 81.1172 141.683 81.1172Z" fill="url(#paint11_linear_27_1306)"/>
<path d="M119.773 115.156L117.007 96.0874" stroke="#D92727" stroke-width="0.889" stroke-miterlimit="10"/>
<path d="M113.708 101.739C113.708 101.739 113.729 108.54 119.326 112.073" stroke="#D92727" stroke-width="0.889" stroke-miterlimit="10"/>
<path d="M106.797 107.495L107.931 84.0506C108.565 83.2003 109.026 82.2333 109.287 81.205C109.67 79.5833 112.582 78.2016 112.17 77.1657C111.758 76.1298 109.662 78.6187 109.063 78.3854C108.465 78.1522 108.588 77.6994 108.377 74.5958C108.166 71.4923 108.418 68.5067 107.807 68.5273C107.196 68.5478 106.801 75.6866 106.801 75.6866C106.801 75.6866 106.242 67.2842 105.219 67.4379C104.196 67.5915 104.838 75.323 104.838 75.323C104.838 75.323 103.293 68.4106 102.53 68.4244C101.766 68.4381 102.942 75.7539 102.942 75.7539C102.942 75.7539 100.269 71.1575 99.8004 71.388C99.3323 71.6185 102.224 76.9366 102.224 76.9366C102.224 76.9366 101.342 81.5137 103.364 83.7968L98.4097 107.089L106.797 107.495Z" fill="#FF6D6D"/>
<path d="M119.753 115.186L117.457 99.1855C117.457 99.1855 113.564 102.083 113.709 108.85C113.855 115.617 108.579 114.613 108.274 118.763C107.969 122.914 104.249 125.96 104.249 125.96L106.326 134.546C106.511 134.361 106.676 134.156 106.819 133.937C108.301 131.607 116.336 120.08 119.753 115.186Z" fill="url(#paint12_linear_27_1306)"/>
<path d="M137.903 134.648H162.56L164.345 99.0429L154.497 96.7214C150.134 100.068 148.915 104.073 149.018 106.862C149.121 109.652 144.452 112.135 143.893 116.091C143.449 119.211 139.534 130.167 137.903 134.648Z" fill="url(#paint13_linear_27_1306)"/>
<path d="M148.354 126.89L130.901 131.755C130.901 131.755 123.951 131.755 123.088 134.646H149.825L148.354 126.89Z" fill="#F04F4F"/>
<path d="M90.4567 164.019C87.9415 154.552 95.3415 145.835 118.391 145.835C146.357 145.835 157.419 147.459 157.419 147.459V162.332C157.419 162.332 94.1018 177.751 90.4567 164.019Z" fill="#4C0C7A"/>
<path d="M140.922 73.21L143.507 81.4999C143.645 81.9401 143.653 82.4108 143.53 82.8554C143.407 83.3 143.159 83.6998 142.814 84.0066C140.602 85.97 135.867 89.9202 134.678 88.8417C133.111 87.4217 132.954 78.041 132.954 78.041L140.922 73.21Z" fill="#FF6D6D"/>
<path d="M141.682 75.6467L140.922 73.21L132.959 78.041C133.009 80.4626 133.196 82.8795 133.521 85.2799C137.742 83.4551 140.478 78.3648 141.682 75.6467Z" fill="url(#paint14_linear_27_1306)"/>
<path d="M127.891 70.839C127.891 70.839 128.825 79.5858 130.809 80.5202C132.793 81.4545 139.795 76.5083 141.254 73.5858C141.254 73.5858 145.036 71.2534 143.145 68.1594L134.601 60.8669L127.073 63.3751L127.891 70.839Z" fill="#FF6D6D"/>
<path d="M132.119 63.8992C132.374 63.6892 132.676 63.5417 132.999 63.4683C133.321 63.3949 133.657 63.3976 133.979 63.4763C134.3 63.555 134.599 63.7075 134.851 63.9216C135.104 64.1357 135.303 64.4057 135.433 64.7101C136.515 67.0769 136.787 69.375 140.709 69.3078C140.772 69.0586 140.89 68.8265 141.054 68.6282C141.218 68.4298 141.423 68.27 141.656 68.1603C141.889 68.0506 142.143 67.9936 142.4 67.9934C142.657 67.9933 142.912 68.0499 143.144 68.1594C143.523 66.3292 143.794 64.4783 143.956 62.6163C144.159 59.912 139.491 52.6113 131.576 59.7762C131.576 59.7762 127.183 58.153 125.353 62.346C124.284 65.1804 124.14 68.28 124.941 71.2012C124.941 71.2012 126.97 72.6213 130.827 71.2012C130.834 71.2012 127.723 62.5477 132.119 63.8992Z" fill="#0C3069"/>
<path d="M108.268 104.682L107.161 133.399H95.8848C95.8848 133.399 92.1341 132.005 92.642 122.777C93.1928 116.38 94.6622 110.095 97.0051 104.117L108.268 104.682Z" fill="url(#paint15_linear_27_1306)"/>
<path d="M164.793 90.0272C168.446 94.6139 174.724 111.1 176.429 126.86C176.533 127.829 176.431 128.809 176.131 129.736C175.831 130.664 175.339 131.517 174.686 132.242C174.034 132.967 173.237 133.546 172.346 133.943C171.455 134.339 170.491 134.544 169.515 134.543H146.932C146.932 134.543 145.106 129.067 146.019 125.315L155.455 123.49C155.455 123.49 154.746 121.259 156.775 121.056C156.775 121.056 155.76 116.076 153.223 106.903C150.686 97.7312 160.834 85.059 164.793 90.0272Z" fill="url(#paint16_linear_27_1306)"/>
<path d="M155.965 94.0486C155.965 94.0486 151.192 98.7053 153.756 108.85" stroke="#D92727" stroke-width="0.889" stroke-miterlimit="10"/>
<path d="M285.622 244.773C288.592 244.773 291 243.956 291 242.949C291 241.941 288.592 241.124 285.622 241.124C282.652 241.124 280.245 241.941 280.245 242.949C280.245 243.956 282.652 244.773 285.622 244.773Z" fill="#E2D0EF"/>
<path d="M60.5159 244.773C63.4859 244.773 65.8936 243.956 65.8936 242.949C65.8936 241.941 63.4859 241.124 60.5159 241.124C57.5459 241.124 55.1382 241.941 55.1382 242.949C55.1382 243.956 57.5459 244.773 60.5159 244.773Z" fill="#E2D0EF"/>
<path d="M276.369 138.805H69.4233V155.842H276.369V138.805Z" fill="#967C45"/>
<path d="M64.4697 138.805L58.7515 242.551H62.5627L76.738 138.805H64.4697Z" fill="#786337"/>
<path d="M281.323 138.805L287.041 242.551H283.23L269.054 138.805H281.323Z" fill="#786337"/>
<path opacity="0.4" d="M64.25 142.791L282.093 152.793L281.321 138.798H64.471L64.25 142.791Z" fill="url(#paint17_linear_27_1306)"/>
<path d="M290.629 133.004H55.1641V140.428H290.629V133.004Z" fill="#967C45"/>
<defs>
<linearGradient id="paint0_linear_27_1306" x1="232.705" y1="83.3675" x2="232.705" y2="119.019" gradientUnits="userSpaceOnUse">
<stop stop-color="#420C6A"/>
<stop offset="0.027" stop-color="#430C6B"/>
<stop offset="1" stop-color="#0C3069" stop-opacity="0"/>
</linearGradient>
<linearGradient id="paint1_linear_27_1306" x1="214.157" y1="57.5629" x2="191.213" y2="61.9579" gradientUnits="userSpaceOnUse">
<stop stop-color="#460D70"/>
<stop offset="1" stop-color="#0C3069" stop-opacity="0"/>
</linearGradient>
<linearGradient id="paint2_linear_27_1306" x1="252.425" y1="56.8989" x2="276.667" y2="64.2043" gradientUnits="userSpaceOnUse">
<stop stop-color="#44096E"/>
<stop offset="1" stop-color="#0C3069" stop-opacity="0"/>
</linearGradient>
<linearGradient id="paint3_linear_27_1306" x1="236.052" y1="32.05" x2="226.85" y2="32.05" gradientUnits="userSpaceOnUse">
<stop stop-color="#F04F4F"/>
<stop offset="0.147" stop-color="#F04F4F" stop-opacity="0.984"/>
<stop offset="0.278" stop-color="#F04F4F" stop-opacity="0.941"/>
<stop offset="0.404" stop-color="#F04F4F" stop-opacity="0.863"/>
<stop offset="0.526" stop-color="#F04F4F" stop-opacity="0.757"/>
<stop offset="0.645" stop-color="#F04F4F" stop-opacity="0.62"/>
<stop offset="0.763" stop-color="#F04F4F" stop-opacity="0.447"/>
<stop offset="0.879" stop-color="#F04F4F" stop-opacity="0.247"/>
<stop offset="0.991" stop-color="#F04F4F" stop-opacity="0.02"/>
<stop offset="1" stop-color="#F04F4F" stop-opacity="0"/>
</linearGradient>
<linearGradient id="paint4_linear_27_1306" x1="20.1072" y1="92.3391" x2="20.1072" y2="112.09" gradientUnits="userSpaceOnUse">
<stop offset="0.033"/>
<stop offset="1" stop-opacity="0"/>
</linearGradient>
<linearGradient id="paint5_linear_27_1306" x1="49.4517" y1="56.806" x2="30.9805" y2="56.806" gradientUnits="userSpaceOnUse">
<stop stop-color="#F04F4F"/>
<stop offset="0.147" stop-color="#F04F4F" stop-opacity="0.984"/>
<stop offset="0.278" stop-color="#F04F4F" stop-opacity="0.941"/>
<stop offset="0.404" stop-color="#F04F4F" stop-opacity="0.863"/>
<stop offset="0.526" stop-color="#F04F4F" stop-opacity="0.757"/>
<stop offset="0.645" stop-color="#F04F4F" stop-opacity="0.62"/>
<stop offset="0.763" stop-color="#F04F4F" stop-opacity="0.447"/>
<stop offset="0.879" stop-color="#F04F4F" stop-opacity="0.247"/>
<stop offset="0.991" stop-color="#F04F4F" stop-opacity="0.02"/>
<stop offset="1" stop-color="#F04F4F" stop-opacity="0"/>
</linearGradient>
<linearGradient id="paint6_linear_27_1306" x1="8.92005" y1="40.1159" x2="41.8319" y2="90.3374" gradientUnits="userSpaceOnUse">
<stop stop-color="#0C3069"/>
<stop offset="1" stop-color="#0C3069" stop-opacity="0"/>
</linearGradient>
<linearGradient id="paint7_linear_27_1306" x1="65.4131" y1="58.8901" x2="56.2613" y2="58.8901" gradientUnits="userSpaceOnUse">
<stop stop-color="#F04F4F"/>
<stop offset="0.147" stop-color="#F04F4F" stop-opacity="0.984"/>
<stop offset="0.278" stop-color="#F04F4F" stop-opacity="0.941"/>
<stop offset="0.404" stop-color="#F04F4F" stop-opacity="0.863"/>
<stop offset="0.526" stop-color="#F04F4F" stop-opacity="0.757"/>
<stop offset="0.645" stop-color="#F04F4F" stop-opacity="0.62"/>
<stop offset="0.763" stop-color="#F04F4F" stop-opacity="0.447"/>
<stop offset="0.879" stop-color="#F04F4F" stop-opacity="0.247"/>
<stop offset="0.991" stop-color="#F04F4F" stop-opacity="0.02"/>
<stop offset="1" stop-color="#F04F4F" stop-opacity="0"/>
</linearGradient>
<linearGradient id="paint8_linear_27_1306" x1="6.68758" y1="125.64" x2="57.6627" y2="131.733" gradientUnits="userSpaceOnUse">
<stop offset="0.033"/>
<stop offset="1" stop-opacity="0"/>
</linearGradient>
<linearGradient id="paint9_linear_27_1306" x1="26.1206" y1="36.057" x2="16.9249" y2="36.057" gradientUnits="userSpaceOnUse">
<stop stop-color="#F04F4F"/>
<stop offset="0.147" stop-color="#F04F4F" stop-opacity="0.984"/>
<stop offset="0.278" stop-color="#F04F4F" stop-opacity="0.941"/>
<stop offset="0.404" stop-color="#F04F4F" stop-opacity="0.863"/>
<stop offset="0.526" stop-color="#F04F4F" stop-opacity="0.757"/>
<stop offset="0.645" stop-color="#F04F4F" stop-opacity="0.62"/>
<stop offset="0.763" stop-color="#F04F4F" stop-opacity="0.447"/>
<stop offset="0.879" stop-color="#F04F4F" stop-opacity="0.247"/>
<stop offset="0.991" stop-color="#F04F4F" stop-opacity="0.02"/>
<stop offset="1" stop-color="#F04F4F" stop-opacity="0"/>
</linearGradient>
<linearGradient id="paint10_linear_27_1306" x1="144.093" y1="163.715" x2="133.569" y2="207.397" gradientUnits="userSpaceOnUse">
<stop stop-color="#3F0B64"/>
<stop offset="1" stop-color="#0C3069" stop-opacity="0"/>
</linearGradient>
<linearGradient id="paint11_linear_27_1306" x1="95.3394" y1="108.849" x2="164.79" y2="108.849" gradientUnits="userSpaceOnUse">
<stop stop-color="#F9BF30"/>
<stop offset="0.043" stop-color="#FFA526"/>
<stop offset="1" stop-color="#FF6026"/>
</linearGradient>
<linearGradient id="paint12_linear_27_1306" x1="120.202" y1="125.352" x2="103.553" y2="122.083" gradientUnits="userSpaceOnUse">
<stop stop-color="#80371D"/>
<stop offset="1" stop-color="#80371D" stop-opacity="0"/>
</linearGradient>
<linearGradient id="paint13_linear_27_1306" x1="153.61" y1="128.124" x2="141.699" y2="101.862" gradientUnits="userSpaceOnUse">
<stop stop-color="#80371D"/>
<stop offset="1" stop-color="#80371D" stop-opacity="0"/>
</linearGradient>
<linearGradient id="paint14_linear_27_1306" x1="137.905" y1="72.2564" x2="134.963" y2="84.3447" gradientUnits="userSpaceOnUse">
<stop stop-color="#F04F4F"/>
<stop offset="0.147" stop-color="#F04F4F" stop-opacity="0.984"/>
<stop offset="0.278" stop-color="#F04F4F" stop-opacity="0.941"/>
<stop offset="0.404" stop-color="#F04F4F" stop-opacity="0.863"/>
<stop offset="0.526" stop-color="#F04F4F" stop-opacity="0.757"/>
<stop offset="0.645" stop-color="#F04F4F" stop-opacity="0.62"/>
<stop offset="0.763" stop-color="#F04F4F" stop-opacity="0.447"/>
<stop offset="0.879" stop-color="#F04F4F" stop-opacity="0.247"/>
<stop offset="0.991" stop-color="#F04F4F" stop-opacity="0.02"/>
<stop offset="1" stop-color="#F04F4F" stop-opacity="0"/>
</linearGradient>
<linearGradient id="paint15_linear_27_1306" x1="92.5947" y1="118.758" x2="108.268" y2="118.758" gradientUnits="userSpaceOnUse">
<stop offset="0.043" stop-color="#FFA526"/>
<stop offset="1" stop-color="#FF6026"/>
</linearGradient>
<linearGradient id="paint16_linear_27_1306" x1="184.606" y1="111.59" x2="149.97" y2="111.714" gradientUnits="userSpaceOnUse">
<stop offset="0.043" stop-color="#FFA526"/>
<stop offset="1" stop-color="#FF6026"/>
</linearGradient>
<linearGradient id="paint17_linear_27_1306" x1="173.171" y1="112.11" x2="173.171" y2="216.484" gradientUnits="userSpaceOnUse">
<stop/>
<stop offset="0.931" stop-opacity="0"/>
</linearGradient>
</defs>
</svg>
