<svg width="86" height="32" viewBox="0 0 86 32" fill="none" xmlns="http://www.w3.org/2000/svg">
<g clip-path="url(#clip0_27_1079)">
<path d="M4.66109 21.8411H4.64201H4.64119C4.45839 21.8383 4.27665 21.8129 4.10011 21.7654C3.9155 21.7158 3.73646 21.6474 3.56581 21.5613C3.20499 21.3771 2.87782 21.1335 2.59804 20.8406C2.45417 20.6913 2.32269 20.5305 2.20489 20.3599C2.08754 20.1902 1.98523 20.0106 1.89913 19.8231C1.72629 19.457 1.63461 19.058 1.63037 18.6532L1.66919 5.63444C1.66919 5.42464 1.64774 5.21684 1.68205 3.77062C1.68108 3.26645 1.78193 2.76726 1.97856 2.30296C2.16795 1.85501 2.44254 1.44805 2.7871 1.10466C3.1307 0.760305 3.53791 0.485872 3.98615 0.296585C4.45074 0.0999799 4.95026 -0.000893802 5.45479 5.9666e-06H16.1532C16.5583 0.00424371 16.9576 0.0958608 17.3239 0.26859C17.5115 0.354637 17.6913 0.45688 17.8611 0.574157C18.0318 0.691867 18.1926 0.823252 18.342 0.967013C18.635 1.24665 18.8788 1.57363 19.063 1.93423C19.1492 2.10477 19.2176 2.2837 19.2672 2.46819C19.3147 2.64462 19.3402 2.82624 19.343 3.00893C19.3492 3.60988 19.0696 4.2267 18.5556 4.74574C18.2398 5.06208 17.868 5.31708 17.459 5.49777C17.2531 5.58911 17.0387 5.66004 16.8189 5.70954C16.6004 5.75895 16.3772 5.78422 16.1532 5.7849H7.41876V18.6531C7.41623 19.0538 7.3381 19.4504 7.18846 19.8221C7.11482 20.0086 7.0258 20.1887 6.92234 20.3606C6.81998 20.5308 6.70377 20.6923 6.57487 20.8434C6.44889 20.9912 6.31025 21.1277 6.16053 21.2514C6.0156 21.3714 5.85927 21.477 5.69377 21.5665C5.37779 21.7425 5.02283 21.8369 4.66109 21.8411ZM5.52446 0.723118C3.77198 0.723118 2.45048 2.15483 2.45048 4.05341C2.42061 5.56946 2.40552 5.75272 2.40552 5.93479V18.0794C2.40459 18.7614 2.61753 19.4266 3.0144 19.9814C3.4242 20.5363 3.97256 20.8453 4.5585 20.8515H4.57576C5.15688 20.8515 5.74463 20.5351 6.18828 19.9837C6.62253 19.4431 6.86275 18.7724 6.8705 18.0792V5.90948C6.87195 5.85419 6.8783 5.79914 6.88946 5.74497V5.74399C6.89701 5.7146 6.90389 5.68583 6.9105 5.65805C6.94787 5.50082 6.98017 5.36498 7.11274 5.2218C7.28402 5.03684 7.55887 5.03147 7.58962 5.03147H7.59128L15.5505 5.03028C16.3448 5.03028 17.175 4.69016 17.7172 4.14261C18.1195 3.73638 18.3294 3.26222 18.3243 2.77138C18.3183 2.19155 18.009 1.66187 17.4538 1.27997C16.9396 0.926106 16.2459 0.723118 15.5509 0.723118H5.52446Z" fill="url(#paint0_radial_27_1079)"/>
<path d="M2.43664 4.06055H1.68723L1.65576 9.5407H2.40517L2.43664 4.06055Z" fill="url(#paint1_linear_27_1079)"/>
<path d="M4.57546 20.8515H4.5582C3.31128 20.8384 2.40527 19.4684 2.40527 18.0793V5.93471C2.40522 5.7524 2.42026 5.5704 2.45024 5.39057V4.05344C2.45024 2.24271 3.71235 0.723145 5.52421 0.723145H15.5508C16.9407 0.723145 18.3116 1.52528 18.3246 2.77141C18.3376 4.01754 16.9406 5.03031 15.5507 5.03031L7.59144 5.03155C7.59144 5.03155 7.29318 5.02711 7.11291 5.22183C6.95646 5.39088 6.9391 5.55193 6.88969 5.74402C6.87825 5.79841 6.87181 5.85374 6.87046 5.9093V18.0793C6.87046 19.4619 5.81612 20.8514 4.57572 20.8515H4.57546Z" fill="#6B16A8"/>
<path d="M4.6407 21.8411C3.20674 21.8261 1.62988 20.2505 1.62988 18.6531V5.63712C1.6298 5.42747 1.64708 5.21817 1.68157 5.01137V3.77051C1.68157 2.77051 2.07907 1.81147 2.78662 1.10436C3.49417 0.397249 4.45382 0 5.45445 0L16.1529 0C17.7514 0 19.3279 1.57587 19.3428 3.00892C19.3577 4.44197 17.7514 5.78489 16.1529 5.78489H7.41842V18.6531C7.41842 20.2433 6.08711 21.8413 4.66054 21.8412L4.6407 21.8411Z" fill="#6B16A8"/>
<path d="M17.6041 8.83228H17.6232H17.624C17.8068 8.83511 17.9886 8.86056 18.1651 8.90805C18.3497 8.95762 18.5288 9.02598 18.6994 9.11207C19.0603 9.29628 19.3876 9.53997 19.6674 9.83291C19.8113 9.98222 19.9427 10.143 20.0606 10.3136C20.1779 10.4833 20.2802 10.6629 20.3663 10.8504C20.5391 11.2165 20.6308 11.6155 20.6351 12.0203L20.5962 25.0391C20.5962 25.2489 20.6177 25.4567 20.5834 26.9029C20.5844 27.4071 20.4835 27.9062 20.2869 28.3706C20.0975 28.8185 19.8229 29.2255 19.4783 29.5689C19.1347 29.9132 18.7275 30.1876 18.2793 30.3769C17.8147 30.5734 17.3152 30.6742 16.8107 30.6732H6.11224C5.70721 30.669 5.30788 30.5774 4.94156 30.4047C4.75396 30.3186 4.57423 30.2164 4.40441 30.0991C4.2337 29.9814 4.07285 29.85 3.92345 29.7062C3.63038 29.4266 3.38657 29.0997 3.20226 28.7391C3.11612 28.5685 3.04771 28.3896 2.99811 28.2051C2.95049 28.0287 2.92492 27.8471 2.92198 27.6645C2.91572 27.0635 3.19533 26.4467 3.70937 25.9277C4.02517 25.6113 4.39699 25.3563 4.80594 25.1756C5.01187 25.0843 5.22626 25.0134 5.44604 24.9639C5.66456 24.9145 5.88784 24.8893 6.11188 24.8887H14.8464V12.0203C14.8489 11.6197 14.927 11.2231 15.0767 10.8514C15.1503 10.6649 15.2393 10.4847 15.3428 10.3129C15.4451 10.1427 15.5614 9.9812 15.6903 9.83007C15.8162 9.68227 15.9549 9.54574 16.1046 9.42202C16.2495 9.30203 16.4059 9.1965 16.5714 9.10695C16.8874 8.93088 17.2424 8.83646 17.6041 8.83228V8.83228ZM16.741 29.9503C18.4935 29.9503 19.815 28.5186 19.815 26.62C19.8449 25.1039 19.86 24.9207 19.86 24.7386V12.5941C19.8609 11.9121 19.648 11.2469 19.2511 10.6921C18.8413 10.1371 18.2929 9.82816 17.707 9.82201H17.6897C17.1086 9.82201 16.5209 10.1383 16.0772 10.6897C15.643 11.2304 15.4027 11.901 15.395 12.5943V24.7639C15.3935 24.8192 15.3872 24.8743 15.376 24.9284V24.9294C15.3685 24.9588 15.3616 24.9876 15.355 25.0154C15.3176 25.1726 15.2853 25.3084 15.1527 25.4516C14.9815 25.6366 14.7066 25.6419 14.6759 25.6419H14.6742L6.71497 25.6431C5.9207 25.6431 5.09051 25.9832 4.5483 26.5308C4.14599 26.937 3.93606 27.4112 3.94117 27.902C3.94722 28.4819 4.25644 29.0115 4.81173 29.3934C5.32629 29.7473 6.02003 29.9503 6.71497 29.9503H16.741Z" fill="url(#paint2_radial_27_1079)"/>
<path d="M17.6896 9.82202H17.7069C18.9538 9.83504 19.8598 11.2051 19.8598 12.5941V24.7388C19.8599 24.9211 19.8448 25.1031 19.8149 25.2829V26.6201C19.8149 28.4308 18.5528 29.9504 16.7409 29.9504H6.71432C5.32439 29.9504 3.95349 29.1483 3.94052 27.9021C3.92755 26.656 5.32439 25.6432 6.71432 25.6432L14.6736 25.642C14.6736 25.642 14.9718 25.6464 15.1521 25.4517C15.3085 25.2827 15.3259 25.1216 15.3753 24.9295C15.3868 24.8751 15.3932 24.8198 15.3945 24.7642V12.5942C15.3945 11.2116 16.4489 9.82207 17.6893 9.82202H17.6896Z" fill="url(#paint3_radial_27_1079)"/>
<path d="M19.8599 13.1516V23.9518H20.6041L20.631 13.1526L19.8599 13.1516Z" fill="url(#paint4_linear_27_1079)"/>
<path d="M17.6241 8.83228C19.0581 8.84725 20.6349 10.4228 20.6349 12.0202V25.0362C20.635 25.2459 20.6177 25.4552 20.5832 25.662V26.9028C20.5832 27.9028 20.1857 28.8619 19.4782 29.569C18.7706 30.2761 17.811 30.6733 16.8103 30.6733H6.11188C4.51341 30.6733 2.93691 29.0975 2.92198 27.6644C2.90704 26.2314 4.51346 24.8885 6.11188 24.8885H14.8464V12.0203C14.8464 10.4302 16.1777 8.83228 17.6042 8.83228H17.6241Z" fill="#6B16A8"/>
<path d="M10.0669 16.4075H10.0636C10.0335 16.407 10.0035 16.4028 9.97446 16.395C9.94411 16.3868 9.91466 16.3756 9.8866 16.3614C9.82718 16.3311 9.77332 16.2909 9.72726 16.2426C9.70355 16.2181 9.68188 16.1917 9.66245 16.1637C9.64313 16.1357 9.62629 16.1062 9.61211 16.0753C9.58365 16.015 9.56856 15.9493 9.56787 15.8826L9.57428 13.7391C9.57428 13.7046 9.57076 13.6704 9.5764 13.4323C9.57625 13.3493 9.59286 13.2671 9.62524 13.1906C9.65642 13.1169 9.70164 13.0499 9.75837 12.9933C9.81486 12.9367 9.88181 12.8915 9.9555 12.8603C10.0321 12.8279 10.1144 12.8113 10.1975 12.8115H11.959C12.0256 12.8122 12.0914 12.8273 12.1517 12.8557C12.1826 12.8699 12.2122 12.8867 12.2401 12.906C12.2682 12.9254 12.2947 12.947 12.3193 12.9707C12.3676 13.0167 12.4078 13.0706 12.4382 13.13C12.4523 13.158 12.4636 13.1874 12.4718 13.2178C12.4796 13.2468 12.4838 13.2767 12.4842 13.3068C12.4826 13.3607 12.4703 13.4137 12.448 13.4627C12.4258 13.5118 12.394 13.556 12.3546 13.5927C12.3026 13.6449 12.2414 13.6869 12.1741 13.7167C12.1402 13.7317 12.1049 13.7434 12.0687 13.7516C12.0327 13.7597 11.9959 13.7639 11.9591 13.764H10.5209V15.8826C10.5205 15.9486 10.5076 16.0139 10.483 16.0751C10.4708 16.1058 10.4562 16.1355 10.4391 16.1638C10.4223 16.1918 10.4032 16.2184 10.3819 16.2433C10.3612 16.2676 10.3384 16.29 10.3137 16.3104C10.2898 16.3301 10.2641 16.3474 10.2369 16.3621C10.1849 16.3911 10.1264 16.4067 10.0669 16.4075ZM10.209 12.9306C9.92046 12.9306 9.70287 13.1663 9.70287 13.4789C9.6977 13.7285 9.69548 13.7586 9.69548 13.7888V15.7882C9.69532 15.9005 9.73039 16.01 9.79574 16.1013C9.82384 16.1435 9.86151 16.1785 9.90569 16.2034C9.94987 16.2283 9.99931 16.2424 10.05 16.2445H10.0528C10.1049 16.242 10.1558 16.2279 10.2017 16.2031C10.2477 16.1784 10.2875 16.1438 10.3183 16.1017C10.3898 16.0127 10.4293 15.9022 10.4306 15.7881V13.7845C10.4309 13.7754 10.4319 13.7663 10.4337 13.7574C10.435 13.7526 10.4361 13.7479 10.4372 13.7433C10.4411 13.7166 10.4527 13.6917 10.4705 13.6714C10.4917 13.6514 10.5198 13.6402 10.549 13.6401H10.5492H11.8597C11.993 13.639 12.1207 13.5866 12.2163 13.4939C12.2473 13.4649 12.2722 13.43 12.2893 13.3912C12.3065 13.3524 12.3157 13.3105 12.3163 13.2681C12.3144 13.2186 12.3003 13.1703 12.2753 13.1275C12.2503 13.0846 12.2152 13.0486 12.173 13.0226C12.0798 12.9618 11.9708 12.9299 11.8596 12.9309L10.209 12.9306Z" fill="url(#paint5_radial_27_1079)"/>
<path d="M9.70052 13.48H9.57695L9.57178 14.3823H9.69509L9.70052 13.48Z" fill="url(#paint6_linear_27_1079)"/>
<path d="M10.0527 16.2447H10.0498C9.84452 16.2426 9.69531 16.017 9.69531 15.7883V13.7887C9.6953 13.7587 9.69777 13.7288 9.7027 13.6992V13.479C9.7027 13.1809 9.91052 12.9307 10.2088 12.9307H11.8596C12.0885 12.9307 12.3142 13.0627 12.3163 13.2679C12.3184 13.473 12.0885 13.6398 11.8596 13.6398H10.5491C10.5199 13.6401 10.4919 13.6513 10.4706 13.6713C10.4504 13.6959 10.4376 13.7256 10.4337 13.7571C10.4318 13.7661 10.4307 13.7752 10.4305 13.7843V15.7882C10.4305 16.0159 10.2569 16.2446 10.0527 16.2447H10.0527Z" fill="#6B16A8"/>
<path d="M10.0636 16.4075C9.82748 16.405 9.56787 16.1456 9.56787 15.8826V13.7396C9.56786 13.7051 9.57071 13.6706 9.5764 13.6366V13.4323C9.5764 13.2677 9.64184 13.1098 9.75832 12.9934C9.8748 12.8769 10.0328 12.8115 10.1975 12.8115H11.959C12.2221 12.8115 12.4817 13.071 12.4842 13.3069C12.4866 13.5428 12.2221 13.764 11.959 13.764H10.5209V15.8826C10.5209 16.1444 10.3017 16.4076 10.0668 16.4075H10.0636Z" fill="#6B16A8"/>
<path d="M12.198 14.2656H12.2014C12.2315 14.2661 12.2614 14.2703 12.2905 14.2781C12.3208 14.2862 12.3503 14.2975 12.3783 14.3116C12.4377 14.342 12.4916 14.3822 12.5377 14.4304C12.5614 14.455 12.5832 14.4814 12.6027 14.5095C12.622 14.5375 12.6388 14.567 12.653 14.5979C12.6815 14.6582 12.6966 14.7239 12.6973 14.7905L12.6908 16.934C12.6908 16.9686 12.6944 17.0028 12.6887 17.2409C12.6889 17.3239 12.6723 17.4061 12.6399 17.4825C12.6087 17.5562 12.5635 17.6233 12.5068 17.6798C12.4502 17.7365 12.3831 17.7817 12.3093 17.8128C12.2328 17.8452 12.1506 17.8618 12.0675 17.8617H10.3061C10.2394 17.861 10.1737 17.8459 10.1134 17.8174C10.0825 17.8033 10.0529 17.7864 10.025 17.7671C9.99686 17.7478 9.97038 17.7261 9.94579 17.7025C9.89749 17.6564 9.8573 17.6026 9.82692 17.5432C9.81274 17.5152 9.80149 17.4858 9.79332 17.4554C9.78545 17.4263 9.78124 17.3964 9.78076 17.3662C9.78241 17.3124 9.79471 17.2594 9.81696 17.2103C9.8392 17.1612 9.87096 17.117 9.91038 17.0803C9.96237 17.0283 10.0236 16.9863 10.0909 16.9566C10.1248 16.9416 10.1601 16.9299 10.1962 16.9218C10.2322 16.9136 10.269 16.9095 10.3059 16.9094H11.744V14.7905C11.7444 14.7245 11.7572 14.6592 11.7819 14.598C11.794 14.5673 11.8087 14.5377 11.8257 14.5094C11.8426 14.4813 11.8617 14.4548 11.8829 14.4299C11.9037 14.4056 11.9265 14.3831 11.9512 14.3627C11.975 14.343 12.0008 14.3258 12.028 14.3111C12.08 14.282 12.1385 14.2664 12.198 14.2656V14.2656ZM12.0559 17.7426C12.3445 17.7426 12.5621 17.5068 12.5621 17.1942C12.5672 16.9446 12.5694 16.9145 12.5694 16.8843V14.885C12.5696 14.7727 12.5345 14.6632 12.4692 14.5718C12.4411 14.5296 12.4034 14.4947 12.3593 14.4698C12.3151 14.4449 12.2657 14.4308 12.215 14.4286H12.2122C12.1601 14.4311 12.1092 14.4453 12.0633 14.47C12.0173 14.4947 11.9775 14.5294 11.9467 14.5714C11.8752 14.6605 11.8357 14.7709 11.8344 14.885V16.8887C11.8342 16.8978 11.8331 16.9068 11.8313 16.9157C11.8301 16.9206 11.8289 16.9253 11.8278 16.9299C11.8239 16.9565 11.8123 16.9815 11.7946 17.0017C11.7733 17.0218 11.7453 17.033 11.716 17.0331H11.7158H10.4053C10.272 17.0341 10.1443 17.0865 10.0487 17.1792C10.0177 17.2082 9.99287 17.2432 9.9757 17.282C9.95853 17.3207 9.94935 17.3626 9.94873 17.405C9.95064 17.4546 9.96471 17.5029 9.9897 17.5457C10.0147 17.5885 10.0498 17.6245 10.0921 17.6506C10.1852 17.7113 10.2942 17.7432 10.4054 17.7422L12.0559 17.7426Z" fill="url(#paint7_radial_27_1079)"/>
<path d="M12.2124 14.4285H12.2153C12.4206 14.4306 12.5698 14.6562 12.5698 14.8849V16.8844C12.5698 16.9144 12.5673 16.9444 12.5624 16.974V17.1942C12.5624 17.4923 12.3546 17.7425 12.0562 17.7425H10.4054C10.1766 17.7425 9.95086 17.6104 9.94875 17.4053C9.94663 17.2001 10.1766 17.0334 10.4054 17.0334H11.7159C11.7452 17.0332 11.7733 17.022 11.7947 17.002C11.8148 16.9774 11.8276 16.9476 11.8314 16.916C11.8333 16.907 11.8344 16.8979 11.8346 16.8888V14.8849C11.8346 14.6573 12.0082 14.4285 12.2124 14.4285H12.2124Z" fill="url(#paint8_radial_27_1079)"/>
<path d="M12.5693 14.9768V16.755H12.6919L12.6963 14.977L12.5693 14.9768Z" fill="url(#paint9_linear_27_1079)"/>
<path d="M12.2014 14.2656C12.4375 14.2681 12.6971 14.5275 12.6971 14.7905V16.9335C12.6971 16.968 12.6943 17.0025 12.6886 17.0365V17.2407C12.6886 17.4054 12.6231 17.5633 12.5066 17.6797C12.3902 17.7961 12.2322 17.8615 12.0674 17.8615H10.306C10.0428 17.8615 9.78326 17.6021 9.78078 17.3661C9.7783 17.1302 10.0428 16.9091 10.306 16.9091H11.7441V14.7905C11.7441 14.5287 11.9633 14.2656 12.1982 14.2656H12.2014Z" fill="#6B16A8"/>
<path d="M50.6407 6.40625C52.2731 5.06073 51.6412 2.89733 49.7719 1.97393C47.8761 1.02415 43.9531 1.18245 41.3202 2.10585C37.4761 3.47776 35.0801 7.38242 39.0032 9.99432C40.9779 11.3135 44.506 12.2632 46.1384 13.5824C49.3243 16.1679 47.4549 20.7058 43.0316 23.0275C37.7657 25.7713 28.3135 25.0853 28.3662 18.5424C28.3965 16.7934 28.9066 15.0866 29.8406 13.6088C30.3248 12.8468 30.9399 12.1769 31.6573 11.6301C32.5262 10.9705 31.7626 11.076 31.394 11.2343C28.8138 12.4479 26.7601 16.036 26.8917 18.5424C27.3393 25.9823 38.5556 26.7211 44.506 23.1594C48.9556 20.4947 52.4838 15.5347 47.1126 12.2105C45.1642 10.9969 42.505 10.0735 40.8989 9.09731C37.3444 6.90753 39.1875 3.95265 42.3207 2.81818C50.7987 -0.215844 52.2995 6.32711 49.0083 6.72285C48.1394 6.82838 48.1658 7.43519 48.8767 7.25051C49.5163 7.09361 50.1169 6.8062 50.6407 6.40625ZM59.5663 17.8828C59.8296 17.3288 59.303 17.3815 59.0924 17.8564C58.4868 19.2547 57.0651 22.3679 54.7481 22.3679C53.0103 22.3679 53.4579 19.7032 53.8529 18.7534C54.5638 18.7534 56.2752 18.1994 57.0914 17.5926C58.7765 16.2998 59.54 14.5058 58.5395 13.7407C57.381 12.8701 55.38 13.8726 54.0372 15.4556C52.8787 16.8275 51.9835 18.8062 52.0098 20.3892C52.0362 22.0513 53.221 22.9219 54.5374 22.9219C57.46 22.9219 58.5921 19.9934 59.5663 17.8828ZM56.8281 17.1441C55.8802 17.9356 54.5111 18.3049 54.0372 18.3049C54.4857 17.4308 55.0146 16.6006 55.6169 15.8249C58.8554 11.8939 58.9871 15.3237 56.8281 17.1441ZM66.5436 9.80964C68.4393 5.58839 65.5957 5.21903 63.7263 8.35859C62.1992 10.9177 60.5405 14.7169 59.7243 17.6717C59.2767 19.2547 58.0129 22.8692 60.9618 22.8692C63.621 22.8692 64.9902 19.3075 65.6484 17.9092C65.8853 17.3815 65.4904 17.3288 65.2534 17.7773C64.6827 18.9383 64.0317 20.0579 63.3051 21.1279C61.9096 23.0802 59.8033 22.6317 60.5932 19.4658C60.7511 18.8062 61.0144 18.173 61.1461 17.7245C63.7263 15.3764 65.3324 12.5271 66.5436 9.80964ZM66.1486 9.4139C65.1218 11.8675 63.2261 14.9807 61.3567 16.8802C62.1729 14.7696 64.2266 10.0471 65.5167 8.22667C66.9385 6.19519 66.6752 8.20029 66.1486 9.4139ZM73.8631 6.43264C73.4682 6.4854 73.0206 6.30072 72.7046 6.30072C71.5988 6.30072 71.0459 7.01306 70.4666 8.14752C69.0185 10.865 66.9648 15.139 65.0691 19.413C64.8997 19.3936 64.7282 19.4094 64.5651 19.4593C64.402 19.5093 64.251 19.5923 64.1213 19.7032C63.621 20.0726 63.3841 21.207 63.937 22.0513C62.3836 25.7185 61.1724 28.9108 61.2251 30.6257C61.2514 31.681 61.857 31.9712 62.5942 31.9976C65.4378 32.1295 67.4388 26.5364 67.1228 22.8428C68.9922 22.8428 70.4403 20.0726 71.4145 17.8564C71.5988 17.4607 71.2039 17.3288 71.0196 17.6717C70.1507 19.5185 68.6499 22.447 67.0702 22.3415L66.9912 21.9985C66.8069 21.0751 66.4909 20.4419 66.1486 20.0198C68.7816 14.0837 72.2044 7.98923 73.8631 6.43264ZM66.5699 22.9483C66.6226 25.2964 65.6747 28.5415 64.3846 30.23C63.3577 31.6019 62.1466 32.1032 62.8575 29.0427C63.2788 27.3015 64.1213 24.8479 65.0428 22.5262C65.3851 22.8164 66.0433 23.0011 66.5699 22.9483ZM66.5173 22.447H66.3593C65.8853 22.447 65.4641 22.236 65.3061 21.9458L65.8853 20.6266C66.0437 20.8197 66.1765 21.0325 66.2803 21.2598C66.4197 21.641 66.4996 22.0414 66.5173 22.447ZM75.6008 11.7884C75.6295 11.6539 75.6268 11.5146 75.5931 11.3813C75.5594 11.248 75.4955 11.1243 75.4064 11.0197C75.3173 10.9151 75.2054 10.8324 75.0793 10.7782C74.9532 10.7239 74.8164 10.6994 74.6793 10.7067C74.3781 10.7186 74.0896 10.8318 73.8603 11.028C73.6311 11.2242 73.4744 11.4921 73.4155 11.7884C73.3365 12.3952 73.7315 12.8701 74.337 12.8701C74.6395 12.8622 74.9301 12.7505 75.1602 12.5536C75.3903 12.3567 75.5459 12.0865 75.6008 11.7884ZM71.8884 20.5739C71.9411 20.3892 72.2044 19.8087 72.2044 19.8087L74.3107 14.8752C74.6003 14.242 74.6003 13.9518 73.7578 13.9518L72.3097 13.9781C72.415 14.11 72.7836 14.5849 72.573 15.0862L70.8879 19.3866C70.335 20.7585 70.335 22.8164 72.3097 22.8164C74.258 22.8164 75.7588 19.4658 76.4434 17.9883C76.6803 17.4607 76.3117 17.276 76.1011 17.7509C75.3639 19.2283 74.495 20.8641 73.6261 21.7347C73.3365 21.9985 72.8363 22.2887 72.4413 22.236C71.7041 22.1832 71.6515 21.4445 71.8884 20.5739ZM83.5259 17.8828C83.7892 17.3288 83.2626 17.3815 83.052 17.8564C82.4464 19.2547 81.0247 22.3679 78.7077 22.3679C76.97 22.3679 77.4176 19.7032 77.8125 18.7534C78.5234 18.7534 80.2348 18.1994 81.051 17.5926C82.7361 16.2998 83.4996 14.5058 82.4991 13.7407C81.3406 12.8701 79.3396 13.8726 77.9968 15.4556C76.8383 16.8275 75.9431 18.8062 75.9694 20.3892C75.9958 22.0513 77.1806 22.9219 78.4971 22.9219C81.4196 22.9219 82.5518 19.9934 83.5259 17.8828ZM80.7877 17.1441C79.8398 17.9356 78.4707 18.3049 77.9968 18.3049C78.4453 17.4308 78.9742 16.6006 79.5766 15.8249C82.8151 11.8939 82.9467 15.3237 80.7877 17.1441Z" fill="#6B16A8"/>
</g>
<defs>
<radialGradient id="paint0_radial_27_1079" cx="0" cy="0" r="1" gradientUnits="userSpaceOnUse" gradientTransform="translate(46.1551 -34.6436) rotate(90.6306) scale(19.4729 119.415)">
<stop stop-color="white"/>
<stop offset="0.102" stop-color="#E5E3E6"/>
<stop offset="0.277" stop-color="#11031A"/>
<stop offset="0.557" stop-color="#440E6A"/>
<stop offset="1" stop-color="#191022"/>
</radialGradient>
<linearGradient id="paint1_linear_27_1079" x1="2.0462" y1="4.06055" x2="2.0462" y2="9.5407" gradientUnits="userSpaceOnUse">
<stop stop-color="#655C6B"/>
<stop offset="1" stop-color="#300A4B"/>
</linearGradient>
<radialGradient id="paint2_radial_27_1079" cx="0" cy="0" r="1" gradientUnits="userSpaceOnUse" gradientTransform="translate(155.083 37.2912) rotate(-89.3694) scale(19.4734 119.415)">
<stop/>
<stop offset="0.102" stop-color="#1E1E1E"/>
<stop offset="0.277" stop-color="white"/>
<stop offset="0.442" stop-color="#440E6A"/>
<stop offset="0.701" stop-color="#55485E"/>
<stop offset="0.863" stop-color="#E9E8EA"/>
<stop offset="1" stop-color="white"/>
</radialGradient>
<radialGradient id="paint3_radial_27_1079" cx="0" cy="0" r="1" gradientUnits="userSpaceOnUse" gradientTransform="translate(97.9583 9.52369) rotate(-115.862) scale(26.5095 75.5528)">
<stop stop-color="#EEDAFC"/>
<stop offset="0.136" stop-color="#D4B2EB"/>
<stop offset="0.32" stop-color="#8941BA"/>
<stop offset="0.44" stop-color="#7727AF"/>
<stop offset="1" stop-color="#6B15A8"/>
</radialGradient>
<linearGradient id="paint4_linear_27_1079" x1="20.2454" y1="13.1516" x2="20.2454" y2="23.9518" gradientUnits="userSpaceOnUse">
<stop stop-color="#958D9A"/>
<stop offset="1" stop-color="#CCBED7"/>
</linearGradient>
<radialGradient id="paint5_radial_27_1079" cx="0" cy="0" r="1" gradientUnits="userSpaceOnUse" gradientTransform="translate(50.5124 -26.1296) rotate(90.6306) scale(3.20615 19.6609)">
<stop stop-color="white"/>
<stop offset="0.102" stop-color="#E5E3E6"/>
<stop offset="0.277" stop-color="#11031A"/>
<stop offset="0.557" stop-color="#440E6A"/>
<stop offset="1" stop-color="#191022"/>
</radialGradient>
<linearGradient id="paint6_linear_27_1079" x1="9.63615" y1="13.48" x2="9.63615" y2="14.3823" gradientUnits="userSpaceOnUse">
<stop stop-color="#655C6B"/>
<stop offset="1" stop-color="#300A4B"/>
</linearGradient>
<radialGradient id="paint7_radial_27_1079" cx="0" cy="0" r="1" gradientUnits="userSpaceOnUse" gradientTransform="translate(67.5193 52.2474) rotate(-89.3694) scale(3.20632 19.6612)">
<stop/>
<stop offset="0.102" stop-color="#1E1E1E"/>
<stop offset="0.277" stop-color="white"/>
<stop offset="0.442" stop-color="#440E6A"/>
<stop offset="0.701" stop-color="#55485E"/>
<stop offset="0.863" stop-color="#E9E8EA"/>
<stop offset="1" stop-color="white"/>
</radialGradient>
<radialGradient id="paint8_radial_27_1079" cx="0" cy="0" r="1" gradientUnits="userSpaceOnUse" gradientTransform="translate(73.1363 44.4128) rotate(-115.862) scale(4.36463 12.4393)">
<stop stop-color="#EEDAFC"/>
<stop offset="0.136" stop-color="#D4B2EB"/>
<stop offset="0.32" stop-color="#8941BA"/>
<stop offset="0.44" stop-color="#7727AF"/>
<stop offset="1" stop-color="#6B15A8"/>
</radialGradient>
<linearGradient id="paint9_linear_27_1079" x1="12.6328" y1="14.9768" x2="12.6328" y2="16.755" gradientUnits="userSpaceOnUse">
<stop stop-color="#958D9A"/>
<stop offset="1" stop-color="#CCBED7"/>
</linearGradient>
<clipPath id="clip0_27_1079">
<rect width="85.3333" height="32" fill="white"/>
</clipPath>
</defs>
</svg>
