<svg width="26" height="26" viewBox="0 0 26 26" fill="none" xmlns="http://www.w3.org/2000/svg">
<g clip-path="url(#clip0_27_1071)">
<path d="M2.02417 20.1017C2.02331 20.2308 2.04811 20.3588 2.09713 20.4783C2.14615 20.5978 2.21842 20.7063 2.30974 20.7976C2.40105 20.889 2.5096 20.9612 2.62908 21.0103C2.74856 21.0593 2.87658 21.0841 3.00572 21.0832H23.1151C23.3755 21.0832 23.6251 20.9798 23.8092 20.7957C23.9933 20.6116 24.0967 20.362 24.0967 20.1017C24.0967 19.8413 23.9933 19.5917 23.8092 19.4076C23.6251 19.2235 23.3755 19.1201 23.1151 19.1201H3.00637C2.74678 19.1227 2.49852 19.2269 2.31489 19.4104C2.13126 19.5939 2.02688 19.8421 2.02417 20.1017Z" fill="#6E7191"/>
<path d="M24.2534 12.9999C24.2543 12.8707 24.2295 12.7427 24.1804 12.6232C24.1314 12.5038 24.0592 12.3952 23.9678 12.3039C23.8765 12.2126 23.768 12.1403 23.6485 12.0913C23.529 12.0423 23.401 12.0175 23.2718 12.0183L2.84978 12.0183C2.58937 12.0183 2.33962 12.1218 2.15549 12.3059C1.97135 12.4901 1.8679 12.7398 1.8679 13.0002C1.8679 13.2606 1.97135 13.5104 2.15549 13.6945C2.33962 13.8786 2.58937 13.9821 2.84978 13.9821L23.2718 13.9821C23.532 13.9812 23.7813 13.8774 23.9652 13.6934C24.1491 13.5094 24.2527 13.2601 24.2534 12.9999Z" fill="#6E7191"/>
<path d="M2.02417 5.8983C2.02331 6.02744 2.04811 6.15546 2.09713 6.27494C2.14615 6.39442 2.21842 6.50297 2.30974 6.59428C2.40105 6.6856 2.5096 6.75787 2.62908 6.80689C2.74856 6.85591 2.87658 6.88071 3.00572 6.87985L23.1151 6.87985C23.3755 6.87985 23.6251 6.77643 23.8092 6.59236C23.9933 6.40828 24.0967 6.15862 24.0967 5.8983C24.0967 5.63797 23.9933 5.38831 23.8092 5.20424C23.6251 5.02016 23.3755 4.91675 23.1151 4.91675L3.00637 4.91675C2.7462 4.91743 2.49687 5.02105 2.31284 5.20496C2.12881 5.38886 2.02503 5.63813 2.02417 5.8983Z" fill="#6E7191"/>
</g>
<defs>
<clipPath id="clip0_27_1071">
<rect width="26" height="26" fill="white"/>
</clipPath>
</defs>
</svg>
