<svg width="41" height="40" viewBox="0 0 41 40" fill="none" xmlns="http://www.w3.org/2000/svg">
<path d="M20.9647 31.2188C17.215 31.2226 13.4893 30.6205 9.93168 29.4358C9.29177 29.2347 8.70536 28.892 8.21596 28.4332C7.72657 27.9745 7.34675 27.4114 7.10468 26.7858C6.87884 26.158 6.80087 25.4865 6.87684 24.8236C6.95281 24.1607 7.18066 23.5243 7.54268 22.9638L9.38968 19.8958C9.82668 19.0656 10.0788 18.1507 10.1287 17.2138L10.6107 12.5728C10.6067 6.59784 14.9907 2.74384 20.9647 2.74384C26.9387 2.74384 31.3237 6.59784 31.3237 12.5728L31.8057 17.2138C31.8595 18.1558 32.1113 19.0758 32.5447 19.9138L34.3757 22.9648C34.7163 23.5351 34.9248 24.1744 34.9859 24.8358C35.047 25.4972 34.9591 26.1639 34.7287 26.7868C34.5013 27.4075 34.1361 27.9685 33.6604 28.4276C33.1847 28.8866 32.6111 29.2317 31.9827 29.4368C28.4305 30.6225 24.7095 31.2243 20.9647 31.2188V31.2188Z" fill="#8E0606"/>
<path d="M20.9237 32.3757C21.4003 32.3757 21.8663 32.517 22.2626 32.7818C22.6589 33.0466 22.9678 33.423 23.1502 33.8634C23.3326 34.3038 23.3804 34.7883 23.2874 35.2558C23.1944 35.7233 22.9648 36.1528 22.6278 36.4898C22.2908 36.8268 21.8613 37.0564 21.3938 37.1494C20.9263 37.2424 20.4418 37.1946 20.0014 37.0122C19.561 36.8298 19.1846 36.5209 18.9198 36.1246C18.655 35.7283 18.5137 35.2623 18.5137 34.7857C18.5137 34.1465 18.7676 33.5335 19.2195 33.0815C19.6715 32.6296 20.2845 32.3757 20.9237 32.3757Z" fill="#15C0AB"/>
</svg>
