<svg width="371" height="215" viewBox="0 0 371 215" fill="none" xmlns="http://www.w3.org/2000/svg">
<g clip-path="url(#clip0_27_1104)">
<path d="M365.46 77.9585C367.704 85.6592 369.083 93.5868 369.57 101.594C371.668 132.342 363.26 159.44 355.837 176.758C352.47 184.633 348.556 192.262 344.124 199.589" stroke="#E6D8F1" stroke-width="2.118" stroke-miterlimit="10"/>
<path d="M40.2016 198.116C31.3734 154.228 29.939 118.821 35.8091 89.9999C37.9199 79.3315 41.3425 68.966 45.9987 59.1404" stroke="#E2D3EE" stroke-width="2.118" stroke-miterlimit="10"/>
<path d="M360.335 73.5896C363.657 82.674 365.619 92.2001 366.16 101.859C368.205 131.836 359.984 158.308 352.728 175.238C349.16 183.601 344.956 191.677 340.153 199.395" stroke="#DECDEB" stroke-width="2.118" stroke-miterlimit="10"/>
<path d="M43.6993 198.114C34.8362 154.39 33.3505 119.242 39.1486 90.7706C41.7477 77.3496 46.5654 64.4571 53.4029 52.6243" stroke="#E2D3EE" stroke-width="2.118" stroke-miterlimit="10"/>
<path d="M354.682 69.2251C359.224 78.6367 361.893 89.5649 362.751 102.125C364.745 131.329 356.712 157.172 349.621 173.718C345.842 182.611 341.314 191.166 336.086 199.289" stroke="#DECDEB" stroke-width="2.118" stroke-miterlimit="10"/>
<path d="M47.1956 198.12C38.2996 154.56 36.7605 119.671 42.4867 91.5516C46.0541 74.0352 52.5643 58.768 61.8373 46.176" stroke="#E2D3EE" stroke-width="2.118" stroke-miterlimit="10"/>
<path d="M51.237 200.726H330.866C330.866 200.726 363.099 157.431 359.34 102.39C355.582 47.35 316.697 33.6293 267.733 24.6314C218.769 15.6334 161.433 -10.0609 104.092 16.7807C35.2216 49.019 35.2072 124.686 51.237 200.726Z" fill="#E3D3EF"/>
<path d="M200.14 143.965C195.003 92.5641 134.301 93.9706 134.301 93.9706C112.801 61.7334 74.3366 61.2868 55.5213 63.2984C37.0871 100.751 40.6813 150.654 51.2367 200.726H259.228C252.165 146.491 200.14 143.965 200.14 143.965Z" fill="url(#paint0_linear_27_1104)"/>
<path d="M330.869 200.727C330.869 200.727 363.102 157.432 359.343 102.391C358.29 86.9719 354.479 74.7976 348.463 65.0588C329.297 69.157 298.809 81.1101 277.139 115.865C260.711 142.34 247.852 170.874 238.894 200.726L330.869 200.727Z" fill="url(#paint1_linear_27_1104)"/>
<path d="M21.2669 140.439C21.2669 140.439 15.9795 130.746 13.3727 127.629C9.81353 123.37 3.44208 122.675 0.698687 129.469C-1.82585 135.722 2.93347 140.052 7.97227 141.023C13.0111 141.995 21.2669 140.439 21.2669 140.439Z" fill="url(#paint2_linear_27_1104)"/>
<path d="M28.8705 137.986C28.8705 137.986 27.3293 126.759 27.9941 121.451C28.6589 116.143 33.4346 115.546 36.5911 117.06C39.7475 118.573 42.1868 121.991 40.587 127.135C38.9872 132.278 28.8705 137.986 28.8705 137.986Z" fill="url(#paint3_linear_27_1104)"/>
<path d="M26.3396 155.416C26.3396 155.416 18.5214 147.979 14.7351 146.149C10.9488 144.32 5.46616 145.621 4.7685 150.994C4.07083 156.368 6.12683 160.184 12.0904 160.94C18.0539 161.696 26.3396 155.416 26.3396 155.416Z" fill="url(#paint4_linear_27_1104)"/>
<path d="M34.1216 151.518C34.1216 151.518 34.2336 143.366 35.707 138.335C37.1804 133.303 41.3582 132.724 44.3965 134.999C47.4347 137.274 48.642 142.157 46.2634 145.288C43.8848 148.419 34.1216 151.518 34.1216 151.518Z" fill="url(#paint5_linear_27_1104)"/>
<path d="M21.7786 126.782C17.9766 123.631 14.4371 120.176 11.1955 116.449C5.86591 110.314 7.2561 98.9475 16.1541 97.7117C24.2199 96.5912 27.6106 104.283 27.3085 110.432C27.0065 116.581 21.7786 126.782 21.7786 126.782Z" fill="url(#paint6_linear_27_1104)"/>
<path d="M17.6504 104.664C17.6504 104.664 20.662 137.202 40.588 179.63" stroke="#420C68" stroke-width="1.105" stroke-miterlimit="10"/>
<path d="M5.71875 132.554C12.9492 136.752 26.213 142.722 26.213 142.722C26.213 142.722 32.3954 131.414 34.3815 124.65" stroke="#420C68" stroke-width="1.105" stroke-miterlimit="10"/>
<path d="M11.0034 153.133C19.8542 154.564 30.725 156.02 30.725 156.02C30.725 156.02 38.2524 146.292 42.164 139.91" stroke="#420C68" stroke-width="1.105" stroke-miterlimit="10"/>
<path d="M281.903 39.5579H100.155V113.315H281.903V39.5579Z" stroke="white" stroke-width="2.114" stroke-miterlimit="10"/>
<path d="M253.057 194.181H357.963C357.963 194.181 356.748 171.559 347.029 178.857C347.029 178.857 350.066 156.461 347.94 156.403C345.814 156.344 340.042 162.425 340.042 162.425C340.042 162.425 343.079 141.222 338.219 142.395C333.359 143.568 333.663 147.781 333.663 147.781C333.663 147.781 336.7 125.771 333.971 112.919C331.242 100.068 334.579 88.3589 329.111 87.2168C323.644 86.0747 316.657 120.745 316.657 120.745C316.657 120.745 312.101 118.624 309.978 134.441C309.978 134.441 299.692 127.136 299.368 150.259C299.368 150.259 282.235 148.186 279.704 166.561C279.704 166.561 268.895 165.695 265.935 173.523C262.975 181.351 252.181 183.588 253.057 194.181Z" fill="url(#paint7_linear_27_1104)"/>
<path d="M123.516 194.182H10.8286C10.8286 194.182 14.2799 189.995 18.1587 188.891C18.1587 188.891 19.815 173.592 29.2083 173.187C29.2083 173.187 44.3586 129.723 51.6959 156.701C51.6959 156.701 50.8328 124.702 65.1252 140.468C65.1252 140.468 67.8377 112.834 73.7684 112.389C79.699 111.945 82.4239 142.971 82.4239 142.971C82.4239 142.971 89.9719 142.765 93.9565 148.243C93.9565 148.243 93.2033 116.254 99.1966 116.157C105.19 116.061 106.955 147.311 106.955 147.311C106.955 147.311 124.149 136.584 116.81 181.707C116.808 181.706 124.982 180.892 123.516 194.182Z" fill="url(#paint8_linear_27_1104)"/>
<path d="M184.903 143.133L179.465 199.576" stroke="#7817BE" stroke-width="3.171" stroke-miterlimit="10"/>
<path d="M202.348 143.133L207.787 199.576" stroke="#7817BE" stroke-width="3.171" stroke-miterlimit="10"/>
<path d="M183.547 157.203H203.79" stroke="#7817BE" stroke-width="3.171" stroke-miterlimit="10"/>
<path d="M182.434 169.656H204.903" stroke="#7817BE" stroke-width="3.341" stroke-miterlimit="10"/>
<path d="M204.723 138.616H182.529C180.837 138.616 179.465 139.989 179.465 141.683C179.465 143.378 180.837 144.751 182.529 144.751H204.723C206.415 144.751 207.787 143.378 207.787 141.683C207.787 139.989 206.415 138.616 204.723 138.616Z" fill="#430C6B"/>
<path d="M229.956 143.133L224.517 199.576" stroke="#7817BE" stroke-width="3.171" stroke-miterlimit="10"/>
<path d="M247.4 143.133L252.839 199.576" stroke="#7817BE" stroke-width="3.171" stroke-miterlimit="10"/>
<path d="M228.599 157.203H248.843" stroke="#7817BE" stroke-width="3.171" stroke-miterlimit="10"/>
<path d="M227.486 169.656H249.955" stroke="#7817BE" stroke-width="3.341" stroke-miterlimit="10"/>
<path d="M249.775 138.616H227.581C225.889 138.616 224.517 139.989 224.517 141.683C224.517 143.378 225.889 144.751 227.581 144.751H249.775C251.467 144.751 252.839 143.378 252.839 141.683C252.839 139.989 251.467 138.616 249.775 138.616Z" fill="#450970"/>
<path d="M189.551 206.689C191.741 206.689 193.517 205.722 193.517 204.529C193.517 203.335 191.741 202.368 189.551 202.368C187.36 202.368 185.584 203.335 185.584 204.529C185.584 205.722 187.36 206.689 189.551 206.689Z" fill="#E2D0EF"/>
<path d="M189.849 181.706L189.971 192.972C190.374 194.084 190.574 195.259 190.562 196.441C190.546 198.419 192.315 201.473 190.747 202.89C189.179 204.306 187.345 203.128 187.21 201.146C187.076 199.163 187.192 197.236 186.672 196.155C186.152 195.075 186.055 193.308 186.796 192.515L184.897 181.891L189.849 181.706Z" fill="#FF6D6D"/>
<path d="M189.193 196.801C189.017 196.819 188.827 196.84 188.638 196.866C188.401 196.901 188.159 196.844 187.961 196.707C187.764 196.57 187.625 196.363 187.574 196.128L186.795 192.515C186.058 193.308 186.15 195.073 186.671 196.155C187.192 197.238 187.075 199.162 187.209 201.146C187.344 203.129 189.178 204.307 190.747 202.89C192.316 201.472 190.541 198.419 190.562 196.441C190.574 195.259 190.374 194.084 189.971 192.972L190.074 195.783C190.084 196.033 189.998 196.277 189.834 196.466C189.671 196.655 189.442 196.775 189.193 196.801Z" fill="#0C3069"/>
<path d="M214.604 177.77L216.228 188.919C216.775 189.967 217.13 191.105 217.276 192.278C217.524 194.24 219.685 197.03 218.32 198.644C216.956 200.258 214.98 199.335 214.582 197.389C214.185 195.442 214.043 193.52 213.382 192.516C212.722 191.512 212.396 189.776 213.02 188.891L209.72 178.617L214.604 177.77Z" fill="#FF6D6D"/>
<path d="M215.972 192.818C215.799 192.859 215.615 192.907 215.431 192.957C215.2 193.023 214.953 192.999 214.739 192.889C214.524 192.78 214.36 192.594 214.277 192.368L213.023 188.891C212.399 189.776 212.726 191.512 213.385 192.516C214.045 193.52 214.187 195.441 214.586 197.389C214.984 199.337 216.959 200.258 218.324 198.644C219.688 197.03 217.526 194.24 217.28 192.278C217.134 191.105 216.779 189.967 216.232 188.919L216.709 191.691C216.753 191.937 216.7 192.191 216.563 192.401C216.426 192.61 216.215 192.76 215.972 192.818Z" fill="#0C3069"/>
<path d="M184.781 90.536C184.781 90.536 191.502 96.1004 199.02 92.5938C199.02 92.5938 198.994 91.7192 199.755 91.7192C202.53 92.0976 205.219 92.9554 207.702 94.2545C213.575 97.0429 226.988 112.128 226.434 119.755C226.03 125.332 221.979 127.157 218.335 127.005C214.69 126.853 214.993 120.668 214.993 120.668L203.552 111.036L201.426 127H177.023L173.58 102.005L165.277 66.4663C165.772 64.6157 166.784 62.9448 168.194 61.6499C168.826 61.0985 169.601 60.7388 170.43 60.6131C171.258 60.4873 172.105 60.6007 172.871 60.94L184.781 90.536Z" fill="#400B65"/>
<path d="M184.781 90.5359L172.871 60.941C172.105 60.6017 171.258 60.4883 170.43 60.614C169.601 60.7398 168.826 61.0995 168.194 61.6509C166.784 62.9458 165.772 64.6166 165.277 66.4673L173.58 102.006C181.63 108.191 184.781 90.5359 184.781 90.5359Z" fill="#540F85"/>
<path d="M218.335 127.001C221.98 127.153 226.03 125.328 226.435 119.751C226.988 112.123 213.576 97.0389 207.702 94.2505C206.791 93.8173 205.939 93.4572 205.149 93.1516C199.799 101.905 203.551 111.032 203.551 111.032L214.992 120.664C214.992 120.664 214.689 126.849 218.335 127.001Z" fill="#58118B"/>
<path d="M220.973 121.064C221.043 124.756 219.936 127.268 217.798 127.008C215.66 126.749 214.62 123.288 214.992 120.662L220.973 121.064Z" fill="#08224A"/>
<path d="M210.388 126.144H194.248L197.872 103.882H214.012L210.388 126.144Z" fill="#FFA526"/>
<path d="M208.301 105.708H202.989L203.443 102.919H208.754L208.301 105.708Z" stroke="white" stroke-width="0.72" stroke-miterlimit="10"/>
<path d="M183.503 135.873C192.308 136.14 191.401 182.92 191.401 182.92H182.389C181.182 180.589 180.459 178.036 180.263 175.417C180.243 171.795 178.542 168.015 178.036 164.162C177.529 160.309 170.138 135.467 183.503 135.873Z" fill="#80371D"/>
<path d="M191.428 179.57H181.019" stroke="#FFA526" stroke-width="0.72" stroke-miterlimit="10"/>
<path d="M202.199 133.197C210.962 132.286 216.304 178.765 216.304 178.765L207.374 179.971C205.866 177.822 204.809 175.39 204.265 172.82C203.763 169.233 201.572 165.714 200.556 161.964C199.54 158.214 188.9 134.583 202.199 133.197Z" fill="#80371D"/>
<path d="M215.941 175.826L205.936 177.219" stroke="#FFA526" stroke-width="0.72" stroke-miterlimit="10"/>
<path d="M188.692 84.5293L188.246 90.0454C188.235 90.1799 188.196 90.3106 188.132 90.4294C188.068 90.5482 187.98 90.6525 187.874 90.7356C187.768 90.8187 187.646 90.8789 187.515 90.9124C187.385 90.9459 187.249 90.952 187.116 90.9302L184.785 90.5362C184.785 90.5362 186.152 98.3334 192.037 99.4353C197.923 100.537 199.024 92.5899 199.024 92.5899L195.797 92.0343L194.126 84.5293H188.692Z" fill="#FF6D6D"/>
<path d="M194.122 84.5293H188.692L188.519 86.6726C189.373 87.6343 190.416 88.4087 191.583 88.9472C192.75 89.4857 194.016 89.7766 195.3 89.8015L194.122 84.5293Z" fill="url(#paint9_linear_27_1104)"/>
<path d="M186.592 81.0433C186.592 81.0433 183.705 75.6188 186.946 73.5404C188.617 69.9155 195.805 70.4731 197.501 74.4777C198.007 75.5496 198.156 76.7551 197.928 77.9182C197.701 79.0813 197.108 80.141 196.236 80.9424L186.592 81.0433Z" fill="#D92727"/>
<path d="M189.24 73.2358C191.107 73.2358 192.62 71.7207 192.62 69.8517C192.62 67.9827 191.107 66.4675 189.24 66.4675C187.374 66.4675 185.861 67.9827 185.861 69.8517C185.861 71.7207 187.374 73.2358 189.24 73.2358Z" fill="#D92727"/>
<path d="M197.002 80.6121C196.863 80.5217 196.703 80.4694 196.538 80.4604C196.372 80.4514 196.208 80.4859 196.06 80.5607C196.205 79.5071 196.312 78.6355 196.312 78.6355C196.312 78.6355 191.603 79.2951 188.667 76.303C188.667 76.303 188.312 78.9391 186.946 79.9042C186.946 79.9042 186.955 80.1439 186.983 80.5154C186.845 80.4689 186.698 80.454 186.554 80.4718C186.409 80.4896 186.27 80.5397 186.148 80.6183C185.54 80.9609 185.893 82.4899 187.235 82.5434C187.322 83.4865 187.679 84.3844 188.262 85.1301C189.245 86.094 190.501 86.7313 191.858 86.9554C193.334 86.4001 194.593 85.3879 195.455 84.0662C195.593 83.563 195.699 83.0512 195.771 82.5341C195.82 82.5403 195.87 82.543 195.919 82.5424C197.258 82.4837 197.61 80.9548 197.002 80.6121Z" fill="#FF6D6D"/>
<path d="M219.297 118.56L201.147 114.453C201.147 114.453 198.034 110.27 197.122 110.08C196.211 109.891 197.503 111.499 197.503 111.499C197.503 111.499 196.203 110.573 195.866 111.183C195.68 111.646 195.68 112.162 195.866 112.624C195.866 112.624 195.455 113.255 196.515 114.308C197.576 115.362 200.465 116.046 200.465 116.046C200.465 116.046 214.028 124.533 217.172 125.705C220.316 126.877 222.79 120.156 219.297 118.56Z" fill="#FF6D6D"/>
<path d="M172.871 60.941C172.105 60.6017 171.258 60.4883 170.43 60.614C169.601 60.7398 168.826 61.0995 168.194 61.6509C166.784 62.9458 165.772 64.6166 165.277 66.4673C168.113 68.698 172.669 63.4248 172.871 60.941Z" fill="#08224A"/>
<path d="M172.761 61.5173L169.37 50.4965C169.37 50.4965 170.622 47.9108 170.433 47.1504C170.244 46.39 169.37 46.6184 169.37 46.6184C169.31 46.2911 169.213 45.972 169.078 45.6677C167.965 46.0105 166.882 46.4426 165.838 46.9601C165.838 46.9601 165.269 48.6711 166.067 49.128C166.021 49.313 166.014 49.5054 166.045 49.6934C166.076 49.8813 166.145 50.0609 166.248 50.2211C166.351 50.3814 166.486 50.5188 166.644 50.6251C166.802 50.7313 166.98 50.8042 167.167 50.8391L170.044 65.4869C171.295 64.4376 172.235 63.0645 172.761 61.5173Z" fill="#FF6D6D"/>
<path d="M134.886 143.133L129.448 199.576" stroke="#7817BE" stroke-width="3.171" stroke-miterlimit="10"/>
<path d="M152.331 143.133L157.77 199.576" stroke="#7817BE" stroke-width="3.171" stroke-miterlimit="10"/>
<path d="M133.53 157.203H153.773" stroke="#7817BE" stroke-width="3.171" stroke-miterlimit="10"/>
<path d="M132.417 169.656H154.886" stroke="#7817BE" stroke-width="3.341" stroke-miterlimit="10"/>
<path d="M154.705 138.616H132.512C130.82 138.616 129.448 139.989 129.448 141.683C129.448 143.378 130.82 144.751 132.512 144.751H154.705C156.398 144.751 157.769 143.378 157.769 141.683C157.769 139.989 156.398 138.616 154.705 138.616Z" fill="#0C3069"/>
<path d="M119.01 26.4052H65.0441C54.1095 26.4052 58.9685 17.2796 65.0441 15.657C71.1196 14.0344 69.7017 4.30079 80.6362 0.448493C86.7066 -1.69064 92.9886 4.50452 92.9886 4.50452C95.1797 3.89875 97.4772 3.78459 99.7173 4.17018C101.957 4.55577 104.085 5.43161 105.948 6.73522C110.031 9.73351 113.114 16.3464 119.01 16.4689C128.73 16.6715 132.881 26.4052 119.01 26.4052Z" fill="#D5ACF2"/>
<path d="M161.962 21.8789C161.962 21.8789 158.943 17.5317 154.074 21.8789C154.074 21.8789 160.975 20.8397 161.962 26.047C162.947 20.8397 169.849 21.8789 169.849 21.8789C164.977 17.5327 161.962 21.8789 161.962 21.8789Z" fill="#D0A3F1"/>
<path d="M310.199 54.5793C310.199 54.5793 307.962 51.3577 304.353 54.5793C304.353 54.5793 309.468 53.8096 310.199 57.666C310.93 53.8065 316.045 54.5793 316.045 54.5793C312.436 51.3577 310.199 54.5793 310.199 54.5793Z" fill="#A1C1ED"/>
<path d="M64.9669 206.355C65.6532 207.841 62.4403 210.793 57.7899 212.948C53.1395 215.104 48.8127 215.646 48.1253 214.161C47.4379 212.677 50.6519 209.724 55.3023 207.568C59.9527 205.413 64.2805 204.869 64.9669 206.355Z" fill="#E2D0EF"/>
<path d="M91.7779 205.578C91.0915 207.064 94.3045 210.016 98.9549 212.171C103.605 214.327 107.932 214.87 108.618 213.385C109.305 211.899 106.093 208.947 101.441 206.791C96.79 204.636 92.4653 204.092 91.7779 205.578Z" fill="#E2D0EF"/>
<path d="M93.4878 196.862L94.3992 203.351C94.3992 203.351 93.3861 206.444 94.3992 207.508C95.4123 208.572 99.3609 210.044 99.3609 210.044C99.3609 210.044 105.79 213.187 106.803 212.527C107.816 211.868 101.234 205.125 101.234 205.125L99.0568 200.157L98.5677 197.01L93.4878 196.862Z" fill="#0C3069"/>
<path d="M99.8119 201.881C99.2251 202.098 98.7171 202.487 98.3541 202.997C97.991 203.507 97.7897 204.115 97.7764 204.741L94.398 203.352C94.398 203.352 93.3849 206.445 94.398 207.509C95.4111 208.572 99.3598 210.044 99.3598 210.044C99.3598 210.044 105.789 213.187 106.802 212.528C107.815 211.868 101.233 205.126 101.233 205.126L99.8119 201.881Z" fill="#7817BE"/>
<path d="M63.2386 196.862V203.351C63.5422 204.02 63.6993 204.746 63.6993 205.481C63.6993 206.215 63.5422 206.942 63.2386 207.61C62.1751 209.739 50.1011 213.77 49.4939 213.237C48.8866 212.704 55.2653 206.773 55.2653 206.773L58.0754 201.881L58.2275 196.862H63.2386Z" fill="#0C3069"/>
<path d="M57.6008 202.707L55.2653 206.774C55.2653 206.774 48.8866 212.706 49.4939 213.239C50.1011 213.772 62.1751 209.74 63.2386 207.611C63.6786 206.704 63.8183 205.679 63.6372 204.686L60.4356 205.406C60.242 204.746 59.878 204.149 59.3802 203.675C58.8825 203.201 58.2687 202.867 57.6008 202.707Z" fill="#7817BE"/>
<path d="M86.8563 106.316L88.8311 122.741C90.3496 128.847 91.4658 135.045 92.1725 141.297C92.7797 148.902 100.83 197.876 100.83 197.876H91.8694C91.0838 196.162 90.7191 194.284 90.8059 192.401C91.1142 189.815 87.9197 187.534 88.3759 184.645C88.8321 181.755 85.1907 176.279 84.4263 170.96C83.6618 165.64 71.9721 128.526 71.9721 128.526L66.5048 172.785C66.5048 172.785 67.4162 180.542 66.5048 183.888C65.5935 187.234 66.1966 191.949 64.6821 197.882H55.818C55.818 197.882 54.6589 162.898 54.5069 154.383C54.3548 145.868 54.437 116.991 57.9233 106.322L86.8563 106.316Z" fill="#4C0C7A"/>
<path d="M55.4399 121.792C65.0089 115.471 81.496 111.641 87.3496 110.426L86.8554 106.311H57.9213C56.749 109.904 55.9629 115.553 55.4399 121.792Z" fill="url(#paint10_linear_27_1104)"/>
<path d="M64.5289 58.4573C64.5289 58.4573 71.7305 48.8245 81.3941 58.4573C81.3941 58.4573 94.0691 58.2515 97.0314 68.1405L104.018 87.8115L126.902 95.4162L125.991 99.4352C125.991 99.4352 108.575 101.122 101.083 99.4352C93.5903 97.7488 88.6286 88.0142 88.6286 88.0142L87.6165 104.035C87.6165 104.035 89.0334 105.961 88.6286 107.076C88.2238 108.191 85.092 108.396 81.393 108.396H57.3395L52.0747 62.2612C56.041 60.4503 60.2285 59.1713 64.5289 58.4573Z" fill="#7817BE"/>
<path d="M53.049 106.32C53.049 106.32 54.8173 107.39 56.0503 106.896C57.2832 106.402 58.1885 105.208 60.2445 104.92C62.3005 104.631 62.7104 104.837 62.7104 105.125C62.7104 105.413 59.9146 105.66 58.845 106.442C58.845 106.442 63.4461 105.619 63.5335 106.483C63.5746 106.895 59.668 106.977 58.7628 107.554C58.7628 107.554 63.2036 107.183 63.2458 107.554C63.2879 107.924 59.3803 108.143 58.7639 108.693C58.7639 108.693 61.9706 108.706 61.7651 109.365C61.5596 110.025 59.7913 109.16 58.434 109.818C57.8695 110.201 57.2035 110.405 56.5219 110.405C55.8403 110.405 55.1743 110.201 54.6097 109.818C53.8986 109.337 53.1235 108.958 52.3071 108.693L53.049 106.32Z" fill="#FF6D6D"/>
<path d="M97.8352 98.1605C97.8301 98.1492 95.1391 92.3718 93.7088 89.6977C92.2786 87.0235 93.9955 83.1979 94.4723 79.8529C94.949 76.5079 90.7148 73.6238 90.7148 73.6238L88.6279 88.0133C88.6279 88.0133 92.1902 94.9997 97.8352 98.1605Z" fill="url(#paint11_linear_27_1104)"/>
<path d="M52.0759 62.2645C55.0752 60.9536 57.4343 78.7962 54.4135 82.7483C51.3927 86.7004 43.6464 95.5985 43.6464 95.5985C43.6464 95.5985 45.1651 96.0544 43.6464 97.4239L54.7341 106.321L53.7066 110.01C53.7066 110.01 41.6706 107.31 33.6963 103.052C25.7219 98.7944 30.734 89.1976 32.4057 85.8207C34.0775 82.4437 42.5655 72.9375 42.5655 72.9375C42.5655 72.9375 45.6963 65.0487 52.0759 62.2645Z" fill="#7817BE"/>
<path d="M49.1392 72.0947C49.1392 72.0947 49.432 75.5704 54.2468 81.2851" stroke="#0C3069" stroke-width="0.889" stroke-miterlimit="10"/>
<path d="M50.4117 75.665C50.4117 75.665 47.7402 81.9199 49.1396 83.2842C50.3664 84.4809 46.3808 89.2571 46.8339 91.8953C49.3307 88.9773 52.6639 85.0324 54.4137 82.743C54.5921 82.5 54.7427 82.2377 54.8627 81.961C53.1497 80.0348 51.6567 77.9231 50.4117 75.665Z" fill="url(#paint12_linear_27_1104)"/>
<path d="M100.155 193.756H90.7822" stroke="#0C3069" stroke-width="0.889" stroke-miterlimit="10"/>
<path d="M65.1218 193.756H55.749" stroke="#0C3069" stroke-width="0.889" stroke-miterlimit="10"/>
<path d="M71.9062 129.046V108.394" stroke="#0C3069" stroke-width="0.889" stroke-miterlimit="10"/>
<path d="M75.0843 108.391V116.732C75.1439 117.815 74.8715 118.891 74.3035 119.815C73.7355 120.74 72.8991 121.468 71.9062 121.903" stroke="#0C3069" stroke-width="0.889" stroke-miterlimit="10"/>
<path d="M81.3952 108.391C81.3952 108.391 81.053 114.52 88.2454 117.869" stroke="#0C3069" stroke-width="0.889" stroke-miterlimit="10"/>
<path d="M61.8544 107.96C61.8544 107.96 59.2363 118.342 55.6895 119.021" stroke="#0C3069" stroke-width="0.889" stroke-miterlimit="10"/>
<path d="M85.6924 151.59C86.617 152.568 87.8179 153.24 89.1345 153.516" stroke="#0C3069" stroke-width="0.889" stroke-miterlimit="10"/>
<path d="M64.3277 152.097C62.589 153.329 60.73 154.383 58.7793 155.24" stroke="#0C3069" stroke-width="0.889" stroke-miterlimit="10"/>
<path d="M68.5381 49.73L64.646 44.2325C64.646 44.2325 61.0323 41.5881 63.1171 37.9694C65.2019 34.3507 71.8733 36.3684 75.001 37.2739C75.001 37.2739 81.3951 37.6216 81.3951 42.0069C81.3951 46.3922 76.4631 49.7321 76.4631 49.7321L68.5381 49.73Z" fill="#0F3D85"/>
<path d="M69.8465 52.1707L68.8991 58.5387C68.8503 58.8423 68.8825 59.1535 68.9926 59.4407C69.1027 59.7279 69.2867 59.9807 69.5259 60.1736C70.4132 60.7626 71.4554 61.0739 72.5199 61.0681C73.5844 61.0622 74.6231 60.7394 75.5038 60.1407C75.755 59.948 75.9499 59.6912 76.0679 59.3973C76.1859 59.1033 76.2229 58.7829 76.1748 58.4697L75.2377 52.1707H69.8465Z" fill="#FF6D6D"/>
<path d="M68.8929 58.7732C71.4507 58.5773 73.8716 57.5381 75.7771 55.8181L75.2356 52.1716H69.8433L68.896 58.5397C68.8901 58.6174 68.8891 58.6954 68.8929 58.7732Z" fill="url(#paint13_linear_27_1104)"/>
<path d="M74.2469 39.552C73.5868 40.7974 72.6412 41.8684 71.4878 42.677C70.3343 43.4856 69.0059 44.0088 67.6114 44.2038C67.6114 44.2038 67.3905 54.6134 72.2556 54.6134C77.1208 54.6134 78.0096 45.5321 78.0096 45.5321C78.0096 45.5321 74.0989 42.433 74.2469 39.552Z" fill="#FF6D6D"/>
<path d="M53.6143 75.7432C53.6143 75.7432 56.7327 71.8878 62.5051 75.7432C63.8359 74.4122 65.6399 73.6646 67.5208 73.6646C69.4017 73.6646 71.2056 74.4122 72.5365 75.7432C72.5365 75.7432 78.1989 70.9762 83.4648 75.7432C83.4648 75.7432 87.9231 73.5104 90.4024 75.7432L88.9814 84.1876H54.6459L53.6143 75.7432Z" fill="#640EA2"/>
<path d="M91.26 68.9009C91.26 68.9009 91.1079 70.8023 90.6528 74.0723C90.1976 77.3422 88.5259 86.7712 88.5259 86.7712" stroke="#0C3069" stroke-width="0.889" stroke-miterlimit="10"/>
<path d="M93.083 73.9202C93.083 73.9202 92.0453 78.4835 89.4868 80.9169" stroke="#0C3069" stroke-width="0.889" stroke-miterlimit="10"/>
<path d="M54.6449 84.1878C54.6449 84.1878 53.3718 73.6249 53.6174 69.3867" stroke="#0C3069" stroke-width="0.889" stroke-miterlimit="10"/>
<path d="M147.477 204.529C147.477 206.443 144.628 207.996 141.113 207.996C137.598 207.996 134.746 206.443 134.746 204.529C134.746 202.614 137.595 201.061 141.111 201.061C144.627 201.061 147.477 202.614 147.477 204.529Z" fill="#E2D0EF"/>
<path d="M138.475 192.578L138.312 198.474C138.312 198.474 136.579 202.854 137.453 202.953C138.327 203.053 139.694 203.105 139.11 204.09C138.527 205.076 137.852 206.381 141.402 206.65C144.952 206.92 145.578 205.745 145.133 204.364C144.238 202.45 143.208 200.603 142.051 198.836C141.865 198.539 141.779 198.19 141.805 197.841L142.292 191.153L138.475 192.578Z" fill="#FF6D6D"/>
<path d="M137.452 202.953C138.328 203.056 139.692 203.105 139.11 204.09C138.527 205.076 137.851 206.381 141.401 206.65C144.951 206.92 145.578 205.745 145.133 204.364C144.358 202.669 143.46 201.034 142.444 199.472C141.356 199.724 139.863 200.217 139.311 201.099C138.828 201.871 138.161 201.19 137.643 200.379C137.273 201.578 136.975 202.9 137.452 202.953Z" fill="#0C3069"/>
<path d="M135.913 148.953L136.824 193.757H145.937C145.937 193.757 147.76 191.236 147.557 185.557C147.353 179.879 149.582 178.869 149.784 173.998C149.987 169.127 152.113 147.23 152.113 147.23L135.913 148.953Z" fill="#4C0C7A"/>
<path d="M151.648 152.097C151.648 152.097 149.784 155.747 146.949 156.152C144.115 156.556 143.71 159.903 140.976 163.045C138.241 166.188 139.36 169.127 136.37 171.46L135.912 148.951L152.114 147.228L151.648 152.097Z" fill="url(#paint14_linear_27_1104)"/>
<path d="M152.823 145.86L159.675 145.274C159.98 145.248 160.287 145.285 160.577 145.383C160.868 145.48 161.135 145.637 161.362 145.843C162.421 146.823 163.227 148.047 163.709 149.409C164.822 152.451 164.873 154.125 166.038 154.276C167.203 154.427 165.431 139.574 165.431 139.574L151.508 138.458L152.823 145.86Z" fill="#FF6D6D"/>
<path d="M162.814 139.365L163.556 145.176L161.958 146.447C162.722 147.315 163.315 148.32 163.705 149.409C164.819 152.451 164.869 154.125 166.035 154.276C167.2 154.427 165.427 139.574 165.427 139.574L162.814 139.365Z" fill="#0C3069"/>
<path d="M142.16 86.9338C130.016 88.683 124.12 92.4077 122.879 93.2782C122.711 93.3965 122.625 93.4634 122.625 93.4634V93.4696C113.419 100.253 106.945 122 107.511 124.921C108.524 130.143 114.65 128.774 116.067 126.543C117.179 124.794 123.213 116.118 125.762 112.46C126.757 120.188 127.483 127.071 127.483 127.071H157.783L159.454 93.6105C154.214 87.153 142.16 86.9338 142.16 86.9338Z" fill="url(#paint15_linear_27_1104)"/>
<path d="M125.762 112.46L123.693 98.1604" stroke="#D92727" stroke-width="0.889" stroke-miterlimit="10"/>
<path d="M121.224 102.398C121.224 102.398 121.24 107.499 125.429 110.148" stroke="#D92727" stroke-width="0.889" stroke-miterlimit="10"/>
<path d="M116.052 106.715L116.901 89.1336C117.376 88.4959 117.72 87.7708 117.916 86.9996C118.202 85.7834 120.382 84.7473 120.073 83.9705C119.765 83.1936 118.196 85.0601 117.748 84.8852C117.3 84.7103 117.393 84.3707 117.234 82.0433C117.076 79.7159 117.265 77.4769 116.808 77.4923C116.351 77.5078 116.055 82.8613 116.055 82.8613C116.055 82.8613 115.637 76.5602 114.871 76.6754C114.106 76.7906 114.586 82.5886 114.586 82.5886C114.586 82.5886 113.43 77.4049 112.858 77.4152C112.287 77.4255 113.167 82.9117 113.167 82.9117C113.167 82.9117 111.166 79.4648 110.816 79.6377C110.465 79.8105 112.629 83.7986 112.629 83.7986C112.629 83.7986 111.97 87.2311 113.483 88.9432L109.775 106.41L116.052 106.715Z" fill="#FF6D6D"/>
<path d="M125.748 112.483L124.03 100.484C124.03 100.484 121.116 102.657 121.225 107.731C121.334 112.806 117.385 112.053 117.157 115.165C116.929 118.278 114.145 120.562 114.145 120.562L115.699 127.001C115.838 126.862 115.961 126.709 116.068 126.544C117.178 124.797 123.191 116.153 125.748 112.483Z" fill="url(#paint16_linear_27_1104)"/>
<path d="M139.332 127.077H157.785L159.121 100.377L151.751 98.6357C148.485 101.145 147.573 104.149 147.65 106.241C147.727 108.332 144.233 110.195 143.814 113.161C143.483 115.501 140.552 123.717 139.332 127.077Z" fill="url(#paint17_linear_27_1104)"/>
<path d="M147.152 121.26L134.091 124.908C134.091 124.908 128.89 124.908 128.244 127.076H148.254L147.152 121.26Z" fill="#F04F4F"/>
<path d="M103.822 149.103C101.94 142.004 107.478 135.467 124.729 135.467C145.659 135.467 153.937 136.684 153.937 136.684V147.838C153.937 147.838 106.55 159.401 103.822 149.103Z" fill="#4C0C7A"/>
<path d="M141.591 81.0042L143.526 87.2209C143.629 87.551 143.635 87.904 143.543 88.2374C143.451 88.5709 143.265 88.8707 143.007 89.1008C141.352 90.5732 137.808 93.5354 136.918 92.7267C135.746 91.6618 135.627 84.627 135.627 84.627L141.591 81.0042Z" fill="#FF6D6D"/>
<path d="M142.16 82.8315L141.591 81.0042L135.631 84.627C135.669 86.443 135.809 88.2555 136.052 90.0556C139.211 88.6871 141.259 84.8698 142.16 82.8315Z" fill="url(#paint18_linear_27_1104)"/>
<path d="M131.839 79.226C131.839 79.226 132.538 85.7854 134.022 86.4861C135.507 87.1868 140.747 83.4775 141.839 81.2859C141.839 81.2859 144.67 79.5368 143.254 77.2165L136.86 71.7478L131.227 73.6287L131.839 79.226Z" fill="#FF6D6D"/>
<path d="M135.003 74.0218C135.194 73.8644 135.42 73.7537 135.661 73.6987C135.903 73.6436 136.154 73.6457 136.395 73.7047C136.635 73.7637 136.859 73.878 137.048 74.0386C137.237 74.1992 137.386 74.4017 137.483 74.6299C138.293 76.4048 138.496 78.1283 141.432 78.0778C141.479 77.891 141.567 77.7169 141.69 77.5682C141.812 77.4194 141.966 77.2996 142.14 77.2173C142.315 77.135 142.505 77.0923 142.697 77.0922C142.89 77.0921 143.08 77.1346 143.254 77.2166C143.538 75.8441 143.741 74.4561 143.862 73.0598C144.014 71.0318 140.52 65.5569 134.597 70.9299C134.597 70.9299 131.309 69.7127 129.939 72.8571C129.139 74.9826 129.031 77.3071 129.631 79.4978C129.631 79.4978 131.149 80.5627 134.036 79.4978C134.041 79.4978 131.713 73.0083 135.003 74.0218Z" fill="#0C3069"/>
<path d="M117.153 104.606L116.324 126.141H107.885C107.885 126.141 105.078 125.096 105.458 118.175C105.87 113.378 106.97 108.665 108.724 104.182L117.153 104.606Z" fill="url(#paint19_linear_27_1104)"/>
<path d="M159.456 93.6156C162.19 97.0553 166.888 109.419 168.165 121.237C168.242 121.964 168.166 122.699 167.941 123.394C167.717 124.09 167.348 124.73 166.86 125.273C166.372 125.817 165.775 126.251 165.109 126.549C164.442 126.846 163.72 126.999 162.99 126.999H146.089C146.089 126.999 144.722 122.893 145.406 120.079L152.468 118.71C152.468 118.71 151.936 117.037 153.455 116.885C153.455 116.885 152.696 113.15 150.797 106.271C148.898 99.393 156.493 89.8899 159.456 93.6156Z" fill="url(#paint20_linear_27_1104)"/>
<path d="M152.848 96.6313C152.848 96.6313 149.277 100.124 151.196 107.731" stroke="#D92727" stroke-width="0.889" stroke-miterlimit="10"/>
<path d="M185.89 126.145H154.501L158.374 104.61H189.762L185.89 126.145Z" fill="url(#paint21_linear_27_1104)"/>
<path d="M174.522 117.991C176.249 116.409 176.579 113.956 175.26 112.511C173.94 111.066 171.47 111.177 169.743 112.759C168.016 114.341 167.686 116.794 169.006 118.239C170.325 119.684 172.795 119.573 174.522 117.991Z" fill="#0C3069"/>
<path d="M217.363 118.123C217.363 118.123 218.892 116.411 221.678 117.955" stroke="#0C3069" stroke-width="0.72" stroke-miterlimit="10"/>
<path d="M234.414 202.934C234.516 204.122 231.639 205.346 227.989 205.666C224.338 205.986 221.291 205.282 221.187 204.093C221.083 202.905 223.961 201.682 227.612 201.362C231.262 201.042 234.31 201.744 234.414 202.934Z" fill="#E2D0EF"/>
<path d="M264.266 202.934C264.369 204.122 261.492 205.345 257.841 205.665C254.191 205.985 251.144 205.282 251.04 204.093C250.937 202.905 253.815 201.681 257.465 201.361C261.116 201.041 264.163 201.744 264.266 202.934Z" fill="#E2D0EF"/>
<path d="M232.269 178.439L230.002 198.564L225.955 201.381C225.955 201.381 221.789 201.999 221.806 202.831C221.822 203.663 230.613 202.659 232.739 202.617C234.865 202.575 233.09 201.087 233.285 199.411C233.48 197.735 238.343 178.318 238.343 178.318L232.269 178.439Z" fill="#FF6D6D"/>
<path d="M256.888 178.439L259.853 198.564L255.806 201.381C255.806 201.381 251.641 201.999 251.657 202.831C251.674 203.663 260.465 202.659 262.591 202.617C264.717 202.575 262.941 201.087 263.135 199.411C263.33 197.735 262.963 178.318 262.963 178.318L256.888 178.439Z" fill="#FF6D6D"/>
<path d="M259.485 101.399C259.485 101.399 263.889 107.908 263.712 125.844L264.648 179.971H254.511L246.83 128.525L242.271 156.574C242.271 156.574 244.479 163.23 239.528 179.967H230.526L232.201 152.495C231.738 135.307 233.489 118.131 237.411 101.391L259.485 101.399Z" fill="#456B4B"/>
<path d="M246.83 128.529C246.83 128.529 244.196 113.363 244.904 100.688" stroke="#38573D" stroke-width="0.72" stroke-miterlimit="10"/>
<path d="M242.221 100.688C242.221 100.688 241.501 113.896 245.125 114.065" stroke="#38573D" stroke-width="0.72" stroke-miterlimit="10"/>
<path opacity="0.5" d="M259.485 101.398H237.411C237 103.109 236.623 104.805 236.281 106.485C238.239 106.988 240.284 107.058 242.272 106.691C247.101 105.939 257.075 112.99 262.917 112.915C261.687 104.662 259.485 101.398 259.485 101.398Z" fill="url(#paint22_linear_27_1104)"/>
<path d="M236.551 69.187L223.246 78.6799L217.767 71.7532L218.324 71.3859L216.349 66.6199L213.65 68.3135C213.355 68.4959 213.125 68.7673 212.993 69.0887C212.861 69.4101 212.834 69.7651 212.915 70.1028C213.237 71.4033 213.995 73.3141 215.69 73.4139C215.69 73.4139 217.411 84.6291 222.068 86.0696C226.726 87.5101 241.459 74.7834 241.459 74.7834L236.551 69.187Z" fill="#FF6D6D"/>
<path d="M236.551 69.187L227.638 75.5468C230.607 75.6209 235.512 76.1641 236.35 78.8877C239.288 76.658 241.461 74.7823 241.461 74.7823L236.551 69.187Z" fill="url(#paint23_linear_27_1104)"/>
<path d="M243.197 63.6082L236.258 68.5614C236.148 68.6397 236.056 68.7405 235.988 68.8571C235.92 68.9738 235.877 69.1036 235.863 69.238C235.849 69.3724 235.864 69.5082 235.906 69.6366C235.948 69.7649 236.017 69.8828 236.108 69.9823L241.562 75.9501L243.197 63.6082Z" fill="#7817BE"/>
<path d="M245.511 63.0721C242.727 64.6432 237.817 72.4507 237.817 72.4507C237.63 69.9531 238.047 67.4472 239.032 65.1453C239.032 65.1453 235.589 65.0949 235.184 64.2841C233.858 61.6264 238.019 55.6659 238.019 55.6659C232.4 54.3468 230.375 50.9503 234.07 48.7196C237.766 46.4889 241.969 44.5113 241.969 44.5113C241.969 44.5113 244.178 41.0623 248.545 44.0051C251.33 45.8808 251.021 49.3781 251.986 50.6457C252.95 51.9134 255.735 53.5864 254.722 54.2964C254.722 54.2964 259.279 55.8686 260.241 60.0758C260.241 60.0758 255.634 59.2177 253.048 60.8383L245.511 63.0721Z" fill="#FFA526"/>
<path d="M253.055 60.8424C255.991 58.407 260.447 58.052 262.471 60.2323C264.495 62.4126 264.647 69.8147 264.647 69.8147H261.813C261.813 69.8147 258.471 80.4126 258.37 84.9728C258.268 89.533 262.116 101.906 262.116 101.906C262.647 103.731 260.293 103.883 256.42 103.883H237.741C233.939 103.883 235.686 100.694 236.45 97.4197C237.215 94.1456 239.841 84.1116 239.892 81.9858C239.944 79.8601 236.07 76.6128 237.817 72.4549C239.563 68.297 242.576 62.7212 245.512 63.0762L253.055 60.8424Z" fill="#7817BE"/>
<path d="M253.383 66.6199L252.7 70.7263C253.481 71.4251 254.501 71.7939 255.548 71.7552" stroke="#0C3069" stroke-width="0.72" stroke-miterlimit="10"/>
<path d="M250.498 68.2546C250.42 69.5708 250.843 70.8677 251.682 71.8839C252.521 72.9001 253.713 73.56 255.019 73.7306" stroke="#0C3069" stroke-width="0.72" stroke-miterlimit="10"/>
<path opacity="0.57" d="M258.371 84.9716C258.442 83.5873 258.625 82.211 258.916 80.8559L254.226 71.5472L252.701 70.7241L253.112 68.2546C250.789 69.1292 251.904 72.1337 252.321 74.0722C252.738 76.0107 252.013 76.9614 249.136 76.8091C246.259 76.6568 246.326 76.9614 247.996 79.6994C249.666 82.4373 250.689 86.0684 250.019 91.4867C249.299 95.6934 248.254 99.8377 246.893 103.882H256.425C260.297 103.882 262.651 103.73 262.12 101.906C262.117 101.906 258.269 89.5349 258.371 84.9716Z" fill="url(#paint24_linear_27_1104)"/>
<path d="M223.246 78.6797C223.579 78.8855 223.86 79.1647 224.069 79.496C224.278 79.8273 224.408 80.202 224.45 80.5914" stroke="#D92727" stroke-width="0.528" stroke-miterlimit="10"/>
<path d="M219.217 73.5857C218.252 73.562 216.742 73.5106 215.692 73.4128C215.911 74.7168 216.197 76.0084 216.55 77.2826C218.388 76.4595 221.109 77.2528 222.541 77.7878L219.217 73.5857Z" fill="url(#paint25_linear_27_1104)"/>
<path opacity="0.5" d="M231.847 158.298L230.527 179.973H239.527C244.478 163.235 242.27 156.58 242.27 156.58L246.829 128.531L245.917 122.129C243.897 130.239 236.401 147.903 231.847 158.298Z" fill="url(#paint26_linear_27_1104)"/>
<path d="M221.806 202.831C221.822 203.667 230.613 202.659 232.739 202.617C234.511 202.582 233.576 201.542 233.327 200.227C229.639 202.121 231.272 198.58 230.002 198.563L225.955 201.38C225.955 201.38 221.789 201.998 221.806 202.831Z" fill="#0C3069"/>
<path d="M251.653 202.831C251.669 203.667 260.46 202.659 262.586 202.617C264.358 202.582 263.423 201.542 263.174 200.227C259.486 202.121 261.119 198.58 259.849 198.563L255.803 201.38C255.803 201.38 251.641 201.998 251.653 202.831Z" fill="#0C3069"/>
<path d="M222.541 66.6198C222.541 66.6198 217.801 64.5671 219.608 58.7876C221.414 53.0081 228.324 54.1482 227.945 48.8255C227.56 43.4309 222.13 44.7953 219.608 43.2694C217.085 41.7435 219.465 37.4137 215.693 35.5895C211.921 33.7652 208.2 36.5021 203.036 37.4148C197.873 38.3274 193.391 39.1639 193.545 37.4148C193.698 35.6656 196.203 35.4382 195.367 33.3083C194.532 31.1785 190.279 31.1795 189.671 31.7876C189.671 31.7876 194.304 31.7876 194.455 33.3845C194.606 34.9814 191.023 35.7417 191.182 38.632C191.342 41.5222 197.644 40.9131 203.796 40.5334C209.947 40.1538 209.392 42.5913 208.911 45.6287C208.429 48.6661 209.415 50.7239 213.441 51.2559C217.466 51.7878 219.333 52.2848 217.086 56.7308C215.149 60.5604 216.688 64.1071 220.317 66.6167L222.541 66.6198Z" fill="url(#paint27_linear_27_1104)"/>
<path d="M239.892 54.3509C239.892 54.3509 240.296 55.0609 241.157 56.9881C242.018 58.9153 243.031 59.7765 245.107 59.5738L245.512 63.0721C245.512 63.0721 241.513 66.3246 243.689 67.335C245.865 68.3454 249.005 63.7862 253.056 60.8435C253.056 60.8435 249.836 59.333 248.905 56.5323C247.284 51.6655 244.804 52.9835 243.588 47.8625C243.587 47.8615 242.116 52.931 239.892 54.3509Z" fill="#FF6D6D"/>
<path d="M248.9 56.5312C248.834 56.3254 248.764 56.1423 248.695 55.9612C247.931 57.6188 246.299 59.4122 245.099 59.5727L245.263 60.9937L251.981 60.2168C250.587 59.3495 249.507 58.0578 248.9 56.5312Z" fill="url(#paint28_linear_27_1104)"/>
<path d="M263.711 69.8145C262.224 69.1264 260.587 68.8282 258.953 68.9479C257.319 69.0676 255.742 69.6012 254.371 70.4987L246.929 124.339C246.929 124.339 245.865 125.593 246.548 126.145C247.232 126.696 248.826 126.468 250.649 126.468H255.661C255.661 126.468 252.396 124.264 251.56 123.845C250.983 123.435 250.577 122.825 250.421 122.133C250.421 122.133 257.408 105.251 256.725 95.8956C259.702 87.3893 262.038 78.6711 263.711 69.8145Z" fill="#FF6D6D"/>
<path d="M215.15 66.2832C215.342 68.4954 216.05 70.6314 217.219 72.5185C217.329 72.6875 217.48 72.8262 217.658 72.922C217.835 73.0177 218.034 73.0676 218.236 73.0669H222.403C222.605 73.0676 222.804 73.0177 222.982 72.922C223.159 72.8262 223.31 72.6875 223.421 72.5185C224.588 70.6304 225.294 68.4936 225.484 66.2812C225.492 66.1986 225.482 66.1153 225.456 66.0366C225.43 65.9579 225.387 65.8856 225.331 65.8243C225.276 65.763 225.208 65.7141 225.132 65.6808C225.056 65.6475 224.974 65.6305 224.891 65.6309H215.746C215.663 65.63 215.58 65.6468 215.504 65.68C215.428 65.7133 215.359 65.7623 215.303 65.8238C215.247 65.8854 215.204 65.9581 215.178 66.0372C215.151 66.1164 215.142 66.2002 215.15 66.2832Z" fill="#967C45"/>
<path d="M299.358 202.486C308.557 202.486 316.015 201.683 316.015 200.693C316.015 199.702 308.557 198.899 299.358 198.899C290.159 198.899 282.702 199.702 282.702 200.693C282.702 201.683 290.159 202.486 299.358 202.486Z" fill="#E2D0EF"/>
<path d="M312.551 135.117H286.166V200.692H312.551V135.117Z" fill="#786337"/>
<path d="M312.551 156.659H286.166" stroke="#4F4124" stroke-width="0.835" stroke-miterlimit="10"/>
<path d="M312.551 178.806H286.166" stroke="#4F4124" stroke-width="0.835" stroke-miterlimit="10"/>
<path d="M312.551 158.536H286.166" stroke="#4F4124" stroke-width="0.835" stroke-miterlimit="10"/>
<path d="M312.551 136.995H286.166" stroke="#4F4124" stroke-width="0.835" stroke-miterlimit="10"/>
<path d="M312.551 180.683H286.166" stroke="#4F4124" stroke-width="0.835" stroke-miterlimit="10"/>
<path d="M301.086 140.812C301.096 141.157 301.003 141.496 300.819 141.787C300.635 142.079 300.369 142.308 300.054 142.447C299.74 142.586 299.391 142.627 299.052 142.566C298.714 142.505 298.401 142.345 298.154 142.105C297.907 141.865 297.738 141.557 297.667 141.22C297.596 140.882 297.627 140.532 297.756 140.213C297.886 139.894 298.107 139.62 298.392 139.428C298.677 139.235 299.013 139.132 299.357 139.132C299.809 139.126 300.245 139.299 300.569 139.614C300.893 139.929 301.079 140.36 301.086 140.812Z" fill="white"/>
<path d="M301.086 162.762C301.096 163.107 301.003 163.446 300.819 163.737C300.635 164.028 300.369 164.258 300.054 164.397C299.74 164.536 299.391 164.577 299.052 164.516C298.714 164.455 298.401 164.294 298.154 164.055C297.907 163.815 297.738 163.507 297.667 163.169C297.596 162.832 297.627 162.482 297.756 162.163C297.886 161.844 298.107 161.57 298.392 161.378C298.677 161.185 299.013 161.082 299.357 161.082C299.809 161.076 300.245 161.249 300.569 161.564C300.893 161.879 301.079 162.31 301.086 162.762Z" fill="white"/>
<path d="M301.086 184.714C301.096 185.058 301.003 185.397 300.819 185.688C300.635 185.98 300.369 186.209 300.054 186.348C299.74 186.487 299.391 186.528 299.052 186.467C298.714 186.406 298.401 186.246 298.154 186.006C297.907 185.766 297.738 185.458 297.667 185.121C297.596 184.784 297.627 184.433 297.756 184.114C297.886 183.795 298.107 183.521 298.392 183.329C298.677 183.136 299.013 183.034 299.357 183.033C299.809 183.027 300.245 183.2 300.569 183.515C300.893 183.83 301.079 184.261 301.086 184.714Z" fill="white"/>
<path opacity="0.4" d="M286.166 145.781V200.693H293.698L286.166 145.781Z" fill="url(#paint29_linear_27_1104)"/>
<path d="M294.174 123.669C292.747 122.256 291.704 120.502 291.144 118.573C290.585 116.643 290.527 114.603 290.977 112.645C290.977 112.645 283.915 105.724 288.623 101.541C288.623 101.541 285.889 84.2792 291.508 83.2143C297.128 82.1493 297.735 97.8158 297.735 97.8158C297.735 97.8158 300.92 97.2169 298.874 107.669C298.874 107.669 303.279 108.08 300.313 123.748L294.174 123.669Z" fill="url(#paint30_linear_27_1104)"/>
<path d="M291.509 83.2144C291.509 83.2144 292.974 106.31 297.331 123.709" stroke="#3F0A65" stroke-width="1.092" stroke-miterlimit="10"/>
<path d="M297.66 123.71H304.874C304.874 123.71 312.923 110.973 310.646 106.258C310.646 106.258 315.278 95.6869 312.24 94.2423C309.202 92.7977 305.405 101.548 305.405 101.548C305.405 101.548 298.413 101.314 297.66 123.71Z" fill="url(#paint31_linear_27_1104)"/>
<path d="M312.24 94.2424C312.24 94.2424 304.115 108.977 301.342 123.71" stroke="#450D6E" stroke-width="1.092" stroke-miterlimit="10"/>
<path d="M299.359 121.906C295.494 121.906 292.407 122.371 292.461 122.935L293.659 135.116H305.057L306.255 122.935C306.312 122.371 303.224 121.906 299.359 121.906Z" fill="#3E0C63"/>
<path d="M275.947 209.663C278.17 209.663 279.972 209.05 279.972 208.294C279.972 207.539 278.17 206.926 275.947 206.926C273.724 206.926 271.922 207.539 271.922 208.294C271.922 209.05 273.724 209.663 275.947 209.663Z" fill="#E2D0EF"/>
<path d="M107.477 209.663C109.7 209.663 111.502 209.05 111.502 208.294C111.502 207.539 109.7 206.926 107.477 206.926C105.255 206.926 103.453 207.539 103.453 208.294C103.453 209.05 105.255 209.663 107.477 209.663Z" fill="#E2D0EF"/>
<path d="M269.022 130.195H114.144V142.971H269.022V130.195Z" fill="#967C45"/>
<path d="M110.436 130.195L106.157 207.996H109.009L119.618 130.195H110.436Z" fill="#786337"/>
<path d="M272.729 130.195L277.008 207.996H274.156L263.547 130.195H272.729Z" fill="#786337"/>
<path opacity="0.4" d="M110.272 133.184L273.305 140.685L272.728 130.19H110.437L110.272 133.184Z" fill="url(#paint32_linear_27_1104)"/>
<path d="M279.694 125.845H103.472V131.412H279.694V125.845Z" fill="#967C45"/>
<path opacity="0.4" d="M277.009 59.6796C284.513 59.6796 290.596 53.5877 290.596 46.0731C290.596 38.5584 284.513 32.4666 277.009 32.4666C269.505 32.4666 263.421 38.5584 263.421 46.0731C263.421 53.5877 269.505 59.6796 277.009 59.6796Z" fill="url(#paint33_linear_27_1104)"/>
<path d="M289.523 47.9552C291.02 40.5916 286.272 33.407 278.919 31.9081C271.565 30.4091 264.391 35.1634 262.894 42.527C261.397 49.8907 266.145 57.0752 273.498 58.5742C280.851 60.0732 288.026 55.3189 289.523 47.9552Z" fill="#7817BE"/>
<path d="M286.093 47.5604C287.372 42.0934 283.983 36.6235 278.523 35.3432C273.064 34.0628 267.601 37.4568 266.323 42.9238C265.044 48.3908 268.434 53.8607 273.893 55.1411C279.352 56.4214 284.815 53.0275 286.093 47.5604Z" fill="white"/>
<path d="M276.208 36.9353V45.675L281.905 41.2599" stroke="#7817BE" stroke-width="0.759" stroke-miterlimit="10"/>
</g>
<defs>
<linearGradient id="paint0_linear_27_1104" x1="172.323" y1="102.394" x2="148.567" y2="218.759" gradientUnits="userSpaceOnUse">
<stop stop-color="#CFA8EB"/>
<stop offset="0.053" stop-color="#D1A2F2"/>
<stop offset="1" stop-color="#A1C1ED" stop-opacity="0"/>
</linearGradient>
<linearGradient id="paint1_linear_27_1104" x1="282.728" y1="39.0106" x2="304.072" y2="154.343" gradientUnits="userSpaceOnUse">
<stop stop-color="#D2A7F1"/>
<stop offset="0.053" stop-color="#CBA2E9"/>
<stop offset="1" stop-color="#D5ACF2"/>
</linearGradient>
<linearGradient id="paint2_linear_27_1104" x1="-13.7802" y1="97.5115" x2="8.14554" y2="97.5115" gradientUnits="userSpaceOnUse">
<stop offset="0.043" stop-color="#FFA526"/>
<stop offset="1" stop-color="#FF6026"/>
</linearGradient>
<linearGradient id="paint3_linear_27_1104" x1="-32.0335" y1="89.753" x2="-18.7163" y2="89.753" gradientUnits="userSpaceOnUse">
<stop offset="0.043" stop-color="#FFA526"/>
<stop offset="1" stop-color="#FF6026"/>
</linearGradient>
<linearGradient id="paint4_linear_27_1104" x1="-20.2099" y1="117.448" x2="1.6868" y2="117.448" gradientUnits="userSpaceOnUse">
<stop offset="0.043" stop-color="#FFA526"/>
<stop offset="1" stop-color="#FF6026"/>
</linearGradient>
<linearGradient id="paint5_linear_27_1104" x1="-40.0394" y1="104.565" x2="-27.4046" y2="104.565" gradientUnits="userSpaceOnUse">
<stop offset="0.043" stop-color="#FFA526"/>
<stop offset="1" stop-color="#FF6026"/>
</linearGradient>
<linearGradient id="paint6_linear_27_1104" x1="-17.0155" y1="75.8922" x2="2.43126" y2="75.8922" gradientUnits="userSpaceOnUse">
<stop offset="0.043" stop-color="#FFA526"/>
<stop offset="1" stop-color="#FF6026"/>
</linearGradient>
<linearGradient id="paint7_linear_27_1104" x1="305.485" y1="188.617" x2="305.485" y2="94.7856" gradientUnits="userSpaceOnUse">
<stop stop-color="#B6A4C2"/>
<stop offset="1" stop-color="#99D597"/>
</linearGradient>
<linearGradient id="paint8_linear_27_1104" x1="78.6597" y1="190.419" x2="78.6597" y2="124.164" gradientUnits="userSpaceOnUse">
<stop stop-color="#D6C8DF"/>
<stop offset="1" stop-color="#97C995"/>
</linearGradient>
<linearGradient id="paint9_linear_27_1104" x1="188.519" y1="87.1654" x2="195.3" y2="87.1654" gradientUnits="userSpaceOnUse">
<stop stop-color="#F04F4F"/>
<stop offset="0.147" stop-color="#F04F4F" stop-opacity="0.984"/>
<stop offset="0.278" stop-color="#F04F4F" stop-opacity="0.941"/>
<stop offset="0.404" stop-color="#F04F4F" stop-opacity="0.863"/>
<stop offset="0.526" stop-color="#F04F4F" stop-opacity="0.757"/>
<stop offset="0.645" stop-color="#F04F4F" stop-opacity="0.62"/>
<stop offset="0.763" stop-color="#F04F4F" stop-opacity="0.447"/>
<stop offset="0.879" stop-color="#F04F4F" stop-opacity="0.247"/>
<stop offset="0.991" stop-color="#F04F4F" stop-opacity="0.02"/>
<stop offset="1" stop-color="#F04F4F" stop-opacity="0"/>
</linearGradient>
<linearGradient id="paint10_linear_27_1104" x1="71.3948" y1="93.9565" x2="71.3948" y2="120.693" gradientUnits="userSpaceOnUse">
<stop stop-color="#420C6A"/>
<stop offset="0.027" stop-color="#430C6B"/>
<stop offset="1" stop-color="#0C3069" stop-opacity="0"/>
</linearGradient>
<linearGradient id="paint11_linear_27_1104" x1="85.2765" y1="74.6052" x2="102.45" y2="77.8883" gradientUnits="userSpaceOnUse">
<stop stop-color="#460D70"/>
<stop offset="1" stop-color="#0C3069" stop-opacity="0"/>
</linearGradient>
<linearGradient id="paint12_linear_27_1104" x1="56.637" y1="74.1069" x2="38.4882" y2="79.5651" gradientUnits="userSpaceOnUse">
<stop stop-color="#44096E"/>
<stop offset="1" stop-color="#0C3069" stop-opacity="0"/>
</linearGradient>
<linearGradient id="paint13_linear_27_1104" x1="68.8906" y1="55.4724" x2="75.7771" y2="55.4724" gradientUnits="userSpaceOnUse">
<stop stop-color="#F04F4F"/>
<stop offset="0.147" stop-color="#F04F4F" stop-opacity="0.984"/>
<stop offset="0.278" stop-color="#F04F4F" stop-opacity="0.941"/>
<stop offset="0.404" stop-color="#F04F4F" stop-opacity="0.863"/>
<stop offset="0.526" stop-color="#F04F4F" stop-opacity="0.757"/>
<stop offset="0.645" stop-color="#F04F4F" stop-opacity="0.62"/>
<stop offset="0.763" stop-color="#F04F4F" stop-opacity="0.447"/>
<stop offset="0.879" stop-color="#F04F4F" stop-opacity="0.247"/>
<stop offset="0.991" stop-color="#F04F4F" stop-opacity="0.02"/>
<stop offset="1" stop-color="#F04F4F" stop-opacity="0"/>
</linearGradient>
<linearGradient id="paint14_linear_27_1104" x1="143.964" y1="148.876" x2="136.058" y2="181.627" gradientUnits="userSpaceOnUse">
<stop stop-color="#3F0B64"/>
<stop offset="1" stop-color="#0C3069" stop-opacity="0"/>
</linearGradient>
<linearGradient id="paint15_linear_27_1104" x1="107.477" y1="107.731" x2="159.454" y2="107.731" gradientUnits="userSpaceOnUse">
<stop stop-color="#F9BF30"/>
<stop offset="0.043" stop-color="#FFA526"/>
<stop offset="1" stop-color="#FF6026"/>
</linearGradient>
<linearGradient id="paint16_linear_27_1104" x1="126.084" y1="120.107" x2="113.622" y2="117.665" gradientUnits="userSpaceOnUse">
<stop stop-color="#80371D"/>
<stop offset="1" stop-color="#80371D" stop-opacity="0"/>
</linearGradient>
<linearGradient id="paint17_linear_27_1104" x1="151.086" y1="122.185" x2="142.142" y2="102.504" gradientUnits="userSpaceOnUse">
<stop stop-color="#80371D"/>
<stop offset="1" stop-color="#80371D" stop-opacity="0"/>
</linearGradient>
<linearGradient id="paint18_linear_27_1104" x1="139.333" y1="80.2891" x2="137.123" y2="89.3522" gradientUnits="userSpaceOnUse">
<stop stop-color="#F04F4F"/>
<stop offset="0.147" stop-color="#F04F4F" stop-opacity="0.984"/>
<stop offset="0.278" stop-color="#F04F4F" stop-opacity="0.941"/>
<stop offset="0.404" stop-color="#F04F4F" stop-opacity="0.863"/>
<stop offset="0.526" stop-color="#F04F4F" stop-opacity="0.757"/>
<stop offset="0.645" stop-color="#F04F4F" stop-opacity="0.62"/>
<stop offset="0.763" stop-color="#F04F4F" stop-opacity="0.447"/>
<stop offset="0.879" stop-color="#F04F4F" stop-opacity="0.247"/>
<stop offset="0.991" stop-color="#F04F4F" stop-opacity="0.02"/>
<stop offset="1" stop-color="#F04F4F" stop-opacity="0"/>
</linearGradient>
<linearGradient id="paint19_linear_27_1104" x1="105.423" y1="115.161" x2="117.153" y2="115.161" gradientUnits="userSpaceOnUse">
<stop offset="0.043" stop-color="#FFA526"/>
<stop offset="1" stop-color="#FF6026"/>
</linearGradient>
<linearGradient id="paint20_linear_27_1104" x1="174.284" y1="109.786" x2="148.362" y2="109.878" gradientUnits="userSpaceOnUse">
<stop offset="0.043" stop-color="#FFA526"/>
<stop offset="1" stop-color="#FF6026"/>
</linearGradient>
<linearGradient id="paint21_linear_27_1104" x1="172.132" y1="133.23" x2="172.132" y2="107.905" gradientUnits="userSpaceOnUse">
<stop offset="0.044" stop-color="#87B2ED"/>
<stop offset="1" stop-color="white"/>
</linearGradient>
<linearGradient id="paint22_linear_27_1104" x1="249.599" y1="100.684" x2="249.599" y2="115.496" gradientUnits="userSpaceOnUse">
<stop offset="0.033"/>
<stop offset="1" stop-opacity="0"/>
</linearGradient>
<linearGradient id="paint23_linear_27_1104" x1="227.638" y1="74.0374" x2="241.461" y2="74.0374" gradientUnits="userSpaceOnUse">
<stop stop-color="#F04F4F"/>
<stop offset="0.147" stop-color="#F04F4F" stop-opacity="0.984"/>
<stop offset="0.278" stop-color="#F04F4F" stop-opacity="0.941"/>
<stop offset="0.404" stop-color="#F04F4F" stop-opacity="0.863"/>
<stop offset="0.526" stop-color="#F04F4F" stop-opacity="0.757"/>
<stop offset="0.645" stop-color="#F04F4F" stop-opacity="0.62"/>
<stop offset="0.763" stop-color="#F04F4F" stop-opacity="0.447"/>
<stop offset="0.879" stop-color="#F04F4F" stop-opacity="0.247"/>
<stop offset="0.991" stop-color="#F04F4F" stop-opacity="0.02"/>
<stop offset="1" stop-color="#F04F4F" stop-opacity="0"/>
</linearGradient>
<linearGradient id="paint24_linear_27_1104" x1="257.971" y1="61.521" x2="233.27" y2="99.1372" gradientUnits="userSpaceOnUse">
<stop stop-color="#0C3069"/>
<stop offset="1" stop-color="#0C3069" stop-opacity="0"/>
</linearGradient>
<linearGradient id="paint25_linear_27_1104" x1="215.692" y1="75.6003" x2="222.541" y2="75.6003" gradientUnits="userSpaceOnUse">
<stop stop-color="#F04F4F"/>
<stop offset="0.147" stop-color="#F04F4F" stop-opacity="0.984"/>
<stop offset="0.278" stop-color="#F04F4F" stop-opacity="0.941"/>
<stop offset="0.404" stop-color="#F04F4F" stop-opacity="0.863"/>
<stop offset="0.526" stop-color="#F04F4F" stop-opacity="0.757"/>
<stop offset="0.645" stop-color="#F04F4F" stop-opacity="0.62"/>
<stop offset="0.763" stop-color="#F04F4F" stop-opacity="0.447"/>
<stop offset="0.879" stop-color="#F04F4F" stop-opacity="0.247"/>
<stop offset="0.991" stop-color="#F04F4F" stop-opacity="0.02"/>
<stop offset="1" stop-color="#F04F4F" stop-opacity="0"/>
</linearGradient>
<linearGradient id="paint26_linear_27_1104" x1="259.642" y1="125.658" x2="221.49" y2="130.209" gradientUnits="userSpaceOnUse">
<stop offset="0.033"/>
<stop offset="1" stop-opacity="0"/>
</linearGradient>
<linearGradient id="paint27_linear_27_1104" x1="208.203" y1="62.996" x2="209.108" y2="24.5027" gradientUnits="userSpaceOnUse">
<stop offset="0.049" stop-color="white"/>
<stop offset="1" stop-color="white" stop-opacity="0"/>
</linearGradient>
<linearGradient id="paint28_linear_27_1104" x1="245.099" y1="58.4774" x2="251.981" y2="58.4774" gradientUnits="userSpaceOnUse">
<stop stop-color="#F04F4F"/>
<stop offset="0.147" stop-color="#F04F4F" stop-opacity="0.984"/>
<stop offset="0.278" stop-color="#F04F4F" stop-opacity="0.941"/>
<stop offset="0.404" stop-color="#F04F4F" stop-opacity="0.863"/>
<stop offset="0.526" stop-color="#F04F4F" stop-opacity="0.757"/>
<stop offset="0.645" stop-color="#F04F4F" stop-opacity="0.62"/>
<stop offset="0.763" stop-color="#F04F4F" stop-opacity="0.447"/>
<stop offset="0.879" stop-color="#F04F4F" stop-opacity="0.247"/>
<stop offset="0.991" stop-color="#F04F4F" stop-opacity="0.02"/>
<stop offset="1" stop-color="#F04F4F" stop-opacity="0"/>
</linearGradient>
<linearGradient id="paint29_linear_27_1104" x1="298.572" y1="131.449" x2="269.511" y2="134.094" gradientUnits="userSpaceOnUse">
<stop/>
<stop offset="0.931" stop-opacity="0"/>
</linearGradient>
<linearGradient id="paint30_linear_27_1104" x1="287.005" y1="103.455" x2="301.34" y2="103.455" gradientUnits="userSpaceOnUse">
<stop offset="0.043" stop-color="#FFA526"/>
<stop offset="1" stop-color="#FF6026"/>
</linearGradient>
<linearGradient id="paint31_linear_27_1104" x1="297.66" y1="108.896" x2="313.273" y2="108.896" gradientUnits="userSpaceOnUse">
<stop offset="0.043" stop-color="#FFA526"/>
<stop offset="1" stop-color="#FF6026"/>
</linearGradient>
<linearGradient id="paint32_linear_27_1104" x1="191.789" y1="110.176" x2="191.789" y2="188.448" gradientUnits="userSpaceOnUse">
<stop/>
<stop offset="0.931" stop-opacity="0"/>
</linearGradient>
<linearGradient id="paint33_linear_27_1104" x1="273.639" y1="29.1466" x2="281.568" y2="68.9005" gradientUnits="userSpaceOnUse">
<stop/>
<stop offset="0.931" stop-opacity="0"/>
</linearGradient>
<clipPath id="clip0_27_1104">
<rect width="371" height="215" fill="white"/>
</clipPath>
</defs>
</svg>
