<svg width="14" height="13" viewBox="0 0 14 13" fill="none" xmlns="http://www.w3.org/2000/svg">
<path d="M10.4337 12.7698C9.72861 12.7558 9.03345 12.6006 8.38929 12.3135C7.62411 11.982 6.89877 11.5655 6.22663 11.0718C5.99487 10.8977 5.76384 10.7244 5.54017 10.5413L4.4806 9.59625C4.44253 9.57246 4.40692 9.54472 4.37469 9.51347C4.30628 9.44461 4.23567 9.38295 4.16681 9.31455C3.5324 8.67641 2.94736 7.99115 2.41639 7.26467C1.9291 6.5995 1.51568 5.8832 1.18366 5.12844C0.90498 4.48015 0.754159 3.78406 0.739787 3.07856C0.73771 2.66475 0.81406 2.2543 0.964799 1.86891C1.12623 1.47122 1.37347 1.11401 1.68861 0.822627C1.85556 0.642614 2.0565 0.497718 2.28015 0.396446C2.50424 0.29587 2.74611 0.240809 2.99166 0.234445C3.16769 0.232504 3.34176 0.270994 3.50057 0.346951C3.6706 0.423143 3.81679 0.544337 3.92291 0.697487L5.37581 2.74555C5.47715 2.88067 5.56149 3.02791 5.62631 3.18387C5.68155 3.30457 5.71224 3.43508 5.7164 3.56775C5.713 3.72487 5.66688 3.87814 5.58368 4.01146C5.48667 4.17389 5.36927 4.32303 5.23386 4.45516L4.75791 4.95023C4.72437 4.98295 4.69744 5.0217 4.67836 5.0645C4.66196 5.10835 4.65426 5.15497 4.65551 5.20178C4.65403 5.25007 4.66055 5.29829 4.67485 5.34444C4.69285 5.39709 4.71416 5.43444 4.72451 5.47134C4.8937 5.75642 5.08875 6.02534 5.30725 6.27465C5.59077 6.59866 5.89204 6.93166 6.21741 7.26467C6.26511 7.31283 6.31647 7.36053 6.36507 7.40778L7.58549 8.48153C7.72442 8.58475 7.86999 8.67858 8.02145 8.76235C8.05835 8.7763 8.09425 8.79566 8.13835 8.81366C8.18853 8.8317 8.24151 8.84012 8.2948 8.83843C8.34272 8.84032 8.39024 8.8312 8.43412 8.81185C8.47903 8.79495 8.51971 8.76782 8.55234 8.73263L9.02961 8.26239C9.16193 8.12395 9.31349 8.00524 9.47963 7.90999C9.61341 7.82509 9.76857 7.77988 9.92702 7.77952C10.0592 7.78091 10.19 7.80841 10.3116 7.86049C10.4655 7.92604 10.6117 8.00816 10.748 8.10533L12.828 9.5778C12.9777 9.67686 13.0966 9.81592 13.1712 9.9792C13.2371 10.1334 13.2712 10.2993 13.2719 10.467C13.2724 10.6494 13.2395 10.8303 13.1747 11.0008C13.1602 11.053 13.1396 11.1033 13.1132 11.1506C13.0038 11.3839 12.8607 11.6 12.6887 11.7919C12.4054 12.1117 12.0544 12.3639 11.6607 12.5299C11.6535 12.5299 11.6464 12.5354 11.6392 12.5354C11.2615 12.689 10.8578 12.7679 10.45 12.768L10.4337 12.7698Z" fill="#4D4F60"/>
</svg>
