<svg width="16" height="15" viewBox="0 0 16 15" fill="none" xmlns="http://www.w3.org/2000/svg">
<path d="M11.6139 14.1866H4.38491C1.74386 14.1866 0.229004 12.6715 0.229004 10.0291V4.9697C0.229004 2.32865 1.74386 0.814453 4.38491 0.814453H11.6139C14.2563 0.814453 15.7711 2.3291 15.7711 4.9697V10.0291C15.7734 12.6715 14.2568 14.1866 11.6139 14.1866ZM3.38384 3.9717C3.30249 3.97135 3.22213 3.98937 3.14873 4.02444C3.07533 4.0595 3.01061 4.11057 2.95977 4.17407C2.91465 4.22966 2.88076 4.29372 2.86045 4.36238C2.84014 4.43103 2.83394 4.503 2.84155 4.57419C2.84884 4.64542 2.87017 4.71456 2.90439 4.77744C2.93862 4.84033 2.98477 4.89569 3.04062 4.94048C6.32562 7.60088 6.35465 7.61212 6.4064 7.63147C6.87211 7.95958 7.42932 8.13281 7.99897 8.12651C8.56426 8.13433 9.11733 7.96244 9.57881 7.63586C9.63686 7.61606 9.66868 7.60536 12.9591 4.94136C13.0703 4.8499 13.1411 4.71827 13.156 4.57507C13.1708 4.43188 13.1287 4.28856 13.0386 4.17627C12.9877 4.11289 12.9229 4.06176 12.8497 4.02664C12.7764 3.99151 12.6963 3.97342 12.615 3.97346C12.4902 3.97367 12.3693 4.01655 12.2722 4.09497L9.01103 6.71213C8.71974 6.93352 8.36213 7.04974 7.99634 7.04194C7.63015 7.04962 7.27174 6.93343 6.97988 6.71213L3.72661 4.09497C3.62974 4.01619 3.5087 3.9734 3.38384 3.9739V3.9717Z" fill="#4D4F60"/>
</svg>
