<svg width="40" height="40" viewBox="0 0 40 40" fill="none" xmlns="http://www.w3.org/2000/svg">
<path d="M23.938 37.1628C23.3489 37.1616 22.766 37.0457 22.2212 36.8217C21.8935 36.6861 21.5795 36.5187 21.2847 36.3217C20.9391 36.0911 20.6156 35.8294 20.3179 35.5397C19.9633 35.1942 19.6355 34.8217 19.3384 34.4257C18.983 33.949 18.6583 33.4504 18.3657 32.9328C18.016 32.3098 17.6996 31.6684 17.4185 31.0116C17.1005 30.2796 16.7962 29.4727 16.5112 28.6117C16.445 28.4516 16.4104 28.2799 16.4106 28.1066C16.4105 27.9884 16.4262 27.8708 16.4575 27.7568C16.4873 27.6459 16.5312 27.5392 16.5884 27.4396L24.0884 19.9396C24.6757 19.3521 25.0063 18.5555 25.0063 17.7248C25.0063 16.894 24.6757 16.0972 24.0884 15.5097C23.7982 15.2178 23.453 14.9864 23.0728 14.829C22.6925 14.6716 22.2851 14.5913 21.8735 14.5927C21.462 14.5916 21.0545 14.6721 20.6743 14.8295C20.2941 14.9869 19.949 15.218 19.6587 15.5097L11.9927 23.1757C11.7822 23.3054 11.5398 23.3746 11.2925 23.3756C11.1309 23.3758 10.971 23.3467 10.8198 23.2897H10.814C10.807 23.2908 10.7994 23.2908 10.7925 23.2897C10.1615 23.0657 9.55468 22.8287 8.99268 22.5837C8.33765 22.3015 7.69807 21.9847 7.07666 21.6347C6.55952 21.3432 6.06158 21.0186 5.58643 20.6628C5.19134 20.366 4.82053 20.039 4.47607 19.6847C4.187 19.3871 3.92534 19.0637 3.69482 18.7187C3.49709 18.4239 3.32958 18.11 3.19482 17.7817C2.97046 17.2373 2.8545 16.6544 2.85303 16.0656C2.85487 15.4791 2.97084 14.8986 3.19482 14.3566C3.32973 14.0283 3.49724 13.7144 3.69482 13.4196C3.92496 13.0734 4.18664 12.749 4.47607 12.4506C4.82031 12.0949 5.19112 11.7666 5.58643 11.4687C6.06131 11.1106 6.55927 10.7839 7.07666 10.4906C7.69783 10.1384 8.33743 9.81948 8.99268 9.53556C9.72468 9.21656 10.5282 8.90877 11.3862 8.62077L26.5044 3.58073C27.8227 3.11671 29.2076 2.8678 30.605 2.84367C31.5149 2.83294 32.4195 2.98367 33.2769 3.28874C34.0642 3.57383 34.7802 4.02578 35.3765 4.61369C35.8603 5.09507 36.254 5.65935 36.5386 6.2797C36.8335 6.93755 37.0249 7.6372 37.105 8.35368C37.1923 9.15907 37.1804 9.97204 37.0698 10.7746C36.9431 11.6958 36.7282 12.6027 36.4272 13.4826L31.3882 28.6037C31.1012 29.4637 30.7881 30.2726 30.4741 31.0036C30.1908 31.662 29.8726 32.3049 29.521 32.9296C29.2292 33.4504 28.9029 33.9515 28.5454 34.4296C28.2476 34.826 27.9205 35.1991 27.5659 35.5456C27.2673 35.8356 26.9432 36.0982 26.5972 36.3298C26.3022 36.5272 25.9878 36.6947 25.6597 36.8298C25.1129 37.0519 24.5282 37.1651 23.938 37.1628Z" fill="#DFC1F5"/>
</svg>
