<svg width="40" height="40" viewBox="0 0 40 40" fill="none" xmlns="http://www.w3.org/2000/svg">
<path d="M27.7637 32.3972C27.7047 32.2152 27.7726 32.0641 27.9316 31.7631C28.1236 31.4011 28.315 30.9951 28.499 30.5561C28.536 30.4661 28.5733 30.3712 28.6103 30.2732C28.7033 30.0442 28.7967 29.7992 28.8877 29.5442C29.2186 28.5427 29.4024 27.4984 29.4336 26.4441V26.4301C29.4546 25.9301 29.4586 25.1481 29.4336 24.3071C29.4448 23.9683 29.3761 23.6317 29.2334 23.3242C29.1305 23.0019 28.9186 22.7257 28.6338 22.5432C28.1441 22.2276 27.5933 22.0187 27.0176 21.9301C26.5786 21.8491 26.5804 21.897 26.3564 21.778C26.2941 21.7477 26.2404 21.7024 26.2002 21.646C26.16 21.5895 26.1352 21.5238 26.1269 21.455C26.124 21.3917 26.1369 21.3285 26.165 21.2717C26.1932 21.2148 26.2359 21.1662 26.2881 21.1301C26.4542 21.0452 26.6421 21.0125 26.8271 21.0361C29.1391 21.0181 29.3149 20.9701 31.0859 20.9731C33.0159 20.9731 33.8486 21.0551 33.8486 21.0551C34.446 21.1536 34.9872 21.4672 35.3691 21.937C35.579 22.2206 35.7258 22.5456 35.8008 22.8903C35.8757 23.2351 35.8768 23.5918 35.8037 23.937V23.937V23.9482C35.7658 24.7861 35.6081 25.6142 35.3349 26.4072C34.6759 28.2382 33.4663 29.8201 31.8721 30.936C31.3481 31.3039 30.7883 31.6178 30.2012 31.873L29.4404 32.1731L28.6465 32.394L28.1679 32.488C28.1679 32.488 27.8226 32.576 27.7676 32.394L27.7637 32.3972ZM23.0127 15.6501C22.9227 15.4171 23.0329 15.273 23.1679 15.102C23.3332 14.8915 23.4849 14.6709 23.6221 14.4411C23.8849 14.0015 24.1021 13.5366 24.2715 13.0532C24.611 12.0873 24.7857 11.0709 24.7871 10.0471C24.7774 8.71293 24.4635 7.39856 23.8691 6.20407C23.809 6.1227 23.7697 6.0278 23.7549 5.9277C23.74 5.8276 23.7502 5.7254 23.7842 5.63009C23.8702 5.39609 23.9629 5.35506 24.2129 5.26706C24.6342 5.12229 25.0699 5.02438 25.5127 4.97506C25.5127 4.97506 25.5125 4.97506 25.5195 4.97506C25.5265 4.97506 25.5193 4.97506 25.5263 4.97506C25.7449 4.9511 25.9647 4.93919 26.1846 4.93918C26.9563 4.93681 27.7215 5.08753 28.4346 5.38278C29.1476 5.67803 29.7947 6.1119 30.3388 6.65915C30.8858 7.20353 31.319 7.85092 31.6142 8.56393C31.9095 9.27694 32.0606 10.0415 32.0586 10.8132C32.0607 11.5846 31.9095 12.3488 31.6142 13.0615C31.319 13.7742 30.8859 14.4211 30.3388 14.9651C29.9896 15.3145 29.5983 15.6192 29.1738 15.872C28.2725 16.3987 27.247 16.675 26.2031 16.6721C25.2732 16.6732 24.3555 16.453 23.5273 16.03C23.2653 15.901 23.1027 15.8841 23.0127 15.6501Z" fill="#6B16A8"/>
<path d="M16.6998 37.2851H16.2632C13.8366 37.2883 11.4681 36.5402 9.48394 35.1432C7.49471 33.7524 5.98612 31.779 5.1646 29.495C4.8232 28.5061 4.62622 27.4733 4.57964 26.4281V26.412C4.48718 25.981 4.48707 25.5354 4.57964 25.1044C4.67221 24.6734 4.85448 24.267 5.11578 23.912C5.59372 23.3259 6.26985 22.9348 7.01617 22.8122L8.65191 22.724H24.3218L25.9576 22.8122C26.7042 22.9339 27.3797 23.3251 27.857 23.912C28.1186 24.2669 28.3026 24.6733 28.396 25.1042C28.4895 25.535 28.4901 25.9807 28.399 26.412V26.4262C28.3514 27.4711 28.1548 28.5038 27.815 29.4931C26.9927 31.7772 25.4843 33.7509 23.4957 35.1432C21.5065 36.5425 19.1317 37.2907 16.6998 37.2851ZM16.3873 17.3661C15.4249 17.3687 14.4716 17.1802 13.5826 16.8117C12.6936 16.4431 11.8868 15.9019 11.2085 15.2192C10.5261 14.5408 9.98415 13.7336 9.61578 12.8446C9.24741 11.9556 9.05942 11.0025 9.06207 10.0402C9.05946 9.07747 9.2484 8.12377 9.61675 7.23429C9.98511 6.34481 10.5261 5.53708 11.2085 4.85807C11.8867 4.17531 12.6935 3.63417 13.5826 3.26578C14.4716 2.89739 15.4249 2.70909 16.3873 2.71207C17.3502 2.70917 18.3042 2.89741 19.1939 3.26578C20.0836 3.63415 20.8908 4.17532 21.5699 4.85807C22.2521 5.53726 22.7935 6.34508 23.1617 7.23453C23.5298 8.12398 23.718 9.07756 23.7154 10.0402C23.7181 11.0024 23.5299 11.9554 23.1617 12.8444C22.7935 13.7334 22.2521 14.5406 21.5699 15.2192C20.8906 15.902 20.0828 16.4434 19.1929 16.8119C18.3031 17.1805 17.3494 17.3688 16.3863 17.3661H16.3873Z" fill="#6B16A8"/>
</svg>
